<?xml version="1.0" encoding="utf-8"?>
<!-- Generator: Adobe Illustrator 23.0.1, SVG Export Plug-In . SVG Version: 6.00 Build 0)  -->
<svg version="1.1" id="Layer_1" xmlns="http://www.w3.org/2000/svg" xmlns:xlink="http://www.w3.org/1999/xlink" x="0px" y="0px"
	 viewBox="0 0 300 495" style="enable-background:new 0 0 300 495;" xml:space="preserve">
<style type="text/css">
	.st0{clip-path:url(#SVGID_2_);fill:#FFFFFF;}
	.st1{font-family:'HelveticaNeue-Bold';}
	.st2{font-size:11px;}
	.st3{fill:#0000FF;fill-opacity:0.502;}
	.st4{fill:none;stroke:#0000FF;stroke-width:0.5;stroke-linecap:square;stroke-miterlimit:10;stroke-opacity:0.251;}
	.st5{fill:none;stroke:#262626;stroke-width:0.5;stroke-linecap:square;stroke-linejoin:round;stroke-miterlimit:10;}
	.st6{fill:#262626;}
	.st7{font-family:'HelveticaNeue';}
	.st8{font-size:10px;}
	.st9{fill:#FFFFFF;}
	.st10{fill:#FF0000;fill-opacity:0.502;}
	.st11{fill:none;stroke:#FF0000;stroke-width:0.5;stroke-linecap:square;stroke-miterlimit:10;stroke-opacity:0.251;}
</style>
<g>
	<g>
		<defs>
			<rect id="SVGID_1_" width="300" height="495"/>
		</defs>
		<clipPath id="SVGID_2_">
			<use xlink:href="#SVGID_1_"  style="overflow:visible;"/>
		</clipPath>
		<rect class="st0" width="300" height="495"/>
	</g>
</g>
<g transform="translate(155.2501,35.625)">
	<text transform="matrix(1 0 0 1 -94.0001 -3)" class="st1 st2">EM Clone Fascicles at Neurpil Entry</text>
</g>
<g>
	<path class="st3" d="M155.2,206V85.3H39V206H155.2z M271.5,206v-48.3H155.2V206H271.5z"/>
</g>
<g>
	<path class="st4" d="M39,206V85.3h116.2V206l0,0"/>
	<path class="st4" d="M155.2,157.7h116.2V206"/>
</g>
<g>
	<line class="st5" x1="39" y1="206" x2="271.5" y2="206"/>
	<line class="st5" x1="39" y1="37" x2="271.5" y2="37"/>
	<line class="st5" x1="97.1" y1="206" x2="97.1" y2="203.7"/>
	<line class="st5" x1="213.4" y1="206" x2="213.4" y2="203.7"/>
	<line class="st5" x1="97.1" y1="37" x2="97.1" y2="39.3"/>
	<line class="st5" x1="213.4" y1="37" x2="213.4" y2="39.3"/>
</g>
<g transform="translate(97.125,210)">
	<text transform="matrix(1 0 0 1 -3 10)" class="st6 st7 st8">1</text>
</g>
<g transform="translate(213.375,210)">
	<text transform="matrix(1 0 0 1 -3 10)" class="st6 st7 st8">2</text>
</g>
<g transform="translate(155.2501,223.5)">
	<text transform="matrix(1 0 0 1 -66.0001 11)" class="st6 st7 st2">Fascicles at Neuropil Entry</text>
</g>
<g>
	<line class="st5" x1="39" y1="206" x2="39" y2="37"/>
	<line class="st5" x1="271.5" y1="206" x2="271.5" y2="37"/>
	<line class="st5" x1="39" y1="206" x2="41.3" y2="206"/>
	<line class="st5" x1="39" y1="172.2" x2="41.3" y2="172.2"/>
	<line class="st5" x1="39" y1="138.4" x2="41.3" y2="138.4"/>
	<line class="st5" x1="39" y1="104.6" x2="41.3" y2="104.6"/>
	<line class="st5" x1="39" y1="70.8" x2="41.3" y2="70.8"/>
	<line class="st5" x1="39" y1="37" x2="41.3" y2="37"/>
	<line class="st5" x1="271.5" y1="206" x2="269.2" y2="206"/>
	<line class="st5" x1="271.5" y1="172.2" x2="269.2" y2="172.2"/>
	<line class="st5" x1="271.5" y1="138.4" x2="269.2" y2="138.4"/>
	<line class="st5" x1="271.5" y1="104.6" x2="269.2" y2="104.6"/>
	<line class="st5" x1="271.5" y1="70.8" x2="269.2" y2="70.8"/>
	<line class="st5" x1="271.5" y1="37" x2="269.2" y2="37"/>
</g>
<g transform="translate(35,206)">
	<text transform="matrix(1 0 0 1 -6 3.5)" class="st6 st7 st8">0</text>
</g>
<g transform="translate(35,172.2)">
	<text transform="matrix(1 0 0 1 -14 3.5002)" class="st6 st7 st8">0.2</text>
</g>
<g transform="translate(35,138.4)">
	<text transform="matrix(1 0 0 1 -14 3.4999)" class="st6 st7 st8">0.4</text>
</g>
<g transform="translate(35,104.6)">
	<text transform="matrix(1 0 0 1 -14 3.5001)" class="st6 st7 st8">0.6</text>
</g>
<g transform="translate(35,70.8)">
	<text transform="matrix(1 0 0 1 -14 3.4998)" class="st6 st7 st8">0.8</text>
</g>
<g transform="translate(35,37)">
	<text transform="matrix(1 0 0 1 -6 3.5)" class="st6 st7 st8">1</text>
</g>
<g transform="translate(18,121.4999) rotate(-90)">
	<text transform="matrix(1 0 0 1 -45.5001 -3)" class="st6 st7 st2">Fraction of Clones</text>
</g>
<g>
	<path class="st9" d="M39,440.5h232.5v-169H39V440.5z"/>
</g>
<g transform="translate(155.2501,270.125)">
	<text transform="matrix(1 0 0 1 -98.5001 -3)" class="st1 st2">Light Clone Fascicles at Neurpil Entry</text>
</g>
<g>
	<path class="st10" d="M155.2,440.5V296.9H39v143.6H155.2z M271.5,440.5v-25.4H155.2v25.4H271.5z"/>
</g>
<g>
	<path class="st11" d="M39,440.5V296.9h116.2v143.6l0,0"/>
	<path class="st11" d="M155.2,415.1h116.2v25.4"/>
</g>
<g>
	<line class="st5" x1="39" y1="440.5" x2="271.5" y2="440.5"/>
	<line class="st5" x1="39" y1="271.5" x2="271.5" y2="271.5"/>
	<line class="st5" x1="97.1" y1="440.5" x2="97.1" y2="438.2"/>
	<line class="st5" x1="213.4" y1="440.5" x2="213.4" y2="438.2"/>
	<line class="st5" x1="97.1" y1="271.5" x2="97.1" y2="273.8"/>
	<line class="st5" x1="213.4" y1="271.5" x2="213.4" y2="273.8"/>
</g>
<g transform="translate(97.125,444.5)">
	<text transform="matrix(1 0 0 1 -3 10)" class="st6 st7 st8">1</text>
</g>
<g transform="translate(213.375,444.5)">
	<text transform="matrix(1 0 0 1 -3 10)" class="st6 st7 st8">2</text>
</g>
<g transform="translate(155.2501,458)">
	<text transform="matrix(1 0 0 1 -66.0001 11)" class="st6 st7 st2">Fascicles at Neuropil Entry</text>
</g>
<g>
	<line class="st5" x1="39" y1="440.5" x2="39" y2="271.5"/>
	<line class="st5" x1="271.5" y1="440.5" x2="271.5" y2="271.5"/>
	<line class="st5" x1="39" y1="440.5" x2="41.3" y2="440.5"/>
	<line class="st5" x1="39" y1="406.7" x2="41.3" y2="406.7"/>
	<line class="st5" x1="39" y1="372.9" x2="41.3" y2="372.9"/>
	<line class="st5" x1="39" y1="339.1" x2="41.3" y2="339.1"/>
	<line class="st5" x1="39" y1="305.3" x2="41.3" y2="305.3"/>
	<line class="st5" x1="39" y1="271.5" x2="41.3" y2="271.5"/>
	<line class="st5" x1="271.5" y1="440.5" x2="269.2" y2="440.5"/>
	<line class="st5" x1="271.5" y1="406.7" x2="269.2" y2="406.7"/>
	<line class="st5" x1="271.5" y1="372.9" x2="269.2" y2="372.9"/>
	<line class="st5" x1="271.5" y1="339.1" x2="269.2" y2="339.1"/>
	<line class="st5" x1="271.5" y1="305.3" x2="269.2" y2="305.3"/>
	<line class="st5" x1="271.5" y1="271.5" x2="269.2" y2="271.5"/>
</g>
<g transform="translate(35,440.5)">
	<text transform="matrix(1 0 0 1 -6 3.5)" class="st6 st7 st8">0</text>
</g>
<g transform="translate(35,406.7)">
	<text transform="matrix(1 0 0 1 -14 3.5002)" class="st6 st7 st8">0.2</text>
</g>
<g transform="translate(35,372.9)">
	<text transform="matrix(1 0 0 1 -14 3.4999)" class="st6 st7 st8">0.4</text>
</g>
<g transform="translate(35,339.1)">
	<text transform="matrix(1 0 0 1 -14 3.5001)" class="st6 st7 st8">0.6</text>
</g>
<g transform="translate(35,305.3)">
	<text transform="matrix(1 0 0 1 -14 3.4998)" class="st6 st7 st8">0.8</text>
</g>
<g transform="translate(35,271.5)">
	<text transform="matrix(1 0 0 1 -6 3.5)" class="st6 st7 st8">1</text>
</g>
<g transform="translate(18,355.9999) rotate(-90)">
	<text transform="matrix(1 0 0 1 -45.5001 -3)" class="st6 st7 st2">Fraction of Clones</text>
</g>
</svg>
