<?xml version="1.0" encoding="utf-8"?>
<!-- Generator: Adobe Illustrator 22.1.0, SVG Export Plug-In . SVG Version: 6.00 Build 0)  -->
<svg version="1.1" id="Layer_1" xmlns="http://www.w3.org/2000/svg" xmlns:xlink="http://www.w3.org/1999/xlink" x="0px" y="0px"
	 viewBox="0 0 1632 954" style="enable-background:new 0 0 1632 954;" xml:space="preserve">
<style type="text/css">
	.st0{opacity:0.5;}
	.st1{fill:#FF0000;}
	.st2{opacity:0.5;fill:#FFDB00;}
	.st3{opacity:0.5;fill:#49FF00;}
	.st4{opacity:0.5;fill:#0099FF;}
	.st5{opacity:0.5;fill:#4D00FF;}
	.st6{opacity:0.5;fill:#CEFF00;}
	.st7{opacity:0.5;fill:#FF00DB;}
	.st8{fill:none;stroke:#000000;stroke-width:7.6581;stroke-linejoin:round;stroke-dasharray:9.5868,9.5868;}
</style>
<g class="st0">
	<path class="st1" d="M1268,141.1L1268,141.1l-2.5,0l0,0l-2.5,2.3l-2.5,0l-2.5,0l-2.5,0.1l0,0l-2.4,2.4l-2.5,0.1l0,0l-2.5,2.4l0,0
		l-2.4,2.5l0,0l-0.1,2.5l0,2.5l0,2.5l0,2.5l0,2.5l0,2.5l0,2.5l0,0l2.4,2.5l0.1,2.5l0,0l2.4,2.4l0.1,2.5l0,0l2.4,2.5l0.1,2.5l0,0
		l2.5,2.5l0,0l2.4,2.5l0,0l2.4,2.4l0,0l2.5,2.4l0,0l2.5,0l2.5,0l2.5,0l2.5,0l2.5,0l2.5,0l0,0l2.5-2.4l2.5,0l2.5,0l2.5,0l2.5,0l2.5,0
		l2.5,0l0,0l2.5-2.4l2.5,0l2.5,0l0,0l2.5-2.4l2.5-0.1l0,0l2.5-2.5l0,0l0-2.5l0-2.5l0-2.5l0-2.5l0-2.5l0,0l-2.4-2.5l-0.1-2.5l0,0
		l-2.4-2.5l-0.1-0.1l-2.4-2.4l-0.1-0.1l-2.4-2.4l-0.1-0.1l-2.4-2.4l-0.1-0.1l-2.4-2.4l-0.1-0.1l-2.4-2.4l-0.1-0.1l-2.5-2.4l0,0
		l-2.5-0.1l-2.4-2.4l0,0l-2.5-0.1l-2.5-2.4l0,0l-2.5-0.1l-2.5,0l-2.5,0l-2.5,0L1268,141.1z"/>
	<path class="st1" d="M1258.1,198.2L1258.1,198.2l-2.5,0l0,0l-2.5,2.4l-2.5,0l-2.5,0l-2.5,0l-2.5,0l0,0l-2.5,2.3l-2.5,0.1l-2.5,0.1
		l0,0l-2.5,2.4l-2.5,0.1l0,0l-2.5,2.4l-2.5,0.1l0,0l-2.5,2.4l-0.1,0.1l-2.4,2.3l-0.1,0.1l-2.3,2.3l-0.2,0.2l-2.3,2.3l-0.2,0.2
		l-2.3,2.3l-0.2,0.2l-2.3,2.4l-0.1,0.1l-2.4,2.4l-0.1,0.1l-0.1,2.5l-2.3,2.4l-0.1,0.1l-0.1,2.5l-2.3,2.5l0,0l0,2.5l0,2.5l0,2.5
		l0,2.5l0,2.5l0,2.5l0,2.5l0,0l2.3,2.5l0.1,2.5l0.1,2.5l0,0l2.3,2.5l0.1,2.5l0.1,0.1l2.3,2.4l0.1,2.5l0.1,2.5l0,0l2.3,2.5l0.1,2.5
		l0,0l2.4,2.5l0.1,2.5l0,0l2.4,2.5l0.1,2.5l0,0l2.4,2.5l0.1,0.1l2.3,2.4l0.1,2.5l0.1,0.1l2.3,2.4l0.1,2.5l0.1,2.5l0,0l2.4,2.5l0,2.5
		l0,2.5l0,2.5l0,0l2.3,2.5l0,2.5l0,2.5l0,2.5l0,2.5l0,2.5l0,2.5l0,2.5l0,2.5l0,0l2.3,2.5l0,2.5l0.1,2.5l0.1,2.5l0.1,0.1l2.3,2.4
		l0.1,2.5l0.1,2.5l0.1,2.5l0,0l2.3,2.5l0.1,2.5l0.1,2.5l0,0l2.3,2.4l0,2.5l0,2.5l0,2.5l0,2.5l0,2.5l0,2.5l0,0l2.2,2.5l0,2.5l0,2.5
		l0,2.5l0,2.5l0,2.5l0,2.5l0,2.5l0,2.5l0,0l2.2,2.4l0.1,2.5l0.1,2.5l0.1,2.5l0.1,0.1l2.2,2.4l0.1,2.5l0.1,2.5l0.1,2.5l0.1,0.1
		l2.2,2.4l0.1,2.5l0.1,2.5l0.1,2.5l0.1,2.5l0,0l2.3,2.5l0.1,2.5l0.1,2.5l0.1,2.5l0.1,2.5l0,0l2.3,2.5l0.1,2.5l0.1,2.5l0.1,2.5l0,0
		l2.3,2.5l0.1,2.5l0.1,2.5l0,0l2.4,2.5l0.1,2.5l0,0l2.4,2.5l0.1,0.1l2.3,2.4l0.1,2.5l0,0l2.4,2.5l0,0l2.5,2.4l0,0l2.5,0.1l2.4,2.3
		l0.1,0.1l2.5,0.1l2.5,2.3l0,0l2.5,0l2.5,0l2.5,0l2.5,0l2.5,0l2.5,0l2.5,0l0.1-0.1l2.4-2.2l2.5-0.1l2.5-0.1l2.5-0.1l0,0l2.5-2.3
		l2.5-0.1l0.1-0.1l2.4-2.2l2.5-0.1l2.5-0.1l0,0l2.5-2.3l2.5-0.2l0,0l2.4-2.3l2.5-0.2l0,0l2.4-2.3l2.5-0.2l0,0l2.5-2.3l2.5-0.2l0,0
		l2.5-2.3l2.5-0.1l0,0l2.4-2.3l2.5-0.1l0.1-0.1l2.4-2.2l2.5-0.1l2.5-0.1l2.5-0.1l0,0l2.5-2.3l2.5,0l2.5,0l2.5,0l2.5,0l2.5,0l2.5,2.3
		l0,0l2.5,0l2.5,0l2.5,0l2.5,0l2.5,0l0,0l2.5-2.4l2.5,0l2.5-0.1l0,0l2.5-2.4l0.1-0.1l2.4-2.4l2.5-0.1l0,0l2.5-2.5l0,0l2.5-2.5l0,0
		l0.1-2.5l2.4-2.4l0.1-0.1l0.1-2.5l2.3-2.4l0.1-0.1l0.1-2.5l2.3-2.4l0.1-0.1l0.1-2.5l2.4-2.5l0,0l0-2.5l0-2.5l0-2.5l0-2.5l0-2.5
		l0-2.5l0-2.5l0-2.5l0-2.5l0,0l-2.3-2.4l-0.1-2.5l-0.1-2.5l0,0l-2.4-2.5l-0.1-0.1l-2.3-2.4l-0.1-2.5l0,0l-2.4-2.5l-0.1-0.1l-2.4-2.4
		l-0.1-0.1l-2.4-2.4l-0.1-0.1l-2.4-2.4l0,0l-2.4-2.4l0,0l-2.5-2.4l0,0l-2.4-2.5l0,0l-2.4-2.4l-0.1-0.1l-2.4-2.4l-0.1-0.1l-2.4-2.4
		l-0.1-2.5l0,0l-2.4-2.4l-0.1-2.5l-0.1-2.5l0,0l-2.3-2.5l0-2.5l0-2.5l0-2.5l0-2.5l0-2.5l0-2.5l0-2.5l0-2.5l0-2.5l0-2.5l0-2.5l0,0
		l-2.3-2.5l0-2.5l-0.1-2.5l-0.1-0.1l-2.3-2.4l-0.1-2.5l-0.1-0.1l-2.4-2.4l-0.1-2.5l0,0l-2.5-2.5l0,0l-2.5-0.1l-2.4-2.4l-0.1-0.1
		l-2.5-0.1l-2.4-2.3l-0.1-0.1l-2.5-0.1l-2.5-2.4l0,0l-2.5,0l-2.5,0l-2.5,0l-2.5,0l-2.5,0l-2.5-2.3l0,0l-2.5,0l-2.5,0l-2.5,0l-2.5,0
		l-2.5,0l-2.5,0l-2.5,0l-2.5,0l-2.5,0l-2.5,0l-2.5,0l-2.5,0l-2.5,0h-2.5l-2.5,0l-2.5,0l-2.5,0l-2.5,0l-2.4-2.3l-0.1-0.1l-2.5-0.1
		l-2.5-2.4l0,0l-2.5-0.1l-2.4-2.4l-0.1-2.5l0,0l-2.4-2.5l-0.1-0.1l-2.3-2.4l0-2.5l0-2.5l0-2.5l0-2.5l0-2.5l0-2.5l0-2.5l0-2.5l0-2.5
		l0-2.5l0-2.5l0-2.5l0-2.5l0-2.5l0-2.5l0-2.5l0-2.5l-0.1-2.5l-0.1-0.1l-2.2-2.4l-0.1-2.5l-0.1-2.5l-0.1-2.5l0,0l-2.3-2.5l-0.1-2.5
		l-0.1-0.1l-2.3-2.4l-0.1-2.5l-0.1-0.1l-2.3-2.4l-0.1-2.5l0,0l-2.4-2.4l-0.1-2.5l0,0l-2.4-2.5l0,0l-2.4-2.4l0,0l-2.5-2.4l0,0
		L1258.1,198.2z"/>
	<path class="st1" d="M478.1,203.2L478.1,203.2l-2.5-0.1l-2.5,0l-2.5,0l-2.5,0l-2.5,0l0,0l-2.5,2.3l-2.5,0.1l-2.5,0.1l0,0l-2.5,2.4
		l-2.5,0.1l0,0l-2.5,2.4l0,0l-2.4,2.4l-0.1,0.1l-2.4,2.4l0,0l-0.1,2.5l-2.3,2.4l-0.1,0.1l-2.4,2.5l0,0l-0.1,2.5l-0.1,2.5l-2.3,2.5
		l0,0l-0.1,2.5l0,2.5l0,2.5l0,2.5l0,2.5l0,2.5l0,2.5l0,2.5l0,2.5l0,2.5l0,0l2.3,2.5l0,2.5l0,2.5l0,2.5l0,2.5l0,0l2.4,2.5l0,2.5
		l0,2.5l0,2.5l-2.5,2.5l-2.5,0l-2.5,0l-2.5,0l-2.5,0l-2.5,0l-2.5-2.4l0,0l-2.5,0l-2.5,0l-2.5,0l-2.5,0l-2.5,0l-2.5,0l-2.5,0l-2.5,0
		l-2.5,0l-2.5,0l-2.5,0l-2.5,0l-2.5,0.1l-0.1,0.1l-2.4,2.3l-2.5,0.1l-2.5,0.1l0,0l-2.5,2.4l-0.1,0.1l-2.4,2.3l-2.5,0.1l0,0l-2.5,2.5
		l0,0l-2.5,2.5l0,0l-0.1,2.5l-2.3,2.4l-0.1,0.1l-2.4,2.4l-0.1,0.1l-2.4,2.4l-0.1,0.1l-2.4,2.4l-0.1,0.1l-2.4,2.4l-2.5,0.1l0,0
		l-2.4,2.4l-2.5,0.1l-2.5,0l0,0l-2.5,2.3l-2.5,0l-2.5,0l-2.5,0l-2.5,0l-2.5,0l-2.5,0l-2.5,0l-2.5,0l-2.5,0l-2.5,0l-2.5-2.2l0,0l0,0
		l-2.5,2.2l-2.5,0l-2.5,0l-2.5,0l-2.5,0l-2.5,0.1l-2.5,0.1l0,0l-2.5,2.3l-2.5,0.1l-0.1,0.1l-2.4,2.3l-2.5,0.1l-0.1,0.1l-2.4,2.4
		l-0.1,0.1l-2.4,2.3l-0.2,0.2l-2.3,2.3l-0.2,0.2l-2.3,2.4l-0.1,0.1l-2.4,2.4l-0.1,0.1l-0.1,2.5l-2.3,2.4l-0.1,0.1l-0.1,2.5l-2.3,2.4
		l-0.1,0.1l-0.1,2.5l-0.1,2.5l0,2.5l-2.2,2.5l0,0l0,2.5l0,2.5l0,2.5l0,0l2.2,2.5l0,2.5l0.1,2.5l0.1,2.5l0,0l2.3,2.4l0.1,2.5l0.1,0.1
		l2.3,2.4l0.1,2.5l0.1,0.1l2.3,2.4l0.1,0.1l2.3,2.3l0.2,2.5l0,0l2.4,2.5l0.1,0.1l2.4,2.4l0.1,0.1l2.3,2.4l0.2,0.2l2.3,2.3l0.2,2.5
		l0,0l2.4,2.5l0.1,0.1l2.4,2.4l0.1,0.1l2.3,2.4l0.2,0.2l2.2,2.3l0.2,2.5l0.1,0.1l2.3,2.4l0.2,0.2l2.2,2.3l0.2,2.5l0.1,0.1l2.3,2.4
		l0.2,2.5l0,0l2.4,2.5l0.1,0.1l2.3,2.4l0.2,2.5l0,0l2.3,2.4l0.1,0.1l2.2,2.3l0.2,2.5l0,0l2.4,2.4l0.1,0.1l2.3,2.4l0.2,2.5l0,0
		l2.4,2.5l0.1,0.1l2.4,2.4l0.1,0.1l2.3,2.4l0.1,0.1l2.3,2.3l0.2,0.2l2.3,2.3l0.1,0.1l2.4,2.3l0.1,0.1l2.4,2.4l0.1,0.1l2.5,0.2
		l2.3,2.2l0.2,0.2l2.4,2.3l0,0l2.5,0.1l2.4,2.3l0,0l2.5,0.1l2.5,0.1l2.4,2.2l0.1,0.1l2.5,0.1l2.5,0.1l2.5,0l2.5,0l2.5,2.2l0,0l2.5,0
		l2.5,0l0,0l2.5-2.3l2.5,0l2.5-0.1l2.5-0.1l0.1-0.1l2.4-2.3l2.5-0.1l0.1-0.1l2.4-2.3l2.5-0.1l0,0l2.4-2.4l0.1-0.1l2.4-2.4l0.1-0.1
		l2.4-2.4l0.1-0.1l2.4-2.5l0,0l0.1-2.5l2.3-2.4l0,0l0.1-2.5l2.3-2.5l0,0l0.1-2.5l0.1-2.5l0.1-2.5l2.2-2.4l0.1-0.1l0.1-2.5l0.1-2.5
		l0.1-2.5l2.3-2.5l0,0l0.1-2.5l0.1-2.5l0.1-2.5l2.3-2.5l0,0l0.1-2.5l0.1-2.5l2.3-2.4l0,0l0.1-2.5l2.3-2.4l0,0l0.1-2.5l2.3-2.4
		l0.1-0.1l2.4-2.4l0.1-0.1l2.4-2.5l0,0l0.2-2.5l2.3-2.3l0.2-0.2l2.3-2.3l0.2-0.2l2.3-2.3l0.1-0.1l2.3-2.4l0.1-0.1l2.4-2.4l0.1-0.1
		l2.4-2.5l0,0l0.2-2.5l2.3-2.4l0.1-0.1l0.1-2.5l2.3-2.4l0.1-0.1l0.1-2.5l2.3-2.5l0,0l0.1-2.5l0.1-2.5l0-2.5l0-2.5l0-2.5l2.2-2.5l0,0
		l0-2.5l0,0l-2.2-2.5l0-2.5l0-2.5l0-2.5l0-2.5l-0.1-2.5l0,0l-2.3-2.4l-0.1-2.5l-0.1-2.5l-0.1-2.5l0,0l-2.4-2.5l-0.1-2.5l-0.1-2.5
		l0,0l-2.4-2.5l-0.1-2.5l0-2.5l0,0l-2.4-2.5l0-2.5l0-2.5l0,0l-2.4-2.5l0-2.5l2.5-2.5l0,0l2.5-2.4l2.5,0l2.5,0l2.5,2.4l0,0l2.5,0
		l2.5,0l2.5,0l2.5,0l2.5,0l2.5,2.4l0,0l2.5,0l2.5,0l2.5,0l2.5,0l2.5,0l2.5,0l2.5,0l2.5,2.4l0,0l2.5,0l2.5,0l0,0l2.5-2.4l2.5,0l2.5,0
		l2.5,0l0,0l2.5-2.4l0.1-0.1l2.4-2.4l0.1-0.1l2.4-2.4l0,0l2.4-2.5l0,0l0-2.5l0-2.5l0-2.5l0-2.5l0-2.5l0-2.5l0-2.5l0-2.5l0-2.5l0-2.5
		l0,0l-2.3-2.5l0-2.5l0-2.5l-0.1-2.5l0,0l-2.3-2.5l-0.1-2.5l-0.1-2.5l0,0l-2.3-2.5l-0.1-2.5l-0.1-0.1l-2.3-2.4l-0.1-2.5l-0.1-0.1
		l-2.3-2.4l-0.1-2.5l0,0l-2.4-2.5l-0.1-0.1l-2.4-2.4l-0.1-0.1l-2.4-2.4l-0.1-0.1l-2.4-2.4L498,213l-2.5-2.4l0,0l-2.5-0.1l-2.4-2.3
		l-0.1-0.1l-2.5-0.1l-2.4-2.3l-0.1-0.1l-2.5-0.1l-2.5-0.1L478.1,203.2z"/>
	<path class="st1" d="M366.3,205.6L366.3,205.6l-2.5,0l0,0l-2.5,2.4l-2.5,0l-2.5,0l0,0l-2.5,2.5l0,0l0,2.5l-2.4,2.5l0,0l0,2.5l0,2.5
		l0,2.5l0,0l2.5,2.5l0,0l2.5,0l2.5,2.4l0,0l0,0l2.5-2.4l2.5,0l2.5,0l0,0l2.5-2.5l0,0l2.5-2.5l0,0l0-2.5l0-2.5l0-2.5l0-2.5l0-2.5l0,0
		l-2.5,0L366.3,205.6z"/>
	<path class="st1" d="M619.7,394.4L619.7,394.4l-2.5-0.1l-2.5,0l-2.5,0l-2.5,0l-2.5,0l-2.5,0.1l0,0l-2.5,2.3l-2.5,0.1l-2.5,0.1l0,0
		l-2.5,2.4l-0.1,0.1l-2.4,2.3l-2.5,0.2l0,0l-2.5,2.4l-0.1,0.1l-2.4,2.4l0,0l-2.4,2.5l0,0l-0.2,2.5l-2.3,2.4l-0.1,0.1l-0.1,2.5
		l-2.3,2.4l-0.1,0.1l-0.1,2.5l-0.1,2.5l-2.2,2.4l-0.1,0.1l0,2.5l0,2.5l0,2.5l0,2.5l0,2.5l0,2.5l0.1,2.5l0,0l2.3,2.5l0.1,2.5l0.1,0.1
		l2.3,2.4l0.1,2.5l0,0l2.4,2.5l0,0l2.5,2.4l0,0l2.5,0.2l2.4,2.3l0.1,0.1l2.5,0.1l2.4,2.3l0.1,0.1l2.5,0.1l2.5,0.1l2.5,0l2.5,0l2.5,0
		l2.5,0l2.5,0l2.5-0.1l2.5-0.1l0,0l2.4-2.3l2.5-0.1l0.1-0.1l2.4-2.3l2.5-0.1l0.1-0.1l2.4-2.4l0.1-0.1l2.4-2.3l0.2-0.2l2.3-2.3
		l0.2-0.2l2.3-2.4l0.1-0.1l2.4-2.4l0,0l0.1-2.5l2.3-2.4l0,0l0.1-2.5l0.1-2.5l2.3-2.5l0,0l0-2.5l0-2.5l0-2.5l0-2.5l0-2.5l-0.1-2.5
		l0,0l-2.3-2.5l-0.1-2.5l-0.1-0.1l-2.2-2.4l-0.1-2.5l-0.1-0.1l-2.3-2.4l-0.2-2.5l0,0l-2.5-2.5l0,0l-2.5-0.2l-2.4-2.3l-0.1-0.1
		l-2.5-2.4l0,0l-2.5-0.1l-2.5-0.1L619.7,394.4z"/>
</g>
<g>
	<path class="st2" d="M1240.7,121.2L1240.7,121.2l-2.5,0l-2.5,0l0,0l-2.5,2.3l-2.5,0l-2.5,0.1l-2.5,0.1l-0.1,0.1l-2.4,2.3l-2.5,0.1
		l-0.1,0.1l-2.4,2.4l-0.1,0.1l-2.4,2.3l-0.2,0.2l-2.3,2.3l-0.2,0.2l-2.3,2.4l-0.1,0.1l-2.3,2.4l-0.1,0.1l-0.1,2.5l-2.3,2.4l-0.1,0.1
		l-0.1,2.5l-2.3,2.4l0,0l-0.1,2.5l0,2.5l0,2.5l0,2.5l0,2.5l0,2.5l0,2.5l0.1,2.5l0.1,0.1l2.3,2.4l0.1,2.5l0.1,2.5l0,0l2.4,2.5
		l0.1,0.1l2.3,2.4l0.1,2.5l0,0l2.4,2.5l0.1,0.1l2.4,2.4l0.1,0.1l2.4,2.4l0.1,0.1l2.4,2.4l0.1,0.1l2.4,2.4l0.1,0.1l2.4,2.4l0.1,0.1
		l2.3,2.4l0.1,2.5l0.1,0.1l2.3,2.4l0.1,2.5l0,2.5l0,2.5l0,2.5l0,0l2.3,2.5l-2.3,2.5l0,0l0,2.5l0,2.5l0,2.5l0,2.5l0,2.5l0,2.5l0,2.5
		l0,2.5l0,2.5l0,2.5l0,2.5l0,0l2.3,2.5l0,2.5l0,2.5l0.1,2.5l0.1,0.1l2.3,2.4l0.1,2.5l0.1,2.5l0.1,2.5l0,0l2.3,2.5l0,2.5l0,2.5l0,2.5
		l0,2.5l0,2.5l0,2.5l0,2.5l0,2.5l0,2.5l0,2.5l0,2.5l0,2.5l0,2.5l0,2.5l-2.2,2.5l0,0l0,2.5l0,2.5l0,2.5l0,2.5l0,2.5l0,2.5l0,2.5l0,0
		l2.2,2.5l0,2.5l0.1,2.5l0.1,2.5l0.1,0.1l2.2,2.4l0.1,2.5l0.1,2.5l0.1,0.1l2.3,2.4l0.1,2.5l0.1,0.1l2.3,2.4l0.1,2.5l0.1,0.1l2.3,2.4
		l0.1,2.5l0,0l2.4,2.5l0.1,0.1l2.3,2.4l0.1,0.1l2.3,2.3l0.2,2.5l0,0l2.4,2.5l0,0l2.4,2.4l0,0l2.5,2.4l0,0l2.5,0.2l2.4,2.3l0.1,0.1
		l2.4,2.4l0.1,0.1l2.5,0.1l2.4,2.3l0.1,0.1l2.5,0.1l2.4,2.3l0.1,0.1l2.5,0.1l2.5,2.3l0,0l2.5,0l2.5,0l2.5,0l2.5,0l2.5,0l2.5,0l2.5,0
		l2.5,0l2.5,0l0,0l2.5-2.4l0.1-0.1l2.4-2.4l0.1-0.1l2.4-2.4l0,0l0.1-2.5l2.4-2.5l0,0l0-2.5l0-2.5l0-2.5l0-2.5l2.3-2.5l0,0l0-2.5
		l0-2.5l0-2.5l0-2.5l0-2.5l0-2.5l0-2.5l0-2.5l0-2.5l0-2.5l0-2.5l0-2.5l0-2.5l0-2.5l0-2.5l0-2.5l0-2.5l2.2-2.5l0,0l0-2.5l0-2.5l0-2.5
		l0-2.5l0-2.5l0-2.5l0-2.5l0-2.5l0-2.5l0-2.5l0-2.5l0-2.5l0-2.5l0-2.5l0-2.5l0-2.5l0-2.5l0-2.5l0-2.5l0-2.5l0-2.5l0-2.5l0-2.5l0-2.5
		l0-2.5l0-2.5l0,0l-2.4-2.5l0-2.5l-0.1-2.5l0,0l-2.4-2.5l-0.1-0.1l-2.4-2.4l-0.1-2.5l0,0l-2.4-2.4l-0.1-2.5l0,0l-2.4-2.5l0,0
		l-2.4-2.4l-0.1-2.5l0,0l-2.4-2.5l-0.1-2.5l0,0l-2.4-2.5l-0.1-2.5l0,0l-2.4-2.5l-0.1-2.5l-0.1-2.5l0,0l-2.4-2.5l0-2.5l0-2.5l0-2.5
		l0-2.5l0,0l-2.3-2.5l0-2.5l0-2.5l0-2.5l0-2.5l0-2.5l0-2.5l0,0l-2.3-2.5l0-2.5l-0.1-2.5l-0.1-0.1l-2.3-2.4l-0.1-2.5l-0.1-2.5l0,0
		l-2.4-2.5l-0.1-2.5l0,0l-2.4-2.5l-0.1-0.1l-2.3-2.4l-0.1-2.5l0,0l-2.4-2.5l-0.1-0.1l-2.4-2.4l-0.1-0.1l-2.3-2.4l-0.2-0.2l-2.3-2.3
		l-0.2-0.2l-2.3-2.3l-0.2-0.2l-2.3-2.3l-0.2-0.2l-2.3-2.3l-0.1-0.1l-2.4-2.4l-0.1-0.1l-2.5-2.4l0,0l-2.5-0.1l-2.4-2.3l0,0l-2.5-0.1
		l-2.5-2.3l0,0l-2.5-0.1l-2.5-0.1l-2.5,0L1240.7,121.2z"/>
	<path class="st2" d="M550.2,133.6L550.2,133.6l-2.5-0.1l-2.5,0l-2.5,0l-2.5,0l-2.5,0l-2.5,0l-2.5,0l-2.5,0l-2.5,0l0,0l-2.5,2.3
		l-2.5,0l-2.5,0.1l-2.5,0.1l0,0.1l-2.4,2.3l-2.5,0.1l-2.5,0.1l-0.1,0.1l-2.4,2.3l-2.5,0.1l-2.5,0.1l0,0l-2.5,2.4l-2.5,0.1l0,0
		l-2.5,2.4l-0.1,0.1l-2.4,2.3l-2.5,0.1l0,0l-2.5,2.4L488,151l-2.4,2.4l-0.1,0.1l-2.4,2.4L483,156l-2.4,2.4l-0.1,0.1l-2.4,2.5l0,0
		l-0.1,2.5l-2.3,2.4l-0.1,0.1l-2.4,2.4l-0.1,0.1l-0.1,2.5l-2.3,2.4l-0.1,0.1l-2.4,2.4l0,0l-0.1,2.5l-2.3,2.4l-0.1,0.1l-2.4,2.4
		l-0.1,0.1l-2.4,2.5l0,0l-0.1,2.5l-2.3,2.3l-0.1,0.1l-2.3,2.4l-0.1,0.1l-2.4,2.4l-0.1,0.1l-2.4,2.4l-0.1,0.1l-2.4,2.4l-0.1,0.1
		l-2.4,2.4l-0.1,0.1l-2.4,2.4l-0.1,0.1l-2.4,2.4l0,0l-0.1,2.5l-2.3,2.4l-0.1,0.1l-2.4,2.4l-0.1,0.1l-0.1,2.5l-2.3,2.4l-0.1,0.1
		l-0.1,2.5l-2.3,2.4l-0.1,0.1l-0.1,2.5l0,2.5l0,2.5l-2.3,2.5l0,0l0,2.5l0,2.5l0,0l2.3,2.5l0,2.5l0,2.5l0,2.5l0.1,2.5l0,0l2.3,2.4
		l0.1,2.5l0.1,2.5l0.1,2.5l0.1,2.5l0,0l2.3,2.5l0,2.5l0,2.5l0,2.5l0,2.5l0,2.5l0,2.5l0,2.5l-2.3,2.4l-0.1,0.1l-0.1,2.5l-0.1,2.5
		l-2.3,2.4l0,0l-0.1,2.5l-0.1,2.5l-2.3,2.4l-0.1,0.1l-0.1,2.5l-2.3,2.5l0,0l-0.1,2.5l-0.1,2.5l-0.1,2.5l-2.2,2.4l-0.1,0.1l-0.1,2.5
		l-0.1,2.5l0,2.5l0,2.5l-2.2,2.5l0,0l0,2.5l0,2.5l0,2.5l0,0l2.3,2.5l0,2.5l0.1,2.5l0.1,2.5l0,0l2.3,2.4l0.1,2.5l0.1,0.1l2.3,2.4
		l0.1,2.5l0,0l2.4,2.5l0,0l2.4,2.4l0,0l2.5,0.1l2.4,2.3l0.1,0.1l2.5,2.4l0,0l2.5,0.1l2.5,0.1l2.5,2.3l0,0l2.5,0l2.5,0l2.5,0l2.5,0
		l2.5,0l2.5,0l0,0l2.5-2.3l2.5-0.1l2.5-0.1l0,0l2.5-2.3l2.5-0.1l0,0l2.4-2.4l0.1-0.1l2.4-2.3l2.5-0.2l0,0l2.5-2.5l0,0l2.5-2.5l0,0
		l0.2-2.5l2.3-2.4l0.1-0.1l2.4-2.4l0,0l0.1-2.5l2.3-2.4l0.1-0.1l0.1-2.5l2.3-2.5l0,0l0.1-2.5l0.1-2.5l2.3-2.5l0,0l0.1-2.5l0.1-2.5
		l0.1-2.5l0-2.5l2.2-2.5l0,0l0-2.5l0-2.5l0-2.5l0-2.5l0-2.5l2.2-2.4l0,0l0-2.5l0-2.5l0-2.5l0-2.5l2.3-2.4l0.1-0.1l0.1-2.5l0.1-2.5
		l0.1-2.5l2.3-2.4l0.1-0.1l0.1-2.5l0.1-2.5l0-2.5l2.3-2.4l0,0l0-2.5l0-2.5l0-2.5l2.3-2.5l0,0l0-2.5l0-2.5l0-2.5l0-2.5l0-2.5l2.3-2.5
		l0,0l0-2.5l0.1-2.5l0.1-2.5l2.3-2.5l0,0l0.1-2.5l0.1-2.5l2.3-2.4l0,0l0.1-2.5l2.4-2.5l0,0l0.1-2.5l2.4-2.4l0.1-0.1l2.4-2.5l0,0
		l0.1-2.5l2.3-2.3l2.5-0.1l0,0l2.5-2.4l0.1-0.1l2.4-2.4l2.5-0.1l0,0l2.5-2.4l2.5-0.1l0,0l2.4-2.3l2.5-0.1l2.5,0l2.5,0l0,0l2.5-2.3
		l2.5,0l2.5,0l2.5,0l2.5,0l2.5,0l2.5,0l2.5,0l2.5,0l2.5,0l2.5,0l2.5,0l0,0l2.5-2.4l2.5,0l2.5,0l2.5,0l2.5,0l2.5,0l0,0l2.5-2.4l2.5,0
		l2.5,0l2.5,0l0,0l2.5-2.5l0,0l0-2.5l0-2.5l0,0l-2.5-2.5l0,0l-2.5-2.5l0,0l-2.5-2.5l0,0l-2.5-2.5l0,0l-2.5-2.5l0,0l-2.4-2.5l0,0
		l-2.4-2.4l-0.1-0.1l-2.4-2.4l-0.1-0.1l-2.4-2.4l-0.1-2.5l0,0l-2.5-2.5l0,0l-2.4-2.5l-0.1-0.1l-2.4-2.4l-0.1-0.1l-2.4-2.4l-0.1-0.1
		l-2.4-2.4l-0.1-0.1l-2.4-2.4l0,0l-2.5-2.4l0,0l-2.5-0.1l-2.4-2.4L570,141l-2.5-0.1l-2.4-2.3l-0.1-0.1l-2.5-0.1l-2.5-2.3l0,0
		l-2.5-0.1l-2.5-0.1l-2.5,0L550.2,133.6z"/>
	<path class="st2" d="M736.5,310L736.5,310l-2.5,0l-2.5,0l-2.5,0l0,0l-2.5,2.3l-2.5,0.1l-2.5,0.1l0,0l-2.5,2.4l-2.5,0.1l0,0
		l-2.5,2.4l-0.1,0.1l-2.4,2.4l-0.1,0.1l-2.4,2.4l-0.1,0.1l-2.4,2.4l-0.1,0.1l-2.4,2.5l0,0l-0.1,2.5l-2.3,2.4l-0.1,0.1l-0.1,2.5
		l-2.3,2.4l-0.1,0.1l-0.1,2.5l-2.3,2.4l-0.1,0.1l-0.1,2.5l-2.3,2.5l0,0l-0.1,2.5l-0.1,2.5l-2.3,2.5l0,0l-0.1,2.5l-0.1,2.5l-0.1,2.5
		l-2.2,2.5l0,0l-0.1,2.5l-0.1,2.5l-0.1,2.5l0,2.5l-2.2,2.5l0,0l0,2.5l0,2.5l0,2.5l0,2.5l0,2.5l0,2.5l0,2.5l0,2.5l0,2.5l0,2.5l0,2.5
		l0,2.5l0,2.5l0,2.5l0,2.5l0.1,2.5l0.1,0.1l2.2,2.4l0.1,2.5l0.1,2.5l0.1,2.5l0,0l2.3,2.5l0.1,2.5l0,0l2.3,2.4l0.1,2.5l0.1,0.1
		l2.3,2.4l0.1,2.5l0,0l2.4,2.4l0.1,2.5l0,0l2.4,2.5l0.1,0.1l2.3,2.4l0.1,2.5l0.1,0.1l2.4,2.4l0.1,0.1l2.4,2.4l0.1,2.5l0,0l2.5,2.5
		l0,0l2.5,2.5l0,0l2.5,0.1l2.4,2.4l0.1,0.1l2.5,0l2.5,0l2.5,0l2.5,0l2.5,0l2.5-0.1l0,0l2.5-2.4l0.1-0.1l2.4-2.4l2.5-0.1l0,0l2.5-2.5
		l0,0l0.1-2.5l2.4-2.4l0.1-0.1l0.1-2.5l2.3-2.4l0.1-0.1l0.1-2.5l2.3-2.4l0,0l0.1-2.5l0.1-2.5l2.3-2.5l0,0l0.1-2.5l0.1-2.5l0.1-2.5
		l2.3-2.4l0.1-0.1l0.1-2.5l0.1-2.5l2.3-2.4l0.1-0.1l0.1-2.5l0.1-2.5l2.2-2.4l0.1-0.1l0.1-2.5l2.3-2.5l0,0l0.1-2.5l0.1-2.5l0.1-2.5
		l2.2-2.4l0.1-0.1l0.1-2.5l0.1-2.5l0-2.5l2.2-2.5l0,0l0-2.5l0-2.5l0-2.5l0-2.5l0-2.5l0-2.5l0,0l-2.2-2.5l0-2.5l-0.1-2.5l-0.1-2.5
		l-0.1-2.5l0,0l-2.2-2.5l-0.1-2.5l-0.1-2.5l-0.1-2.5l0,0l-2.3-2.5l-0.1-2.5l-0.1-2.5l-0.1-2.5l0,0l-2.3-2.5l-0.1-2.5l-0.1-2.5l0,0
		l-2.3-2.4l-0.1-2.5l-0.1-2.5l0,0l-2.4-2.5l-0.1-2.5l0,0l-2.4-2.5l-0.1-0.1l-2.4-2.4l-0.1-0.1l-2.4-2.4l-0.1-0.1l-2.5-2.4l0,0
		l-2.5-0.1l-2.5-0.1L736.5,310z"/>
	<path class="st2" d="M1027.1,327.4L1027.1,327.4l-2.5,0l-2.5,0l-2.5,0l0,0l-2.5,2.3l-2.5,0l-2.5,0.1l-0.1,0.1l-2.4,2.3l-2.5,0.1
		l-0.1,0.1l-2.4,2.4l-0.1,0.1l-2.4,2.4l-0.1,0.1l-2.4,2.4l-0.1,0.1l-2.4,2.4l-0.1,0.1l-0.1,2.5l-2.3,2.4l-0.1,0.1l-2.4,2.4l0,0
		l-0.1,2.5l-2.3,2.4l-0.1,0.1l-0.1,2.5l-2.3,2.4l-0.1,0.1l-0.1,2.5l-2.3,2.4l-0.1,0.1l-2.4,2.5l0,0l-0.1,2.5l-2.3,2.4l-0.1,0.1
		l-0.1,2.5l-2.3,2.4l-0.1,0.1l-0.1,2.5l-2.3,2.4l-0.1,0.1l-0.1,2.5l-2.3,2.4l-0.1,0.1l-0.1,2.5l-2.3,2.4l-0.1,0.1l-0.1,2.5l-0.1,2.5
		l-2.3,2.4l-0.1,0.1l-0.1,2.5l0,2.5l0,2.5l-2.3,2.5l0,0l0,2.5l0,2.5l0,2.5l0,2.5l0,2.5l0,2.5l0,2.5l0,2.5l0,2.5l0,2.5l0,2.5l0,2.5
		l0,2.5l0,2.5l0,0l2.3,2.5l0.1,2.5l0.1,2.5l0,0l2.3,2.4l0.1,2.5l0,0l2.4,2.4l0.1,0.1l2.4,2.4l0.1,0.1l2.4,2.4l0.1,0.1l2.4,2.4
		l0.1,0.1l2.5,2.4l0,0l2.5,0.1l2.5,0.1l2.5,2.3l0,0l2.5,0l2.5,0l2.5,0l2.5,0l2.5,0l2.5,0l2.5,0l0,0l2.5-2.4l2.5-0.1l0,0l2.4-2.4
		l2.5-0.1l0,0l2.5-2.4l0.1-0.1l2.4-2.4l0.1-0.1l2.4-2.3l0.1-0.1l2.3-2.3l0.1-0.1l2.3-2.3l0.1-0.1l2.3-2.4l0.1-0.1l2.4-2.4l0.1-0.1
		l2.4-2.4l0.1-0.1l2.4-2.5l0,0l0.1-2.5l2.3-2.4l0.1-0.1l0.1-2.5l2.3-2.4l0.1-0.1l2.4-2.5l0,0l0.1-2.5l0.1-2.5l2.3-2.4l0.1-0.1
		l0.1-2.5l2.3-2.4l0,0l0.1-2.5l0.1-2.5l2.3-2.5l0,0l0.1-2.5l0-2.5l0-2.5l0-2.5l2.3-2.5l0,0l0-2.5l0-2.5l0-2.5l0-2.5l0-2.5l0-2.5
		l2.3-2.5l0,0l0-2.5l0-2.5l0-2.5l0-2.5l0-2.5l0-2.5l0-2.5l0-2.5l0-2.5l0,0l-2.3-2.5l-0.1-2.5l-0.1-2.5l0,0l-2.3-2.4l-0.1-2.5
		l-0.1-0.1l-2.3-2.4l-0.1-2.5l0,0l-2.4-2.5l0,0l-2.4-2.4l0,0l-2.5-2.4l0,0l-2.5-0.1l-2.4-2.3l-0.1-0.1l-2.5-0.1l-2.4-2.3l-0.1-0.1
		l-2.5-0.1l-2.5-0.1L1027.1,327.4z"/>
</g>
<g>
	<path class="st3" d="M545.2,287.6L545.2,287.6l-2.5-0.1l-2.5,0l-2.5,0l-2.5,0l-2.5,0l-2.5,0l-2.5,0l-2.5,0l-2.5,0.1l-2.5,0.1l0,0
		l-2.5,2.3l-2.5,0.1l-0.1,0.1l-2.4,2.3l-2.5,0.1l-0.1,0.1l-2.4,2.3l-2.5,0.1l0,0l-2.5,2.5l0,0l-2.5,2.5l0,0l-0.1,2.5l-2.3,2.4
		l-0.1,0.1l-0.1,2.5l-2.3,2.4l-0.1,0.1l-0.1,2.5l-0.1,2.5l-2.3,2.5l0,0l0,2.5l0,2.5l0,2.5l0,2.5l0,2.5l0,2.5l0,0l2.3,2.5l0,2.5
		l0.1,2.5l0.1,2.5l0.1,0.1l2.2,2.4l0.1,2.5l0.1,2.5l0.1,0.1l2.3,2.4l0.1,2.5l0.1,2.5l0,0l2.4,2.5l0.1,2.5l0,0l2.4,2.5l0.1,0.1
		l2.3,2.4l0.1,2.5l0,0l2.5,2.5l0,0l2.5,2.5l0,0l2.5,2.5l0,0l2.5,0.1l2.4,2.3l0.1,0.1l2.5,0.1l2.4,2.3l0.1,0.1l2.5,0.1l2.5,0.1
		l2.4,2.3l0,0l2.5,0l2.5,0l2.5,0l2.5,0l2.5,0l2.5,0l2.5,0l2.5,2.3l0,0l2.5,0l2.5,0l2.5,0l2.5,0.1l2.4,2.3l0,0l2.5,0.1l2.5,2.4l0,0
		l2.5,0.1l2.4,2.4l0.1,0.1l2.4,2.4l0,0l2.4,2.4l0.1,0.1l2.3,2.4l0.1,2.5l0.1,0.1l2.3,2.4l0.1,2.5l0.1,2.5l0.1,2.5l0,0l2.3,2.5l0,2.5
		l0.1,2.5l0.1,2.5l0,0l2.3,2.5l0.1,2.5l0.1,2.5l0,0l2.3,2.4l0.1,2.5l0,0l2.4,2.4l0.1,0.1l2.4,2.4l0.1,2.5l0,0l2.5,0.1l2.4,2.4
		l0.1,0.1l2.5,2.4l0,0l2.5,0.1l2.5,0.1l2.4,2.3l0,0l2.5,0l2.5,0l2.5,0l2.5,2.3l0,0l2.5,0l2.5,0l2.5,0l2.5,0l2.5,2.4l0,0l2.5,0l2.5,0
		l2.5,0l2.5,2.5l0,2.5l0,2.5l-2.5,2.5l0,0l0,2.5l0,2.5l0,2.5l-2.4,2.5l0,0l0,2.5l0,2.5l0,2.5l0,2.5l0,2.5l0,0l2.4,2.5l0,2.5l0,0
		l2.4,2.4l0.1,2.5l0,0l2.5,2.5l0,0l2.5,2.5l0,0l2.5,0.1l2.4,2.4l0.1,0.1l2.5,0.1l2.4,2.4l0,0l2.5,0l2.5,0l2.5,0l2.5,2.4l0,0l0,0
		l2.5-2.4l2.5,0l2.5,0l2.5-0.1l0,0l2.5-2.5l0,0l2.5-2.5l0,0l0.1-2.5l2.4-2.5l0,0l0-2.5l0-2.5l0-2.5l0-2.5l0-2.5l0,0l-2.4-2.4
		l-0.1-2.5l-0.1-2.5l0,0l-2.4-2.5l-0.1-0.1l-2.4-2.4l-0.1-0.1l-2.4-2.4l-0.1-0.1l-2.4-2.4l0,0l-2.5-2.4l0,0l-2.5-0.1l-2.5-2.4l0,0
		l-2.5,0l-2.5,0l-2.5-2.4l0,0l-2.5,0l-2.5,0L652,459l0,0l-2.5,0l-2.5-2.5l0-2.5l2.5-2.5l0,0l0-2.5l2.4-2.5l0,0l0.1-2.5l2.4-2.5l0,0
		l0.1-2.5l2.4-2.5l0,0l0.1-2.5l0.1-2.5l2.3-2.4l0,0l0.1-2.5l0.1-2.5l0.1-2.5l2.3-2.4l0,0l0-2.5l0-2.5l0-2.5l0-2.5l0-2.5l0-2.5l0,0
		l-2.3-2.5l-0.1-2.5l-0.1-2.5l0,0l-2.3-2.4l-0.1-2.5l-0.1-0.1l-2.3-2.4l-0.1-0.1l-2.3-2.3l-0.2-2.5l0,0l-2.4-2.4l-0.1-0.1l-2.4-2.4
		l-0.1-0.1l-2.4-2.4l0,0l-2.5-2.4l0,0l-2.5-0.2l-2.3-2.3l-0.2-0.2l-2.4-2.3l-0.1-0.1l-2.4-2.4l-0.1-0.1l-2.4-2.4l-0.1-0.1l-2.4-2.4
		l-0.1-0.1l-2.3-2.4l-0.1-2.5l0,0l-2.4-2.5l-0.1-0.1l-2.3-2.4l-0.1-2.5l-0.1-0.1l-2.3-2.4l-0.1-2.5l0,0l-2.4-2.5l-0.1-0.1l-2.3-2.4
		l-0.1-2.5l-0.1-0.1l-2.3-2.4l-0.2-0.2l-2.3-2.3l-0.2-2.5l0,0l-2.4-2.5l-0.1-0.1l-2.4-2.4l-0.1-0.1l-2.4-2.4l0,0l-2.5-2.4l0,0
		l-2.5-0.2l-2.4-2.3l-0.1-0.1l-2.4-2.4l-0.1-0.1l-2.5-0.2l-2.3-2.3l-0.2-0.2l-2.4-2.3l-0.1-0.1l-2.5-2.4l0,0l-2.5-0.2l-2.3-2.3
		l-0.1-0.1l-2.4-2.3l-0.1-0.1L570,300l0,0l-2.5-0.2l-2.4-2.3l-0.1-0.1l-2.4-2.4l0,0l-2.5-0.1l-2.4-2.3l-0.1-0.1l-2.5-0.1l-2.4-2.3
		l-0.1-0.1l-2.5-0.1l-2.5-0.1L545.2,287.6z"/>
	<path class="st3" d="M1220.9,292.6L1220.9,292.6l-2.5-0.1l-2.5,0l-2.5,0l-2.5,0l-2.5,0l-2.5,0l-2.5,0l-2.5,0l0,0l-2.4,2.2l-2.5,0.1
		l-2.5,0.1l-2.5,0.1l-2.5,0.1l0,0l-2.5,2.2l-2.5,0.1l-2.5,0.1l-2.5,0.1l0,0l-2.5,2.3l-2.5,0.1l-2.5,0.1l-0.1,0.1l-2.4,2.2l-2.5,0.1
		l-2.5,0.1l-2.5,0.1l0,0l-2.4,2.3l-2.5,0.1l-2.5,0.1l0,0l-2.4,2.3l-2.5,0.1l-0.1,0.1l-2.4,2.3l-2.5,0.1l0,0l-2.5,2.4l-0.1,0.1
		l-2.4,2.4l-0.1,0.1l-2.4,2.5l0,0l-0.1,2.5l-2.4,2.4l0,0l-0.1,2.5l-0.1,2.5l-2.3,2.4l0,0l-0.1,2.5l0,2.5l0,2.5l0,2.5l-2.3,2.5l0,0
		l0,2.5l0,2.5l0,2.5l0,2.5l0,2.5l-2.3,2.4l-0.1,0.1l-0.1,2.5l-0.1,2.5l-2.3,2.4l0,0l-0.1,2.5l-2.4,2.5l0,0l-0.1,2.5l-2.4,2.4l0,0
		l-0.1,2.5l-2.3,2.4l-0.1,0.1l-2.4,2.4l-0.1,0.1l-2.4,2.4l-0.1,0.1l-2.4,2.4l-0.1,0.1l-2.4,2.4l-2.5,0.1l0,0l-2.5,2.4l-0.1,0.1
		l-2.4,2.4l-2.5,0.1l-0.1,0.1l-2.4,2.4l-2.5,0.1l-0.1,0.1l-2.4,2.4l-2.5,0.1l0,0l-2.5,2.4l0,0l-2.4,2.5l0,0l-0.1,2.5l-2.4,2.4
		l-0.1,0.1l0,2.5l0,2.5l-2.4,2.5l0,0l0,2.5l0,0l2.4,2.5l0,2.5l0,2.5l0,0l2.4,2.4l0.1,2.5l0,0l2.4,2.4l0.1,2.5l0,0l2.5,2.5l0,0
		l2.4,2.5l0,0l2.4,2.4l0.1,0.1l2.4,2.4l0.1,0.1l2.4,2.4l0.1,0.1l2.4,2.4l0.1,2.5l0,0l2.4,2.5l0.1,0.1l2.4,2.4l0.1,2.5l0,0l2.4,2.4
		l0,2.5l0,2.5l0,2.5l0,2.5l0,2.5l0,2.5l-2.4,2.5l0,0l-2.5,2.5l0,0l-2.5,2.4l-2.5,0l-2.5,0l-2.5,0l-2.5,0l-2.5,0l-2.5,0l-2.5,0
		l-2.5-2.3l0,0l-2.5,0l-2.5,0l-2.5,0l-2.5-2.3l0,0l-2.5,0l-2.5,0l-2.5,0l-2.5,0l-2.5,0l0,0l-2.5,2.4l-2.5,0.1l-0.1,0.1l-2.4,2.4
		l-2.5,0.1l0,0l-2.5,2.4l0,0l-2.4,2.5l0,0l-0.1,2.5l-2.4,2.4l-0.1,0.1l-0.1,2.5l-2.4,2.5l0,0l0,2.5l0,2.5l0,2.5l0,2.5l0,2.5l0,2.5
		l0,2.5l0,0l2.3,2.5l0.1,2.5l0.1,0.1l2.3,2.4l0.1,2.5l0.1,0.1l2.3,2.4l0.1,2.5l0,0l2.4,2.4l0.1,0.1l2.4,2.4l0.1,0.1l2.4,2.4l0.1,0.1
		l2.4,2.4l0.1,0.1l2.4,2.4l0.1,0.1l2.4,2.4l0.1,0.1l2.4,2.4l0,0l2.5,0.1l2.4,2.3l0.1,0.1l2.5,2.4l0,0l2.5,0.1l2.5,2.4l0,0l2.5,0
		l2.5,0l2.5,2.4l0,0l2.5,0l2.5,0l2.5,0l2.5,0l2.5,0l0,0l2.5-2.4l2.5,0l2.5,0l2.5,0l2.5,0l0,0l2.5-2.4l2.5,0l2.5,0l0,0l2.5-2.4l2.5,0
		l0,0l2.5-2.4l2.5-0.1l0,0l2.5-2.4l0,0l2.4-2.4l0,0l2.4-2.4l0,0l2.4-2.5l0,0l2.5-2.5l0,0l0.1-2.5l2.4-2.5l0,0l0.1-2.5l2.4-2.5l0,0
		l0-2.5l0-2.5l2.4-2.4l0,0l0-2.5l0-2.5l2.4-2.5l0,0l0-2.5l0-2.5l0-2.5l0-2.5l0-2.5l0-2.5l2.4-2.5l0,0l0-2.5l0-2.5l0-2.5l0-2.5l0,0
		l-2.4-2.5l0-2.5l0-2.5l0-2.5l0-2.5l0-2.5l0-2.5l0-2.5l0-2.5l0-2.5l0-2.5l0-2.5l0-2.5l0-2.5l0-2.5l0-2.5l0-2.5l0-2.5l0-2.5l0-2.5
		l2.4-2.5l0,0l0-2.5l0-2.5l2.4-2.5l0,0l0.1-2.5l2.4-2.4l0.1-0.1l2.4-2.4l0,0l2.4-2.4l0.1-0.1l2.4-2.4l0.1-0.1l2.4-2.4l2.5-0.1l0,0
		l2.5-2.4l0.1-0.1l2.4-2.4l2.5-0.1l0,0l2.5-2.4l0.1-0.1l2.4-2.3l2.5-0.1l0,0l2.4-2.4l2.5-0.1l0,0l2.5-2.4l0.1-0.1l2.4-2.3l2.5-0.1
		l0.1-0.1l2.4-2.3l2.5-0.1l0.1-0.1l2.4-2.3l2.5-0.1l2.5-0.1l0,0l2.5-2.4l2.5-0.1l0,0l2.4-2.3l2.5-0.1l2.5-0.1l0,0l2.5-2.3l2.5-0.1
		l0.1-0.1l2.4-2.3l2.5-0.1l2.5-0.1l0,0l2.4-2.4l2.5-0.1l0,0l2.4-2.4l0.1-0.1l2.4-2.4l2.5-0.1l0,0l2.5-2.5l0,0l0.1-2.5l2.4-2.4
		l0.1-0.1l0.1-2.5l2.3-2.4l0.1-0.1l0.1-2.5l0.1-2.5l2.3-2.5l0,0l0-2.5l0-2.5l0-2.5l0-2.5l0-2.5l0-2.5l0-2.5l0-2.5l0-2.5l0-2.5l0,0
		l-2.2-2.4l-0.1-2.5l-0.1-2.5l-0.1-2.5l0,0l-2.3-2.5l-0.1-2.5l-0.1-0.1l-2.3-2.4l-0.2-2.5l0,0l-2.4-2.5l-0.1-0.1l-2.4-2.4l-0.1-0.1
		l-2.5-2.4l0,0l-2.5-0.2l-2.4-2.3l-0.1-0.1l-2.5-0.1l-2.4-2.3l-0.1-0.1l-2.5-0.1l-2.5-0.1L1220.9,292.6z"/>
	<path class="st3" d="M565.1,501.2L565.1,501.2l-2.5-0.1l-2.5,0l-2.5,0l-2.5,0l-2.5,0l-2.5,0l0,0l-2.5,2.4l-2.5,0.1l0,0l-2.5,2.4
		l0,0l-2.4,2.5l0,0l-0.1,2.5l-2.4,2.5l0,0l0,2.5l0,2.5l0,2.5l0,2.5l0,0l2.4,2.5l0.1,2.5l0,0l2.4,2.5l0.1,0.1l2.4,2.4l0.1,2.5l0,0
		l2.4,2.5l0,0l2.4,2.4l0.1,0.1l2.4,2.4l0.1,0.1l2.4,2.4l0.1,0.1l2.4,2.4l0.1,0.1l2.4,2.4l0.1,0.1l2.5,2.4l0,0l2.5,0.1l2.4,2.4
		l0.1,0.1l2.5,2.4l0,0l2.5,0.1l2.5,0.1l2.5,2.3l0,0l2.5,0l2.5,0l2.5,0l2.5,0l0,0l2.5-2.4l2.5-0.1l0.1-0.1l2.4-2.4l0.1-0.1l2.4-2.4
		l0.1-0.1l2.4-2.4l0.1-0.1l0.1-2.5l2.4-2.4l0,0l0-2.5l0-2.5l0-2.5l0-2.5l0-2.5l0-2.5l0,0l-2.4-2.5l-0.1-2.5l0,0l-2.4-2.4l-0.1-2.5
		l0,0l-2.5-2.5l0,0l-2.5-2.5l0,0l-2.5-2.5l0,0l-2.5-0.1l-2.4-2.4l-0.1-0.1l-2.5-2.4l0,0l-2.5-0.1l-2.4-2.4l0,0l-2.5-0.1l-2.5-2.4
		l0,0l-2.5,0l-2.5,0L565.1,501.2z"/>
</g>
<g>
	<path class="st4" d="M1258.1,118.7L1258.1,118.7l-2.5,0l-2.5,0l-2.5,0l-2.5,0l-2.5,0l-2.5,0l0,0l-2.5,2.3l-2.5,0l-2.5,0l-2.5,0
		l-2.5,0l0,0l-2.5,2.3l-2.5,0.1l-2.5,0.1l-2.5,0.1l0,0l-2.5,2.3l-2.5,0.1l-2.5,0.1l0,0l-2.5,2.4l-2.5,0.1l0,0l-2.5,2.4l-2.5,0.1l0,0
		l-2.5,2.4l-0.1,0.1l-2.4,2.4l-0.1,0.1l-2.4,2.4l-0.1,0.1l-2.4,2.4l-0.1,0.1l-0.1,2.5l-2.3,2.4l-0.1,0.1l0,2.5l0,2.5l0,2.5l0,2.5
		l0,2.5l0,0l2.4,2.4l0.1,2.5l0,0l2.5,0.1l2.4,2.4l0.1,0.1l2.5,2.4l0,0l2.5,0.1l2.5,0.1l2.5,2.3l0,0l2.5,0l2.5,0l2.5,0l2.5,0l2.5,0
		l2.5,0l2.5,0l2.5,0l2.5,0l0,0l2.5-2.3l2.5,0l2.5,0l2.5,0l2.5,0l0,0l2.5-2.3l2.5,0l2.5,0l2.5,0l2.5,0l0,0l2.5-2.3l2.5,0l2.5,0
		l2.5-0.1l0,0l2.5-2.3l2.5-0.1l2.5-0.1l0,0l2.5-2.4l0.1-0.1l2.4-2.4l0.1-0.1l2.4-2.4l0.1-0.1l2.4-2.4l0,0l0-2.5l0-2.5l0-2.5l0-2.5
		l0-2.5l-0.1-2.5l0,0l-2.4-2.4l-0.1-2.5l0,0l-2.4-2.5l0,0l-2.5-2.4l0,0l-2.5-0.1l-2.4-2.3l-0.1-0.1l-2.5-0.1l-2.4-2.3l-0.1-0.1
		l-2.5-0.1l-2.5,0L1258.1,118.7z"/>
	<path class="st4" d="M661.9,133.6L661.9,133.6l-2.5,0l-2.5,0l-2.5,0l-2.5,0l-2.5,0l-2.5,0l-2.5,0l-2.5,0l-2.5,0l-2.5,0l-2.5,0
		l-2.5,0l-2.5,0l-2.5,0l-2.5,0l0,0l-2.5,2.2l-2.5,0l-2.5,0l-2.5,0l-2.5,0l-2.5,0l-2.5,0l-2.5,0l-2.5,0l-2.5,0l0,0l-2.5,2.2l-2.5,0
		l-2.5,0l-2.5,0l-2.5,0.1l-2.5,0.1l0,0l-2.5,2.3L580,141l-0.1,0.1l-2.4,2.3l-2.5,0.1l0,0l-2.4,2.4l-0.1,0.1l-2.4,2.4l-0.1,0.1
		l-2.4,2.4l-0.1,0.1l-0.1,2.5l-2.3,2.4L565,156l-0.1,2.5l0,2.5l-2.3,2.5l0,0l0,2.5l0,2.5l0,0l2.3,2.5l0.1,2.5l0.1,2.5l0,0l2.3,2.4
		l0.1,2.5l0,0l2.4,2.5l0,0l2.4,2.4l0,0l2.5,2.4l0,0l2.5,0.1l2.4,2.4l0.1,0.1l2.5,0.1l2.4,2.3l0,0l2.5,0.1l2.5,0.1l2.4,2.3l0,0
		l2.5,0.1l2.5,0.1l2.5,2.3l0,0l2.5,0.1l2.5,0.1l2.5,2.3l0,0l2.5,0.1l2.5,0.1l2.4,2.3l0.1,0.1l2.5,0.1l2.4,2.3l0.1,0.1l2.5,0.1
		l2.4,2.3l0.1,0.1l2.5,0.1l2.3,2.3l0.2,0.2l2.4,2.3l0.1,0.1l2.4,2.4l0,0l2.5,2.4l0,0l2.5,0.2l2.3,2.3l0.2,0.2l2.3,2.3l0.2,2.5l0,0
		l2.4,2.5l0,0l2.4,2.4l0.1,0.1l2.4,2.4l0.1,0.1l2.4,2.4l0.1,0.1l2.4,2.4l0.1,0.1l2.4,2.4l0.1,0.1l2.4,2.4l0.1,0.1l2.5,0.2l2.3,2.2
		l0.2,0.2l2.4,2.3l0.1,0.1l2.5,0.1l2.4,2.3l0.1,0.1l2.5,0.1l2.5,0.1l2.4,2.2l0,0l2.5,0.1l2.5,0l2.5,0l2.5,0l2.5,0l2.5,0l2.5,0l2.5,0
		l2.5,0l2.5,0l2.5,0l2.5,0l2.5,0l0,0l2.4-2.2l2.5,0l2.5,0l2.5,0l2.5,0l2.5,0l0,0l2.5-2.3l2.5,0l2.5,0l2.5,0l2.5,0l2.5,0l2.5,2.4l0,0
		l2.5,0.1l2.4,2.4l0,2.5l0,2.5l0,2.5l0,2.5l0,2.5l0,2.5l0,2.5l0,2.5v2.5l0,2.5l0,0l2.2,2.5l0,2.5l0,2.5l0,2.5l0,2.5l0.1,2.5l0.1,2.5
		l0,0l2.3,2.5l0.1,2.5l0.1,0.1l2.2,2.4l0.1,2.5l0.1,0.1l2.3,2.4l0.2,0.2l2.3,2.3l0.2,2.5l0,0l2.5,0.2l2.3,2.3l0.2,0.2l2.4,2.3
		l0.1,0.1l2.5,0.1l2.4,2.2l0.1,0.1l2.5,0.1l2.5,0.1l2.5,2.2l0,0l2.5,0l2.5,0l2.5,0l2.5,0l0,0l2.5-2.2l2.5-0.1l2.5-0.1l0.1-0.1
		l2.4-2.3l2.5-0.2l0,0l2.4-2.4l0.1-0.1l2.4-2.3l0.2-0.2l2.3-2.3l0.2-0.2l2.3-2.4l0.1-0.1l2.4-2.5l0,0l0.2-2.5l2.3-2.5l0,0l0.1-2.5
		l0.1-2.5l0.1-2.5l2.2-2.4l0,0l0-2.5l0-2.5l0-2.5l0-2.5l0-2.5l0,0l-2.2-2.5l-0.1-2.5l-0.1-2.5l-0.1-0.1l-2.2-2.4l-0.1-2.5l-0.1-2.5
		l0,0l-2.3-2.5l-0.1-0.1l-2.3-2.3l-0.2-2.5l-0.1-0.1l-2.4-2.4l-0.1-0.1l-2.3-2.4l-0.1-0.1l-2.3-2.3l-0.1-0.1l-2.4-2.3l-0.1-0.1
		l-2.4-2.4l-0.1-0.1l-2.5-0.1l-2.4-2.3l-0.1-0.1l-2.5-2.4l0,0l-2.5-0.1l-2.5-0.1l-2.5-2.3l0,0l-2.5,0l-2.5,0l-2.5,0l-2.5-2.4l0,0
		l-2.5,0l-2.5,0l-2.5-2.4l0,0l-2.5-2.5l0,0l-2.4-2.5l0,0l-2.4-2.4l0-2.5l0-2.5l0-2.5l0,0l-2.3-2.5l0-2.5l0-2.5l0-2.5l0-2.5l0,0
		l-2.3-2.5l0-2.5l0-2.5l0-2.5l-0.1-2.5l0,0l-2.3-2.5l-0.1-2.5l-0.1-2.5l-0.1-2.5l0,0l-2.3-2.5l-0.1-2.5l-0.1-2.5l0,0l-2.3-2.5
		l-0.1-2.5l-0.1-0.1l-2.3-2.4l-0.1-2.5l0,0l-2.4-2.5l-0.1-0.1l-2.4-2.4l-0.1-0.1l-2.4-2.4l-0.1-0.1l-2.4-2.4l-0.1-0.1L734,151
		l-0.1-0.1l-2.5-0.1l-2.4-2.3l-0.1-0.1l-2.5-0.1l-2.4-2.2l-0.1-0.1l-2.5-0.1l-2.4-2.3l0,0l-2.5-0.1l-2.5-0.1l-2.5-2.3l0,0l-2.5-0.1
		l-2.5-0.1l-2.5-0.1l-2.5-0.1l-2.5-2.2l0,0l-2.5-0.1l-2.5,0l-2.5,0l-2.5,0l-2.5,0l-2.5,0l-2.5-2.2l0,0l-2.5,0l-2.5,0l-2.5,0l-2.5,0
		l-2.5,0l-2.5,0l-2.5,0L661.9,133.6z"/>
	<path class="st4" d="M1106.6,143.5L1106.6,143.5l-2.5-0.1l-2.5-0.1l-2.5,0l-2.5,0l-2.5,0l-2.5,0l-2.5,0l-2.5,0l-2.5,0l-2.5,0
		l-2.5,0l-2.5,0.1l-2.5,0.1l0,0l-2.5,2.2l-2.5,0.1l-2.5,0.1l-2.5,0.1l-0.1,0.1l-2.4,2.2l-2.5,0.1l-2.5,0.1l-2.5,0.1l-0.1,0.1
		l-2.4,2.2l-2.5,0.1l-2.5,0.1l-0.1,0.1l-2.4,2.3l-2.5,0.1l-0.1,0.1l-2.4,2.3l-2.5,0.1l-0.1,0.1l-2.4,2.3l-2.5,0.2l0,0l-2.5,2.5l0,0
		l-2.5,2.5l0,0l-0.2,2.5l-2.3,2.3l-0.1,0.1l-2.3,2.4l-0.1,0.1l-0.1,2.5l-2.3,2.4l-0.1,0.1l-0.1,2.5l-2.3,2.5l0,0l-0.1,2.5l-0.1,2.5
		l-0.1,2.5l-2.2,2.4l-0.1,0.1l-0.1,2.5l0,2.5l0,2.5l0,2.5l-2.2,2.5l0,0l0,2.5l0,2.5l0,2.5l0,2.5l0,2.5l0,2.5l0,2.5l0,0l2.3,2.5
		l0.1,2.5l0.1,2.5l0,0l2.5,2.5l0,0l2.5,2.5l0,0l2.5,0.1l2.5,2.4l0,0l2.5,0.1l2.5,0.1l2.4,2.3l0,0l2.5,0.1l2.5,0.1l2.5,0l2.5,0
		l2.5,2.2l0,0l2.5,0l2.5,0l2.5,0l2.5,0l2.5,0l2.5,0l2.5,0l0,0l2.5-2.2l2.5,0l2.5,0l2.5-0.1l2.5-0.1l0.1-0.1l2.4-2.2l2.5-0.1l2.5-0.1
		l2.5-0.1l0,0l2.5-2.3l2.5-0.1l2.5-0.1l0,0l2.5-2.3l2.5-0.1l0.1-0.1l2.4-2.2l2.5-0.1l2.5-0.1l0,0l2.5-2.3l2.5-0.1l0,0l2.4-2.3
		l2.5-0.1l0,0l2.5-2.4l0.1-0.1l2.4-2.3l2.5-0.2l0,0l2.4-2.4l0.1-0.1l2.4-2.4l0.1-0.1l2.4-2.4l0.1-0.1l0.2-2.5l2.3-2.3l0.1-0.1
		l2.3-2.4l0,0l0.1-2.5l0.1-2.5l2.2-2.4l0.1-0.1l0.1-2.5l0-2.5l0-2.5l0-2.5l2.2-2.5l0,0l0,0l-2.2-2.5l0-2.5l0-2.5l0-2.5l-0.1-2.5
		l-0.1-2.5l0,0l-2.3-2.5l-0.1-2.5l0,0l-2.4-2.5l-0.1-0.1l-2.3-2.4l-0.2-0.2l-2.3-2.3l-0.2-0.2l-2.3-2.3l-0.2-0.2l-2.4-2.3l-0.1-0.1
		l-2.4-2.4l0,0l-2.5-0.1l-2.4-2.3l0,0l-2.5-0.1l-2.5-0.1L1106.6,143.5z"/>
	<path class="st4" d="M972.4,233L972.4,233l-2.5,0l-2.5,0l0,0l-2.5,2.3l-2.5,0l-2.5,0.1l-2.5,0.1l-0.1,0.1l-2.4,2.3l-2.5,0.1
		l-0.1,0.1l-2.4,2.3l-2.5,0.2l0,0l-2.5,2.4l-0.1,0.1l-2.4,2.4l-0.1,0.1l-2.4,2.5l0,0l-0.2,2.5l-2.3,2.4l-0.1,0.1l-0.1,2.5l-2.3,2.4
		l-0.1,0.1l-0.1,2.5l-0.1,2.5l-2.3,2.5l0,0l0,2.5l0,2.5l0,2.5l0,2.5l0,2.5l0,2.5l0,0l2.3,2.5l0.1,2.5l0.1,2.5l0.1,0.1l2.2,2.4
		l0.1,2.5l0.1,2.5l0,0l2.3,2.4l0.1,2.5l0,0l2.4,2.4l0.1,2.5l0,0l2.4,2.5l0.1,0.1l2.4,2.4l0.1,2.5l0,0l2.4,2.5l0,0l2.4,2.4l0,0
		l2.5,2.4l0,0l2.5,0.1l2.5,2.4l0,0l2.5,0l2.5,0l2.5,0l0,0l2.5-2.4l2.5-0.1l0,0l2.5-2.4l0,0l2.4-2.5l0,0l0.1-2.5l2.4-2.4l0.1-0.1
		l2.4-2.4l0,0l0.1-2.5l2.3-2.4l0.1-0.1l0.1-2.5l2.3-2.4l0.1-0.1l0.1-2.5l2.3-2.4l0.1-0.1l0.1-2.5l2.3-2.4l0.1-0.1l0.1-2.5l2.3-2.5
		l0,0l0.1-2.5l0.1-2.5l0.1-2.5l2.2-2.4l0,0l0-2.5l0-2.5l0-2.5l0-2.5l0-2.5l0-2.5l0-2.5l0-2.5l0-2.5l0-2.5l0,0l-2.4-2.5l-0.1-2.5l0,0
		l-2.5-2.5l0,0l-2.5-0.1l-2.4-2.4l-0.1-0.1l-2.5-0.1l-2.4-2.3l-0.1-0.1l-2.5-0.1l-2.5,0l-2.5,0L972.4,233z"/>
	<path class="st4" d="M309.2,357.2L309.2,357.2l-2.5-0.1l-2.5,0l-2.5,0l-2.5,0l-2.5,0l-2.5,0.1l-0.1,0l-2.4,2.4l-0.1,0.1l-2.4,2.4
		l-0.1,0.1l-2.4,2.4l-0.1,0.1l-0.1,2.5l-2.4,2.5l0,0l0,2.5l0,2.5l0,2.5l0,2.5l0,2.5l0,2.5l0,0l2.3,2.5l0,2.5l0.1,2.5l0,0l2.3,2.4
		l0.1,2.5l0.1,0.1l2.3,2.4l0.1,2.5l0.1,0.1l2.4,2.4l0.1,2.5l0,0l2.4,2.5l0.1,0.1l2.4,2.4l0.1,0.1l2.4,2.4l0.1,0.1l2.4,2.4l0.1,0.1
		l2.5,2.4l0,0l2.5,0.1l2.4,2.4l0,0l2.5,0.1l2.5,0l2.5,2.4l0,0l2.5,0l2.5,0l0,0l2.5-2.4l2.5-0.1l0,0l2.5-2.4l0,0l2.4-2.5l0,0l0.1-2.5
		l0-2.5l0-2.5l2.4-2.5l0,0l0,0l-2.3-2.5l0-2.5l0-2.5l0-2.5l0-2.5l0,0l-2.4-2.5l-0.1-2.5l-0.1-2.5l0,0l-2.4-2.5l-0.1-2.5l0,0
		l-2.4-2.5l-0.1-2.5l0,0l-2.4-2.5l-0.1-2.5l0,0l-2.4-2.5l-0.1-0.1l-2.4-2.4l-0.1-0.1l-2.4-2.4l-0.1-2.5l0,0l-2.5-0.1l-2.4-2.4
		l-0.1-0.1L309.2,357.2z"/>
	<path class="st4" d="M480.6,404.4L480.6,404.4l-2.5,0l-2.5,0l0,0l-2.5,2.4l-2.5,0.1l0,0l-2.5,2.5l0,0l-0.1,2.5l-2.4,2.4l-0.1,0.1
		l-2.4,2.5l0,0l-0.1,2.5l-2.4,2.5l0,0l-0.1,2.5l-0.1,2.5l-2.3,2.4l-0.1,0.1l-0.1,2.5l-2.3,2.5l0,0l-0.1,2.5l-0.1,2.5l0,2.5l-2.3,2.5
		l0,0l0,2.5l0,2.5l0,2.5l0,2.5l0,0l2.3,2.5l0.1,2.5l0.1,2.5l0,0l2.4,2.5l0.1,0.1l2.4,2.4l0.1,0.1l2.4,2.4l0.1,0.1l2.5,0.1l2.4,2.3
		l0.1,0.1l2.5,0.1l2.5,0l2.5,0l2.5,0l2.5,0l2.5,0l2.5-0.1l0,0l2.5-2.4l0.1-0.1l2.4-2.3l2.5-0.1l0,0l0.1-2.5l2.3-2.4l0.1-0.1l2.4-2.4
		l0.1-0.1l0.1-2.5l2.3-2.5l0,0l0.1-2.5l0-2.5l0-2.5l0-2.5l0-2.5l0-2.5l0-2.5l0-2.5l0-2.5l0,0l-2.3-2.5l-0.1-2.5l-0.1-2.5l0,0
		l-2.4-2.5l-0.1-2.5l0,0l-2.4-2.5l-0.1-0.1l-2.4-2.4l-0.1-2.5l0,0l-2.5-2.5l0,0l-2.5-2.5l0,0l-2.5-0.1L480.6,404.4z"/>
	<path class="st4" d="M1392.2,451.6L1392.2,451.6l-2.5,0l0,0l-2.5,2.3l-2.5,0l-2.5,0.1l0,0l-2.4,2.4l-2.5,0.1l0,0l-2.5,2.5l0,0
		l-2.5,2.4l0,0l-2.4,2.5l0,0l-0.1,2.5l-2.3,2.4l-0.1,0.1l-2.4,2.4l0,0l-0.1,2.5l-2.4,2.4l0,0l-0.1,2.5l-2.4,2.5l0,0l-0.1,2.5l0,2.5
		l0,2.5l0,2.5l0,2.5l0,2.5l0,2.5l0,2.5l0,2.5l0,0l2.4,2.5l0.1,2.5l0,0l2.5,0.1l2.4,2.4l0.1,0.1l2.5,0l2.5,2.4l0,0l2.5,0l0,0l2.5-2.3
		l2.5,0l2.5,0l0.1-0.1l2.4-2.3l2.5-0.1l0.1-0.1l2.4-2.4l0.1-0.1l2.4-2.4l0.1-0.1l2.4-2.4l0.1-0.1l2.4-2.4l0.1-0.1l2.4-2.5l0,0
		l0.1-2.5l2.4-2.4l0.1-0.1l0.1-2.5l2.3-2.4l0,0l0.1-2.5l0.1-2.5l2.3-2.5l0,0l0-2.5l0-2.5l0-2.5l0-2.5l0-2.5l0,0l-2.3-2.4l-0.1-2.5
		l-0.1-2.5l0,0l-2.4-2.5l0,0l-2.5-2.4l0,0l-2.5-0.1l-2.5,0L1392.2,451.6z"/>
	<path class="st4" d="M1191,476.4L1191,476.4l-2.5,0l-2.5,0l-2.5,0l-2.5,0l0,0l-2.5,2.4l-2.5,0l0,0l-2.4,2.4l0,0l-2.4,2.5l0,0l0,2.5
		l0,0l2.4,2.5l0,2.5l0,2.5l0,0l2.4,2.5l0,0l2.4,2.4l0.1,0.1l2.4,2.4l0,0l2.5,2.4l0,0l2.5,0.1l2.5,2.4l0,0l2.5,0l2.5,0l2.5,0l2.5,0
		l2.5,0l0,0l2.4-2.4l2.5-0.1l0,0l0.1-2.5l2.4-2.5l0,0l0-2.5l0-2.5l0-2.5l0,0l-2.4-2.5l-0.1-2.5l0,0l-2.4-2.4l-0.1-0.1l-2.4-2.4l0,0
		l-2.5-0.1l-2.4-2.4l-0.1-0.1l-2.5,0L1191,476.4z"/>
	<path class="st4" d="M791.1,478.9L791.1,478.9l-2.5-0.1l-2.5,0l-2.5,0l-2.5,0l-2.5,0l0,0l-2.5,2.3l-2.5,0l-2.5,0.1l-2.5,0.1
		l-0.1,0.1l-2.4,2.3l-2.5,0.1l-2.5,0.1l-0.1,0.1l-2.4,2.3l-2.5,0.1l-2.5,0.1l0,0l-2.4,2.3l-2.5,0.1l-0.1,0.1l-2.4,2.3l-2.5,0.1
		l-0.1,0.1l-2.4,2.4l-2.5,0.1l0,0l-2.5,2.4l0,0l-2.4,2.5l0,0l-0.1,2.5l-2.4,2.4l-0.1,0.1l-0.1,2.5l0,2.5l-2.3,2.5l0,0l0,2.5l0,0
		l2.3,2.5l0,2.5l0.1,2.5l0,0l2.4,2.5l0.1,0.1l2.3,2.4l0.1,2.5l0,0l2.5,2.5l0,0l2.5,2.5l0,0l2.5,2.5l0,0l2.5,0.1l2.4,2.3l0.1,0.1
		l2.4,2.4l0.1,0.1l2.4,2.4l0.1,0.1l2.4,2.4l0.1,0.1l2.4,2.4l0,0l2.5,2.4l0,0l2.5,0.1l2.4,2.3l0.1,0.1l2.4,2.4l0.1,0.1l2.5,0.1
		l2.4,2.3l0.1,0.1l2.5,0.1l2.4,2.3l0.1,0.1l2.5,0.1l2.5,0l2.5,0l2.5,0l2.5,0l2.5,0l2.5-0.1l2.5-0.1l0,0l2.5-2.4l2.5-0.1l0,0l2.5-2.4
		l0.1-0.1l2.4-2.4l0.1-0.1l2.4-2.4l0.1-0.1l2.4-2.5l0,0l0.1-2.5l2.4-2.4l0,0l0.1-2.5l0.1-2.5l2.3-2.4l0.1-0.1l0.1-2.5l0-2.5l0-2.5
		l2.3-2.5l0,0l0-2.5l0-2.5l0-2.5l0-2.5l0-2.5l0,0l-2.3-2.5l0-2.5l-0.1-2.5l-0.1-2.5l-0.1-0.1l-2.3-2.4l-0.1-2.5l-0.1-0.1l-2.3-2.4
		l-0.1-2.5l-0.1-0.1l-2.4-2.4l-0.1-0.1l-2.3-2.4l-0.1-0.1l-2.4-2.3l-0.1-0.1l-2.4-2.4l-0.1-0.1l-2.5-0.1l-2.4-2.3l-0.1-0.1l-2.5-0.1
		l-2.5-0.1L791.1,478.9z"/>
	<path class="st4" d="M935.2,481.4L935.2,481.4l-2.5,0l-2.5,0l-2.5,0l-2.5,0l-2.5,0l0,0l-2.5,2.3l-2.5,0l-2.5,0.1l-2.5,0.1l-0.1,0.1
		l-2.4,2.3l-2.5,0.1l-2.5,0.1l0,0l-2.5,2.4l-0.1,0.1l-2.4,2.3l-2.5,0.2l0,0l-2.5,2.4l0,0l-2.4,2.5l0,0l-0.2,2.5l-2.3,2.4l-0.1,0.1
		l-0.1,2.5l-2.3,2.4l-0.1,0.1l-0.1,2.5l-0.1,2.5l-2.2,2.4l-0.1,0.1l0,2.5l0,2.5l0,2.5l0,2.5l0,2.5l0,2.5l0,2.5l0,0l2.2,2.5l0.1,2.5
		l0.1,2.5l0.1,2.5l0,0l2.3,2.5l0.1,2.5l0.1,0.1l2.2,2.4l0.1,2.5l0.1,0.1l2.2,2.4l0.2,2.5l0.1,0.1l2.3,2.4l0.2,0.2l2.3,2.3l0.2,2.5
		l0,0l2.4,2.5l0,0l2.4,2.4l0,0l2.5,0.2l2.3,2.2l0.2,0.2l2.4,2.3l0.1,0.1l2.5,0.1l2.4,2.3l0.1,0.1l2.5,0.1l2.5,0.1l2.4,2.2l0.1,0.1
		l2.5,0.1l2.5,0l2.5,0l2.5,0l2.5,0l2.5,0l2.5-0.1l0.1-0.1l2.4-2.2l2.5-0.1l2.5-0.1l0.1-0.1l2.4-2.2l2.5-0.1l0.1-0.1l2.4-2.3l2.5-0.2
		l0.1-0.1l2.4-2.4l0.1-0.1l2.4-2.3l0.1-0.1l2.3-2.3l0.1-0.1l2.3-2.4l0.1-0.1l2.4-2.4l0,0l0.2-2.5l2.3-2.4l0.1-0.1l0.1-2.5l2.3-2.4
		l0.1-0.1l0.1-2.5l0.1-2.5l2.3-2.5l0,0l0-2.5l0-2.5l0-2.5l0-2.5l0-2.5l0,0l-2.2-2.5l-0.1-2.5l-0.1-2.5l-0.1-2.5l0,0l-2.3-2.5
		l-0.1-2.5l-0.1-0.1l-2.3-2.4l-0.1-2.5l0,0l-2.4-2.4l-0.1-0.1l-2.3-2.4l-0.2-2.5l0,0l-2.4-2.5l-0.1-0.1l-2.4-2.4l-0.1-0.1l-2.4-2.4
		l-0.1-0.1l-2.4-2.4l-0.1-0.1l-2.5-2.4l0,0l-2.5-0.1l-2.4-2.4l-0.1-0.1l-2.5-0.1l-2.5-2.3l0,0l-2.5-0.1l-2.5-0.1l-2.5,0L935.2,481.4
		z"/>
	<path class="st4" d="M396.2,481.4L396.2,481.4l-2.5-0.1l-2.5,0l-2.5,0l-2.5,0l-2.5,0l-2.5,0l-2.5,0l-2.5,0.1l0,0l-2.5,2.3l-2.5,0.1
		l-2.5,0.1l0,0l-2.5,2.3l-0.1,0.1l-2.3,2.3l-2.5,0.2l0,0l-2.4,2.4l-0.1,0.1l-2.4,2.5l0,0l-0.2,2.5l-2.3,2.4l-0.1,0.1l-0.1,2.5
		l-2.2,2.4l-0.1,0.1l-0.1,2.5l-0.1,2.5l-2.2,2.4l0,0l0,2.5l0,2.5l0,2.5l0,2.5l0,2.5l0,2.5l0.1,2.5l0,0l2.2,2.5l0.1,2.5l0.1,2.5
		l0.1,0.1l2.2,2.4l0.1,2.5l0.2,0.2l2.2,2.3l0.2,2.5l0.1,0.1l2.2,2.3l0.2,2.5l0,0l2.4,2.4l0.1,0.1l2.3,2.4l0.2,0.2l2.3,2.3l0.2,0.2
		l2.3,2.3l0.1,0.1l2.4,2.3l0.1,0.1l2.5,2.4l0,0l2.5,0.2l2.4,2.3l0.1,0.1l2.5,0.2l2.4,2.3l0.1,0.1l2.5,0.1l2.5,0.1l2.5,2.2l0,0
		l2.5,0.1l2.5,0l2.5,0l2.5,0l2.5,0l2.5,0l2.5-0.1l0,0l2.5-2.3l2.5-0.1l0.1-0.1l2.4-2.2l2.5-0.1l0.1-0.1l2.4-2.3l2.5-0.2l0,0l2.5-2.5
		l0,0l2.5-2.5l0,0l0.2-2.5l2.3-2.4l0.1-0.1l0.1-2.5l2.2-2.4l0.1-0.1l0.1-2.5l2.2-2.5l0,0l0.1-2.5l0.1-2.5l0-2.5l0-2.5l0-2.5l0-2.5
		l0-2.5l0-2.5l0-2.5l-0.1-2.5l-0.1-2.5l-0.1-0.1l-2.2-2.4l-0.1-2.5l-0.1-2.5l-0.1-0.1l-2.2-2.4l-0.1-2.5l-0.1-0.1l-2.2-2.4l-0.2-2.5
		l-0.1-0.1l-2.4-2.4l-0.1-0.1l-2.3-2.4l-0.2-0.2l-2.3-2.3l-0.2-0.2l-2.4-2.3l-0.1-0.1l-2.5-2.4l0,0l-2.5-0.2l-2.4-2.3l-0.1-0.1
		l-2.5-0.1l-2.5-2.3l0,0l-2.5-0.1l-2.5-0.1l-2.5-0.1L396.2,481.4z"/>
	<path class="st4" d="M1307.8,521.1L1307.8,521.1l-2.5-0.1l-2.5,0l-2.5,0l-2.5,0l-2.5,0l-2.5,0l0,0l-2.4,2.2l-2.5,0.1l-2.5,0.1
		l-0.1,0.1l-2.4,2.2l-2.5,0.1l-0.1,0.1l-2.4,2.3l-2.5,0.2l0,0l-2.5,2.4l-0.1,0.1l-2.4,2.4l-0.1,0.1l-2.4,2.5l0,0l-0.2,2.5l-2.3,2.4
		l-0.1,0.1l-0.2,2.5l-2.2,2.4l-0.1,0.1l-0.1,2.5l-2.2,2.4l-0.1,0.1l-0.1,2.5l-0.1,2.5l-0.1,2.5l-2.2,2.5l0,0l0,2.5l0,2.5l0,2.5
		l0,2.5l0,2.5l0,2.5l0,2.5l0,0l2.2,2.5l0.1,2.5l0.1,2.5l0.1,2.5l0.1,2.5l0,0l2.3,2.5l0.1,2.5l0.1,0.1l2.3,2.4l0.1,2.5l0.1,0.1
		l2.3,2.4l0.1,2.5l0,0l2.4,2.5l0,0l2.5,2.4l0,0l2.5,0.1l2.4,2.4l0,0l2.5,0.1l2.5,0l2.5,0l2.5,0l2.5,0l2.5,0l2.5,0l2.5-0.1l0,0
		l2.4-2.3l2.5-0.1l2.5-0.1l0,0l2.5-2.3l2.5-0.1l0,0l2.4-2.3l0.2-0.2l2.3-2.2l2.5-0.2l0.1-0.1l2.4-2.4l0.1-0.1l2.4-2.3l0.1-0.1
		l2.3-2.4l0.1-0.1l2.4-2.4l0.1-0.1l2.4-2.5l0,0l0.2-2.5l2.3-2.4l0.1-0.1l0.2-2.5l2.2-2.4l0.1-0.1l0.1-2.5l0.1-2.5l2.2-2.4l0.1-0.1
		l0.1-2.5l0.1-2.5l0-2.5l2.2-2.5l0,0l0-2.5l0-2.5l0-2.5l0-2.5l0-2.5l0,0l-2.2-2.5l-0.1-2.5l-0.1-2.5l-0.1-2.5l0,0l-2.4-2.5l-0.1-0.1
		l-2.3-2.4l-0.1-2.5l0,0l-2.5-2.5l0,0l-2.5-0.2l-2.3-2.3l-0.1-0.1l-2.4-2.3l0,0l-2.5-0.1l-2.5-2.3l0,0l-2.5-0.1l-2.5-0.1l-2.5-0.1
		L1307.8,521.1z"/>
</g>
<g>
	<path class="st5" d="M1250.7,133.6L1250.7,133.6l-2.5-0.1l-2.5,0l-2.5,0l-2.5,0l-2.5,0l-2.5,0l-2.5,0l-2.5,0l-2.5,0l-2.5,0l-2.5,0
		l-2.5,0l-2.5,0l0,0l-2.5,2.3l-2.5,0l-2.5,0l-2.5,0l-2.5,0.1l0,0l-2.5,2.3l-2.5,0.1l-2.5,0.1l0,0l-2.5,2.4l-2.5,0.1l0,0l-2.5,2.4
		l-2.5,0.1l0,0l-2.5,2.4l-0.1,0.1l-2.4,2.4l-0.1,0.1l-2.4,2.3l-2.5,0.1l0,0l-2.5,2.4l-0.1,0.1l-2.4,2.4l-0.1,0.1l-2.4,2.4l-0.1,0.1
		l-2.4,2.4l-2.5,0.1l0,0l-2.5,2.4l0,0l-2.4,2.4l-0.1,0.1l-2.4,2.4l-2.5,0.1l0,0l-2.5,2.4l-0.1,0.1l-2.4,2.4l-2.5,0.1l0,0l-2.5,2.4
		l-0.1,0.1l-2.4,2.4l-2.5,0.1l0,0l-2.4,2.4l-2.5,0.1l0,0l-2.5,2.5l0,0l-2.5,2.4l0,0l-2.4,2.4l0,0l-2.4,2.5l0,0l-2.5,2.5l0,0l0,2.5
		l0,2.5l0,2.5l0,2.5l0,0l2.5,2.5l0,0l2.5,2.5l0,0l2.5,0l2.5,0l2.5,2.4l0,0l2.5,0l2.5,0l2.5,0l2.5,0l2.5,0l2.5,0l2.5,0l2.5,0l2.5,0
		l2.5,0l2.5,0l2.5,0l2.5,0l2.5,0l2.5,0l2.5,0l2.5,0l2.5,2.4l0,0l2.5,0.1l2.5,0.1l2.5,2.4l0,0l2.5,0.1l2.5,0.1l2.4,2.3l0.1,0.1
		l2.5,0.1l2.4,2.3l0.1,0.1l2.5,0.1l2.5,2.3l0,0l2.5,0.1l2.5,0.1l2.5,0l2.5,2.3l0,0l2.5,0l2.5,0l2.5,0l2.5,0l2.5,0l2.5,0l2.5,0l0,0
		l2.5-2.3l2.5,0l2.5-0.1l2.5-0.1l0,0l2.5-2.3l2.5-0.1l2.5-0.1l0,0l2.4-2.3l2.5-0.1l2.5-0.1l0,0l2.5-2.3l2.5-0.1l0.1-0.1l2.4-2.3
		l2.5-0.1l2.5-0.1l0,0l2.5-2.3l2.5-0.1l2.5-0.1l0,0l2.5-2.3l2.5-0.1l2.5-0.1l0,0l2.5-2.3l2.5-0.1l2.5-0.1l0,0l2.5-2.4l2.5-0.1l0,0
		l2.5-2.4l0.1-0.1l2.4-2.4l2.5-0.1l0,0l0.1-2.5l2.4-2.4l0.1-0.1l2.4-2.5l0,0l0.1-2.5l0-2.5l0-2.5l0-2.5l0-2.5l0-2.5l-0.1-2.5l0,0
		l-2.3-2.5l-0.1-2.5l-0.1-0.1l-2.4-2.4l-0.1-2.5l0,0l-2.4-2.5l0,0l-2.4-2.4l-0.1-0.1l-2.4-2.4l-0.1-0.1l-2.4-2.4l0,0l-2.5-2.4l0,0
		l-2.5-0.1l-2.4-2.3l-0.1-0.1l-2.5-2.4l0,0l-2.5-0.1l-2.4-2.3l-0.1-0.1l-2.5-0.1l-2.4-2.3l-0.1-0.1l-2.5-0.1l-2.5-2.3l0,0l-2.5-0.1
		l-2.5-0.1l-2.5-2.3l0,0l-2.5-0.1l-2.5-0.1l-2.5,0l-2.5,0L1250.7,133.6z"/>
	<path class="st5" d="M525.3,133.6L525.3,133.6l-2.5-0.1l-2.5-0.1l-2.5,0l-2.5,0l-2.5,0l-2.5,0l-2.5,0l-2.5,0l-2.5,0l-2.5,0
		l-2.5,0.1l-2.5,0.1l0,0l-2.5,2.3l-2.5,0.1l-2.5,0.1l0,0l-2.5,2.3l-2.5,0.1l0,0l-2.5,2.4l-2.5,0.1l0,0l-2.5,2.4l-0.1,0.1l-2.4,2.3
		L473,146l-2.3,2.3l-2.5,0.1l0,0l-2.5,2.5l0,0l-2.5,2.5l0,0l-0.1,2.5l-2.4,2.4l-0.1,0.1l-0.1,2.5l-2.3,2.4l0,0l0,2.5l0,2.5l0,2.5
		l0,2.5l0,2.5l0,2.5l0.1,2.5l0,0l2.3,2.5l0.1,2.5l0.1,0.1l2.3,2.4l0.1,2.5l0,0l2.4,2.4l0.1,0.1l2.3,2.4l0.1,0.1l2.3,2.3l0.2,0.2
		l2.3,2.3l0.2,0.2l2.3,2.3l0.2,0.2l2.3,2.3l0.1,0.1l2.4,2.3l0.1,0.1l2.4,2.4l0,0l2.5,0.2l2.4,2.3l0.1,0.1l2.5,2.4l0,0l2.5,0.1
		l2.5,0.1l2.4,2.2l0.1,0.1l2.5,0.1l2.4,2.3l0,0l2.5,0.1l2.5,0.1l2.5,0.1l2.4,2.3l0,0l2.5,0l2.5,0l2.5,0l2.5,0l2.5,0l2.5,0l2.5,0
		l2.5,0l2.5,2.3l0,0l2.5,0l2.5,0l2.5,0l2.5,0l2.5,0l2.5,0l2.5,0l2.5,0l2.5,0l2.5,0l2.5,0l2.5,0l2.5,0l0,0l2.5-2.3l2.5,0l2.5,0
		l2.5-0.1l0,0l2.5-2.4l2.5-0.1l0,0l2.4-2.4l2.5-0.1l0,0l2.5-2.4l0.1-0.1l2.4-2.4l0.1-0.1l2.4-2.4l0.1-0.1l2.4-2.4l0.1-0.1l2.4-2.4
		l0.1-0.1l2.4-2.4l0.1-0.1l2.4-2.4l0,0l0.1-2.5l2.4-2.4l0.1-0.1l0.1-2.5l2.4-2.4l0,0l0-2.5l2.4-2.5l0,0l0-2.5l0-2.5l0-2.5l0-2.5
		l0-2.5l0-2.5l0-2.5l0-2.5l0,0l-2.4-2.4l0-2.5l0,0l-2.4-2.4l-0.1-0.1l-2.4-2.4l-0.1-0.1l-2.5-2.4l0,0l-2.5,0l-2.5,0l-2.5-2.4l0,0
		l-2.5,0l-2.5,0l-2.5,0l-2.5,0l-2.5,0l-2.5,0l-2.5,0l-2.5,0l-2.5,0l-2.5,0l-2.5-2.3l0,0l-2.5,0l-2.5,0l-2.5,0l-2.5-0.1l-2.4-2.3l0,0
		l-2.5-0.1l-2.5-0.1l-2.4-2.3l-0.1-0.1l-2.5-0.1l-2.4-2.3l0,0l-2.5-0.1l-2.5-2.3l0,0l-2.5-0.1l-2.5-0.1l-2.4-2.3l-0.1-0.1l-2.5-0.1
		L525.3,133.6z"/>
	<path class="st5" d="M1076.8,213.1L1076.8,213.1l-2.5,0l-2.5,0l0,0l-2.5,2.4l-2.5,0l-2.5,0l0,0l-2.5,2.5l0,0l-2.5,2.4l-0.1,0.1
		l-2.4,2.4l-0.1,0.1l-2.4,2.4l-0.1,0.1l-2.4,2.4l-2.5,0.1l0,0l-2.5,2.5l0,0l-2.5,2.5l0,0l-2.5,2.4l0,0l-2.4,2.4l-0.1,0.1l-2.4,2.4
		l-0.1,0.1l-2.4,2.4l-0.1,0.1l-2.4,2.4l-0.1,0.1l-2.4,2.4l-0.1,0.1l-2.4,2.4l-0.1,0.1l-2.4,2.4l-0.1,0.1l-2.4,2.4l-0.1,0.1l-2.4,2.4
		l-0.1,0.1l-2.4,2.4l-0.1,0.1l-2.4,2.5l0,0l-0.1,2.5l-2.3,2.4l-0.1,0.1l-2.4,2.5l0,0l-0.1,2.5l-2.4,2.5l0,0l-0.1,2.5l-0.1,2.5
		l-2.3,2.5l0,0l-0.1,2.5l0,2.5l0,2.5l0,2.5l-2.3,2.5l0,0l0,2.5l0,2.5l0,2.5l0,2.5l0,2.5l0,2.5l0,2.5l0,2.5l0,2.5l0,2.5l0,2.5l0,2.5
		l0,2.5l0,2.5l0,2.5l0,0l2.3,2.5l0,2.5l0.1,2.5l0.1,2.5l0.1,0.1l2.3,2.4l0.1,2.5l0.1,2.5l0,0l2.3,2.4l0.1,2.5l0,0l2.4,2.5l0.1,0.1
		l2.3,2.4l0.1,0.1l2.3,2.3l0.1,2.5l0,0l2.5,2.5l0,0l2.5,0.1l2.4,2.3l0.1,0.1l2.4,2.4l0.1,0.1l2.4,2.4l0.1,0.1l2.4,2.4l0.1,0.1
		l2.4,2.4l0.1,0.1l2.4,2.4l0.1,0.1l2.4,2.4l0.1,2.5l0,0l2.4,2.5l0.1,0.1l2.4,2.4l0.1,2.5l0,0l2.4,2.5l0.1,0.1l2.3,2.4l0.1,2.5
		l0.1,0.1l2.4,2.4l0.1,2.5l0,0l2.4,2.5l0.1,0.1l2.4,2.4l0.1,0.1l2.4,2.4l0.1,0.1l2.4,2.4l0.1,0.1l2.4,2.4l0.1,0.1l2.4,2.4l0.1,0.1
		l2.4,2.4l0,0l2.5,2.4l0,0l2.5,0l2.5,2.4l0,0l2.5,0l2.5,0l2.5,0l2.5,0l0,0l2.5-2.5l0,0l2.5-2.4l0,0l2.4-2.5l0,0l0.1-2.5l2.4-2.4l0,0
		l0.1-2.5l2.4-2.4l0.1-0.1l0.1-2.5l2.4-2.4l0,0l0-2.5l2.4-2.5l0,0l0-2.5l0-2.5l2.4-2.5l0,0l0-2.5l0-2.5l0-2.5l0-2.5l0-2.5l0-2.5
		l0-2.5l0-2.5l0,0l-2.4-2.5l0,0l-2.4-2.4l-0.1-2.5l0,0l-2.4-2.5l0,0l-2.4-2.4l-0.1-2.5l0,0l-2.4-2.5l0-2.5l0,0l-2.4-2.5l0-2.5l0-2.5
		l0-2.5l0-2.5l0-2.5l0-2.5l0-2.5l0-2.5l0-2.5l0-2.5l0-2.5l2.4-2.5l0,0l0.1-2.5l0.1-2.5l2.4-2.5l0,0l0.1-2.5l2.4-2.4l0,0l0.1-2.5
		l2.4-2.4l0.1-0.1l2.4-2.5l0,0l0.1-2.5l2.4-2.4l0,0l0.1-2.5l2.4-2.4l0.1-0.1l0.1-2.5l2.3-2.4l0.1-0.1l0.1-2.5l2.4-2.5l0,0l0-2.5
		l0-2.5l0-2.5l0-2.5l0-2.5l0-2.5l0-2.5l0-2.5l0-2.5l0-2.5l0,0l-2.4-2.5l-0.1-2.5l-0.1-0.1l-2.4-2.4l-0.1-2.5l-0.1-0.1l-2.4-2.4
		l-0.1-2.5l0,0l-2.4-2.5l-0.1-0.1l-2.4-2.4l-0.1-2.5l0,0l-2.5-2.5l0,0l-2.5-2.5l0,0l-2.5-2.5l0,0l-2.5-2.5l0,0l-2.5-2.5l0,0
		l-2.5-2.5l0,0l-2.5-2.5l0,0l-2.5-2.5l0,0l-2.5,0L1076.8,213.1z"/>
	<path class="st5" d="M701.7,218.1L701.7,218.1l-2.5-0.1l-2.5,0l-2.5,0l-2.5,0l-2.5,0l-2.5,0l-2.5,0l-2.5,0l-2.5,0l0,0l-2.5,2.3
		l-2.5,0.1l-0.1,0.1l-2.4,2.3l-2.5,0.1l0,0l-2.4,2.4l-0.1,0.1l-2.4,2.4l-0.1,0.1l-2.4,2.4l-0.1,0.1l-0.1,2.5l-2.3,2.4l-0.1,0.1
		l-0.1,2.5l-2.3,2.5l0,0l0,2.5l0,2.5l0,2.5l0,2.5l0,2.5l0,2.5l0,2.5l0,2.5l0,0l2.2,2.5l0,2.5l0,2.5l0.1,2.5l0.1,2.5l0,0l2.2,2.4
		l0,2.5l0,2.5l0,2.5l0,2.5l0,2.5l0,0l2.3,2.5l0,2.5l0,2.5l0,2.5l0,2.5l0,2.5l0,2.5l0,2.5l0,2.5l0,2.5l0,2.5l0,0l2.3,2.5l0,2.5l0,2.5
		l0,2.5l0,2.5l0,2.5l0,0l2.4,2.5l0,2.5l0,2.5l0,2.5l0,0l2.4,2.5l0,2.5l0,2.5l0,2.5l0,2.5l-2.4,2.5l0,0l-2.5,2.5l0,0l-2.5,2.4l-2.5,0
		l0,0l-2.5,2.4l-2.5,0l-2.5,0l-2.5,0l0,0l-2.5,2.4l-2.5,0l-2.5,0l0,0l-2.5,2.4l-2.5,0l-2.5,0l-2.5,0l0,0l-2.5,2.4l-2.5,0l-2.5,0
		l-2.5,0l0,0l-2.5,2.4l-2.5,0l-2.5,0l-2.5,0l0,0l-2.5,2.4l-2.5,0l0,0l-2.5,2.5l0,0l-2.5,2.5l0,0l0,2.5l0,2.5l0,2.5l0,2.5l0,2.5l0,0
		l2.4,2.5l0,2.5l0,0l2.4,2.5l0,2.5l0,0l2.4,2.5l0,2.5l0,0l2.4,2.5l0,2.5l0,0l2.4,2.5l0,0l2.4,2.4l0.1,2.5l0,0l2.5,2.5l0,0l2.5,2.5
		l0,0l2.5,0.1l2.5,2.4l0,0l2.5,0l2.5,2.4l0,0l2.5,0l2.5,0l2.5,0h2.5l2.5,0l2.5,0l2.5,0l0,0l2.5-2.4l2.5,0l2.5,0l2.5,0l2.5,0l0,0
		l2.5-2.4l2.5,0l0,0l2.4-2.4l2.5-0.1l0.1-0.1l2.4-2.4l2.5-0.1l0,0l2.4-2.4l0.1-0.1l2.4-2.4l0.1-0.1l2.4-2.4l0,0l2.4-2.5l0,0l0.1-2.5
		l0-2.5l2.4-2.5l0,0l0-2.5l0-2.5l0-2.5l0-2.5l0-2.5l0-2.5l0-2.5l0-2.5l0-2.5l0-2.5v-2.5l0-2.5l0-2.5l2.4-2.4l0,0l2.4-2.4l2.5,0l0,0
		l2.5-2.4l2.5,0l2.5,0l0,0l2.5-2.4l2.5,0l2.5-0.1l0,0l2.5-2.3l2.5-0.1l2.5-0.1l0,0l2.5-2.3l2.5-0.1l0.1-0.1l2.4-2.3l2.5-0.1l0.1-0.1
		l2.4-2.3l2.5-0.1l0,0l2.5-2.4l0.1-0.1l2.4-2.4l0.1-0.1l2.4-2.4l0.1-0.1l2.4-2.4l0.1-0.1l2.4-2.4l0.1-0.1l2.4-2.5l0,0l0.2-2.5
		l2.3-2.4l0.1-0.1l2.4-2.5l0,0l0.1-2.5l0.1-2.5l2.2-2.4l0.1-0.1l0.1-2.5l2.3-2.5l0,0l0.1-2.5l0.1-2.5l0-2.5l0-2.5l2.2-2.5l0,0l0-2.5
		l0-2.5l0-2.5l0-2.5l0,0l-2.2-2.5l0-2.5l0-2.5l0-2.5l-0.1-2.5l-0.1-2.5l0,0l-2.3-2.5l-0.1-2.5l-0.1-0.1l-2.3-2.4l-0.1-2.5l-0.1-2.5
		l0,0l-2.4-2.5l-0.1-2.5l0,0l-2.4-2.5l-0.1-0.1l-2.3-2.4l-0.1-2.5l0,0l-2.4-2.5l-0.1-0.1l-2.4-2.4l-0.1-0.1l-2.3-2.4l-0.1-0.1
		l-2.3-2.3l-0.2-0.2l-2.3-2.3l-0.2-0.2l-2.3-2.3l-0.1-0.1l-2.4-2.3l-0.1-0.1l-2.4-2.4l-0.1-0.1l-2.4-2.4l0,0l-2.5-0.1l-2.4-2.3
		l-0.1-0.1l-2.4-2.4l0,0l-2.5-0.1l-2.4-2.3l-0.1-0.1l-2.5-0.1l-2.4-2.3l0,0l-2.5-0.1l-2.5-0.1L701.7,218.1z"/>
	<path class="st5" d="M1173.7,280.2L1173.7,280.2l-2.5-0.1l-2.5,0l-2.5,0l-2.5,0l0,0l-2.5,2.4l-2.5,0.1l-0.1,0.1l-2.4,2.4l-2.5,0.1
		l0,0l-2.5,2.5l0,0l-0.1,2.5l-2.4,2.4l-0.1,0.1l-0.1,2.5l-2.4,2.4l0,0l0,2.5l0,2.5l0,2.5l0,2.5l0,2.5l0,2.5l0,2.5l0,2.5l0,2.5l0,2.5
		l0,2.5l0,2.5l0,0l2.4,2.5l0,2.5l0,2.5l0,0l2.4,2.4l0,2.5l0,2.5l0,0l2.5,2.5l0,0l2.5,2.5l0,0l2.5,0l2.5,0l2.5,0l2.5,0l2.5,0l2.5,0
		l0,0l2.5-2.4l2.5-0.1l0,0l2.5-2.4l0,0l2.4-2.4l0.1-0.1l2.4-2.4l0.1-0.1l2.4-2.4l0.1-0.1l2.4-2.4l0.1-0.1l0.1-2.5l2.3-2.4l0.1-0.1
		l0.1-2.5l2.3-2.4l0.1-0.1l0.1-2.5l0-2.5l0-2.5l0-2.5l0-2.5l0-2.5l0-2.5l0-2.5l-0.1-2.5l-0.1-0.1l-2.3-2.4l-0.1-2.5l-0.1-0.1
		l-2.3-2.4l-0.1-2.5l0,0l-2.4-2.4l-0.1-0.1l-2.4-2.4l0,0l-2.5-2.4l0,0l-2.5-0.1l-2.5-0.1L1173.7,280.2z"/>
	<path class="st5" d="M562.6,292.6L562.6,292.6l-2.5-0.1l-2.5,0l-2.5,0l-2.5,0l-2.5,0l0,0l-2.5,2.4l-2.5,0.1l0,0l-2.5,2.4l-0.1,0.1
		l-2.4,2.4l-2.5,0.1l0,0l-0.1,2.5l-2.4,2.4l-0.1,0.1l-2.4,2.4l0,0l-0.1,2.5l-2.4,2.5l0,0l0,2.5l0,2.5l0,2.5l0,2.5l0,0l2.4,2.4
		l0.1,2.5l0.1,0.1l2.4,2.4l0.1,2.5l0,0l2.4,2.5l0,0l2.5,2.4l0,0l2.5,0.1l2.4,2.4l0.1,0.1l2.5,0.1l2.4,2.4l0,0l2.5,0.1l2.5,0l2.4,2.3
		l0,0l2.5,0l2.5,0l2.5,0l2.5,0l2.5,0l2.5,0l0,0l2.5-2.4l0.1-0.1l2.4-2.4l0.1-0.1l2.4-2.5l0,0l0-2.5l2.4-2.5l0,0l0-2.5l0-2.5l0-2.5
		l0-2.5l0-2.5l0-2.5l0,0l-2.3-2.5l0-2.5L580,310l0,0l-2.4-2.4l-0.1-2.5l0,0l-2.4-2.4l-0.1-0.1l-2.4-2.4l-0.1-0.1l-2.4-2.4l-0.1-0.1
		l-2.4-2.4l-0.1-0.1l-2.5-0.1L562.6,292.6z"/>
</g>
<g>
	<path class="st6" d="M1186.1,148.5L1186.1,148.5l-2.5,0l-2.5,0l-2.5,0l-2.5,0l-2.5,0l-2.5,0l0,0l-2.5,2.3l-2.5,0l-2.5,0.1l-2.5,0.1
		l-0.1,0.1l-2.4,2.3l-2.5,0.1l-2.5,0.1l0,0l-2.4,2.3l-2.5,0.1l-0.1,0.1l-2.4,2.3l-2.5,0.1l0,0l-2.5,2.3l-0.1,0.1l-2.3,2.3l-2.5,0.1
		l-0.1,0.1l-2.4,2.3l-2.5,0.1l-0.1,0.1l-2.4,2.3l-2.5,0.1l0,0l-2.5,2.3l-2.5,0.1l0,0l-2.5,2.4l-0.1,0.1l-2.4,2.2l-2.5,0.1l-0.1,0.1
		l-2.4,2.2l-2.5,0.1l-2.5,0.1l0,0l-2.5,2.3l-2.5,0.1l0,0l-2.5,2.3l-2.5,0.1l0,0l-2.4,2.3l-2.5,0.1l-0.1,0.1l-2.4,2.2l-2.5,0.1
		l-2.5,0.1l-0.1,0.1l-2.4,2.3l-2.5,0.1l-2.5,0.1l-0.1,0.1l-2.4,2.3l-2.5,0.1l-2.5,0.1l-0.1,0.1l-2.4,2.2l-2.5,0.1l-2.5,0.1l-0.1,0.1
		l-2.4,2.3l-2.5,0.1l-2.5,0.1l-0.1,0.1l-2.4,2.3l-2.5,0.1l-0.1,0.1l-2.4,2.3l-2.5,0.1l-0.1,0.1l-2.4,2.4l-0.1,0.1l-2.4,2.4l-0.1,0.1
		l-2.4,2.4l-0.1,0.1l-2.4,2.4l-0.1,0.1l-0.1,2.5l-2.3,2.4l-0.1,0.1l-0.1,2.5l0,2.5l-2.3,2.5l0,0l0,2.5l0,2.5l0,0l2.3,2.5l0,2.5
		l0.1,2.5l0.1,2.5l0,0l2.3,2.5l0.1,2.5l0.1,0.1l2.3,2.4l0.1,2.5l0,0l2.4,2.4l0.1,0.1l2.3,2.4l0.1,2.5l0,0l2.4,2.4l0.1,0.1l2.4,2.4
		l0.1,0.1l2.4,2.4l0.1,0.1l2.4,2.4l0,0l2.5,0.1l2.5,2.4l0,0l2.5,0l2.5,0l2.5,0l2.5,0l2.5,0l0,0l2.5-2.4l2.5,0l2.5-0.1l0,0l2.5-2.3
		l2.5-0.1l2.5-0.1l0,0l2.5-2.3l2.5-0.1l2.5-0.1l0,0l2.5-2.3l2.5-0.1l2.5-0.1l2.5-0.1l0,0l2.5-2.3l2.5-0.1l2.5-0.1l2.5-0.1l0,0
		l2.5-2.3l2.5,0l2.5-0.1l2.5-0.1l0,0l2.4-2.3l2.5-0.1l2.5-0.1l2.5-0.1l0,0l2.5-2.3l2.5-0.1l0.1-0.1l2.4-2.2l2.5-0.1l2.5-0.1l0,0
		l2.4-2.3l2.5-0.1l0.1-0.1l2.4-2.3l2.5-0.1l0.1-0.1l2.4-2.2l2.5-0.1l2.5-0.1l0,0l2.5-2.3l2.5-0.1l2.5-0.1l0,0l2.5-2.3l2.5-0.1l2.5,0
		l2.5,0l2.5,0l2.5,0l0,0l2.5-2.2l2.5,0l2.5,0l2.5,0l2.5,0l2.5,0l2.5,0l2.5,0l2.5,0l2.5,0l2.5,0l2.5,0l2.5,0l2.5,0l2.5,0l2.5,0l0,0
		l2.5-2.3l2.5,0l2.5,0l2.5,0l2.5,0l0,0l2.4-2.3l2.5-0.1l2.5-0.1l0.1-0.1l2.4-2.3l2.5-0.1l0.1-0.1l2.4-2.4l2.5-0.1l0,0l2.5-2.5l0,0
		l2.5-2.5l0,0l0.1-2.5l2.4-2.5l0,0l0.1-2.5l0.1-2.5l2.4-2.5l0,0l0-2.5l0-2.5l0-2.5l0-2.5l0-2.5l0-2.5l0-2.5l0-2.5l0-2.5l0-2.5l0-2.5
		l0,0l-2.3-2.4l-0.1-2.5l-0.1-2.5l-0.1-0.1l-2.3-2.4l-0.1-2.5l0,0l-2.4-2.5l-0.1-0.1l-2.4-2.4l0,0l-2.5-0.1l-2.4-2.3l-0.1-0.1
		l-2.5-0.1l-2.4-2.3l-0.1-0.1l-2.5-0.1l-2.5,0l-2.5,0l-2.5,0l-2.5,0l-2.5,0l-2.5,0l-2.5-2.3l0,0l-2.5,0l-2.5,0l-2.5,0l-2.5,0l-2.5,0
		l-2.5,0l-2.5,0l-2.5,0l-2.5,0l-2.4-2.3l0,0l-2.5,0l-2.5,0l-2.5,0l-2.5,0L1186.1,148.5z"/>
	<path class="st6" d="M604.8,165.9L604.8,165.9l-2.5,0l-2.5,0l-2.5,0l-2.5,0l-2.5,0l-2.5,0l-2.5,0l-2.5,0l-2.5,0l-2.5,0l-2.5,0
		l-2.5,0l-2.5,0l-2.5,0l-2.5,0l-2.5,0l-2.5,0l-2.5,0l-2.5,0l0,0l-2.5,2.3l-2.5,0.1l-2.5,0.1l-2.5,0.1l0,0l-2.5,2.3l-2.5,0.1
		l-0.1,0.1l-2.4,2.3l-2.5,0.1l-2.5,0.1l0,0l-2.5,2.3l-2.5,0.1l-0.1,0.1l-2.4,2.3l-2.5,0.1l-0.1,0.1l-2.4,2.3l-2.5,0.1l0,0l-2.4,2.4
		l-2.5,0.1l0,0l-2.5,2.4l-0.1,0.1l-2.4,2.4l-2.5,0.1l0,0l-2.5,2.4l0,0l-2.4,2.4l0,0l-2.4,2.5l0,0l-0.1,2.5l-2.4,2.5l0,0l0,2.5l0,2.5
		l0,2.5l0,2.5l0,0l2.4,2.5l0,2.5l0,0l2.4,2.5l0.1,0.1l2.4,2.4l0.1,2.5l0,0l2.5,2.5l0,0l2.5,2.5l0,0l2.5,0.1l2.4,2.4l0.1,0.1l2.5,2.4
		l0,0l2.5,0.1l2.5,2.4l0,0l2.5,0.1l2.5,0.1l2.5,2.3l0,0l2.5,0l2.5,0l2.5,0l2.5,0l2.5,0l2.5,0l2.5,0l2.5,0l2.5,0l2.5,0l2.5,0l2.5,0
		l2.5-0.1l0,0l2.5-2.3l2.5-0.1l2.5-0.1l2.5-0.1l0,0l2.5-2.3l2.5-0.1l2.5-0.1l0.1-0.1l2.4-2.3l2.5-0.1l2.5-0.1l2.5,0l2.5,0l2.5,0
		l2.5,0l2.5,0l2.5,0l2.5,0l2.5,0l2.5,0l2.5,0.1l2.4,2.3l0,0l2.5,0.1l2.5,0.1l2.4,2.3l0.1,0.1l2.5,0.1l2.5,2.3l0,0l2.5,0.1l2.5,0.1
		l2.5,2.3l0,0l2.5,0.1l2.5,0.1l2.5,2.3l0,0l2.5,0.1l2.5,0.1l2.5,2.4l0,0l2.5,0.1l2.5,0.1l2.5,2.4l0,0l2.5,0.1l2.5,2.4l0,0l2.5,0.1
		l2.4,2.4l0.1,0.1l2.4,2.4l0.1,2.5l0,0l2.4,2.5l0.1,2.5l0,0l2.4,2.5l0,2.5l0,0l2.4,2.5l0.1,2.5l0,0l2.4,2.5l0.1,2.5l0,0l2.4,2.5
		l0.1,0.1l2.4,2.4l0.1,0.1l2.4,2.4l0.1,0.1l2.5,2.4l0,0l2.5,0.1l2.5,2.4l0,0l2.5,0l2.5,0l2.5,0l2.5,0l0,0l2.5-2.4l2.5-0.1l0,0
		l2.5-2.4l0.1-0.1l2.4-2.4l0.1-0.1l2.4-2.4l0.1-0.1l2.4-2.5l0,0l0.1-2.5l2.4-2.5l0,0l0-2.5l0-2.5l2.4-2.5l0,0l0-2.5l0-2.5l0-2.5
		l2.4-2.5l0,0l0-2.5l0-2.5l2.4-2.5l0,0l0-2.5l0.1-2.5l2.4-2.4l0.1-0.1l2.4-2.5l0,0l0.1-2.5l2.4-2.5l0,0l0.1-2.5l2.4-2.5l0,0l0.1-2.5
		l0-2.5l2.4-2.5l0,0l0-2.5l0-2.5l0-2.5l0-2.5l0-2.5l0,0l-2.4-2.5l-0.1-2.5l0,0l-2.4-2.4l-0.1-0.1l-2.4-2.4l-0.1-2.5l0,0l-2.5-0.1
		l-2.4-2.4l-0.1-0.1l-2.4-2.4l-0.1-0.1l-2.5-0.1l-2.4-2.3l-0.1-0.1l-2.5-0.1l-2.5-2.4l0,0l-2.5-0.1l-2.5,0l-2.5,0l-2.5,0l-2.5-2.3
		l0,0l-2.5,0l-2.5,0l-2.5,0l-2.5,0l-2.5,0l-2.4-2.3l0,0l-2.5,0l-2.5-0.1l-2.5-2.3l0,0l-2.5-0.1l-2.5-0.1l-2.4-2.3l-0.1-0.1l-2.5-0.1
		l-2.4-2.3l0,0l-2.5-0.1l-2.5-0.1l-2.4-2.3l-0.1-0.1l-2.5-0.1l-2.5-0.1l-2.4-2.3l0,0l-2.5,0l-2.5,0l-2.5,0l-2.5,0l-2.5,0l-2.5,0
		l-2.5,0l-2.5,0l-2.5,0l-2.5,0l-2.5,0l-2.5,0l-2.5,0l-2.5,0l-2.5,0l-2.5,0l-2.5,0l-2.5,0l-2.5,0L604.8,165.9z"/>
	<path class="st6" d="M1317.7,223L1317.7,223l-2.5-0.1l-2.5,0l-2.5,0l-2.5,0l-2.5,0l-2.5,0l-2.5,0l-2.5,0l-2.5,0l-2.5,0l0,0
		l-2.5,2.4l-2.5,0.1l-2.5,0.1l0,0l-2.5,2.4l-0.1,0.1l-2.4,2.4l-2.5,0.1l0,0l-2.5,2.5l0,0l-0.1,2.5l-2.4,2.4l0,0l0,2.5l-2.4,2.5l0,0
		l0,2.5l0,2.5l0,2.5l0,2.5l0,2.5v2.5l0,2.5l0,2.5l0,2.5l0,2.5l0,2.5l0,0l2.4,2.5l0,2.5l0,0l2.5,2.5l0,0l2.5,0l2.5,0l2.5,0l2.5,0l0,0
		l2.5-2.4l2.5,0l2.5,0l2.5,0l0,0l2.5-2.4l2.5,0l2.5,0l0,0l2.5-2.4l2.5,0l2.5,0l2.5,0l0,0l2.5-2.4l2.5,0l0,0l2.4-2.4l2.5-0.1l0.1-0.1
		l2.4-2.4l2.5-0.1l0,0l2.5-2.5l0,0l0.1-2.5l2.4-2.4l0,0l0-2.5l0-2.5l0-2.5l0-2.5l0-2.5l0-2.5l0-2.5l0,0l-2.4-2.5l-0.1-2.5l0,0
		l-2.4-2.5l0,0l-2.5-2.4l0,0l-2.5-0.1l-2.4-2.4l-0.1-0.1L1317.7,223z"/>
	<path class="st6" d="M458.3,233L458.3,233l-2.5,0l-2.5,0l-2.5,0l-2.5,0l-2.5,0l0,0l-2.5,2.4l-2.5,0.1l0,0l-0.1,2.5l-2.4,2.5l0,0
		l0,2.5l0,2.5l0,2.5l0,2.5l0,0l2.4,2.5l0,2.5l0,0l2.4,2.4l0.1,2.5l0,0l2.4,2.5l0,0l2.4,2.4l0,0l2.5,2.4l0,0l2.5,2.5l0,0l2.5,0
		l2.5,2.4l0,0l2.5,0l2.5,0l2.5,0l0,0l2.5-2.5l0,0l2.5-2.5l0,0l0-2.5l0-2.5l0-2.5l0-2.5l0-2.5l0-2.5l0-2.5l0-2.5l0-2.5l0,0l-2.4-2.5
		l0-2.5l0,0l-2.5-2.5l0,0l-2.5-2.5l0,0l-2.5,0L458.3,233z"/>
	<path class="st6" d="M478.1,302.5L478.1,302.5l-2.5,0l-2.5,0l-2.5,0l0,0l-2.5,2.4l0,0l-2.4,2.4l-0.1,0.1l-2.4,2.4l-0.1,0.1
		l-2.4,2.4l-0.1,0.1l-2.4,2.4l0,0l-2.4,2.5l0,0l-2.5,2.5l0,0l-0.1,2.5l-2.4,2.4l-0.1,0.1l-2.4,2.4l0,0l-2.4,2.4l0,0l-2.4,2.5l0,0
		l-2.5,2.5l0,0l-2.5,2.5l0,0l-2.5,2.5l0,0l-2.5,2.4l0,0l-2.4,2.4l-2.5,0.1l0,0l-2.5,2.4l-2.5,0l0,0l-2.5,2.4l-2.5,0l-2.5,0l-2.5,0
		l-2.5,0l-2.5,0l-2.5,0l-2.4-2.4l0,0l-2.5-0.1l-2.4-2.4l0,0l-2.5-0.1l-2.4-2.4l0,0l-2.5-0.1l-2.4-2.4l0,0l-2.5-0.1l-2.5-2.4l0,0
		l-2.5-0.1l-2.5,0l-2.5,0l-2.5,0l-2.5-2.3l0,0l-2.5,0l0,0l-2.5,2.3l-2.5,0l-2.5,0l-2.5,0.1l0,0l-2.5,2.4l-0.1,0.1l-2.4,2.4l-0.1,0.1
		l-2.4,2.5l0,0l-0.1,2.5l-0.1,2.5l-2.3,2.5l0,0l0,2.5l0,2.5l0,2.5l0,2.5l0,0l2.3,2.5l0,2.5l0.1,2.5l0.1,2.5l0,0l2.4,2.5l0.1,2.5l0,0
		l2.4,2.5l0.1,2.5l0,0l2.4,2.5l0.1,0.1l2.4,2.4l0.1,2.5l0,0l2.4,2.5l0,0l2.4,2.4l0.1,0.1l2.4,2.4l0.1,0.1l2.4,2.4l0.1,2.5l0,0
		l2.5,2.5l0,0l2.5,2.5l0,0l2.4,2.5l0,0l2.5,2.4l0,0l2.5,2.5l0,0l2.5,0.1l2.4,2.4l0.1,0.1l2.4,2.4l0.1,0.1l2.5,0.1l2.4,2.3l0.1,0.1
		l2.5,2.4l0,0l2.5,0.1l2.5,0.1l2.4,2.3l0.1,0.1l2.5,0.1l2.5,0.1l2.4,2.3l0.1,0.1l2.5,0.1l2.5,0.1l2.5,2.3l0,0l2.5,0l2.5,0l2.5,0
		l2.5,0l2.5,0l2.5,2.3l0,0l2.5,0l2.5,0l2.5,0l2.5,0l2.5,0l2.5,0l0,0l2.5-2.3l2.5,0l2.5,0l2.5-0.1l0,0l2.5-2.4l2.5-0.1l0,0l2.5-2.4
		l0.1-0.1l2.4-2.4l0.1-0.1l2.4-2.4l0.1-0.1l2.4-2.4l0.1-0.1l2.4-2.5l0,0l0.1-2.5l2.4-2.4l0,0l0.1-2.5l2.4-2.5l0,0l0.1-2.5l0-2.5
		l2.4-2.5l0,0l0-2.5l0-2.5l2.4-2.5l0,0l0-2.5l0-2.5l0-2.5l0-2.5l2.4-2.5l0,0l0-2.5l0-2.5l0-2.5l0-2.5l0-2.5l0-2.5l0-2.5l0-2.5l0-2.5
		l0-2.5l0-2.5l0-2.5l0-2.5l0-2.5l0-2.5l0-2.5l0-2.5l0-2.5l0-2.5l0-2.5l0-2.5l0-2.5l0-2.5l0,0l-2.4-2.5l0-2.5l0-2.5l0,0l-2.4-2.5
		l0-2.5l0,0l-2.4-2.5l0,0l-2.5-2.4l0,0L478.1,302.5z"/>
	<path class="st6" d="M1243.2,324.9L1243.2,324.9l-2.5,0l-2.5,0l-2.5,0l-2.5,0l0,0l-2.5,2.4l-2.5,0l0,0l-2.5,2.4l-2.5,0l0,0
		l-2.5,2.5l0,0l0,2.5l-2.4,2.5l0,0l0,2.5l0,2.5l0,2.5l0,2.5l0,2.5l0,0l2.4,2.5l0,2.5l0,0l2.5,2.5l0,0l2.5,2.5l0,0l2.5,2.5l0,0
		l2.4,2.5l0,2.5l0,0l2.4,2.5l0,2.5l0,2.5l0,0l2.4,2.5l0,2.5l0,2.5l0,2.5l0,2.5l0,2.5l0,0l2.3,2.5l0,2.5l0,2.5l0,2.5l0,2.5l0,2.5
		l0,2.5l0,2.5l0,2.5l0,0l2.3,2.5l0,2.5l0.1,2.5l0.1,2.5l0,0l2.3,2.4l0.1,2.5l0.1,2.5l0,0l2.4,2.5l0.1,0.1l2.4,2.4l0.1,0.1l2.4,2.4
		l0.1,0.1l2.4,2.4l0,0l2.5,0.1l2.5,2.4l0,0l2.5,0.1l2.5,0l2.5,0l2.5,0l2.5,0l2.5,0l2.5,0l2.5,0l2.5-0.1l0,0l2.5-2.3l2.5-0.1l0.1-0.1
		l2.4-2.3l2.5-0.1l0,0l2.4-2.4l0.1-0.1l2.4-2.3l2.5-0.2l0,0l2.5-2.5l0,0l2.5-2.4l0,0l2.4-2.5l0,0l2.5-2.5l0,0l0.1-2.5l2.3-2.4
		l0.1-0.1l2.4-2.4l0.1-0.1l2.4-2.4l0.1-0.1l2.4-2.5l0,0l0.1-2.5l2.3-2.4l0.1-0.1l2.4-2.4l0,0l0.1-2.5l2.4-2.4l0.1-0.1l0.1-2.5
		l2.4-2.4l0,0l0.1-2.5l0-2.5l2.3-2.5l0,0l0-2.5l0-2.5l0-2.5l0-2.5l0,0l-2.4-2.5l0-2.5l-0.1-2.5l0,0l-2.4-2.5l-0.1-0.1l-2.4-2.4
		l-0.1-0.1l-2.4-2.4l-0.1-0.1l-2.4-2.4l-0.1-0.1l-2.5-2.4l0,0l-2.5-0.1l-2.4-2.4l0,0l-2.5-0.1l-2.5-2.4l0,0l-2.5-0.1l-2.5-0.1
		l-2.5-2.4l0,0l-2.5-0.1l-2.5,0l-2.5,0l-2.5-2.3l0,0l-2.5,0l-2.5,0l-2.5,0l-2.5,0l-2.5-2.3l0,0l-2.5,0l-2.5,0l-2.5,0l-2.5-2.4l0,0
		l-2.5,0l-2.5-2.4l0,0l-2.5,0l-2.5-2.4l0,0l-2.5-2.5l0,0l-2.5-2.5l0,0l-2.5-2.5l0,0l-2.5,0L1243.2,324.9z"/>
	<path class="st6" d="M597.4,434.2L597.4,434.2l-2.5,0l-2.5,0l-2.5,0l-2.5,0l0,0l-2.5,2.4l0,0l-2.4,2.5l0,0l0,2.5l0,2.5l0,2.5l0,2.5
		l0,2.5l0,2.5l0,0l2.4,2.5l0,2.5l0,2.5l0,0l2.4,2.5l0,2.5l0,0l2.4,2.4l0.1,2.5l0,0l2.5,2.5l0,0l2.5,0.1l2.4,2.4l0,0l2.5,0l2.5,2.4
		l0,0l2.5,0l2.5,0l2.5,0l2.5,0l2.5,0l2.5,0h2.5l2.5,0l2.5,0l2.5,0l2.5,0l2.5,0l2.5,2.4l0,0l2.5,0l2.5,0l2.5,0l2.5,2.4l0,0l2.5,0.1
		l2.4,2.4l0.1,0.1l2.4,2.4l0.1,0.1l2.4,2.4l0.1,2.5l0,0l2.4,2.5l0.1,2.5l0,0l2.4,2.5l0.1,2.5l0,0l2.4,2.5l0.1,2.5l0,0l2.4,2.5
		l0.1,0.1l2.3,2.4l0.1,2.5l0.1,0.1l2.4,2.4l0.1,0.1l2.3,2.4l0.1,2.5l0,0l2.5,2.5l0,0l2.5,0.1l2.4,2.3l0.1,0.1l2.4,2.4l0,0l2.5,0.1
		l2.5,2.4l0,0l2.5,0l2.5,0l2.5,0l2.5,0l2.5,0l0,0l2.5-2.4l2.5-0.1l0,0l2.4-2.4l0.1-0.1l2.4-2.4l0.1-0.1l2.4-2.5l0,0l0.1-2.5l0.1-2.5
		l2.3-2.4l0,0l0-2.5l0-2.5l0-2.5l0-2.5l0-2.5l0-2.5l0-2.5l0,0l-2.3-2.5l-0.1-2.5l-0.1-2.5l0,0l-2.4-2.5l-0.1-2.5l0,0l-2.4-2.5
		l-0.1-0.1l-2.4-2.4l-0.1-2.5l0,0l-2.4-2.5l0,0l-2.4-2.4l-0.1-0.1l-2.4-2.4l-0.1-0.1l-2.4-2.4l-0.1-0.1l-2.4-2.4l-0.1-0.1l-2.4-2.4
		l-0.1-0.1l-2.4-2.4l0,0l-2.5-2.4l0,0l-2.5-2.5l0,0l-2.5-0.1l-2.4-2.4l-0.1-0.1l-2.5-2.4l0,0l-2.5-0.1l-2.5-2.4l0,0l-2.5,0l-2.5-2.4
		l0,0l-2.5,0l-2.5,0l-2.5,0l-2.5,0l-2.5,0l-2.5-2.4l0,0l-2.5,0l-2.5,0l-2.5,0l-2.5,0l-2.5,0l-2.5,0l-2.5,0l-2.5,0l-2.5,0l-2.5-2.4
		l0,0l-2.5,0l-2.5,0l-2.5,0l-2.5-2.4l0,0l-2.5,0l-2.5,0l-2.5,0l-2.5-2.4l0,0l-2.5,0l-2.5,0L597.4,434.2z"/>
	<path class="st6" d="M1069.3,454L1069.3,454l-2.5-0.1l-2.5,0l-2.5,0l-2.5,0l-2.5,0l-2.5,0l-2.5,0l-2.5,0l0,0l-2.5,2.4l-2.5,0.1l0,0
		l-2.4,2.4l-2.5,0.1l0,0l-2.5,2.4l0,0l-2.4,2.4l-0.1,0.1l-2.4,2.5l0,0l-0.1,2.5l-2.4,2.4l-0.1,0.1l-0.1,2.5l-2.4,2.5l0,0l0,2.5
		l0,2.5l0,2.5l0,2.5l0,2.5l0,0l2.4,2.5l0.1,2.5l0,0l2.4,2.4l0.1,0.1l2.4,2.4l0.1,0.1l2.4,2.4l0.1,0.1l2.4,2.4l0.1,0.1l2.5,2.4l0,0
		l2.5,0.1l2.5,0.1l2.4,2.3l0.1,0.1l2.5,0.1l2.5,0l2.5,0l2.5,2.3l0,0l2.5,0l2.5,0l2.5,0l2.5,0l2.5,0l0,0l2.5-2.3l2.5,0l2.5,0l2.5,0
		l2.5,0l2.5,0l2.5,0l2.5,0l2.5,0l2.5,0l2.5,0l2.5,0l2.5,2.4l0,0l2.5,0l2.5,0l2.4,2.4l0.1,0.1l2.5,0l2.4,2.4l0,0l2.5,0l2.5,2.4l0,0
		l2.5,0l2.5,0l2.5,0l2.5,0l2.5,0l2.5,0l0,0l2.5-2.5l0,0l2.5-2.5l0,0l0-2.5l0-2.5l2.4-2.5l0,0l0-2.5l0-2.5l0-2.5l0-2.5l0,0l-2.4-2.5
		l0-2.5l0-2.5l0-2.5l0,0l-2.4-2.5l-0.1-0.1l-2.4-2.4l-0.1-2.5l0,0l-2.4-2.5l0,0l-2.5-2.4l0,0l-2.5-0.1l-2.4-2.4l-0.1-0.1l-2.5-0.1
		l-2.4-2.4l0,0l-2.5,0l-2.5,0l-2.5-2.4l0,0l-2.5,0l-2.5,0l-2.5,0l-2.5,0l-2.5-2.4l0,0l-2.5,0l-2.5,0l-2.5,0l-2.5-2.4l0,0l-2.5-0.1
		l-2.5-0.1l-2.4-2.3l0,0l-2.5-0.1l-2.5-0.1l-2.4-2.3l0,0l-2.5-0.1l-2.5,0L1069.3,454z"/>
	<path class="st6" d="M659.4,637.9L659.4,637.9l-2.5,0l0,0l-2.5,2.3l-2.5,0l-2.5,0l-2.5,0.1l0,0l-2.4,2.3l-2.5,0.1l-0.1,0.1
		l-2.4,2.4l-2.5,0.1l0,0l-2.5,2.4l-0.1,0.1l-2.4,2.4l-0.1,0.1l-2.4,2.4l-0.1,0.1l-2.4,2.4l-0.1,0.1l-2.4,2.4l-0.1,0.1l-2.4,2.5l0,0
		l-0.1,2.5l0,2.5l-2.4,2.5l0,0l0,2.5l0,2.5l0,0l2.4,2.5l0,2.5l0.1,2.5l0,0l2.5,2.5l0,0l2.4,2.5l0,0l2.5,2.4l0,0l2.5,0.1l2.4,2.4
		l0.1,0.1l2.5,0.1l2.4,2.4l0,0l2.5,0l2.5,0l2.5,2.4l0,0l2.5,0l2.5,0l0,0l2.5-2.3l2.5,0l2.5,0l2.5-0.1l0,0l2.5-2.4l0.1-0.1l2.4-2.4
		l0.1-0.1l2.4-2.4l0.1-0.1l2.4-2.4l0.1-0.1l2.4-2.5l0,0l0.1-2.5l2.4-2.5l0,0l0.1-2.5l0-2.5l0-2.5l0-2.5l2.3-2.5l0,0l0,0l-2.3-2.5
		l0-2.5l0-2.5l0-2.5l-0.1-2.5l0,0l-2.4-2.5l-0.1-0.1l-2.4-2.4l-0.1-0.1l-2.4-2.4l-0.1-0.1l-2.4-2.4l0,0l-2.5-0.1l-2.5,0L659.4,637.9
		z"/>
	<path class="st6" d="M1158.7,652.8L1158.7,652.8l-2.5,0l-2.5,0l0,0l-2.5,2.5l0,0l0,2.5l-2.4,2.5l0,0l0,2.5l0,0l2.5,2.5l0,2.5l0,0
		l2.5,0l2.5,0l0,0l2.5-2.5l0,0l2.5-2.5l0,0l0-2.5l0-2.5l0-2.5l0,0L1158.7,652.8z"/>
</g>
<g>
	<path class="st7" d="M691.7,516.1L691.7,516.1L691.7,516.1l-2.5,2.3l-2.5,0l-2.5,0l-2.5,0l-2.5,0l-2.5,0l0,0l-2.5,2.3l-2.5,0.1
		l-2.5,0.1l-0.1,0.1l-2.4,2.3l-2.5,0.1l-2.5,0.1l0,0l-2.4,2.3L657,526l-0.1,0.1l-2.4,2.3l-2.5,0.1l-0.1,0.1l-2.4,2.3L647,531
		l-0.1,0.1l-2.4,2.3l-2.5,0.1l0,0l-2.5,2.4l-0.1,0.1l-2.4,2.4l-0.1,0.1l-2.4,2.4l-0.1,0.1l-2.4,2.4l-0.1,0.1l-2.4,2.4l-0.1,0.1
		l-2.4,2.5l0,0l-0.1,2.5l-2.4,2.4l-0.1,0.1l-2.4,2.5l0,0l-0.1,2.5l-2.4,2.5h0l-0.1,2.5l-0.1,2.5l-2.4,2.5l0,0l0,2.5l0,2.5l-2.4,2.5
		l0,0l0,2.5l0,2.5l0,2.5l0,2.5l0,2.5l0,0l2.4,2.5l0,2.5l0,0l2.4,2.4l0.1,2.5l0,0l2.4,2.5l0,0l2.4,2.4l0.1,0.1l2.4,2.4l0.1,0.1
		l2.4,2.4l0.1,0.1l2.4,2.4l0.1,0.1l2.4,2.4l0,0l2.5,2.4l0,0l2.5,0.1l2.4,2.4l0.1,0.1l2.5,0.1l2.4,2.3l0.1,0.1l2.5,0.1l2.4,2.3l0,0
		l2.5,0.1l2.5,0.1l2.5,2.3l0,0l2.5,0l2.5,0l2.5,0l2.5,0l2.5,2.3l0,0l2.5,0l2.5,0l2.5,0l2.5,0l2.5,0l2.5,0l2.5,0l2.5,0l2.5,0l2.5,0
		l2.5,0l2.5,0l2.5,0l2.5,0l2.5,0l0,0l2.4-2.4l2.5-0.1l0,0l2.4-2.4l0.1-0.1l2.4-2.4l0.1-0.1l2.4-2.4l0.1-0.1l0.1-2.5l2.3-2.4l0.1-0.1
		l0.1-2.5l2.3-2.4l0,0l0.1-2.5l0-2.5l0-2.5l2.3-2.5l0,0l0-2.5l0-2.5l0-2.5l0-2.5l0-2.5l0-2.5l0-2.5l0-2.5l0-2.5l0-2.5l0-2.5l0-2.5
		l0,0l-2.3-2.5l0-2.5l0-2.5l0-2.5l0-2.5l0,0l-2.3-2.4l-0.1-2.5l-0.1-2.5l-0.1-2.5l0,0l-2.3-2.5l-0.1-2.5l-0.1-2.5l0,0l-2.4-2.5
		l-0.1-2.5l0,0l-2.4-2.5l-0.1-0.1l-2.4-2.4l-0.1-0.1l-2.4-2.4l-0.1-2.5l0,0l-2.5-0.1l-2.4-2.4l-0.1-0.1l-2.5-2.4l0,0l-2.5-0.1
		l-2.5,0l-2.5,0l-2.5,0L691.7,516.1z"/>
	<path class="st7" d="M1009.7,521.1L1009.7,521.1l-2.5-0.1l-2.5,0l-2.5,0l-2.5,0l-2.5,0l-2.5,0l-0.1,0.1l-2.4,2.4l-2.5,0.1l0,0
		l-2.4,2.4l-0.1,0.1l-2.4,2.4l0,0l-0.1,2.5l-2.3,2.4l-0.1,0.1l-0.1,2.5l-2.3,2.4l-0.1,0.1l-0.1,2.5l-0.1,2.5l-2.3,2.4l0,0l0,2.5
		l0,2.5l0,2.5l-2.3,2.5l0,0l0,2.5l0,2.5l0,2.5l0,2.5l0,2.5l-2.3,2.4l0,0l-0.1,2.5l-0.1,2.5l-0.1,2.5l-2.3,2.5l0,0l-0.1,2.5l-0.1,2.5
		l-2.3,2.5l0,0l-0.1,2.5l-0.1,2.5l-2.3,2.4l-0.1,0.1l-0.1,2.5l-2.3,2.4l0,0l-0.1,2.5l-2.4,2.5l0,0l-0.1,2.5l-0.1,2.5l-2.3,2.4l0,0
		l0,2.5l0,2.5l0,2.5l0,2.5l0,2.5l0,2.5l0,2.5l0,0l2.4,2.4l0.1,2.5l0,0l2.4,2.5l0,0l2.5,2.4l0,0l2.5,0.1l2.4,2.4l0.1,0.1l2.5,0.1
		l2.5,2.4l0,0l2.5,0l2.5,0l2.5,0l2.5,0l2.5,2.3l0,0l2.5,0l2.5,0l0,0l2.5-2.3l2.5,0l2.5,0l2.5,0l2.5,0l2.5,0l2.5,0l2.5,0l2.5,0l2.5,0
		l2.5,0l2.5,0l0,0l2.5-2.3l2.5,0l2.5,0l2.5,0l2.5,0l2.5,0l2.5,0l2.5,0l2.5,0l2.5,0l2.5,0l0,0l2.5-2.3l2.5-0.1l2.5-0.1l2.5-0.1l0,0
		l2.5-2.3l2.5-0.1l2.5-0.1l0,0l2.5-2.4l2.5-0.1l0,0l2.5-2.4l0.1-0.1l2.4-2.3l2.5-0.1l0,0l2.4-2.4l0.1-0.1l2.4-2.4l2.5-0.1l0,0
		l2.4-2.4l0.1-0.1l2.4-2.4l2.5-0.1l0,0l2.4-2.4l2.5,0l2.5,0l0,0l2.5-2.4l2.5,0l2.5,0l2.5,0l2.5,0l0,0l2.5-2.4l2.5,0l2.5,0l2.5,0
		l2.5,0l0,0l2.5-2.4l2.5,0l0,0l2.4-2.4l0.1-0.1l2.4-2.4l0,0l2.4-2.5l0,0l0-2.5l0-2.5l0-2.5l0-2.5l0-2.5l2.4-2.5l0,0l0-2.5l0-2.5
		l0-2.5l0,0l-2.4-2.5l0-2.5l0-2.5l0-2.5l0-2.5l0-2.5l0-2.5l0-2.5l0,0l-2.4-2.5l0-2.5l0,0l-2.4-2.4l-0.1-0.1l-2.5-2.4l0,0l-2.5,0
		l-2.5,0l-2.5,0l-2.5,0l0,0l-2.5,2.4l-2.5,0l0,0l-2.4,2.4l-2.5,0l-2.5,0.1l0,0l-2.5,2.4l-2.5,0.1l0,0l-2.5,2.4l-2.5,0.1l0,0
		l-2.4,2.4l-2.5,0l-2.5,0l-2.5,0l0,0l-2.5,2.3l-2.5,0l-2.5,0l-2.5-2.3l0,0l-2.5,0l-2.5,0l-2.5-0.1l-2.5-2.3l0,0l-2.5-0.1l-2.5-0.1
		l-2.4-2.3l-0.1-0.1l-2.5-0.1l-2.4-2.3l-0.1-0.1l-2.5-0.1l-2.4-2.3l-0.1-0.1l-2.5-2.4l0,0l-2.5-0.1l-2.4-2.3l-0.1-0.1l-2.5-2.4l0,0
		l-2.5-0.2l-2.4-2.3l-0.1-0.1l-2.4-2.4l-0.1-0.1l-2.4-2.4l-0.1-0.1l-2.4-2.4l0,0l-2.4-2.4l0,0l-2.5-2.4l0,0l-2.5-2.5l0,0l-2.5-0.1
		l-2.4-2.3l-0.1-0.1l-2.4-2.4l0,0l-2.5-0.1L1009.7,521.1z"/>
	<path class="st7" d="M560.1,545.9L560.1,545.9l-2.5-0.1l-2.5,0l-2.5,0l-2.5,0l-2.5,0l-2.5,0l-2.5,0l-2.5,0l0,0l-2.4,2.3l-2.5,0.1
		l-0.1,0.1l-2.4,2.4l-0.1,0.1l-2.4,2.4l-0.1,0.1l-2.4,2.4l-0.1,0.1l-2.4,2.5l0,0l-0.1,2.5l-0.1,2.5l0,2.5l-2.3,2.5l0,0l0,2.5l0,2.5
		l0,2.5l0,2.5l0,2.5l0,2.5l0,2.5l0,2.5l0,2.5l0,0l2.3,2.5l0,2.5l0,2.5l0.1,2.5l0,0l2.4,2.5l0.1,2.5l0.1,0.1l2.3,2.4l0.1,2.5l0.1,0.1
		l2.3,2.4l0.1,2.5l0,0l2.4,2.4l0.1,0.1l2.4,2.4l0.1,0.1l2.4,2.4l0.1,0.1l2.4,2.4l0.1,0.1l2.5,2.4l0,0l2.5,0.1l2.5,0l2.5,2.4l0,0
		l2.5,0l2.5,0l2.5,0l0,0l2.5-2.4l2.5,0l0,0l2.4-2.4l2.5-0.1l0,0l2.4-2.4l2.5-0.1l0,0l2.5-2.5l0,0l2.5-2.5l0,0l2.5-2.5l0,0l2.5-2.5
		l0,0l0.1-2.5l2.4-2.4l0,0l0.1-2.5l2.4-2.4l0,0l0-2.5l2.4-2.5l0,0l0-2.5l0-2.5l0-2.5l0-2.5l0-2.5l0-2.5l0-2.5l0,0l-2.4-2.5l0-2.5
		l0,0l-2.4-2.4l-0.1-2.5l0,0l-2.4-2.5l-0.1-2.5l0,0l-2.4-2.5l0,0l-2.4-2.4l-0.1-0.1l-2.4-2.4l-0.1-0.1l-2.4-2.4l-0.1-0.1l-2.4-2.4
		l-0.1-0.1l-2.5-2.4l0,0l-2.5-0.1l-2.4-2.4l0,0l-2.5-0.1L560.1,545.9z"/>
</g>
<g>
	<path class="st8" d="M870.3,205.5c-9.9,1.9-68.6,4.4-85.3,0c-36.4-9.5-49.5-38.9-80.5-69.9c-5.6-5.6-49.7-49-97-61.4
		c-58.4-15.3-114,18.7-156.1,44.4C403.2,148,277.6,224.8,252.6,377.5c-6.2,37.5-16,139.5,48.5,231.5
		c48.4,69.1,113.8,96.9,174.5,122.9c24.1,10.3,125.9,51.6,232.7,40.6c69.1-7.1,130-35,140.6-42.5c0.4-0.3,2.2-1.6,4.8-2.8
		c16.5-7.7,35.9,1.1,39.8,2.8c13.9,6.3,22.2,15.7,24.2,18c23.3,25.7,62,39.1,85.3,47.3c45.7,15.8,89.8,5.6,132.8-5.7
		c70.3-18.4,172.8-45.2,242.4-142.7c9.7-13.6,71.6-103.1,59.2-223c-6.7-64.9-37.4-112.9-98.9-208.8c-58.3-91-90.7-109.4-113.5-118.1
		c-49.9-19.2-97.7-9.1-118.3-4.7c-72.2,15.3-94.4,42.4-172.6,86C893.5,200.7,894.8,202.2,870.3,205.5z"/>
</g>
</svg>
