<?xml version="1.0" encoding="utf-8"?>
<!-- Generator: Adobe Illustrator 22.1.0, SVG Export Plug-In . SVG Version: 6.00 Build 0)  -->
<svg version="1.1" id="Layer_1" xmlns="http://www.w3.org/2000/svg" xmlns:xlink="http://www.w3.org/1999/xlink" x="0px" y="0px"
	 viewBox="0 0 1632 954" style="enable-background:new 0 0 1632 954;" xml:space="preserve">
<style type="text/css">
	.st0{opacity:0.5;}
	.st1{fill:#FF0000;}
	.st2{fill:#FFDB00;}
	.st3{fill:#49FF00;}
	.st4{fill:#0DCE7C;}
	.st5{fill:#0036FF;}
	.st6{fill:#9600FF;}
	.st7{fill:#FF00DB;}
	.st8{opacity:0.5;fill:#FFDB00;}
	.st9{opacity:0.5;fill:#49FF00;}
	.st10{opacity:0.5;fill:#0099FF;}
	.st11{opacity:0.5;fill:#4D00FF;}
	.st12{opacity:0.5;fill:none;stroke:#CEFF00;stroke-miterlimit:10;}
	.st13{opacity:0.5;fill:#FF00DB;}
	.st14{fill:none;stroke:#000000;stroke-width:0.5;stroke-linejoin:round;stroke-miterlimit:10;}
	.st15{fill:none;stroke:#000000;stroke-width:0.2373;stroke-miterlimit:10;}
	.st16{font-family:'HelveticaNeue-Light';}
	.st17{font-size:39.0945px;}
	.st18{fill:#E400FF;}
	.st19{font-family:'HelveticaNeue-Bold';}
	.st20{font-size:41.6083px;}
	.st21{fill:#1FFF00;}
	.st22{fill:#FFC900;}
	.st23{fill:none;stroke:#000000;stroke-width:3.045;stroke-linejoin:round;stroke-miterlimit:10;}
</style>
<g class="st0">
	<path class="st1" d="M1280.4,141.1L1280.4,141.1l-2.5-0.1l-2.5-0.1l-2.5,0l-2.5,0l-2.5,0h-2.5l-2.5,0l-2.5,0l-2.5,0l-2.5,0
		l-2.5,0.1l0,0l-2.5,2.4l-2.5,0.1l0,0l-2.5,2.4l0,0l-2.4,2.5l0,0l-0.1,2.5l-2.4,2.5l0,0l0,2.5l0,2.5l0,2.5l0,2.5l0,0l2.4,2.5l0,2.5
		l0.1,2.5l0,0l2.4,2.5l0.1,2.5l0,0l2.4,2.4l0.1,2.5l0,0l2.4,2.4l0,2.5l0,2.5l0,2.5l0,2.5l-2.4,2.4l0,0l-2.4,2.4l-2.5,0l-0.1,0.1
		l-2.4,2.3l-2.5,0.1l-2.5,0.1l0,0l-2.5,2.4l-2.5,0.1l0,0l-2.5,2.4l-0.1,0.1l-2.4,2.3l-2.5,0.1l-0.1,0.1l-2.4,2.4l-0.1,0.1l-2.4,2.3
		l-2.5,0.2l0,0l-2.5,2.5l0,0l-2.5,2.5l0,0l-0.2,2.5l-2.3,2.4l-0.1,0.1l-2.4,2.4l-0.1,0.1l-0.1,2.5l-2.3,2.4l-0.1,0.1l-0.1,2.5
		l-2.3,2.4l0,0l0,2.5l0,2.5l0,2.5l0,2.5l0,2.5l0,2.5l0,0l2.3,2.4l0.1,2.5l0.1,2.5l0.1,2.5l0,0l2.3,2.5l0.1,2.5l0.1,0.1l2.3,2.4
		l0.1,2.5l0.1,0.1l2.3,2.4l0.1,2.5l0.1,2.5l0,0l2.4,2.5l0.1,2.5l0,0l2.4,2.5l0.1,2.5l0,0l2.4,2.5l0.1,0.1l2.3,2.4l0.1,2.5l0.1,0.1
		l2.3,2.4l0.1,2.5l0.1,2.5l0,0l2.3,2.5l0.1,2.5l0,2.5l0,2.5l0,0l2.3,2.5l0,2.5l0,2.5l0,2.5l0,2.5l0,2.5l0,2.5l0,0l2.2,2.5l0,2.5
		l0,2.5l0.1,2.5l0.1,2.5l0.1,0.1l2.2,2.4l0.1,2.5l0.1,2.5l0.1,2.5l0,0l2.3,2.5l0.1,2.5l0.1,2.5l0.1,0.1l2.3,2.4l0.1,2.5l0.1,2.5
		l0,2.5l0,2.5l0,2.5l0,0l2.3,2.5l0,2.5l0,2.5l0,2.5l0,2.5l0,2.5l0,2.5l0,2.5l0,2.5l0,2.5l0,0l2.3,2.5l0,2.5l0.1,2.5l0.1,2.5l0.1,0.1
		l2.2,2.4l0.1,2.5l0.1,2.5l0.1,2.5l0,0l2.2,2.4l0.1,2.5l0.1,2.5l0.1,2.5l0,0l2.2,2.4l0.1,2.5l0.1,2.5l0.1,2.5l0.1,2.5l0,0l2.2,2.5
		l0.1,2.5l0.1,2.5l0.1,2.5l0.1,2.5l0,0l2.3,2.5l0.1,2.5l0.1,2.5l0.1,0.1l2.3,2.4l0.1,2.5l0.1,2.5l0,0l2.4,2.5l0.1,2.5l0,0l2.4,2.5
		l0.1,0.1l2.4,2.4l0.1,0.1l2.4,2.4l0.1,0.1l2.4,2.4l0.1,0.1l2.5,0.1l2.4,2.3l0.1,0.1l2.5,0.1l2.5,2.3l0,0l2.5,0l2.5,0l2.5,0l2.5,0
		l2.5,0l2.5,0l0,0l2.5-2.2l2.5-0.1l2.5-0.1l2.5-0.1l0,0l2.5-2.3l2.5-0.1l0.1-0.1l2.4-2.2l2.5-0.1l2.5-0.1l0,0l2.5-2.3l2.5-0.2l0,0
		l2.4-2.3l2.5-0.2l0.1-0.1l2.4-2.3l2.5-0.2l0,0l2.4-2.3l2.5-0.2l0,0l2.4-2.3l2.5-0.2l0.1-0.1l2.4-2.3l2.5-0.1l0.1-0.1l2.4-2.2
		l2.5-0.1l2.5-0.1l2.5-0.1l0,0l2.5-2.3l2.5,0l2.5,0l2.5,0l2.5,0l2.5,0l2.5,0l2.5,2.3l0,0l2.5,0l2.5,0l2.5,0l2.5,0l2.5,0l0,0l2.5-2.3
		l2.5,0l2.5-0.1l0,0l2.4-2.4l2.5-0.1l0,0l2.5-2.4l0.1-0.1l2.4-2.4l0.1-0.1l2.4-2.4l0.1-0.1l2.4-2.4l0,0l0.1-2.5l2.3-2.4l0.1-0.1
		l2.4-2.5l0,0l0.1-2.5l2.4-2.5l0,0l0.1-2.5l0.1-2.5l2.3-2.5l0,0l0.1-2.5l0-2.5l0-2.5l0-2.5l0-2.5l0-2.5l0-2.5l0-2.5l0-2.5l-0.1-2.5
		l0,0l-2.4-2.5l-0.1-2.5l-0.1-0.1l-2.4-2.4l-0.1-2.5l0,0l-2.4-2.5l-0.1-0.1l-2.4-2.4l-0.1-0.1l-2.4-2.4l-0.1-0.1l-2.4-2.4l-0.1-0.1
		l-2.4-2.4l-0.1-0.1l-2.4-2.4l-0.1-0.1l-2.4-2.4l-0.1-0.1l-2.4-2.4l-0.1-0.1l-2.4-2.4l-0.1-0.1l-2.4-2.4l-0.1-2.5l0,0l-2.4-2.5
		l-0.1-0.1l-2.3-2.4l-0.1-2.5l-0.1-2.5l0,0l-2.3-2.4l0-2.5l0-2.5l0-2.5l0-2.5l0-2.5l0-2.5l0-2.5l0-2.5l0-2.5l0-2.5l0-2.5l0,0
		l-2.3-2.5l0-2.5l0-2.5l-0.1-2.5l0,0l-2.4-2.5l-0.1-2.5l0,0l-2.4-2.5l-0.1-0.1l-2.4-2.4l-0.1-0.1l-2.4-2.4l-0.1-0.1l-2.5-2.4l0,0
		l-2.5-0.1l-2.5-2.4l0,0l-2.5-0.1l-2.5-0.1l-2.5-2.3l0,0l-2.5,0l-2.5,0l-2.5,0l-2.5,0l-2.5,0l-2.5-2.3l0,0l-2.5,0l-2.5,0l-2.5,0
		l-2.5,0l-2.5,0l-2.5,0l-2.5,0l-2.5,0l-2.5,0l-2.5,0l-2.5,0l-2.5,0l-2.5,0l-2.5,0l-2.5,0l-2.5,0l-2.5,0l-2.5-2.3l0,0l-2.5-0.1
		l-2.5-0.1l-2.4-2.3l-0.1-0.1l-2.4-2.4l-0.1-0.1l-2.4-2.4l-0.1-2.5l0,0l-2.3-2.5l0-2.5l0-2.5l0-2.5l0-2.5l0-2.5l0-2.5l0-2.5l0-2.5
		l0-2.5l0-2.5l0-2.5l0-2.5l0-2.5l0-2.5l0-2.5l0-2.5l0,0l-2.2-2.5l-0.1-2.5l-0.1-2.5l-0.1-2.5l0,0l-2.3-2.5l-0.1-2.5l-0.1-2.5l0,0
		l-2.3-2.5l-0.1-2.5l-0.1-0.1l-2.3-2.4l-0.1-2.5l-0.1-2.5l0,0l-2.4-2.5l0-2.5l0-2.5l0-2.5l2.4-2.4l2.5,0l0,0l2.5-2.4l2.5,0l2.5,0
		l2.5,0l0,0l2.5-2.3l2.5,0l2.5,0l2.5,0l2.5,0l2.5,0l0,0l2.5-2.4l2.5,0l2.5,0l0,0l2.5-2.4l2.5-0.1l0,0l2.5-2.5l0,0l0-2.5l0-2.5l0-2.5
		l0-2.5l0-2.5l0,0l-2.4-2.5l-0.1-2.5l0,0l-2.4-2.4l-0.1-0.1l-2.4-2.4l-0.1-2.5l0,0l-2.4-2.5l0,0l-2.4-2.4l-0.1-0.1l-2.4-2.4l0,0
		l-2.5-2.4l0,0l-2.5-0.1l-2.4-2.3l-0.1-0.1l-2.4-2.4l0,0l-2.5-0.1l-2.4-2.3l0,0l-2.5-0.1L1280.4,141.1z"/>
	<path class="st1" d="M1171.2,158.4L1171.2,158.4l-2.5,0l0,0l-2.5,2.4l-2.5,0l-2.5,0h0l-2.5,2.5l0,0l-2.5,2.5l0,0l-2.5,2.5l0,0
		l0,2.5l-2.4,2.5l0,0l0,2.5l-2.4,2.5l0,0l0,2.5l0,2.5l0,2.5l0,0l2.5,2.5l0,0l2.5,0l2.5,0l0,0l2.5-2.4l2.5,0l0,0l2.5-2.4l2.5,0l0,0
		l2.5-2.5l0,0l2.5-2.5l0,0l2.5-2.5l0,0l0-2.5l2.4-2.5l0,0l0-2.5l0-2.5l0-2.5l0-2.5l0,0l-2.5,0L1171.2,158.4z"/>
	<path class="st1" d="M1114,444.1L1114,444.1l-2.5,0l-2.5,0l-2.5,0l0,0l0,2.5l0,2.5l0,0l2.5,2.5l0,0l2.5,0l2.5,0l2.5,0l0,0l0-2.5
		l0-2.5l0,0L1114,444.1z"/>
</g>
<g class="st0">
	<path class="st2" d="M552.6,128.6L552.6,128.6l-2.5-0.1l-2.5,0l-2.5,0l-2.5,0l-2.5,0l-2.5,0l-2.5,0l-2.5,0l-2.5,0l-2.5,0l0,0
		l-2.5,2.2l-2.5,0l-2.5,0.1l-2.5,0.1l-2.5,0.1l0,0l-2.5,2.3l-2.5,0.1l-2.5,0.1l-0.1,0.1l-2.4,2.3l-2.5,0.1l-2.5,0.1l0,0l-2.5,2.3
		l-2.5,0.1l0,0l-2.4,2.3l-2.5,0.1l0,0l-2.5,2.4l-0.1,0.1l-2.4,2.3l-2.5,0.1l0,0l-2.5,2.4l0,0l-2.4,2.4l0,0l-2.4,2.5l0,0l-0.1,2.5
		l-2.3,2.4l-0.1,0.1l-2.4,2.4l-0.1,0.1l-2.4,2.5l0,0l-0.1,2.5l-2.3,2.4l-0.1,0.1l-0.1,2.5l-2.3,2.4l-0.1,0.1l-2.4,2.4l0,0l-0.1,2.5
		l-2.3,2.4l-0.1,0.1l-2.4,2.4l-0.1,0.1l-2.4,2.4l0,0l-2.4,2.5l0,0l-0.2,2.5l-2.3,2.3l-0.2,0.2l-2.3,2.3l-0.1,0.1l-2.3,2.4l-0.1,0.1
		l-2.4,2.4l-0.1,0.1l-2.4,2.4l-0.1,0.1l-2.4,2.4l-0.1,0.1l-2.4,2.4l0,0l-0.1,2.5l-2.3,2.4l-0.1,0.1l-2.4,2.4l-0.1,0.1l-0.1,2.5
		l-2.3,2.4l-0.1,0.1l-0.1,2.5l-2.3,2.4l0,0l-0.1,2.5l0,2.5l0,2.5l0,2.5l0,2.5l0,2.5l0,2.5l0,2.5l0,2.5l0,0l2.3,2.4l0.1,2.5l0.1,2.5
		l0.1,2.5l0,0l2.3,2.5l0.1,2.5l0.1,2.5l0.1,2.5l0,0l2.3,2.5l0,2.5l0,2.5l0,2.5l0,2.5l0,2.5l-2.2,2.5l0,0l-0.1,2.5l-0.1,2.5l-0.1,2.5
		l-2.3,2.4l-0.1,0.1l-0.1,2.5l-0.1,2.5l-2.2,2.4l-0.1,0.1l-0.1,2.5l-0.1,2.5l-2.2,2.4l-0.1,0.1l-0.1,2.5l-0.1,2.5l-2.2,2.4l0,0
		l-0.1,2.5l-0.1,2.5l0,2.5l0,2.5l0,2.5l0,2.5l0,2.5l0,2.5l0,2.5l0,2.5l0.1,2.5l0.1,2.5l0.1,0.1l2.2,2.4l0.1,2.5l0.1,2.5l0,0l2.3,2.5
		l0.1,0.1l2.3,2.3l0.2,2.5l0,0l2.4,2.4l0.1,0.1l2.4,2.4l0,0l2.5,0.2l2.3,2.3l0.1,0.1l2.4,2.3l0,0l2.5,0.1l2.5,0.1l2.4,2.3l0.1,0.1
		l2.5,0.1l2.5,0l2.5,0l2.5,0l2.5,0l2.5,0l2.5,0l2.5-0.1l0,0l2.5-2.3l2.5-0.1l2.5-0.1l0,0l2.5-2.3l2.5-0.1l0,0l2.5-2.4l0.1-0.1
		l2.4-2.3l2.5-0.2l0,0l2.5-2.4l0,0l2.4-2.5l0,0l2.5-2.5l0,0l0.2-2.5l2.3-2.4l0.1-0.1l2.4-2.5l0,0l0.1-2.5l2.3-2.5l0,0l0.1-2.5
		l0.1-2.5l2.3-2.4l0,0l0.1-2.5l0.1-2.5l0.1-2.5l2.2-2.4l0.1-0.1l0.1-2.5l0.1-2.5l0.1-2.5l2.2-2.5l0,0l0.1-2.5l0.1-2.5l0.1-2.5
		l0.1-2.5l0-2.5l2.2-2.4l0.1-0.1l0.1-2.5l0.1-2.5l0.1-2.5l2.3-2.4l0,0l0.1-2.5l0.1-2.5l2.3-2.5l0,0l0.1-2.5l0.1-2.5l0.1-2.5l2.3-2.4
		l0,0l0.1-2.5l0.1-2.5l0-2.5l2.3-2.5l0,0l0-2.5l0-2.5l0-2.5l0-2.5l0-2.5l2.3-2.4l0,0l0-2.5l0-2.5l0-2.5l0.1-2.5l2.3-2.4l0.1-0.1
		l0.1-2.5l0.1-2.5l2.3-2.4l0.1-0.1l0.1-2.5l2.3-2.4l0,0l0.1-2.5l2.3-2.4l0.1-0.1l2.4-2.4l0.1-0.1l2.4-2.4l0.1-0.1l2.4-2.4l0.1-0.1
		l2.4-2.3l2.5-0.1l0.1-0.1l2.4-2.3l2.5-0.1l2.5-0.1l2.5,0l0,0l2.5-2.3l2.5,0l2.5,0l2.5,0l2.5,0l2.5,0l2.5,0l2.5,0l2.5,0l2.5,0l2.5,0
		l2.5,0l2.5,0l2.5,0l2.5,0l2.5,0l2.5,0l2.5,0l2.5,0l2.5,2.3l0,0l2.5,0l2.5,0l2.5,0l2.5,0l2.5,0l2.5,0l2.5,0l0,0l2.5-2.4l2.5,0l2.5,0
		l0,0l2.4-2.4l2.5-0.1l0,0l2.4-2.4l0,0l2.4-2.5l0,0l0-2.5l0-2.5l0-2.5l0-2.5l0,0l-2.4-2.5l-0.1-2.5l0,0l-2.5-2.5l0,0l-2.5-2.5l0,0
		l-2.5-0.1l-2.4-2.4l0,0l-2.5-0.1l-2.4-2.4l0,0l-2.5-0.1l-2.4-2.4l-0.1-0.1l-2.5-0.1l-2.4-2.4l-0.1-0.1l-2.5-2.4l0,0l-2.5-0.1
		l-2.4-2.4l-0.1-0.1l-2.4-2.4l-0.1-0.1l-2.4-2.4l0,0l-2.4-2.4l0,0l-2.4-2.4l0,0l-2.5-2.4l0,0l-2.5-2.5l0,0l-2.5-2.5l0,0l-2.5-0.2
		l-2.3-2.3l-0.1-0.1l-2.4-2.3L580,141l-2.4-2.4l0,0l-2.5-0.1l-2.4-2.3l-0.1-0.1l-2.5-0.1l-2.4-2.3l-0.1-0.1l-2.5-0.1l-2.5-2.3l0,0
		l-2.5-0.1l-2.5-0.1l-2.5-0.1L552.6,128.6z"/>
	<path class="st2" d="M743.9,305L743.9,305l-2.5-0.1l-2.5-0.1l-2.5,0l-2.5,0l-2.5,0l-2.5,0l-2.5,0L724,305l0,0l-2.4,2.3l-2.5,0.1
		l-0.1,0.1l-2.4,2.3l-2.5,0.1l0,0l-2.5,2.4l-0.1,0.1l-2.4,2.4l-0.1,0.1l-2.4,2.4l-0.1,0.1l-2.4,2.4l-0.1,0.1l-2.4,2.5l0,0l-0.2,2.5
		l-2.3,2.4l-0.1,0.1l-0.1,2.5l-2.2,2.3l-0.1,0.1l-0.1,2.5l-2.2,2.4l-0.1,0.1l-0.1,2.5l-2.2,2.4l-0.1,0.1l-0.1,2.5l-0.1,2.5l-2.2,2.4
		l-0.1,0.1l-0.1,2.5l-0.1,2.5l-2.2,2.4l0,0l-0.1,2.5l-0.1,2.5l-0.1,2.5l-2.2,2.5l0,0l-0.1,2.5l-0.1,2.5l-0.1,2.5l0,2.5l0,2.5
		l-2.2,2.5l0,0l0,2.5l0,2.5l0,2.5l0,2.5l0,2.5l0,2.5l0,2.5l0,2.5l0,2.5l0,2.5l0,2.5l0,2.5l0,2.5l0,0l2.2,2.4l0.1,2.5l0.1,2.5
		l0.1,2.5l0.1,0.1l2.2,2.4l0.1,2.5l0.1,2.5l0.1,0.1l2.3,2.4l0.1,2.5l0.1,0.1l2.3,2.4l0.1,2.5l0.1,2.5l0,0l2.4,2.5l0.1,2.5l0,0
		l2.4,2.5l0.1,2.5l0,0l2.4,2.5l0.1,0.1l2.3,2.4l0.1,2.5l0.1,0.1l2.3,2.4l0.1,2.5l0,0l2.4,2.4l0.1,0.1l2.4,2.4l0.1,2.5l0,0l2.5,2.5
		l0,0l2.5,0.1l2.4,2.4l0,0l2.5,0l2.5,0l2.5,0l2.5,0l2.5,0l2.5,0l0,0l2.4-2.4l2.5-0.1l0,0l2.4-2.4l0.1-0.1l2.4-2.3l2.5-0.1l0,0
		l2.5-2.5l0,0l0.1-2.5l2.3-2.4l0.1-0.1l2.4-2.4l0.1-0.1l0.1-2.5l2.3-2.4l0.1-0.1l0.1-2.5l2.3-2.5l0,0l0.1-2.5l0.1-2.5l0.1-2.5
		l2.3-2.5l0,0l0.1-2.5l0.1-2.5l0.1-2.5l2.3-2.5l0,0l0.1-2.5l0.1-2.5l0.1-2.5l2.2-2.4l0,0l0.1-2.5l0.1-2.5l2.2-2.4l0,0l0.1-2.5
		l0.1-2.5l2.2-2.4l0,0l0.1-2.5l0.1-2.5l2.2-2.5l0,0l0.1-2.5l0.1-2.5l0.1-2.5l0-2.5l0-2.5l0-2.5l0-2.5l0-2.5l0-2.5l0-2.5l0-2.5l0-2.5
		l-0.1-2.5l-0.1-2.5l0,0l-2.2-2.4l-0.1-2.5l-0.1-2.5l-0.1-2.5l-0.1-0.1l-2.2-2.4l-0.1-2.5l-0.1-2.5l-0.1-2.5l-0.1-2.5l0,0l-2.3-2.5
		l-0.1-2.5l-0.1-2.5l-0.1-2.5l0,0l-2.3-2.5l-0.1-2.5l-0.1-2.5l0,0l-2.3-2.5l-0.1-2.5l0,0l-2.4-2.4l-0.1-0.1l-2.3-2.4l-0.1-2.5l0,0
		l-2.5-2.5l0,0l-2.5-0.1l-2.4-2.3l-0.1-0.1L743.9,305z"/>
</g>
<g class="st0">
	<path class="st3" d="M1220.9,285.1L1220.9,285.1l-2.5-0.1l-2.5,0l-2.5,0l-2.5,0l-2.5,0l-2.5,0l-2.5,0l0,0l-2.4,2.2l-2.5,0.1
		l-2.5,0.1l-2.5,0.1l-2.5,0.1l-0.1,0.1l-2.4,2.2l-2.5,0.1l-2.5,0.1l-2.5,0.1l-2.5,0.1l0,0l-2.5,2.2l-2.5,0.1l-2.5,0.1l-2.5,0.1l0,0
		l-2.5,2.2l-2.5,0.1l-2.5,0.1l-2.5,0.1l-0.1,0.1l-2.4,2.2l-2.5,0.1l-2.5,0.1l-2.5,0.1l0,0l-2.4,2.3l-2.5,0.1l-0.1,0.1l-2.4,2.3
		l-2.5,0.1l-0.1,0.1l-2.4,2.3l-0.1,0.1l-2.3,2.3l-0.2,0.2l-2.3,2.3l-0.2,0.2l-2.3,2.4l-0.1,0.1l-2.4,2.5l0,0l-0.1,2.5l-0.1,2.5
		l-2.3,2.4l-0.1,0.1l-0.1,2.5l-0.1,2.5l0,2.5l-2.2,2.5l0,0l0,2.5l0,2.5l0,2.5l0,2.5l0,2.5l0,2.5l-2.2,2.5l0,0l-0.1,2.5l-0.1,2.5
		l-0.1,2.5l-2.2,2.4l-0.1,0.1l-0.1,2.5l-2.3,2.4l-0.1,0.1l-2.4,2.5l0,0l-0.1,2.5l-2.3,2.4l-0.1,0.1l-2.4,2.4l-0.1,0.1l-2.4,2.3
		l-2.5,0.1l0,0l-2.5,2.4l-0.1,0.1l-2.4,2.3l-2.5,0.1l-0.1,0.1l-2.4,2.3l-2.5,0.1l-0.1,0.1l-2.4,2.3l-2.5,0.1l-0.1,0.1l-2.4,2.3
		l-2.5,0.1l0,0l-2.4,2.4l-0.1,0.1l-2.4,2.4l-0.1,0.1l-2.4,2.4l-0.1,0.1l-2.4,2.4l-0.1,0.1l-0.1,2.5l-2.3,2.4l-0.1,0.1l-0.1,2.5
		l-2.3,2.5l0,0l0,2.5l0,2.5l0,2.5l0,2.5l0,2.5l0,2.5l0,0l2.3,2.5l0.1,2.5l0.1,2.5l0,0l2.4,2.5l0.1,2.5l0,0l2.4,2.4l0.1,0.1l2.3,2.4
		l0.1,2.5l0,0l2.4,2.5l0.1,0.1l2.4,2.4l0.1,0.1l2.4,2.4l0.1,0.1l2.4,2.4l0.1,0.1l2.4,2.4l0.1,0.1l2.4,2.4l0.1,2.5l0,0l2.4,2.5
		l0.1,0.1l2.4,2.4l0.1,2.5l0,0l2.4,2.4l0,2.5l0,2.5l0,2.5l0,2.5l0,2.5l-2.4,2.5l0,0l-2.5,2.5l0,0l-2.5,2.4l0,0l-2.4,2.4l-2.5,0
		l-2.5,0l-2.5,0l-2.5,0l-2.5,0l0,0l-2.5,2.3l-2.5,0l-2.5,0l-2.5,0l-2.5,0l0,0l-2.5,2.4l-2.5,0.1l0,0l-2.4,2.4l-2.5,0.1l0,0l-2.5,2.5
		l0,0l-0.1,2.5l-2.4,2.4l-0.1,0.1l-0.1,2.5l-2.3,2.4l-0.1,0.1l0,2.5l0,2.5l0,2.5l0,2.5l0,2.5l0,2.5l0,2.5l0,0l2.3,2.4l0.1,2.5
		l0.1,0.1l2.3,2.4l0.1,2.5l0.1,0.1l2.3,2.4l0.1,2.5l0,0l2.4,2.4l0.1,0.1l2.3,2.4l0.1,2.5l0,0l2.4,2.4l0.1,2.5l0,0l2.4,2.5l0,2.5l0,0
		l2.4,2.5l0,2.5l0,2.5l-2.4,2.5l0,0l0,2.5l0,2.5l-2.4,2.5l0,0l0,2.5l0,2.5l-2.4,2.5l0,0l0,2.5l0,2.5l0,2.5l0,2.5l0,0l2.4,2.5
		l0.1,2.5l0,0l2.4,2.4l0.1,0.1l2.5,2.4l0,0l2.5,0l2.5,0l2.5,0l2.5,0l2.5,0l0,0l2.4-2.4l2.5-0.1l0,0l2.5-2.5l0,0l0.1-2.5l2.4-2.4
		l0.1-0.1l2.4-2.5l0,0l0-2.5l0-2.5l2.4-2.5l0,0l0-2.5l0-2.5l0-2.5l0-2.5l2.4-2.5l0,0l0-2.5l2.4-2.5l0,0l0.1-2.5l2.4-2.4l0.1-0.1
		l2.4-2.4l0.1-0.1l2.4-2.4l2.5-0.1l0,0l2.5-2.5l0,0l2.5-2.5l0,0l2.5-2.5l0,0l2.5-2.5l0,0l2.5-2.5l0,0l2.5-2.5l0,0l0.1-2.5l2.4-2.4
		l0.1-0.1l2.4-2.4l0.1-0.1l2.4-2.4l0.1-0.1l2.4-2.4l0,0l2.4-2.4l0,0l2.4-2.5l0,0l2.5-2.5l0,0l2.5-2.5l0,0l0.1-2.5l2.4-2.4l0.1-0.1
		l2.4-2.4l0,0l2.4-2.5l0,0l0.1-2.5l2.4-2.5l0,0l0.1-2.5l2.4-2.4l0,0l0.1-2.5l2.4-2.5l0,0l0.1-2.5l0.1-2.5l0-2.5l2.3-2.5l0,0l0-2.5
		l0-2.5l0-2.5l0-2.5l0-2.5l0-2.5l0-2.5l0-2.5l0-2.5l0-2.5l0-2.5l0-2.5l0,0l-2.3-2.5l0-2.5l0-2.5l0-2.5l0-2.5l2.3-2.5l0,0l0-2.5
		l0-2.5l0-2.5l0.1-2.5l2.3-2.4l0.1-0.1l0.1-2.5l2.3-2.4l0.1-0.1l2.4-2.4l0.1-0.1l2.4-2.4l0,0l2.4-2.4l0.1-0.1l2.4-2.4l0.1-0.1
		l2.4-2.3l0.1-0.1l2.3-2.3l2.5-0.1l0,0l2.4-2.4l0.1-0.1l2.4-2.3l2.5-0.1l0.1-0.1l2.4-2.3l2.5-0.1l0,0l2.5-2.4l0.1-0.1l2.4-2.3
		l2.5-0.1l2.5-0.1l0,0l2.5-2.3l2.5-0.1l0.1-0.1l2.4-2.3l2.5-0.1l2.5-0.1l0.1-0.1l2.4-2.3l2.5-0.1l2.5,0l2.5,0l2.5,0l0,0l2.5-2.3
		l2.5,0l2.5,0l2.5-0.1l0,0l2.4-2.3l2.5-0.1l0.1-0.1l2.4-2.3l2.5-0.1l0,0l2.4-2.4l0.1-0.1l2.4-2.4l0.1-0.1l2.4-2.4l0,0l0.1-2.5
		l2.3-2.4l0.1-0.1l0.1-2.5l2.3-2.5l0,0l0.1-2.5l0-2.5l0-2.5l0-2.5l0-2.5l0-2.5l0-2.5l0-2.5l0-2.5l0-2.5l0-2.5l0-2.5l0-2.5l0-2.5
		l0-2.5l-0.1-2.5l-0.1-2.5l0,0l-2.2-2.5l-0.1-2.5l-0.1-2.5l-0.1-0.1l-2.2-2.4l-0.1-2.5l-0.1-2.5l0,0l-2.3-2.5l-0.2-0.2l-2.2-2.3
		l-0.2-2.5l-0.1-0.1l-2.4-2.4l-0.1-0.1l-2.4-2.4l-0.1-0.1l-2.4-2.4l-0.1-0.1l-2.5-2.4l0,0l-2.5-0.2l-2.4-2.3l-0.1-0.1l-2.5-0.1
		l-2.4-2.3l0,0l-2.5-0.1l-2.5-0.1l-2.5-0.1L1220.9,285.1z"/>
</g>
<g class="st0">
	<g>
		<path class="st4" d="M1265.6,108.8L1265.6,108.8l-2.5-0.1l-2.5,0l-2.5,0l-2.5,0l-2.5,0l-2.5,0l-2.5,0l-2.5,0l-2.5,0l0,0l-2.5,2.2
			l-2.5,0.1l-2.5,0.1l-2.5,0.1l-2.5,0.1l0,0l-2.5,2.3l-2.5,0.1l-2.5,0.1l-0.1,0.1l-2.4,2.2l-2.5,0.1l-2.5,0.1l-2.5,0.1l0,0l-2.5,2.3
			l-2.5,0.1l-0.1,0.1l-2.4,2.2l-2.5,0.1l-2.5,0.1l0,0l-2.4,2.3l-2.5,0.1l0,0l-2.5,2.4l-0.1,0.1l-2.4,2.3l-2.5,0.2l0,0l-2.5,2.4
			l-0.1,0.1l-2.4,2.4l-0.1,0.1l-2.4,2.4l0,0l-0.1,2.5l-2.3,2.4l-0.1,0.1l-2.4,2.4l0,0l-0.1,2.5l-2.4,2.5l0,0l0,2.5l0,2.5l0,2.5
			l0,2.5l0,2.5l0,0l2.4,2.5l0.1,2.5l0,0l2.4,2.5l0,0l2.4,2.4l0,0l2.5,2.4l0,0l2.5,0.1l2.4,2.3l0.1,0.1l2.5,0.1l2.5,2.3l0,0l2.5,0.1
			l2.5,0.1l2.5,0.1l2.4,2.2l0,0l2.5,0l2.5,0l2.5,0l2.5,0l2.5,0l2.5,0l2.5,0l2.5,0l0,0l2.5-2.2l2.5,0l2.5,0l2.5,0l2.5,0l2.5,0l0,0
			l2.4-2.2l2.5,0l2.5,0l2.5,0l2.5,0l2.5,0l2.5,0l2.5,0l2.5,0l2.5,0l0,0l2.5-2.2l2.5,0l2.5,0l2.5,0l2.5,0l2.5,0l2.5-0.1l0,0l2.5-2.3
			l2.5-0.1l0.1-0.1l2.4-2.3l2.5-0.1l0,0l2.4-2.4l0.1-0.1l2.4-2.4l0.1-0.1l0.1-2.5l2.3-2.4l0.1-0.1l0.1-2.5l2.3-2.5l0,0l0-2.5l0-2.5
			l0-2.5l0-2.5l0-2.5l0,0l-2.3-2.5l-0.1-2.5l-0.1-2.5l0,0l-2.3-2.5l-0.1-2.5l0,0l-2.4-2.5l-0.1-0.1l-2.4-2.4l-0.1-0.1l-2.3-2.4
			l-0.1-0.1l-2.4-2.3l-0.1-0.1l-2.4-2.4l-0.1-0.1l-2.5-0.1l-2.4-2.3l-0.1-0.1l-2.5-0.1l-2.4-2.3l-0.1-0.1l-2.5-0.1l-2.5-0.1
			L1265.6,108.8z"/>
		<path class="st4" d="M1099.1,133.6L1099.1,133.6l-2.5,0l-2.5,0l-2.5,0l-2.5,0l0,0l-2.5,2.1l-2.5,0l-2.5,0l-2.5,0l-2.5,0.1
			l-2.5,0.1l-2.5,0.1l-2.5,0.1l0,0l-2.5,2.2l-2.5,0.1l-2.5,0.1l-2.5,0.1l-2.5,0.1l-0.1,0.1l-2.4,2.2l-2.5,0.1l-2.5,0.1l-2.5,0.1
			l-0.1,0.1l-2.4,2.2l-2.5,0.1l-2.5,0.1l-0.1,0.1l-2.4,2.2l-2.5,0.1l-0.1,0.1l-2.4,2.2l-2.5,0.2l-0.1,0.1l-2.4,2.3l-0.2,0.2
			l-2.3,2.3l-2.5,0.2l0,0l-2.5,2.5l0,0l-0.2,2.5l-2.3,2.3l-0.2,0.2l-2.3,2.4l-0.1,0.1l-0.2,2.5l-2.3,2.4l-0.1,0.1l-0.1,2.5l-2.2,2.4
			l-0.1,0.1l-0.1,2.5l-0.1,2.5l-2.2,2.4l-0.1,0.1l-0.1,2.5l-0.1,2.5l-2.2,2.4l0,0l-0.1,2.5l-0.1,2.5l-0.1,2.5l-2.2,2.4l-0.1,0.1
			l-0.1,2.5l-0.1,2.5l-2.3,2.4l0,0l-0.1,2.5l-0.1,2.5l-2.3,2.4l-0.1,0.1l-2.4,2.5l0,0l-2.5,2.4l0,0l-2.4,2.4l-2.5,0.1l-2.5,0l0,0
			l-2.5,2.3l-2.5,0l-2.5,0l-2.5,0l-2.5,0l-2.5,0l-2.5,0l-2.5,0l0,0l-2.4,2.2l-2.5,0.1l-2.5,0.1l-2.5,0.1l0,0l-2.5,2.3l-2.5,0.1
			L950,228l-2.4,2.3l-0.2,0.2l-2.3,2.2l-2.5,0.2l-0.1,0.1l-2.4,2.4l-0.1,0.1l-2.4,2.4l-0.1,0.1l-2.4,2.4l-0.1,0.1l-2.4,2.5l0,0
			l-0.2,2.5l-2.2,2.4l-0.1,0.1l-0.2,2.5l-2.2,2.4l-0.1,0.1l-0.1,2.5l-2.2,2.5l0,0l-0.1,2.5l-0.1,2.5l-0.1,2.5l0,2.5l0,2.5l0,2.5
			l0,2.5l0,2.5l0,2.5l0,2.5l0.1,2.5l0.1,2.5l0.1,2.5l0,0l2.2,2.5l0.1,2.5l0.1,2.5l0,0l2.2,2.4l0.1,2.5l0.1,2.5l0,0l2.3,2.5l0.1,2.5
			l0.1,0.1l2.3,2.4l0.1,2.5l0.1,2.5l0,0l2.3,2.5l0.1,2.5l0,0l2.4,2.5l0.1,2.5l0,0l2.4,2.5l0.1,0.1l2.4,2.4l0.1,0.1l2.3,2.4l0.1,0.1
			l2.4,2.3l0.1,0.1l2.4,2.4l0.1,0.1l2.5,0.1l2.5,2.3l0,0l2.5,0l2.5,0l2.5,0l2.5,0l0,0l2.4-2.3l2.5-0.1l2.5-0.1l0,0l2.5-2.4l0.1-0.1
			l2.4-2.4l0.1-0.1l2.4-2.4l0.1-0.1l2.4-2.4l0.1-0.1l0.1-2.5l2.3-2.4l0.1-0.1l2.4-2.5l0,0l0.1-2.5l0.1-2.5l2.3-2.4l0.1-0.1l0.1-2.5
			l2.3-2.5l0,0l0.1-2.5l0.1-2.5l2.2-2.4l0.1-0.1l0.1-2.5l0.1-2.5l2.2-2.4l0.1-0.1l0.1-2.5l2.3-2.5l0,0l0.1-2.5l0.1-2.5l0.1-2.5
			l2.2-2.4l0.1-0.1l0.1-2.5l0.1-2.5l2.2-2.4l0.1-0.1l0.1-2.5l0.1-2.5l2.3-2.5l0,0l0.1-2.5l0.1-2.5l2.3-2.4l0.1-0.1l0.1-2.5l2.3-2.4
			l2.5-0.1l0,0l2.5-2.4l2.5-0.1l0,0l2.5-2.3l2.5,0l2.5,0l2.5,0l2.5,0l2.5,0l2.5,0l2.5,0l2.5,0l2.5,0l2.5,0l2.5,0l2.5,0l2.5,0l2.5,0
			l2.5,0l2.5,0l2.5-0.1l0.1-0.1l2.4-2.1l2.5-0.1l2.5-0.1l2.5-0.1l2.5-0.1l0,0l2.4-2.2l2.5-0.1l2.5-0.1l0.1-0.1l2.4-2.2l2.5-0.1
			l2.5-0.1l0.1-0.1l2.4-2.2l2.5-0.1l2.5-0.1l0,0l2.5-2.2l2.5-0.1l0.1-0.1l2.4-2.2l2.5-0.1l0.1-0.1l2.3-2.2l2.5-0.2l0.1-0.1l2.3-2.2
			l2.5-0.2l0.1-0.1l2.4-2.3l2.5-0.2l0,0l2.5-2.4l0.1-0.1l2.4-2.4l0.1-0.1l2.4-2.4l0.1-0.1l2.4-2.4l0,0l0.2-2.5l2.2-2.3l0.2-0.2
			l2.3-2.4l0,0l0.1-2.5l2.3-2.5l0,0l0.1-2.5l0.1-2.5l2.2-2.4l0,0l0.1-2.5l0.1-2.5l0.1-2.5l2.2-2.5l0,0l0-2.5l0-2.5l0-2.5l0-2.5
			l0-2.5l0-2.5l0-2.5l0,0l-2.3-2.4l-0.1-2.5l-0.1-2.5l0,0l-2.4-2.5l-0.1-0.1l-2.3-2.4l-0.2-2.5l0,0l-2.5-2.5l0,0l-2.5-2.5l0,0
			l-2.5-0.2l-2.3-2.3l-0.1-0.1l-2.4-2.3l-0.1-0.1l-2.5-0.2l-2.4-2.3l-0.1-0.1l-2.5-0.1l-2.4-2.2l-0.1-0.1l-2.5-0.1l-2.5-0.1
			l-2.4-2.2l-0.1-0.1l-2.5-0.1l-2.5-0.1l-2.5-0.1l-2.5,0L1099.1,133.6z"/>
		<path class="st4" d="M1240.7,399.4L1240.7,399.4l-2.5-0.1l-2.5,0l-2.5,0l-2.5,0l-2.5,0l0,0l-2.4,2.4l-2.5,0.1l0,0l-2.5,2.5l0,0
			l-0.1,2.5l-2.4,2.4l-0.1,0.1l-0.1,2.5l-2.4,2.5l0,0l0,2.5l0,2.5l0,2.5l0,0l2.4,2.5l0.1,2.5l0,0l2.4,2.4l0.1,0.1l2.5,2.4l0,0
			l2.5,0.1l2.5,0l2.5,0l2.5,0l2.5,0l2.5-0.1l0,0l2.5-2.4l0.1-0.1l2.4-2.4l0.1-0.1l2.4-2.5l0,0l0.1-2.5l2.4-2.5l0,0l0-2.5l0-2.5
			l0-2.5l0-2.5l0,0l-2.4-2.5l-0.1-2.5l0,0l-2.4-2.5l0,0L1240.7,399.4z"/>
		<path class="st4" d="M1399.7,436.7L1399.7,436.7l-2.5-0.1l-2.5,0l-2.5,0l-2.5,0l0,0l-2.4,2.3l-2.5,0.1l-2.5,0.1l-0.1,0.1l-2.4,2.3
			l-2.5,0.1l-0.1,0.1l-2.4,2.3l-2.5,0.2l0,0l-2.5,2.4l0,0l-2.4,2.4l-0.1,0.1l-2.4,2.4l-0.1,0.1l-2.4,2.5l0,0l-0.2,2.5l-2.3,2.3
			l-0.1,0.1l-2.3,2.4l-0.1,0.1l-0.2,2.5l-2.3,2.4l-0.1,0.1l-2.4,2.5l0,0l-0.1,2.5l-2.3,2.5l0,0l-0.1,2.5l-0.1,2.5l-2.3,2.4l0,0
			l-0.1,2.5l-0.1,2.5l-0.1,2.5l-2.2,2.4l0,0l0,2.5l0,2.5l0,2.5l0,2.5l0,2.5l0,2.5l-2.3,2.5l0,0l0,2.5l0,2.5l-2.4,2.4l0,0l-2.4,2.4
			l-2.5,0l-2.5,0l-2.5,0l-2.5-0.1l-2.5-2.3l0,0l-2.5-0.1l-2.5-0.1l-2.5-0.1l-2.5-0.1l-2.5-2.2l0,0l-2.5-0.1l-2.5,0l-2.5,0l-2.5,0
			l-2.5,0l-2.5,0l-2.5,0l-2.5,0.1l-0.1,0.1l-2.4,2.1l-2.5,0.1l-2.5,0.1l-2.5,0.1l0,0l-2.4,2.3l-2.5,0.2l-0.1,0.1l-2.4,2.3l-0.2,0.2
			l-2.3,2.2l-2.5,0.2l-0.1,0.1l-2.4,2.4l-0.1,0.1l-2.4,2.4l-0.1,0.1l-2.4,2.5l0,0l-0.2,2.5l-2.2,2.4l-0.1,0.1l-0.2,2.5l-2.2,2.4
			l-0.1,0.1l-0.1,2.5l-2.2,2.5l0,0l-0.1,2.5l-0.1,2.5l-0.1,2.5l-0.1,2.5l-2.1,2.5l0,0l0,2.5l0,2.5l0,2.5l0,2.5l0,2.5l0,2.5l0,2.5
			l0,0l2.1,2.5l0,2.5l0,2.5l0,2.5l0.1,2.5l0.1,2.5l0.1,2.5l0.1,2.5l0,0l2.2,2.5l0.1,2.5l0.1,2.5l0.1,2.5l0.1,2.5l0,0l2.3,2.5
			l0.1,2.5l0.1,0.1l2.3,2.4l0.1,2.5l0.1,0.1l2.4,2.4l0.1,0.1l2.4,2.4l0.1,0.1l2.5,2.4l0,0l2.5,0.1l2.5,0l2.5,0l2.5,0l2.5,0l2.5,0
			l2.5,0l2.5-0.1l0,0l2.5-2.3l2.5-0.1l0.1-0.1l2.4-2.2l2.5-0.1l2.5-0.1l0,0l2.5-2.3l2.5-0.1l0,0l2.5-2.3l0.2-0.2l2.3-2.2l2.5-0.2
			l0.1-0.1l2.4-2.3l0.2-0.2l2.3-2.2l2.5-0.2l0.1-0.1l2.4-2.4l0.1-0.1l2.4-2.4l0.1-0.1l2.4-2.4l0.1-0.1l2.4-2.4l0,0l0.2-2.5l2.2-2.3
			l0.2-0.2l2.3-2.4l0.1-0.1l0.2-2.5l2.2-2.4l0.1-0.1l0.2-2.5l2.2-2.5l0,0l0.1-2.5l0.1-2.5l2.2-2.4l0,0l0.1-2.5l0.1-2.5l0.1-2.5
			l2.2-2.5l0,0l0.1-2.5l0-2.5l0-2.5l0-2.5l0-2.5l2.3-2.5l0,0l0-2.5l0-2.5l0-2.5l2.4-2.5l0,0l0.1-2.5l2.4-2.4l2.5,0l0,0l2.5-2.4
			l2.5,0l2.5,0l2.5,0l2.5,0l0,0l2.4-2.3l2.5,0l2.5-0.1l2.5-0.1l0,0l2.5-2.3l2.5-0.1l0.1-0.1l2.4-2.3l2.5-0.1l0,0l2.5-2.4l0.1-0.1
			l2.4-2.3l0.1-0.1l2.3-2.3l0.2-0.2l2.3-2.3l0.2-0.2l2.3-2.3l0.2-0.2l2.3-2.4l0.1-0.1l2.4-2.4l0.1-0.1l0.2-2.5l2.3-2.3l0.1-0.1
			l2.3-2.5l0,0l0.1-2.5l2.3-2.5l0,0l0.1-2.5l0.1-2.5l2.2-2.4l0.1-0.1l0.1-2.5l0.1-2.5l2.2-2.4l0,0l0.1-2.5l0-2.5l0-2.5l0-2.5l0-2.5
			l0-2.5l0-2.5l-0.1-2.5l-0.1-0.1l-2.3-2.4l-0.1-2.5l-0.1-2.5l0,0l-2.4-2.5l-0.1-0.1l-2.3-2.4l-0.2-2.5l0,0l-2.5-2.5l0,0l-2.5-0.1
			l-2.4-2.3l-0.1-0.1l-2.5-0.1L1399.7,436.7z"/>
		<path class="st4" d="M1188.5,459L1188.5,459l-2.5,0l-2.5,0l-2.5,0l-2.5,0l-2.5,0l-2.5,0l-2.5,0l0,0l-2.5,2.3l-2.5,0.1l-2.5,0.1
			l-0.1,0.1l-2.4,2.3l-2.5,0.1l0,0l-2.4,2.4l-0.1,0.1l-2.4,2.4l0,0l-0.1,2.5l-2.3,2.4l-0.1,0.1l0,2.5l0,2.5l0,2.5l0,2.5l0,2.5
			l0.1,2.5l0,0l2.3,2.5l0.1,2.5l0,0l2.4,2.4l0.1,0.1l2.3,2.4l0.1,2.5l0,0l2.4,2.5l0,0l2.4,2.4l0,0l2.5,2.4l0,0l2.5,0.2l2.3,2.3
			l0.2,0.2l2.4,2.3l0.1,0.1l2.5,2.4l0,0l2.5,0.1l2.4,2.3l0,0l2.5,0.1l2.5,2.3l0,0l2.5,0.1l2.5,0.1l2.5,0l2.5,0l2.5,0l2.5,0l2.5,0
			l2.5-0.1l2.5-0.1l0,0l2.5-2.3l2.5-0.1l0,0l2.5-2.4l0.1-0.1l2.4-2.4l0.1-0.1l2.4-2.4l0,0l0.1-2.5l2.3-2.4l0.1-0.1l0.1-2.5l0.1-2.5
			l0-2.5l0-2.5l0-2.5l0-2.5l0-2.5l-0.1-2.5l-0.1-2.5l0,0l-2.3-2.5l-0.1-2.5l0,0l-2.4-2.5l-0.1-0.1l-2.3-2.4l-0.1-0.1l-2.3-2.3
			l-0.2-0.2l-2.4-2.3l-0.1-0.1l-2.4-2.4l-0.1-0.1l-2.5-2.4l0,0l-2.5-0.1l-2.5-0.1l-2.4-2.3l0,0l-2.5-0.1l-2.5,0l-2.5,0L1188.5,459z"
			/>
		<path class="st4" d="M947.6,471.4L947.6,471.4l-2.5-0.1l-2.5,0l-2.5,0l-2.5,0l-2.5,0l-2.5,0l-2.5,0l-2.5,0l-2.5,0l-2.5,0l-2.5,0
			l-2.5,0.1l-0.1,0.1l-2.4,2.2l-2.5,0.1l-2.5,0.1l-2.5,0.1l0,0l-2.5,2.3l-2.5,0.1l-0.1,0.1l-2.4,2.3l-2.5,0.2l-0.1,0.1l-2.4,2.3
			l-0.2,0.2l-2.3,2.3l-2.5,0.2l0,0l-2.5,2.4l0,0l-2.4,2.5l0,0l-0.2,2.5l-2.3,2.4l-0.1,0.1l-2.4,2.5l0,0l-0.1,2.5l-0.1,2.5l-2.2,2.4
			l-0.1,0.1l-0.1,2.5l-0.1,2.5l-0.1,2.5l-2.2,2.5l0,0l0,2.5l0,2.5l0,2.5l0,2.5l0,0l2.2,2.5l0,2.5l0.1,2.5l0.1,2.5l0.1,2.5l0.1,0.1
			l2.2,2.4l0.1,2.5l0.1,2.5l0.1,0.1l2.2,2.4l0.1,2.5l0.2,2.5l0,0l2.3,2.5l0.2,2.5l0,0l2.3,2.5l0.2,0.2l2.2,2.3l0.2,2.5l0.1,0.1
			l2.3,2.4l0.2,0.2l2.3,2.3l0.2,0.2l2.2,2.3l0.2,0.2l2.3,2.2l0.2,0.2l2.3,2.3l0.2,0.2l2.4,2.3l0.1,0.1l2.5,2.4l0,0l2.5,0.2l2.5,2.3
			l0,0l2.5,0.2l2.5,0.1l2.4,2.2l0.1,0.1l2.5,0.1l2.5,0.1l2.5,0.1l2.5,0l2.5,0l2.5,0l2.5,0l2.5,0l2.5-0.1l2.5-0.1l2.5-0.1l0.1-0.1
			l2.4-2.2l2.5-0.1l2.5-0.1l0,0l2.5-2.3l2.5-0.2l0,0l2.5-2.3l0.2-0.2l2.3-2.2l2.5-0.2l0,0l2.4-2.4l0.1-0.1l2.4-2.4l0.1-0.1l2.4-2.4
			l0.1-0.1l2.4-2.4l0.1-0.1l0.2-2.5l2.2-2.3l0.2-0.2l2.3-2.4l0.1-0.1l0.2-2.5l2.2-2.4l0.1-0.1l0.1-2.5l0.1-2.5l2.2-2.4l0.1-0.1
			l0.1-2.5l0.1-2.5l0-2.5l0-2.5l0-2.5l0-2.5l0-2.5l0-2.5l-0.1-2.5l-0.1-2.5l-0.1-2.5l0,0l-2.2-2.5l-0.1-2.5l-0.1-2.5l0,0l-2.3-2.5
			l-0.1-2.5l0,0l-2.3-2.4l-0.2-2.5l0,0l-2.3-2.5l-0.1-0.1l-2.2-2.3l-0.2-2.5l-0.1-0.1l-2.3-2.4l-0.1-0.1l-2.3-2.3l-0.2-2.5l0,0
			l-2.4-2.5l0,0l-2.4-2.4l0,0l-2.5-2.4l0,0l-2.5-0.2l-2.4-2.3l-0.1-0.1l-2.5-2.4l0,0l-2.5-0.1l-2.5-0.1L947.6,471.4z"/>
	</g>
</g>
<g class="st0">
	<g>
		<path class="st5" d="M1250.6,126.1L1250.6,126.1l-2.5,0l-2.5,0l-2.5,0l-2.5,0l-2.5,0l-2.5,0l-2.5,0l-2.5,0l-2.5,0l-2.5,0l-2.5,0
			l-2.5,0l-2.5,0l0,0l-2.5,2.2l-2.5,0l-2.5,0l-2.5,0l-2.5,0.1l-0.1,0.1l-2.4,2.2l-2.5,0.1l-2.5,0.1l-2.5,0.1l0,0l-2.5,2.3l-2.5,0.1
			l0,0l-2.4,2.3l-2.5,0.1l0,0l-2.4,2.4l-0.1,0.1l-2.4,2.3l-2.5,0.1l-0.1,0.1l-2.4,2.4l-0.1,0.1l-2.4,2.3l-2.5,0.2l0,0l-2.5,2.4l0,0
			l-2.4,2.4l-0.1,0.1l-2.4,2.4l-0.1,0.1l-2.4,2.4l-0.1,0.1l-2.4,2.4l-0.1,0.1l-2.4,2.3l-0.1,0.1l-2.3,2.3l-2.5,0.1l0,0l-2.5,2.4l0,0
			l-2.4,2.4l-0.1,0.1l-2.4,2.4l-0.1,0.1l-2.4,2.4l-0.1,0.1l-2.4,2.4l-2.5,0.1l0,0l-2.5,2.5l0,0l-2.5,2.5l0,0l-2.5,2.5l0,0l-2.5,2.5
			l0,0l-0.1,2.5l-2.4,2.4l0,0l-2.4,2.5l0,0l0,2.5l0,2.5l0,2.5l0,0l2.4,2.5l0,2.5l0,0l2.5,0l2.4,2.4l0,0l2.5,2.4l0,0l2.5,0l2.5,2.4
			l0,0l2.5,0l2.5,0l2.5,2.4l0,0l2.5,0l2.5,0l2.5,0l2.5,0l2.5,0l2.5,2.3l0,0l2.5,0l2.5,0l2.5,0l2.5,0l2.5,0l2.5,2.3l0,0l2.5,0
			l2.5,0.1l2.5,0.1l2.4,2.3l0,0l2.5,0.1l2.5,2.4l0,0l2.5,0.1l2.5,0.1l2.4,2.3l0,0l2.5,0.1l2.5,0.1l2.4,2.3l0.1,0.1l2.5,0.1l2.5,0.1
			l2.5,0l2.5,2.3l0,0l2.5,0l2.5,0l2.5,0l2.5,0l2.5,0l2.5,0l2.5,0l0,0l2.5-2.2l2.5,0l2.5-0.1l2.5-0.1l0.1-0.1l2.4-2.2l2.5-0.1
			l2.5-0.1l0.1-0.1l2.4-2.2l2.5-0.1l2.5-0.1l0.1-0.1l2.4-2.2l2.5-0.1l2.5-0.1l0.1-0.1l2.4-2.3l2.5-0.1l2.5-0.1l0,0l2.5-2.3l2.5-0.1
			l2.5-0.1l0.1-0.1l2.4-2.3l2.5-0.1l2.5-0.1l2.5-0.1l0,0l2.5-2.3l2.5-0.1l2.5-0.1l0.1-0.1l2.4-2.3l2.5-0.1l2.5-0.1l0,0l2.4-2.3
			l2.5-0.1l0,0l2.4-2.4l0.1-0.1l2.4-2.4l0.1-0.1l2.4-2.4l0.1-0.1l2.4-2.5l0,0l0.1-2.5l0.1-2.5l2.3-2.4l0.1-0.1l0-2.5l0-2.5l0-2.5
			l0-2.5l0-2.5l0-2.5l0,0l-2.3-2.5l-0.1-2.5l-0.1-2.5l0,0l-2.4-2.5l-0.1-0.1l-2.3-2.4l-0.1-2.5l-0.1-0.1l-2.4-2.4l-0.1-0.1l-2.3-2.4
			l-0.1-0.1l-2.3-2.3l-0.2-0.2l-2.3-2.3l-0.1-0.1l-2.4-2.3l-0.1-0.1l-2.4-2.4l-0.1-0.1l-2.5-0.2l-2.3-2.3l-0.2-0.2l-2.4-2.3
			l-0.1-0.1l-2.5-0.1l-2.4-2.3l-0.1-0.1l-2.5-0.1l-2.4-2.2l-0.1-0.1l-2.5-0.1l-2.4-2.2l-0.1-0.1l-2.5-0.1l-2.4-2.3l0,0l-2.5-0.1
			l-2.5-0.1l-2.5-2.3l0,0l-2.5-0.1l-2.5-0.1l-2.5,0l-2.5,0L1250.6,126.1z"/>
		<path class="st5" d="M1086.7,195.7L1086.7,195.7l-2.5-0.1l-2.5,0l-2.5,0l-2.5,0l-2.5,0l-2.5,0l-2.5,0l-2.5,0l0,0l-2.4,2.4
			l-2.5,0.1l-0.1,0.1l-2.4,2.4l-2.5,0.1l0,0l-2.5,2.5l0,0l-0.1,2.5l-2.4,2.4l-0.1,0.1l-2.4,2.4l0,0l-0.1,2.5l-2.3,2.4l-0.1,0.1
			l-2.4,2.4l0,0l-0.1,2.5l-2.3,2.4l-0.1,0.1l-2.4,2.4l-0.1,0.1l-2.4,2.4l0,0l-2.4,2.5l0,0l-2.5,2.5l0,0l-0.2,2.5l-2.3,2.3l-0.2,0.2
			l-2.3,2.3l-0.2,0.2l-2.3,2.3l-0.2,0.2l-2.3,2.3l-0.2,0.2l-2.3,2.3l-0.2,0.2l-2.3,2.3l-0.2,0.2l-2.3,2.3l-0.1,0.1l-2.3,2.4
			l-0.1,0.1l-2.4,2.4l-0.1,0.1l-2.4,2.4l-0.1,0.1l-2.4,2.5l0,0l-0.1,2.5l-2.4,2.4l0,0l-0.1,2.5l-2.3,2.5l0,0l-0.1,2.5l-0.1,2.5
			l-2.3,2.5l0,0l-0.1,2.5l0,2.5l0,2.5l0,2.5l0,2.5l0,2.5l-2.2,2.5l0,0l0,2.5l0,2.5l0,2.5l0,2.5l0,2.5l0,2.5l0,2.5l0,2.5l0,2.5l0,2.5
			l0,2.5l0,2.5l0,0l2.2,2.5l0,2.5l0,2.5l0,2.5l0.1,2.5l0.1,2.5l0,0l2.2,2.4l0.1,2.5l0.1,2.5l0.1,0.1l2.2,2.4l0.1,2.5l0.1,2.5l0,0
			l2.4,2.5l0.1,0.1l2.3,2.4l0.1,2.5l0,0l2.4,2.4l0.1,0.1l2.4,2.4l0.1,0.1l2.4,2.4l0.1,0.1l2.4,2.4l0.1,0.1l2.4,2.4l0.1,0.1l2.4,2.4
			l0.1,0.1l2.4,2.4l0.1,0.1l2.4,2.4l0.1,0.1l2.3,2.4l0.1,2.5l0,0l2.4,2.5l0.1,0.1l2.4,2.4l0.1,2.5l0,0l2.4,2.5l0.1,0.1l2.3,2.4
			l0.1,2.5l0,0l2.4,2.4l0.1,2.5l0,0l2.4,2.5l0.1,0.1l2.3,2.4l0.1,2.5l0,0l2.4,2.5l0.1,0.1l2.4,2.4l0.1,2.5l0,0l2.4,2.5l0.1,0.1
			l2.4,2.4l0.1,0.1l2.4,2.4l0.1,2.5l0,0l2.4,2.5l0,0l2.4,2.4l0.1,0.1l2.4,2.4l0.1,0.1l2.4,2.4l0.1,2.5l0,0l2.5,2.5l0,0l2.5,2.5l0,0
			l2.5,2.5l0,0l2.5,2.5l0,0l2.5,0.1l2.4,2.4l0.1,0.1l2.5,2.4l0,0l2.5,0l2.5,0l2.5,2.4l0,0l2.5,0v0l2.5-2.4l2.5,0l0,0l2.5-2.4
			l0.1-0.1l2.4-2.4l0,0l2.4-2.5l0,0l0-2.5l0-2.5l0-2.5l0-2.5l0-2.5l0-2.5l0-2.5v-2.5l0-2.5l0-2.5l0-2.5l0-2.5l2.4-2.5l0,0l0-2.5
			l0-2.5l2.4-2.5l0,0l0.1-2.5l0.1-2.5l2.4-2.4l0.1-0.1l2.4-2.5l0,0l0.1-2.5l2.4-2.4l0.1-0.1l2.4-2.4l0.1-0.1l2.4-2.4l2.5,0l0,0
			l2.5-2.4l2.5,0l2.5,0l2.5,0l0,0l2.5-2.4l2.5,0l2.5,0l2.5,0l2.5,0l0,0l2.5-2.4l2.5,0l0,0l2.5-2.5l0,0l2.5-2.5l0,0l2.5-2.5l0,0
			l0.1-2.5l2.4-2.5l0,0l0.1-2.5l2.4-2.4l0,0l0.1-2.5l2.4-2.4l0.1-0.1l2.4-2.4l0.1-0.1l2.4-2.4l0,0l2.4-2.5l0,0l2.5-2.5l0,0l2.5-2.5
			l0,0l2.5-2.5l0,0l0.2-2.5l2.3-2.3l0.1-0.1l2.3-2.4l0.1-0.1l2.4-2.4l0.1-0.1l2.4-2.5l0,0l0.1-2.5l2.3-2.5l0,0l0.1-2.5l0.1-2.5
			l2.3-2.4l0.1-0.1l0.1-2.5l0.1-2.5l0-2.5l2.2-2.5l0,0l0-2.5l0-2.5l0-2.5l0,0l-2.2-2.5l0-2.5l0-2.5l-0.1-2.5l-0.1-2.5l0,0l-2.3-2.5
			l-0.1-2.5l-0.1-0.1l-2.3-2.4l-0.1-2.5l0,0l-2.4-2.4l-0.1-0.1l-2.4-2.4l-0.1-0.1l-2.4-2.4l-0.1-0.1l-2.4-2.4l-0.1-0.1l-2.5-2.4l0,0
			l-2.5-0.1l-2.5-2.4l0,0l-2.5-0.1l-2.5,0l-2.5,0l-2.5,0l-2.5,0l-2.5,0l-2.5,0l-2.5,0l-2.5,0l0,0l-2.5,2.4l-2.5,0.1l0,0l-2.4,2.4
			l-2.5,0.1l0,0l-2.4,2.4l-2.5,0.1l0,0l-2.5,2.4l-2.5,0l-2.5,0l-2.5,0l-2.4-2.5l0-2.5l0,0l-2.4-2.5l0-2.5l0-2.5l0,0l-2.3-2.4l0-2.5
			l-0.1-2.5l0,0l-2.3-2.4l-0.1-2.5l-0.1-2.5l0,0l-2.4-2.5l-0.1-2.5l0,0l-2.4-2.4l-0.1-2.5l0,0l-2.4-2.4l-0.1-2.5l0,0l-2.4-2.5
			l-0.1-0.1l-2.4-2.4l-0.1-2.5l0,0l-2.4-2.4l-0.1-2.5l0,0l-2.4-2.4l0-2.5l0-2.5l0,0l-2.4-2.5l0-2.5l0-2.5l0-2.5l0,0l-2.4-2.5l0-2.5
			l0,0l-2.5-2.5l0,0l-2.5,0l-2.5-2.4l0,0l-2.5,0L1086.7,195.7z"/>
		<path class="st5" d="M1121.5,300l2.5-2.5l2.5,0l2.5,2.5l0,2.5l0,0l2.4,2.5l0,2.5l0,2.5l0,2.5l0,2.5l0,2.5l0,0l2.4,2.5l0,2.5l0,2.5
			l0,2.5l0,2.5l0,2.5l0,2.5l0,2.5l-2.4,2.5l0,0l0,2.5l-2.4,2.5l0,0l-2.5,2.5l0,0l-2.5,2.4l-2.5,0l-2.5,0l-2.5,0l-2.5-2.4l0,0
			l-2.5-2.5l0,0l-2.5-2.5l0,0l-2.4-2.5l0-2.5l0-2.5l0-2.5l0-2.5l0-2.5l0-2.5l0-2.5l0-2.5l2.4-2.5l0,0l0.1-2.5l2.4-2.4l0,0l0.1-2.5
			l2.4-2.4l0.1-0.1l2.4-2.4l0,0l2.4-2.5l0,0L1121.5,300L1121.5,300z"/>
		<path class="st5" d="M1287.9,538.5L1287.9,538.5l-2.5,0l-2.5,0l-2.5,0l0,0l-2.5,2.4l-2.5,0l-2.5,0l-2.5,0l0,0l-2.4,2.4l-2.5,0
			l-2.5,0.1l0,0l-2.5,2.5l0,0l-2.5,2.5l0,0l-0.1,2.5l-2.4,2.4l0,0l0,2.5l0,2.5l0,2.5l0,2.5l0,2.5l0,2.5l0,0l2.4,2.4l0,2.5l0.1,0.1
			l2.4,2.4l0.1,2.5l0,0l2.5,2.5l0,0l2.5,2.5l0,0l2.5,0l2.5,0l2.5,0l2.5,0l0,0l2.5-2.4l2.5-0.1l0,0l0.1-2.5l2.4-2.4l0.1-0.1l2.4-2.4
			l0,0l2.4-2.5l0,0l0.1-2.5l2.4-2.5l0,0l0-2.5l2.4-2.5l0,0l0-2.5l2.4-2.5l0,0l0-2.5l0-2.5l2.4-2.5l0,0l0-2.5l0,0l-2.4-2.5l0-2.5l0,0
			l-2.5,0l-2.5,0L1287.9,538.5z"/>
	</g>
</g>
<g class="st0">
	<g>
		<path class="st6" d="M592.4,165.9L592.4,165.9l-2.5,0l-2.5,0l-2.5,0l-2.5,0l-2.5,0l-2.5,0l-2.5,0l-2.5,0l-2.5,0l-2.5,0l-2.5,0
			l-2.5,0l0,0l-2.4,2.2l-2.5,0l-2.5,0.1l-2.5,0.1l-2.5,0.1l0,0l-2.5,2.3l-2.5,0.1l-2.5,0.1l0,0l-2.5,2.3l-2.5,0.1l-0.1,0.1l-2.4,2.3
			l-2.5,0.1l-0.1,0.1l-2.4,2.3l-2.5,0.1l-0.1,0.1l-2.4,2.3l-2.5,0.1l-0.1,0.1l-2.4,2.3l-2.5,0.1l0,0l-2.4,2.4l-2.5,0.1l0,0l-2.5,2.4
			l0,0l-2.4,2.4l-0.1,0.1l-2.4,2.4l-0.1,0.1l-2.4,2.4l0,0l-2.4,2.5l0,0l0,2.5l0,2.5l0,2.5l0,2.5l0,2.5l0,0l2.4,2.5l0,2.5l0,0
			l2.4,2.4l0.1,2.5l0,0l2.5,2.5l0,0l2.4,2.5l0,0l2.5,2.4l0,0l2.5,0.1l2.4,2.4l0.1,0.1l2.5,2.4l0,0l2.5,0.1l2.5,2.4l0,0l2.5,0.1
			l2.5,0.1l2.5,2.3l0,0l2.5,0l2.5,0l2.5,0l2.5,0l2.5,0l2.5,0l2.5,0l2.5,0l2.5,0l2.5,0l0,0l2.5-2.3l2.5,0l2.5-0.1l2.5-0.1l2.5-0.1
			l0,0l2.5-2.3l2.5-0.1l2.5-0.1l0,0l2.4-2.3l2.5-0.1l2.5-0.1l2.5-0.1l2.5,0v0l2.5-2.3l2.5,0l2.5,0l2.5,0l2.5,0l2.5,0l2.5,2.3l0,0
			l2.5,0l2.5,0.1l2.5,0.1l2.4,2.3l0,0l2.5,0.1l2.5,0.1l2.4,2.3l0.1,0.1l2.5,0.1l2.5,2.3l0,0l2.5,0.1l2.5,0.1l2.5,2.3l0,0l2.5,0.1
			l2.5,0.1l2.5,2.3l0,0l2.5,0.1l2.5,0l2.5,0l2.4,2.3l0,0l2.5,0l2.5,2.4l0,0l2.5,0.1l2.5,2.4l0,0l2.5,0.1l2.4,2.4l0.1,2.5l0,0
			l2.5,2.5l0,0l2.4,2.5l0,2.5l0,0l2.4,2.5l0,2.5l0,2.5l0,0l2.4,2.5l0.1,2.5l0,0l2.4,2.5l0.1,0.1l2.4,2.4l0.1,0.1l2.4,2.4l0.1,0.1
			l2.4,2.4l0.1,0.1l2.5,2.4l0,0l2.5,0l2.5,0l2.5,0l2.5,0l2.5,0l2.5,0l0,0l2.5-2.4l0.1-0.1l2.4-2.4l0.1-0.1l2.4-2.4l0.1-0.1l2.4-2.4
			l0.1-0.1l2.4-2.5l0,0l0.1-2.5l0-2.5l2.4-2.5l0,0l0-2.5l0-2.5l0-2.5l2.4-2.5l0,0l0-2.5l0-2.5l2.4-2.5l0,0l0-2.5l0-2.5l2.4-2.4l0,0
			l0.1-2.5l2.4-2.4l0,0l0.1-2.5l2.4-2.4l0.1-0.1l2.4-2.5l0,0l0.1-2.5l2.4-2.5l0,0l0-2.5l0-2.5l0-2.5l0-2.5l0-2.5l0-2.5l0-2.5l0-2.5
			l0,0l-2.4-2.4l-0.1-2.5l0,0l-2.4-2.5l-0.1-0.1l-2.4-2.4l-0.1-0.1l-2.4-2.4l0,0l-2.5-0.1l-2.4-2.3l-0.1-0.1l-2.5-0.1l-2.4-2.3
			l-0.1-0.1l-2.5-0.1l-2.5,0l-2.4-2.3l0,0l-2.5,0l-2.5,0l-2.5,0l-2.5,0l-2.5-2.3l0,0l-2.5,0l-2.5,0l-2.5,0l-2.5,0l-2.5-2.3l0,0
			l-2.5-0.1l-2.5-0.1l-2.5-2.4l0,0l-2.5-0.1l-2.5-0.1l-2.4-2.3l-0.1-0.1l-2.5-0.1l-2.4-2.3l0,0l-2.5-0.1l-2.5-0.1l-2.4-2.3l-0.1-0.1
			l-2.5-0.1l-2.5,0l-2.5-2.3l0,0l-2.5,0l-2.5,0l-2.5,0l-2.5,0l-2.5,0l-2.5,0l-2.5,0l-2.5,0h-2.5l-2.5,0l-2.5,0l-2.5,0l-2.5,0l-2.5,0
			l-2.5,0l-2.5,0l-2.5,0l-2.5,0l-2.5,0l-2.5,0l-2.5,0l-2.5,0l-2.5,0L592.4,165.9z"/>
		<path class="st6" d="M458.2,235.4L458.2,235.4l-2.5,0l-2.5,0l-2.5,0l-2.5,0l-2.5,0l0,0l-2.5,2.4l0,0l-2.4,2.5l0,0l0,2.5l0,2.5
			l0,2.5l0,2.5l0,2.5l0,0l2.4,2.5l0.1,2.5l0,0l2.5,2.5l0,0l2.4,2.5l0,0l2.5,2.4l0,0l2.5,2.5l0,0l2.5,0l2.5,2.4l0,0l2.5,0l2.5,0l0,0
			l2.5-2.4l0,0l2.4-2.5l0,0l0-2.5l2.4-2.5l0,0l0-2.5l0-2.5l0-2.5l0,0l-2.4-2.5l0-2.5l0-2.5l0,0l-2.4-2.5l0,0l-2.4-2.4l-0.1-0.1
			l-2.4-2.4l0,0L458.2,235.4z"/>
		<path class="st6" d="M473.1,305L473.1,305L473.1,305l-2.5,2.4l-2.5,0l0,0l-2.5,2.5l0,0l-2.5,2.4l0,0l-2.4,2.4l0,0l-2.4,2.5l0,0
			l-2.5,2.5l0,0l-2.5,2.5l0,0l-0.1,2.5l-2.4,2.4l-0.1,0.1l-2.4,2.4l0,0l-2.4,2.5l0,0l-2.5,2.5l0,0l-2.5,2.5l0,0l-2.5,2.5l0,0
			l-2.5,2.4l0,0l-2.4,2.4l-0.1,0.1l-2.4,2.4l-2.5,0.1l0,0l-2.4,2.4l-2.5,0l-2.5,0l0,0l-2.5,2.4l-2.5,0h-2.5l-2.5,0l-2.5-2.4l0,0
			l-2.5,0l-2.5,0l-2.5-2.4l0,0l-2.5-0.1l-2.5-2.4l0,0l-2.5-0.1l-2.4-2.4l0,0l-2.5-0.1l-2.5-2.4l0,0l-2.5-0.1l-2.5-0.1l-2.5-2.3l0,0
			l-2.5,0l-2.5,0l-2.5,0l-2.5,0l-2.5,0l-2.5,0l0,0l-2.4,2.4l-2.5,0.1l-0.1,0.1l-2.4,2.4l-0.1,0.1l-2.4,2.4l-0.1,0.1l-2.4,2.5l0,0
			l-0.1,2.5l0,2.5l0,2.5l0,2.5l0,2.5l0,2.5l0,2.5l0,2.5l0.1,2.5l0,0l2.4,2.5l0.1,2.5l0,0l2.4,2.4l0.1,2.5l0,0l2.4,2.5l0.1,0.1
			l2.3,2.4l0.1,2.5l0,0l2.4,2.4l0.1,0.1l2.4,2.4l0.1,2.5l0,0l2.5,2.5l0,0l2.4,2.5l0.1,0.1l2.4,2.4l0.1,0.1l2.4,2.4l0.1,0.1l2.4,2.4
			l0.1,0.1l2.4,2.4l0.1,0.1l2.4,2.4l0.1,0.1l2.4,2.4l0.1,0.1l2.5,2.4l0,0l2.5,0.1l2.4,2.4l0.1,0.1l2.5,2.4l0,0l2.5,0.1l2.5,2.4l0,0
			l2.5,0.1l2.5,0.1l2.4,2.3l0.1,0.1l2.5,0.1l2.5,0.1l2.4,2.3l0.1,0.1l2.5,0.1l2.5,0l2.5,0l2.4,2.3l0,0l2.5,0l2.5,0l2.5,0l2.5,0
			l2.5,0l2.5,0l2.5,0l2.5,0l2.5,0l2.5,0l2.5,0l2.5,0l2.5,0l0,0l2.5-2.4l2.5-0.1l0,0l2.4-2.4l0.1-0.1l2.4-2.4l2.5-0.1l0,0l2.5-2.5
			l0,0l0.1-2.5l2.4-2.4l0.1-0.1l2.4-2.5l0,0l0.1-2.5l2.4-2.5l0,0l0.1-2.5l0-2.5l2.4-2.4l0,0l0-2.5l0-2.5l2.4-2.5l0,0l0-2.5l0-2.5
			l0-2.5l2.4-2.5l0,0l0-2.5l0-2.5l0-2.5l0-2.5l0-2.5l0-2.5l0-2.5l0-2.5l0-2.5l0-2.5l0-2.5l0-2.5l0-2.5l0-2.5l0-2.5l0-2.5l0-2.5
			l0-2.5l0-2.5l0-2.5l0-2.5l0-2.5l0-2.5l0-2.5l0-2.5l0-2.5l0,0l-2.4-2.5l0-2.5l0,0l-2.4-2.5l0-2.5l0,0l-2.5-2.5l0,0l-2.5,0l-2.5,0
			L473.1,305z"/>
		<path class="st6" d="M599.8,436.7L599.8,436.7l-2.5,0l-2.5,0l-2.5,0l-2.5,0l0,0l-2.5,2.4l0,0l-2.4,2.5l0,0l0,2.5l0,2.5l0,2.5
			l0,2.5l0,2.5l0,2.5l0,0l2.4,2.5l0,2.5l0,2.5l0,0l2.4,2.5l0,0l2.4,2.4l0.1,2.5l0,0l2.5,2.5l0,0l2.5,0.1l2.5,2.4l0,0l2.5,0l2.5,0
			l2.5,2.4l0,0l2.5,0l2.5,0l2.5,0l2.5,0h2.5l2.5,0l2.5,0l2.5,0l2.5,0l2.5,0l2.5,0l2.5,0l2.5,0l2.5,2.4l0,0l2.5,0l2.5,0l2.4,2.4
			l0.1,0.1l2.4,2.4l0.1,0.1l2.4,2.4l0.1,2.5l0,0l2.4,2.5l0.1,2.5l0,0l2.4,2.5l0.1,2.5l0,0l2.4,2.5l0.1,2.5l0,0l2.4,2.5l0.1,2.5l0,0
			l2.4,2.5l0.1,0.1l2.3,2.4l0.1,2.5l0.1,0.1l2.4,2.4l0.1,0.1l2.4,2.4l0.1,0.1l2.4,2.4l0.1,0.1l2.5,2.4l0,0l2.5,0.1l2.4,2.4l0,0
			l2.5,0.1l2.5,0l2.5,0l2.5,2.3l0,0l0,0l2.5-2.3l2.5,0l2.5-0.1l0,0l2.4-2.4l0.1-0.1l2.4-2.4l0.1-0.1l2.4-2.4l0.1-0.1l2.4-2.5l0,0
			l0.1-2.5l0.1-2.5l2.3-2.5l0,0l0-2.5l0-2.5l0-2.5l0-2.5l0,0l-2.3-2.5l0-2.5l-0.1-2.5l-0.1-2.5l0,0l-2.4-2.5l-0.1-2.5l0,0l-2.4-2.4
			l-0.1-2.5l0,0l-2.4-2.5l-0.1-0.1l-2.4-2.4l-0.1-0.1l-2.4-2.4l-0.1-0.1l-2.4-2.4l-0.1-0.1l-2.4-2.4l-0.1-0.1l-2.4-2.4l-0.1-0.1
			l-2.4-2.4l-0.1-0.1l-2.4-2.4l-0.1-0.1l-2.4-2.4l-0.1-0.1l-2.5-2.4l0,0l-2.5-2.5l0,0l-2.5-0.1l-2.4-2.4l0,0l-2.5-2.4l0,0l-2.5,0
			l-2.5,0l-2.5-2.4l0,0l-2.5,0l-2.5,0l-2.5-2.4l0,0l-2.5,0l-2.5,0l-2.5,0l-2.5,0l-2.5,0l-2.5,0l-2.5,0l-2.5,0l-2.5,0l-2.5-2.4l0,0
			l-2.5,0l-2.5,0l-2.5,0l-2.5,0l-2.5,0l-2.5-2.4l0,0l-2.5,0l-2.5,0l-2.5-2.4l0,0l-2.5,0l-2.5,0l-2.5,0L599.8,436.7z"/>
		<path class="st6" d="M664.4,640.3L664.4,640.3l-2.5-0.1l-2.5,0l-2.5,0l-2.5,0l-2.5,0l-2.5,0l0,0l-2.5,2.4l-2.5,0.1l-0.1,0.1
			l-2.4,2.3l-2.5,0.1l-0.1,0.1l-2.4,2.4l-0.1,0.1l-2.4,2.4l-2.5,0.1l0,0l-2.5,2.5l0,0l-2.5,2.5l0,0l-0.1,2.5l-2.4,2.4l-0.1,0.1
			l-0.1,2.5l-2.4,2.4l0,0l0,2.5l0,2.5l0,2.5l0,2.5l0,0l2.4,2.4l0.1,2.5l0,0l2.4,2.4l0.1,0.1l2.4,2.4l0.1,0.1l2.5,2.4l0,0l2.5,0.1
			l2.4,2.4l0,0l2.5,0.1l2.5,2.4l0,0l2.5,0l2.5,0l2.5,0l2.5,0l2.5,0l2.5,0l0,0l2.5-2.4l2.5-0.1l0.1-0.1l2.4-2.4l2.5-0.1l0,0l2.5-2.5
			l0,0l0.1-2.5l2.4-2.4l0.1-0.1l2.4-2.5l0,0l0.1-2.5l0.1-2.5l2.3-2.5l0,0l0-2.5l0-2.5l0-2.5l0-2.5l0-2.5l0-2.5l0,0l-2.3-2.4
			l-0.1-2.5l-0.1-2.5l0,0l-2.5-2.5l0,0l-2.5-2.5l0,0l-2.5-0.1L664.4,640.3z"/>
	</g>
</g>
<g class="st0">
	<path class="st7" d="M709.1,503.7L709.1,503.7l-2.5,0l-2.5,0l-2.5,0l-2.5,0l-2.5,0l-2.5,0l0,0l-2.5,2.3l-2.5,0.1l-2.5,0.1l0,0
		l-2.5,2.4l-0.1,0.1l-2.4,2.3l-2.5,0.1l0,0l-2.4,2.4l-0.1,0.1l-2.4,2.4l-2.5,0.1l0,0l-2.5,2.4l-0.1,0.1l-2.4,2.4l-0.1,0.1l-2.4,2.4
		l-2.5,0.1l0,0l-2.5,2.4l0,0l-2.4,2.4l-0.1,0.1l-2.4,2.3L652,531l0,0l-2.4,2.4l-0.1,0.1l-2.4,2.3l-2.5,0.1l-0.1,0.1l-2.4,2.4
		l-2.5,0.1l0,0l-2.5,2.4L637,541l-2.4,2.4l-2.5,0.1l0,0l-2.5,2.5l0,0l-2.5,2.4l0,0l-2.4,2.5l0,0l-2.5,2.5l0,0l-0.1,2.5l-2.4,2.4
		l-0.1,0.1l-2.4,2.4l-0.1,0.1l-2.4,2.5l0,0l-0.1,2.5l-2.4,2.4l-0.1,0.1l-2.4,2.5l0,0l-2.5,2.5l0,0l-0.1,2.5l-2.4,2.4l0,0l-2.4,2.4
		l-2.5,0l0,0l-2.5,2.4l-2.5,0l-2.5-2.4l0,0l-2.5,0l-2.5,0l-2.5-2.4l0,0l-2.5,0l-2.5-0.1l-2.4-2.4l0,0l-2.5-0.1l-2.5-2.4l0,0
		l-2.5-0.1l-2.5-0.1l-2.5-0.1l-2.4-2.3l0,0l-2.5,0l-2.5,0l-2.5,0l-2.5,0l-2.5,0l-2.5,0l-2.5,0l-2.5,0l-2.5,0.1l0,0l-2.5,2.4
		l-2.5,0.1l0,0l-2.4,2.4l-0.1,0.1l-2.4,2.3l-2.5,0.1l0,0l-2.5,2.5l0,0l-0.1,2.5l-2.4,2.4l-0.1,0.1l-0.1,2.5l-2.3,2.5l0,0l-0.1,2.5
		l0,2.5l0,2.5l0,2.5l0,2.5l0,2.5l0,2.5l0,2.5l0,0l2.3,2.5l0.1,2.5l0.1,2.5l0,0l2.3,2.5l0.1,2.5l0.1,0.1l2.3,2.4l0.1,2.5l0,0l2.4,2.4
		l0.1,2.5l0,0l2.4,2.5l0.1,0.1l2.4,2.4l0.1,0.1l2.4,2.4l0.1,0.1l2.4,2.4l0.1,0.1l2.5,2.4l0,0l2.5,0.1l2.5,2.4l0,0l2.5,0l2.5,0l2.5,0
		l0,0l2.5-2.4l2.5,0l2.5,0l0,0l2.4-2.4l2.5-0.1l0,0l2.4-2.4l2.5-0.1l0,0l2.5-2.5l0,0l2.5-2.4l0,0l2.4-2.4l0,0l2.4-2.5l0,0l2.5-2.5
		l0,0l0.1-2.5l2.4-2.4l0.1-0.1l2.4-2.4l0,0l2.4-2.5l0,0l0.1-2.5l2.4-2.4l0.1-0.1l2.4-2.4l0,0l2.4-2.4l2.5,0l0,0l2.5-2.4l2.5,0
		l2.5,2.4l0,0l2.5,0l2.5,2.5l0,0l2.5,0.1l2.4,2.4l0,0l2.5,2.4l0,0l2.5,2.5l0,0l2.5,0.1l2.4,2.4l0.1,0.1l2.4,2.4l0,0l2.5,0.1l2.4,2.4
		l0.1,0.1l2.5,2.4l0,0l2.5,0.1l2.5,2.4l0,0l2.5,0.1l2.5,0l2.5,0l2.5,0l2.5,2.3l0,0l2.5,0l2.5,0l2.5,0l2.5,0l2.5,0l2.5,0l2.5,0l0,0
		l2.5-2.3l2.5,0l2.5,0l2.5,0l2.5,0l2.5,0l2.5,0l0,0l2.5-2.4l2.5,0l2.5,0l0,0l2.4-2.4l2.5-0.1l0,0l2.4-2.4l0.1-0.1l2.4-2.4l0.1-0.1
		l2.4-2.4l0,0l0.1-2.5l2.4-2.4l0.1-0.1l0.1-2.5l2.4-2.4l0,0l0.1-2.5l2.4-2.5l0,0l0.1-2.5l0.1-2.5l2.3-2.5l0,0l0.1-2.5l0.1-2.5
		l2.3-2.5l0,0l0.1-2.5l0.1-2.5l2.3-2.5l0,0l0.1-2.5l0.1-2.5l0.1-2.5l2.3-2.5l0,0l0-2.5l0-2.5l0-2.5l0-2.5l2.3-2.5l0,0l0-2.5l0-2.5
		l0-2.5l0-2.5l0-2.5l0-2.5l0-2.5l0-2.5l0,0l-2.3-2.5l0-2.5l0-2.5l0-2.5l-0.1-0.1l-2.3-2.4l-0.1-2.5l-0.1-2.5l0,0l-2.4-2.5l-0.1-2.5
		l0,0l-2.4-2.5l-0.1-0.1l-2.4-2.4l-0.1-0.1l-2.4-2.4l-0.1-0.1l-2.5-2.4l0,0l-2.5-0.1L709.1,503.7z"/>
	<path class="st7" d="M1146.3,528.6L1146.3,528.6l-2.5-0.1l-2.5,0l-2.5,0l-2.5,0l-2.5,0l0,0l-2.4,2.4l-2.5,0.1l0,0l-2.5,2.4l0,0
		l-2.4,2.5l0,0l-0.1,2.5l-2.4,2.4l-0.1,0.1l-2.4,2.5l0,0l-0.1,2.5l-2.4,2.5l0,0l0,2.5l0,2.5l-2.4,2.5l0,0l0,2.5l0,2.5l0,2.5l0,2.5
		l0,2.5l0,2.5l0,0l2.5,2.5l0,0l2.5,0l2.5,0l2.5,0l2.5,0l2.5,0l0,0l2.4-2.4l2.5-0.1l0,0l2.4-2.4l2.5-0.1l0,0l2.5-2.5l0,0l2.5-2.5l0,0
		l2.5-2.5l0,0l0.1-2.5l2.4-2.4l0.1-0.1l2.4-2.5l0,0l0.1-2.5l2.4-2.5l0,0l0-2.5l0-2.5l0-2.5l0-2.5l0-2.5l0,0l-2.4-2.5l-0.1-0.1
		l-2.4-2.4l-0.1-0.1L1146.3,528.6z"/>
	<path class="st7" d="M1037.1,555.9L1037.1,555.9l-2.5-0.1l-2.5,0l-2.5,0l-2.5,0l-2.5,0l-2.5,0l-2.5,0l-2.5,0l-2.5,0l-2.5,0l0,0
		l-2.5,2.2l-2.5,0.1l-2.5,0.1l-2.5,0.1l0,0l-2.5,2.3l-2.5,0.1l-0.1,0.1l-2.4,2.3l-2.5,0.1l-0.1,0.1l-2.4,2.4l-0.1,0.1l-2.4,2.3
		l-0.1,0.1l-2.3,2.3l-0.1,0.1l-2.3,2.4l-0.1,0.1l-2.4,2.4l-0.1,0.1l-0.1,2.5l-2.3,2.4l-0.1,0.1l-0.1,2.5l-2.3,2.5l0,0l0,2.5l0,2.5
		l0,2.5l0,2.5l0,2.5l0,2.5l0,2.5l0,0l2.4,2.4l0.1,2.5l0.1,0.1l2.4,2.4l0.1,0.1l2.4,2.4l0.1,0.1l2.4,2.4l0.1,0.1l2.4,2.4l0,0l2.5,0.1
		l2.4,2.3l0.1,0.1l2.5,0.1l2.4,2.3l0.1,0.1l2.5,0.1l2.4,2.3l0.1,0.1l2.5,0.1l2.4,2.3l0,0l2.5,0.1l2.5,0.1l2.4,2.2l0.1,0.1l2.5,0.1
		l2.5,0.1l2.4,2.2l0.1,0.1l2.5,0.1l2.5,0.1l2.5,0l2.5,0l2.5,0l2.5,0l2.5,0l2.5,0l2.5,0l2.5-0.1l2.5-0.1l0,0l2.5-2.3l2.5-0.1l0.1-0.1
		l2.4-2.3l2.5-0.2l0.1-0.1l2.4-2.4l0.1-0.1l2.4-2.3l0.2-0.2l2.3-2.3l0.2-0.2l2.3-2.3l0.1-0.1l2.3-2.4l0.1-0.1l2.4-2.5l0,0l0.1-2.5
		l2.3-2.4l0,0l0.1-2.5l2.3-2.5l0,0l0.1-2.5l0.1-2.5l0-2.5l2.3-2.5l0,0l0-2.5l0-2.5l0-2.5l0,0l-2.4-2.5l-0.1-2.5l-0.1-0.1l-2.4-2.4
		l-0.1-0.1l-2.3-2.4l-0.1-2.5l0,0l-2.5-0.2l-2.3-2.3l-0.1-0.1l-2.4-2.3l-0.1-0.1l-2.5-2.4l0,0l-2.5-0.1l-2.4-2.3l-0.1-0.1l-2.5-0.1
		l-2.4-2.3l-0.1-0.1l-2.5-0.1l-2.5-0.1l-2.4-2.2l-0.1-0.1l-2.5-0.1l-2.5-0.1l-2.5-0.1L1037.1,555.9z"/>
</g>
<g>
	<text transform="matrix(1 0 0 1 720.8624 -145.1957)" style="fill:#231F20; font-family:'HelveticaNeue'; font-size:12px;">H</text>
</g>
<g class="st0">
	<path class="st1" d="M891.1-124.8L891.1-124.8l-0.4,0l0,0l-0.4,0.4l-0.4,0l-0.4,0l-0.4,0l0,0l-0.4,0.4l-0.4,0l0,0l-0.4,0.4l0,0
		l-0.4,0.4l0,0l0,0.4l0,0.4l0,0.4l0,0.4l0,0.4l0,0.4l0,0.4l0,0l0.4,0.4l0,0.4l0,0l0.4,0.4l0,0.4l0,0l0.4,0.4l0,0.4l0,0l0.4,0.4l0,0
		l0.4,0.4l0,0l0.4,0.4l0,0l0.4,0.4l0,0l0.4,0l0.4,0l0.4,0l0.4,0l0.4,0l0.4,0l0,0l0.4-0.4l0.4,0l0.4,0l0.4,0l0.4,0l0.4,0l0.4,0l0,0
		l0.4-0.4l0.4,0l0.4,0l0,0l0.4-0.4l0.4,0l0,0l0.4-0.4l0,0l0-0.4l0-0.4l0-0.4l0-0.4l0-0.4l0,0l-0.4-0.4l0-0.4l0,0l-0.4-0.4l0,0
		l-0.4-0.4l0,0l-0.4-0.4l0,0l-0.4-0.4l0,0l-0.4-0.4l0,0l-0.4-0.4l0,0l-0.4-0.4l0,0l-0.4,0l-0.4-0.4l0,0l-0.4,0l-0.4-0.4l0,0l-0.4,0
		l-0.4,0l-0.4,0l-0.4,0L891.1-124.8z"/>
	<path class="st1" d="M889.5-115.6L889.5-115.6l-0.4,0l0,0l-0.4,0.4l-0.4,0l-0.4,0l-0.4,0l-0.4,0l0,0l-0.4,0.4l-0.4,0l-0.4,0l0,0
		l-0.4,0.4l-0.4,0l0,0l-0.4,0.4l-0.4,0l0,0l-0.4,0.4l0,0l-0.4,0.4l0,0l-0.4,0.4l0,0l-0.4,0.4l0,0l-0.4,0.4l0,0l-0.4,0.4l0,0
		l-0.4,0.4l0,0l0,0.4l-0.4,0.4l0,0l0,0.4l-0.4,0.4l0,0l0,0.4l0,0.4l0,0.4l0,0.4l0,0.4l0,0.4l0,0.4l0,0l0.4,0.4l0,0.4l0,0.4l0,0
		l0.4,0.4l0,0.4l0,0l0.4,0.4l0,0.4l0,0.4l0,0l0.4,0.4l0,0.4l0,0l0.4,0.4l0,0.4l0,0l0.4,0.4l0,0.4l0,0l0.4,0.4l0,0l0.4,0.4l0,0.4l0,0
		l0.4,0.4l0,0.4l0,0.4l0,0l0.4,0.4l0,0.4l0,0.4l0,0.4l0,0l0.4,0.4l0,0.4l0,0.4l0,0.4l0,0.4l0,0.4l0,0.4l0,0.4l0,0.4l0,0l0.4,0.4
		l0,0.4l0,0.4l0,0.4l0,0l0.4,0.4l0,0.4l0,0.4l0,0.4l0,0l0.4,0.4l0,0.4l0,0.4l0,0l0.4,0.4l0,0.4l0,0.4l0,0.4l0,0.4l0,0.4l0,0.4l0,0
		L887-86l0,0.4l0,0.4l0,0.4l0,0.4l0,0.4l0,0.4l0,0.4l0,0.4l0,0l0.4,0.4l0,0.4l0,0.4l0,0.4l0,0l0.4,0.4l0,0.4l0,0.4l0,0.4l0,0
		l0.4,0.4l0,0.4l0,0.4l0,0.4l0,0.4l0,0l0.4,0.4l0,0.4l0,0.4l0,0.4l0,0.4l0,0l0.4,0.4l0,0.4l0,0.4l0,0.4l0,0l0.4,0.4l0,0.4l0,0.4l0,0
		l0.4,0.4l0,0.4l0,0l0.4,0.4l0,0l0.4,0.4l0,0.4l0,0l0.4,0.4l0,0l0.4,0.4l0,0l0.4,0l0.4,0.4l0,0l0.4,0l0.4,0.4l0,0l0.4,0l0.4,0l0.4,0
		l0.4,0l0.4,0l0.4,0l0.4,0l0,0l0.4-0.4l0.4,0l0.4,0l0.4,0l0,0l0.4-0.4l0.4,0l0,0l0.4-0.4l0.4,0l0.4,0l0,0l0.4-0.4l0.4,0l0,0l0.4-0.4
		l0.4,0l0,0l0.4-0.4l0.4,0l0,0l0.4-0.4l0.4,0l0,0l0.4-0.4l0.4,0l0,0l0.4-0.4l0.4,0l0,0l0.4-0.4l0.4,0l0.4,0l0.4,0l0,0l0.4-0.4l0.4,0
		l0.4,0l0.4,0l0.4,0l0.4,0l0.4,0.4l0,0l0.4,0l0.4,0l0.4,0l0.4,0l0.4,0l0,0l0.4-0.4l0.4,0l0.4,0l0,0l0.4-0.4l0,0l0.4-0.4l0.4,0l0,0
		l0.4-0.4l0,0l0.4-0.4l0,0l0-0.4l0.4-0.4l0,0l0-0.4l0.4-0.4l0,0l0-0.4l0.4-0.4l0,0l0-0.4l0.4-0.4l0,0l0-0.4l0-0.4l0-0.4l0-0.4l0-0.4
		l0-0.4l0-0.4l0-0.4l0-0.4l0,0l-0.4-0.4l0-0.4l0-0.4l0,0l-0.4-0.4l0,0l-0.4-0.4l0-0.4l0,0l-0.4-0.4l0,0l-0.4-0.4l0,0l-0.4-0.4l0,0
		l-0.4-0.4l0,0l-0.4-0.4l0,0l-0.4-0.4l0,0l-0.4-0.4l0,0l-0.4-0.4l0,0l-0.4-0.4l0,0l-0.4-0.4l0-0.4l0,0l-0.4-0.4l0-0.4l0-0.4l0,0
		l-0.4-0.4l0-0.4l0-0.4l0-0.4l0-0.4l0-0.4l0-0.4l0-0.4l0-0.4l0-0.4l0-0.4l0-0.4l0,0l-0.4-0.4l0-0.4l0-0.4l0,0l-0.4-0.4l0-0.4l0,0
		l-0.4-0.4l0-0.4l0,0l-0.4-0.4l0,0l-0.4,0l-0.4-0.4l0,0l-0.4,0l-0.4-0.4l0,0l-0.4,0l-0.4-0.4l0,0l-0.4,0l-0.4,0l-0.4,0l-0.4,0
		l-0.4,0l-0.4-0.4l0,0l-0.4,0l-0.4,0l-0.4,0l-0.4,0l-0.4,0l-0.4,0l-0.4,0l-0.4,0l-0.4,0l-0.4,0l-0.4,0l-0.4,0l-0.4,0h-0.4l-0.4,0
		l-0.4,0l-0.4,0l-0.4,0l-0.4-0.4l0,0l-0.4,0l-0.4-0.4l0,0l-0.4,0l-0.4-0.4l0-0.4l0,0l-0.4-0.4l0,0l-0.4-0.4l0-0.4l0-0.4l0-0.4l0-0.4
		l0-0.4l0-0.4l0-0.4l0-0.4l0-0.4l0-0.4l0-0.4l0-0.4l0-0.4l0-0.4l0-0.4l0-0.4l0-0.4l0-0.4l0,0l-0.4-0.4l0-0.4l0-0.4l0-0.4l0,0
		l-0.4-0.4l0-0.4l0,0l-0.4-0.4l0-0.4l0,0l-0.4-0.4l0-0.4l0,0l-0.4-0.4l0-0.4l0,0l-0.4-0.4l0,0l-0.4-0.4l0,0l-0.4-0.4l0,0
		L889.5-115.6z"/>
	<path class="st1" d="M763.8-114.8L763.8-114.8l-0.4,0l-0.4,0l-0.4,0l-0.4,0l-0.4,0l0,0l-0.4,0.4l-0.4,0l-0.4,0l0,0l-0.4,0.4l-0.4,0
		l0,0l-0.4,0.4l0,0l-0.4,0.4l0,0l-0.4,0.4l0,0l0,0.4l-0.4,0.4l0,0l-0.4,0.4l0,0l0,0.4l0,0.4l-0.4,0.4l0,0l0,0.4l0,0.4l0,0.4l0,0.4
		l0,0.4l0,0.4l0,0.4l0,0.4l0,0.4l0,0.4l0,0l0.4,0.4l0,0.4l0,0.4l0,0.4l0,0.4l0,0l0.4,0.4l0,0.4l0,0.4l0,0.4l-0.4,0.4l-0.4,0l-0.4,0
		l-0.4,0l-0.4,0l-0.4,0l-0.4-0.4l0,0l-0.4,0l-0.4,0l-0.4,0l-0.4,0l-0.4,0l-0.4,0l-0.4,0l-0.4,0l-0.4,0l-0.4,0l-0.4,0l-0.4,0l-0.4,0
		l0,0l-0.4,0.4l-0.4,0l-0.4,0l0,0l-0.4,0.4l0,0l-0.4,0.4l-0.4,0l0,0l-0.4,0.4l0,0l-0.4,0.4l0,0l0,0.4l-0.4,0.4l0,0l-0.4,0.4l0,0
		l-0.4,0.4l0,0l-0.4,0.4l0,0l-0.4,0.4l-0.4,0l0,0l-0.4,0.4l-0.4,0l-0.4,0l0,0l-0.4,0.4l-0.4,0l-0.4,0l-0.4,0l-0.4,0l-0.4,0l-0.4,0
		l-0.4,0l-0.4,0l-0.4,0l-0.4,0l-0.4-0.4l0,0l0,0l-0.4,0.4l-0.4,0l-0.4,0l-0.4,0l-0.4,0l-0.4,0l-0.4,0l0,0l-0.4,0.4l-0.4,0l0,0
		l-0.4,0.4l-0.4,0l0,0l-0.4,0.4l0,0l-0.4,0.4l0,0l-0.4,0.4l0,0l-0.4,0.4l0,0l-0.4,0.4l0,0l0,0.4l-0.4,0.4l0,0l0,0.4l-0.4,0.4l0,0
		l0,0.4l0,0.4l0,0.4l-0.4,0.4l0,0l0,0.4l0,0.4l0,0.4l0,0l0.4,0.4l0,0.4l0,0.4l0,0.4l0,0l0.4,0.4l0,0.4l0,0l0.4,0.4l0,0.4l0,0
		l0.4,0.4l0,0l0.4,0.4l0,0.4l0,0l0.4,0.4l0,0l0.4,0.4l0,0l0.4,0.4l0,0l0.4,0.4l0,0.4l0,0l0.4,0.4l0,0l0.4,0.4l0,0l0.4,0.4l0,0
		l0.4,0.4l0,0.4l0,0l0.4,0.4l0,0l0.4,0.4l0,0.4l0,0l0.4,0.4l0,0.4l0,0l0.4,0.4l0,0l0.4,0.4l0,0.4l0,0l0.4,0.4l0,0L739-78l0,0.4l0,0
		l0.4,0.4l0,0l0.4,0.4l0,0.4l0,0l0.4,0.4l0,0l0.4,0.4l0,0l0.4,0.4l0,0l0.4,0.4l0,0l0.4,0.4l0,0l0.4,0.4l0,0l0.4,0.4l0,0l0.4,0
		l0.4,0.4l0,0l0.4,0.4l0,0l0.4,0l0.4,0.4l0,0l0.4,0l0.4,0l0.4,0.4l0,0l0.4,0l0.4,0l0.4,0l0.4,0l0.4,0.4l0,0l0.4,0l0.4,0l0,0L749-72
		l0.4,0l0.4,0l0.4,0l0,0l0.4-0.4l0.4,0l0,0l0.4-0.4l0.4,0l0,0l0.4-0.4l0,0l0.4-0.4l0,0L753-74l0,0l0.4-0.4l0,0l0-0.4l0.4-0.4l0,0
		l0-0.4l0.4-0.4l0,0l0-0.4l0-0.4l0-0.4l0.4-0.4l0,0l0-0.4l0-0.4l0-0.4l0.4-0.4l0,0l0-0.4l0-0.4l0-0.4l0.4-0.4l0,0l0-0.4l0-0.4
		l0.4-0.4l0,0l0-0.4l0.4-0.4l0,0l0-0.4l0.4-0.4l0,0L757-84l0,0l0.4-0.4l0,0l0-0.4l0.4-0.4l0,0l0.4-0.4l0,0l0.4-0.4l0,0l0.4-0.4l0,0
		l0.4-0.4l0,0l0.4-0.4l0,0l0-0.4l0.4-0.4l0,0l0-0.4l0.4-0.4l0,0l0-0.4l0.4-0.4l0,0l0-0.4l0-0.4l0-0.4l0-0.4l0-0.4l0.4-0.4l0,0l0-0.4
		l0,0l-0.4-0.4l0-0.4l0-0.4l0-0.4l0-0.4l0-0.4l0,0l-0.4-0.4l0-0.4l0-0.4l0-0.4l0,0l-0.4-0.4l0-0.4l0-0.4l0,0l-0.4-0.4l0-0.4l0-0.4
		l0,0l-0.4-0.4l0-0.4l0-0.4l0,0l-0.4-0.4l0-0.4l0.4-0.4l0,0l0.4-0.4l0.4,0l0.4,0l0.4,0.4l0,0l0.4,0l0.4,0l0.4,0l0.4,0l0.4,0l0.4,0.4
		l0,0l0.4,0l0.4,0l0.4,0l0.4,0l0.4,0l0.4,0l0.4,0l0.4,0.4l0,0l0.4,0l0.4,0l0,0l0.4-0.4l0.4,0l0.4,0l0.4,0l0,0l0.4-0.4l0,0l0.4-0.4
		l0,0l0.4-0.4l0,0l0.4-0.4l0,0l0-0.4l0-0.4l0-0.4l0-0.4l0-0.4l0-0.4l0-0.4l0-0.4l0-0.4l0-0.4l0,0l-0.4-0.4l0-0.4l0-0.4l0-0.4l0,0
		l-0.4-0.4l0-0.4l0-0.4l0,0l-0.4-0.4l0-0.4l0,0l-0.4-0.4l0-0.4l0,0l-0.4-0.4l0-0.4l0,0l-0.4-0.4l0,0l-0.4-0.4l0,0l-0.4-0.4l0,0
		l-0.4-0.4l0,0l-0.4-0.4l0,0l-0.4,0l-0.4-0.4l0,0l-0.4,0l-0.4-0.4l0,0l-0.4,0l-0.4,0L763.8-114.8z"/>
	<path class="st1" d="M745.8-114.4L745.8-114.4l-0.4,0l0,0L745-114l-0.4,0l-0.4,0l0,0l-0.4,0.4l0,0l0,0.4l-0.4,0.4l0,0l0,0.4l0,0.4
		l0,0.4l0,0l0.4,0.4l0,0l0.4,0l0.4,0.4v0l0,0l0.4-0.4l0.4,0l0.4,0l0,0l0.4-0.4l0,0l0.4-0.4l0,0l0-0.4l0-0.4l0-0.4l0-0.4l0-0.4l0,0
		l-0.4,0L745.8-114.4z"/>
	<path class="st1" d="M786.6-84L786.6-84l-0.4,0l-0.4,0l-0.4,0l-0.4,0l-0.4,0l-0.4,0l0,0l-0.4,0.4l-0.4,0l-0.4,0l0,0l-0.4,0.4l0,0
		l-0.4,0.4l-0.4,0l0,0l-0.4,0.4l0,0L781-82l0,0l-0.4,0.4l0,0l0,0.4l-0.4,0.4l0,0l0,0.4l-0.4,0.4l0,0l0,0.4l0,0.4l-0.4,0.4l0,0l0,0.4
		l0,0.4l0,0.4l0,0.4l0,0.4l0,0.4l0,0.4l0,0l0.4,0.4l0,0.4l0,0l0.4,0.4l0,0.4l0,0l0.4,0.4l0,0l0.4,0.4l0,0l0.4,0l0.4,0.4l0,0l0.4,0
		l0.4,0.4l0,0l0.4,0l0.4,0l0.4,0l0.4,0l0.4,0l0.4,0l0.4,0l0.4,0l0.4,0l0,0l0.4-0.4l0.4,0l0,0l0.4-0.4l0.4,0l0,0l0.4-0.4l0,0l0.4-0.4
		l0,0l0.4-0.4l0,0l0.4-0.4l0,0l0.4-0.4l0,0l0-0.4l0.4-0.4l0,0l0-0.4l0-0.4l0.4-0.4l0,0l0-0.4l0-0.4l0-0.4l0-0.4l0-0.4l0-0.4l0,0
		l-0.4-0.4l0-0.4l0,0l-0.4-0.4l0-0.4l0,0l-0.4-0.4l0-0.4l0,0l-0.4-0.4l0,0l-0.4,0l-0.4-0.4l0,0l-0.4-0.4l0,0l-0.4,0l-0.4,0L786.6-84
		z"/>
</g>
<g>
	<path class="st8" d="M886.7-128L886.7-128l-0.4,0l-0.4,0l0,0l-0.4,0.4l-0.4,0l-0.4,0l-0.4,0l0,0l-0.4,0.4l-0.4,0l0,0l-0.4,0.4l0,0
		l-0.4,0.4l0,0l-0.4,0.4l0,0l-0.4,0.4l0,0l-0.4,0.4l0,0l0,0.4l-0.4,0.4l0,0l0,0.4l-0.4,0.4l0,0l0,0.4l0,0.4l0,0.4l0,0.4l0,0.4l0,0.4
		l0,0.4l0,0.4l0,0l0.4,0.4l0,0.4l0,0.4l0,0l0.4,0.4l0,0l0.4,0.4l0,0.4l0,0l0.4,0.4l0,0l0.4,0.4l0,0l0.4,0.4l0,0l0.4,0.4l0,0l0.4,0.4
		l0,0l0.4,0.4l0,0l0.4,0.4l0,0.4l0,0l0.4,0.4l0,0.4l0,0.4l0,0.4l0,0.4l0,0l0.4,0.4l-0.4,0.4l0,0l0,0.4l0,0.4l0,0.4l0,0.4l0,0.4
		l0,0.4l0,0.4l0,0.4l0,0.4l0,0.4l0,0.4l0,0l0.4,0.4l0,0.4l0,0.4l0,0.4l0,0l0.4,0.4l0,0.4l0,0.4l0,0.4l0,0l0.4,0.4l0,0.4l0,0.4l0,0.4
		l0,0.4l0,0.4l0,0.4l0,0.4l0,0.4l0,0.4l0,0.4l0,0.4l0,0.4l0,0.4l0,0.4l-0.4,0.4l0,0l0,0.4l0,0.4l0,0.4l0,0.4l0,0.4l0,0.4l0,0.4l0,0
		l0.4,0.4l0,0.4l0,0.4l0,0.4l0,0l0.4,0.4l0,0.4l0,0.4l0,0L887-92l0,0.4l0,0l0.4,0.4l0,0.4l0,0l0.4,0.4l0,0.4l0,0l0.4,0.4l0,0
		l0.4,0.4l0,0l0.4,0.4l0,0.4l0,0l0.4,0.4l0,0l0.4,0.4l0,0l0.4,0.4l0,0l0.4,0l0.4,0.4l0,0l0.4,0.4l0,0l0.4,0l0.4,0.4l0,0l0.4,0
		l0.4,0.4l0,0l0.4,0l0.4,0.4l0,0l0.4,0l0.4,0l0.4,0l0.4,0l0.4,0l0.4,0l0.4,0l0.4,0l0.4,0l0,0l0.4-0.4l0,0l0.4-0.4l0,0l0.4-0.4l0,0
		l0-0.4l0.4-0.4l0,0l0-0.4l0-0.4l0-0.4l0-0.4l0.4-0.4l0,0l0-0.4l0-0.4l0-0.4l0-0.4l0-0.4l0-0.4l0-0.4l0-0.4l0-0.4l0-0.4l0-0.4l0-0.4
		l0-0.4l0-0.4l0-0.4l0-0.4l0-0.4l0.4-0.4l0,0l0-0.4l0-0.4l0-0.4l0-0.4l0-0.4l0-0.4l0-0.4l0-0.4l0-0.4l0-0.4l0-0.4l0-0.4l0-0.4l0-0.4
		l0-0.4l0-0.4l0-0.4l0-0.4l0-0.4l0-0.4l0-0.4l0-0.4l0-0.4l0-0.4l0-0.4l0-0.4l0,0l-0.4-0.4l0-0.4l0-0.4l0,0l-0.4-0.4l0,0l-0.4-0.4
		l0-0.4l0,0l-0.4-0.4l0-0.4l0,0l-0.4-0.4l0,0l-0.4-0.4l0-0.4l0,0l-0.4-0.4l0-0.4l0,0l-0.4-0.4l0-0.4l0,0l-0.4-0.4l0-0.4l0-0.4l0,0
		l-0.4-0.4l0-0.4l0-0.4l0-0.4l0-0.4l0,0l-0.4-0.4l0-0.4l0-0.4l0-0.4l0-0.4l0-0.4l0-0.4l0,0l-0.4-0.4l0-0.4l0-0.4l0,0l-0.4-0.4l0-0.4
		l0-0.4l0,0l-0.4-0.4l0-0.4l0,0l-0.4-0.4l0,0l-0.4-0.4l0-0.4l0,0l-0.4-0.4l0,0l-0.4-0.4l0,0l-0.4-0.4l0,0l-0.4-0.4l0,0l-0.4-0.4l0,0
		l-0.4-0.4l0,0l-0.4-0.4l0,0l-0.4-0.4l0,0l-0.4-0.4l0,0l-0.4,0l-0.4-0.4l0,0l-0.4,0l-0.4-0.4l0,0l-0.4,0l-0.4,0l-0.4,0L886.7-128z"
		/>
	<path class="st8" d="M775.4-126L775.4-126l-0.4,0l-0.4,0l-0.4,0l-0.4,0l-0.4,0l-0.4,0l-0.4,0l-0.4,0l-0.4,0l0,0l-0.4,0.4l-0.4,0
		l-0.4,0l-0.4,0l0,0l-0.4,0.4l-0.4,0l-0.4,0l0,0l-0.4,0.4l-0.4,0l-0.4,0l0,0l-0.4,0.4l-0.4,0l0,0l-0.4,0.4l0,0l-0.4,0.4l-0.4,0l0,0
		l-0.4,0.4l0,0l-0.4,0.4l0,0l-0.4,0.4l0,0l-0.4,0.4l0,0l-0.4,0.4l0,0l0,0.4l-0.4,0.4l0,0l-0.4,0.4l0,0l0,0.4l-0.4,0.4l0,0l-0.4,0.4
		l0,0l0,0.4l-0.4,0.4l0,0l-0.4,0.4l0,0l-0.4,0.4l0,0l0,0.4l-0.4,0.4l0,0l-0.4,0.4l0,0l-0.4,0.4l0,0l-0.4,0.4l0,0l-0.4,0.4l0,0
		l-0.4,0.4l0,0l-0.4,0.4l0,0l-0.4,0.4l0,0l0,0.4l-0.4,0.4l0,0l-0.4,0.4l0,0l0,0.4l-0.4,0.4l0,0l0,0.4l-0.4,0.4l0,0l0,0.4l0,0.4
		l0,0.4l-0.4,0.4l0,0l0,0.4l0,0.4l0,0l0.4,0.4l0,0.4l0,0.4l0,0.4l0,0.4l0,0l0.4,0.4l0,0.4l0,0.4l0,0.4l0,0.4v0l0.4,0.4l0,0.4l0,0.4
		l0,0.4l0,0.4l0,0.4l0,0.4l0,0.4l-0.4,0.4l0,0l0,0.4l0,0.4l-0.4,0.4l0,0l0,0.4l0,0.4l-0.4,0.4l0,0l0,0.4l-0.4,0.4l0,0l0,0.4l0,0.4
		l0,0.4l-0.4,0.4l0,0l0,0.4l0,0.4l0,0.4l0,0.4l-0.4,0.4l0,0l0,0.4l0,0.4l0,0.4l0,0l0.4,0.4l0,0.4l0,0.4l0,0.4l0,0l0.4,0.4l0,0.4l0,0
		l0.4,0.4l0,0.4l0,0l0.4,0.4l0,0l0.4,0.4l0,0l0.4,0l0.4,0.4l0,0l0.4,0.4l0,0l0.4,0l0.4,0L759-88l0,0l0.4,0l0.4,0l0.4,0l0.4,0l0.4,0
		l0.4,0l0,0l0.4-0.4l0.4,0l0.4,0l0,0l0.4-0.4l0.4,0l0,0l0.4-0.4l0,0l0.4-0.4l0.4,0l0,0L765-90l0,0l0.4-0.4l0,0l0-0.4l0.4-0.4l0,0
		l0.4-0.4l0,0l0-0.4l0.4-0.4l0,0l0-0.4l0.4-0.4l0,0l0-0.4l0-0.4l0.4-0.4l0,0l0-0.4l0-0.4l0-0.4l0-0.4l0.4-0.4l0,0l0-0.4l0-0.4l0-0.4
		l0-0.4l0-0.4l0.4-0.4l0,0l0-0.4l0-0.4l0-0.4l0-0.4l0.4-0.4l0,0l0-0.4l0-0.4l0-0.4l0.4-0.4l0,0l0-0.4l0-0.4l0-0.4l0.4-0.4l0,0l0-0.4
		l0-0.4l0-0.4l0.4-0.4l0,0l0-0.4l0-0.4l0-0.4l0-0.4l0-0.4l0.4-0.4l0,0l0-0.4l0-0.4l0-0.4l0.4-0.4l0,0l0-0.4l0-0.4l0.4-0.4l0,0l0-0.4
		l0.4-0.4l0,0l0-0.4l0.4-0.4l0,0l0.4-0.4l0,0l0-0.4l0.4-0.4l0.4,0l0,0l0.4-0.4l0,0l0.4-0.4l0.4,0l0,0l0.4-0.4l0.4,0l0,0l0.4-0.4
		l0.4,0l0.4,0l0.4,0l0,0l0.4-0.4l0.4,0l0.4,0l0.4,0l0.4,0l0.4,0l0.4,0l0.4,0l0.4,0l0.4,0l0.4,0l0.4,0l0,0l0.4-0.4l0.4,0l0.4,0l0.4,0
		l0.4,0l0.4,0l0,0l0.4-0.4l0.4,0l0.4,0l0.4,0l0,0l0.4-0.4l0,0l0-0.4l0-0.4l0,0l-0.4-0.4l0,0l-0.4-0.4l0,0l-0.4-0.4l0,0l-0.4-0.4l0,0
		l-0.4-0.4l0,0l-0.4-0.4l0,0l-0.4-0.4l0,0l-0.4-0.4l0,0l-0.4-0.4l0-0.4l0,0l-0.4-0.4l0,0l-0.4-0.4l0,0l-0.4-0.4l0,0l-0.4-0.4l0,0
		l-0.4-0.4l0,0l-0.4-0.4l0,0l-0.4-0.4l0,0l-0.4,0l-0.4-0.4l0,0l-0.4,0l-0.4-0.4l0,0l-0.4,0l-0.4-0.4l0,0l-0.4,0l-0.4,0l-0.4,0
		L775.4-126z"/>
	<path class="st8" d="M805.4-97.6L805.4-97.6l-0.4,0l-0.4,0l-0.4,0l0,0l-0.4,0.4l-0.4,0l-0.4,0l0,0l-0.4,0.4l-0.4,0l0,0l-0.4,0.4
		l0,0l-0.4,0.4l0,0l-0.4,0.4l0,0l-0.4,0.4l0,0l-0.4,0.4l0,0l0,0.4l-0.4,0.4l0,0l0,0.4l-0.4,0.4l0,0l0,0.4l-0.4,0.4l0,0l0,0.4
		l-0.4,0.4l0,0l0,0.4l0,0.4l-0.4,0.4l0,0l0,0.4l0,0.4l0,0.4l-0.4,0.4l0,0l0,0.4l0,0.4l0,0.4l0,0.4l-0.4,0.4l0,0l0,0.4l0,0.4l0,0.4
		l0,0.4l0,0.4l0,0.4l0,0.4l0,0.4l0,0.4l0,0.4l0,0.4l0,0.4l0,0.4l0,0.4l0,0.4l0,0.4l0,0l0.4,0.4l0,0.4l0,0.4l0,0.4l0,0l0.4,0.4l0,0.4
		l0,0l0.4,0.4l0,0.4l0,0l0.4,0.4l0,0.4l0,0l0.4,0.4l0,0.4l0,0l0.4,0.4l0,0l0.4,0.4l0,0.4l0,0l0.4,0.4l0,0l0.4,0.4l0,0.4l0,0l0.4,0.4
		l0,0l0.4,0.4l0,0l0.4,0l0.4,0.4l0,0l0.4,0l0.4,0l0.4,0l0.4,0l0.4,0l0.4,0l0,0l0.4-0.4l0,0l0.4-0.4l0.4,0l0,0l0.4-0.4l0,0l0-0.4
		L807-74l0,0l0-0.4l0.4-0.4l0,0l0-0.4l0.4-0.4l0,0l0-0.4l0-0.4l0.4-0.4l0,0l0-0.4l0-0.4l0-0.4l0.4-0.4l0,0l0-0.4l0-0.4l0.4-0.4l0,0
		l0-0.4l0-0.4l0.4-0.4l0,0l0-0.4l0.4-0.4l0,0l0-0.4l0-0.4l0-0.4l0.4-0.4l0,0l0-0.4l0-0.4l0-0.4l0.4-0.4l0,0l0-0.4l0-0.4l0-0.4l0-0.4
		l0-0.4l0-0.4l0,0l-0.4-0.4l0-0.4l0-0.4l0-0.4l0-0.4l0,0l-0.4-0.4l0-0.4l0-0.4l0-0.4l0,0l-0.4-0.4l0-0.4l0-0.4l0-0.4l0,0l-0.4-0.4
		l0-0.4l0-0.4l0,0l-0.4-0.4l0-0.4l0-0.4l0,0l-0.4-0.4l0-0.4l0,0l-0.4-0.4l0,0l-0.4-0.4l0,0l-0.4-0.4l0,0l-0.4-0.4l0,0l-0.4,0l-0.4,0
		L805.4-97.6z"/>
	<path class="st8" d="M852.3-94.8L852.3-94.8l-0.4,0l-0.4,0l-0.4,0l0,0l-0.4,0.4l-0.4,0l-0.4,0l0,0l-0.4,0.4l-0.4,0l0,0l-0.4,0.4
		l0,0l-0.4,0.4l0,0l-0.4,0.4l0,0l-0.4,0.4l0,0l0,0.4l-0.4,0.4l0,0l-0.4,0.4l0,0l0,0.4l-0.4,0.4l0,0l0,0.4l-0.4,0.4l0,0l0,0.4
		l-0.4,0.4l0,0l-0.4,0.4l0,0l0,0.4l-0.4,0.4l0,0l0,0.4l-0.4,0.4l0,0l0,0.4l-0.4,0.4l0,0l0,0.4l-0.4,0.4l0,0l0,0.4l-0.4,0.4l0,0
		l0,0.4l0,0.4l-0.4,0.4l0,0l0,0.4l0,0.4l0,0.4l-0.4,0.4l0,0l0,0.4l0,0.4l0,0.4l0,0.4l0,0.4l0,0.4l0,0.4l0,0.4l0,0.4l0,0.4l0,0.4
		l0,0.4l0,0.4l0,0.4l0,0l0.4,0.4l0,0.4l0,0.4l0,0l0.4,0.4l0,0.4l0,0l0.4,0.4l0,0l0.4,0.4l0,0l0.4,0.4l0,0l0.4,0.4l0,0L845-72l0,0
		l0.4,0l0.4,0l0.4,0.4l0,0l0.4,0l0.4,0l0.4,0l0.4,0l0.4,0l0.4,0l0.4,0l0,0l0.4-0.4l0.4,0l0,0l0.4-0.4l0.4,0l0,0l0.4-0.4l0,0l0.4-0.4
		l0,0l0.4-0.4l0,0l0.4-0.4l0,0l0.4-0.4l0,0l0.4-0.4l0,0l0.4-0.4l0,0l0.4-0.4l0,0l0.4-0.4l0,0l0-0.4l0.4-0.4l0,0l0-0.4l0.4-0.4l0,0
		l0.4-0.4l0,0l0-0.4l0-0.4l0.4-0.4l0,0l0-0.4l0.4-0.4l0,0l0-0.4l0-0.4l0.4-0.4l0,0l0-0.4l0-0.4l0-0.4l0-0.4l0.4-0.4l0,0l0-0.4l0-0.4
		l0-0.4l0-0.4l0-0.4l0-0.4l0.4-0.4l0,0l0-0.4l0-0.4l0-0.4l0-0.4l0-0.4l0-0.4l0-0.4l0-0.4l0-0.4l0,0l-0.4-0.4l0-0.4l0-0.4l0,0
		l-0.4-0.4l0-0.4l0,0l-0.4-0.4l0-0.4l0,0l-0.4-0.4l0,0l-0.4-0.4l0,0l-0.4-0.4l0,0l-0.4,0l-0.4-0.4l0,0l-0.4,0l-0.4-0.4l0,0l-0.4,0
		l-0.4,0L852.3-94.8z"/>
</g>
<g>
	<path class="st9" d="M774.6-101.2L774.6-101.2l-0.4,0l-0.4,0l-0.4,0l-0.4,0l-0.4,0l-0.4,0l-0.4,0l-0.4,0l-0.4,0l-0.4,0l0,0
		l-0.4,0.4l-0.4,0l0,0l-0.4,0.4l-0.4,0l0,0l-0.4,0.4l-0.4,0l0,0l-0.4,0.4l0,0l-0.4,0.4l0,0l0,0.4l-0.4,0.4l0,0l0,0.4l-0.4,0.4l0,0
		l0,0.4l0,0.4l-0.4,0.4l0,0l0,0.4l0,0.4l0,0.4l0,0.4l0,0.4l0,0.4l0,0l0.4,0.4l0,0.4l0,0.4l0,0.4l0,0L767-92l0,0.4l0,0.4l0,0l0.4,0.4
		l0,0.4l0,0.4l0,0l0.4,0.4l0,0.4l0,0l0.4,0.4l0,0l0.4,0.4l0,0.4l0,0l0.4,0.4l0,0l0.4,0.4l0,0l0.4,0.4l0,0l0.4,0l0.4,0.4l0,0l0.4,0
		l0.4,0.4l0,0l0.4,0l0.4,0l0.4,0.4l0,0l0.4,0l0.4,0l0.4,0l0.4,0l0.4,0l0.4,0l0.4,0l0.4,0.4l0,0l0.4,0l0.4,0l0.4,0l0.4,0l0.4,0.4l0,0
		l0.4,0l0.4,0.4l0,0l0.4,0l0.4,0.4l0,0l0.4,0.4l0,0l0.4,0.4l0,0l0.4,0.4l0,0.4l0,0L781-82l0,0.4l0,0.4l0,0.4l0,0l0.4,0.4l0,0.4
		l0,0.4l0,0.4l0,0l0.4,0.4l0,0.4l0,0.4l0,0l0.4,0.4l0,0.4l0,0l0.4,0.4l0,0l0.4,0.4l0,0.4l0,0l0.4,0l0.4,0.4l0,0l0.4,0.4l0,0l0.4,0
		l0.4,0l0.4,0.4l0,0l0.4,0l0.4,0l0.4,0l0.4,0.4l0,0l0.4,0l0.4,0l0.4,0l0.4,0L789-74l0,0l0.4,0l0.4,0l0.4,0l0.4,0.4l0,0.4l0,0.4
		l-0.4,0.4l0,0l0,0.4l0,0.4l0,0.4l-0.4,0.4l0,0l0,0.4l0,0.4l0,0.4l0,0.4l0,0.4l0,0l0.4,0.4l0,0.4l0,0l0.4,0.4l0,0.4l0,0l0.4,0.4l0,0
		l0.4,0.4l0,0l0.4,0l0.4,0.4l0,0l0.4,0l0.4,0.4l0,0l0.4,0l0.4,0l0.4,0l0.4,0.4l0,0l0,0l0.4-0.4l0.4,0l0.4,0l0.4,0l0,0l0.4-0.4l0,0
		l0.4-0.4l0,0l0-0.4l0.4-0.4l0,0l0-0.4l0-0.4l0-0.4l0-0.4l0-0.4l0,0l-0.4-0.4l0-0.4l0-0.4l0,0l-0.4-0.4l0,0l-0.4-0.4l0,0l-0.4-0.4
		l0,0l-0.4-0.4l0,0l-0.4-0.4l0,0l-0.4,0l-0.4-0.4l0,0l-0.4,0l-0.4,0l-0.4-0.4l0,0l-0.4,0l-0.4,0l-0.4-0.4l0,0l-0.4,0L791-74l0-0.4
		l0.4-0.4l0,0l0-0.4l0.4-0.4l0,0l0-0.4l0.4-0.4l0,0l0-0.4l0.4-0.4l0,0l0-0.4l0-0.4l0.4-0.4l0,0l0-0.4l0-0.4l0-0.4l0.4-0.4l0,0l0-0.4
		l0-0.4l0-0.4l0-0.4l0-0.4l0-0.4l0,0l-0.4-0.4l0-0.4l0-0.4l0,0l-0.4-0.4l0-0.4l0,0l-0.4-0.4l0,0l-0.4-0.4l0-0.4l0,0l-0.4-0.4l0,0
		l-0.4-0.4l0,0l-0.4-0.4l0,0l-0.4-0.4l0,0l-0.4,0l-0.4-0.4l0,0L789-88l0,0l-0.4-0.4l0,0l-0.4-0.4l0,0l-0.4-0.4l0,0l-0.4-0.4l0-0.4
		l0,0l-0.4-0.4l0,0l-0.4-0.4l0-0.4l0,0l-0.4-0.4l0-0.4l0,0l-0.4-0.4l0,0l-0.4-0.4l0-0.4l0,0l-0.4-0.4l0,0l-0.4-0.4l0-0.4l0,0
		l-0.4-0.4l0,0l-0.4-0.4l0,0l-0.4-0.4l0,0L783-96l0,0l-0.4,0l-0.4-0.4l0,0l-0.4-0.4l0,0l-0.4,0l-0.4-0.4l0,0l-0.4-0.4l0,0l-0.4-0.4
		l0,0l-0.4,0l-0.4-0.4l0,0l-0.4-0.4l0,0l-0.4-0.4l0,0l-0.4,0l-0.4-0.4l0,0l-0.4-0.4l0,0l-0.4,0l-0.4-0.4l0,0l-0.4,0l-0.4-0.4l0,0
		l-0.4,0l-0.4,0L774.6-101.2z"/>
	<path class="st9" d="M883.5-100.4L883.5-100.4l-0.4,0l-0.4,0l-0.4,0l-0.4,0l-0.4,0l-0.4,0l-0.4,0l-0.4,0l0,0l-0.4,0.4l-0.4,0
		l-0.4,0l-0.4,0l-0.4,0l0,0l-0.4,0.4l-0.4,0l-0.4,0l-0.4,0l0,0l-0.4,0.4l-0.4,0l-0.4,0l0,0l-0.4,0.4l-0.4,0l-0.4,0l-0.4,0l0,0
		l-0.4,0.4l-0.4,0l-0.4,0l0,0l-0.4,0.4l-0.4,0l0,0l-0.4,0.4l-0.4,0l0,0l-0.4,0.4l0,0l-0.4,0.4l0,0l-0.4,0.4l0,0l0,0.4l-0.4,0.4l0,0
		l0,0.4l0,0.4l-0.4,0.4l0,0l0,0.4l0,0.4l0,0.4l0,0.4l-0.4,0.4l0,0l0,0.4l0,0.4l0,0.4l0,0.4l0,0.4l-0.4,0.4l0,0l0,0.4l0,0.4l-0.4,0.4
		l0,0l0,0.4l-0.4,0.4l0,0l0,0.4l-0.4,0.4l0,0l0,0.4l-0.4,0.4l0,0l-0.4,0.4l0,0l-0.4,0.4l0,0l-0.4,0.4l0,0l-0.4,0.4l-0.4,0l0,0
		l-0.4,0.4l0,0l-0.4,0.4l-0.4,0l0,0l-0.4,0.4l-0.4,0l0,0l-0.4,0.4l-0.4,0l0,0l-0.4,0.4l0,0l-0.4,0.4l0,0l0,0.4l-0.4,0.4l0,0l0,0.4
		l0,0.4l-0.4,0.4l0,0l0,0.4l0,0l0.4,0.4l0,0.4l0,0.4l0,0l0.4,0.4l0,0.4l0,0l0.4,0.4l0,0.4l0,0l0.4,0.4l0,0l0.4,0.4l0,0l0.4,0.4l0,0
		l0.4,0.4l0,0l0.4,0.4l0,0l0.4,0.4l0,0.4l0,0l0.4,0.4l0,0l0.4,0.4l0,0.4l0,0l0.4,0.4l0,0.4l0,0.4l0,0.4l0,0.4l0,0.4l0,0.4l-0.4,0.4
		l0,0l-0.4,0.4l0,0l-0.4,0.4l-0.4,0l-0.4,0l-0.4,0l-0.4,0l-0.4,0l-0.4,0l-0.4,0l-0.4-0.4l0,0l-0.4,0l-0.4,0l-0.4,0l-0.4-0.4l0,0
		l-0.4,0l-0.4,0l-0.4,0l-0.4,0l-0.4,0l0,0l-0.4,0.4l-0.4,0l0,0l-0.4,0.4l-0.4,0l0,0l-0.4,0.4l0,0l-0.4,0.4l0,0l0,0.4l-0.4,0.4l0,0
		l0,0.4l-0.4,0.4l0,0l0,0.4l0,0.4l0,0.4l0,0.4l0,0.4l0,0.4l0,0.4l0,0l0.4,0.4l0,0.4l0,0l0.4,0.4l0,0.4l0,0L855-62l0,0.4l0,0l0.4,0.4
		l0,0l0.4,0.4l0,0l0.4,0.4l0,0l0.4,0.4l0,0l0.4,0.4l0,0l0.4,0.4l0,0l0.4,0.4l0,0l0.4,0l0.4,0.4l0,0L859-58l0,0l0.4,0l0.4,0.4l0,0
		l0.4,0l0.4,0l0.4,0.4l0,0l0.4,0l0.4,0l0.4,0l0.4,0l0.4,0l0,0l0.4-0.4l0.4,0l0.4,0l0.4,0l0.4,0l0,0l0.4-0.4l0.4,0l0.4,0l0,0l0.4-0.4
		l0.4,0l0,0l0.4-0.4l0.4,0l0,0l0.4-0.4l0,0l0.4-0.4l0,0l0.4-0.4l0,0l0.4-0.4l0,0l0.4-0.4l0,0l0-0.4l0.4-0.4l0,0l0-0.4l0.4-0.4l0,0
		l0-0.4l0-0.4l0.4-0.4l0,0l0-0.4l0-0.4l0.4-0.4l0,0l0-0.4l0-0.4l0-0.4l0-0.4l0-0.4l0-0.4l0.4-0.4l0,0l0-0.4l0-0.4l0-0.4l0-0.4l0,0
		l-0.4-0.4l0-0.4l0-0.4l0-0.4l0-0.4l0-0.4l0-0.4l0-0.4l0-0.4l0-0.4l0-0.4l0-0.4l0-0.4l0-0.4l0-0.4l0-0.4l0-0.4l0-0.4l0-0.4l0-0.4
		l0.4-0.4l0,0l0-0.4l0-0.4l0.4-0.4l0,0l0-0.4l0.4-0.4l0,0l0.4-0.4l0,0l0.4-0.4l0,0l0.4-0.4l0,0l0.4-0.4l0.4,0l0,0l0.4-0.4l0,0
		l0.4-0.4l0.4,0l0,0l0.4-0.4l0,0l0.4-0.4l0.4,0l0,0l0.4-0.4l0.4,0l0,0l0.4-0.4l0,0l0.4-0.4l0.4,0l0,0l0.4-0.4l0.4,0l0,0l0.4-0.4
		l0.4,0l0.4,0l0,0l0.4-0.4l0.4,0l0,0l0.4-0.4l0.4,0l0.4,0l0,0l0.4-0.4l0.4,0l0,0l0.4-0.4l0.4,0l0.4,0l0,0l0.4-0.4l0.4,0l0,0l0.4-0.4
		l0,0l0.4-0.4l0.4,0l0,0l0.4-0.4l0,0l0-0.4l0.4-0.4l0,0l0-0.4l0.4-0.4l0,0l0-0.4l0-0.4l0.4-0.4l0,0l0-0.4l0-0.4l0-0.4l0-0.4l0-0.4
		l0-0.4l0-0.4l0-0.4l0-0.4l0-0.4l0,0l-0.4-0.4l0-0.4l0-0.4l0-0.4l0,0l-0.4-0.4l0-0.4l0,0l-0.4-0.4l0-0.4l0,0l-0.4-0.4l0,0l-0.4-0.4
		l0,0l-0.4-0.4l0,0l-0.4,0l-0.4-0.4l0,0l-0.4,0l-0.4-0.4l0,0l-0.4,0l-0.4,0L883.5-100.4z"/>
	<path class="st9" d="M777.8-66.8L777.8-66.8l-0.4,0l-0.4,0l-0.4,0l-0.4,0l-0.4,0l-0.4,0l0,0l-0.4,0.4l-0.4,0l0,0l-0.4,0.4l0,0
		l-0.4,0.4l0,0l0,0.4l-0.4,0.4l0,0l0,0.4l0,0.4l0,0.4l0,0.4l0,0l0.4,0.4l0,0.4l0,0l0.4,0.4l0,0l0.4,0.4l0,0.4l0,0l0.4,0.4l0,0
		l0.4,0.4l0,0l0.4,0.4l0,0l0.4,0.4l0,0l0.4,0.4l0,0l0.4,0.4l0,0l0.4,0.4l0,0l0.4,0l0.4,0.4l0,0l0.4,0.4l0,0l0.4,0l0.4,0l0.4,0.4l0,0
		l0.4,0l0.4,0l0.4,0l0.4,0l0,0l0.4-0.4l0.4,0l0,0l0.4-0.4l0,0l0.4-0.4l0,0l0.4-0.4l0,0l0-0.4l0.4-0.4l0,0l0-0.4l0-0.4l0-0.4l0-0.4
		l0-0.4l0-0.4l0,0l-0.4-0.4l0-0.4l0,0l-0.4-0.4l0-0.4v0l-0.4-0.4l0,0l-0.4-0.4l0,0l-0.4-0.4l0,0l-0.4,0l-0.4-0.4l0,0l-0.4-0.4l0,0
		l-0.4,0l-0.4-0.4l0,0l-0.4,0l-0.4-0.4l0,0l-0.4,0l-0.4,0L777.8-66.8z"/>
</g>
<g>
	<path class="st10" d="M889.5-128.4L889.5-128.4l-0.4,0l-0.4,0l-0.4,0l-0.4,0l-0.4,0l-0.4,0l0,0l-0.4,0.4l-0.4,0l-0.4,0l-0.4,0
		l-0.4,0l0,0l-0.4,0.4l-0.4,0l-0.4,0l-0.4,0l0,0l-0.4,0.4l-0.4,0l-0.4,0l0,0l-0.4,0.4l-0.4,0l0,0l-0.4,0.4l-0.4,0l0,0l-0.4,0.4l0,0
		l-0.4,0.4l0,0l-0.4,0.4l0,0l-0.4,0.4l0,0l0,0.4l-0.4,0.4l0,0l0,0.4l0,0.4l0,0.4l0,0.4l0,0.4l0,0l0.4,0.4l0,0.4l0,0l0.4,0l0.4,0.4
		l0,0l0.4,0.4l0,0l0.4,0l0.4,0l0.4,0.4l0,0l0.4,0l0.4,0l0.4,0l0.4,0l0.4,0l0.4,0l0.4,0l0.4,0l0.4,0l0,0l0.4-0.4l0.4,0l0.4,0l0.4,0
		l0.4,0l0,0l0.4-0.4l0.4,0l0.4,0l0.4,0l0.4,0l0,0l0.4-0.4l0.4,0l0.4,0l0.4,0l0,0l0.4-0.4l0.4,0l0.4,0l0,0l0.4-0.4l0,0l0.4-0.4l0,0
		l0.4-0.4l0,0l0.4-0.4l0,0l0-0.4l0-0.4l0-0.4l0-0.4l0-0.4l0-0.4l0,0l-0.4-0.4l0-0.4l0,0l-0.4-0.4l0,0l-0.4-0.4l0,0l-0.4,0l-0.4-0.4
		l0,0l-0.4,0l-0.4-0.4l0,0l-0.4,0l-0.4,0L889.5-128.4z"/>
	<path class="st10" d="M793.4-126L793.4-126l-0.4,0l-0.4,0l-0.4,0l-0.4,0l-0.4,0l-0.4,0l-0.4,0l-0.4,0l-0.4,0l-0.4,0l-0.4,0l-0.4,0
		l-0.4,0l-0.4,0l-0.4,0l0,0l-0.4,0.4l-0.4,0l-0.4,0l-0.4,0l-0.4,0l-0.4,0l-0.4,0l-0.4,0l-0.4,0l-0.4,0l0,0l-0.4,0.4l-0.4,0l-0.4,0
		l-0.4,0l-0.4,0l-0.4,0l0,0l-0.4,0.4l-0.4,0l0,0l-0.4,0.4l-0.4,0l0,0L779-124l0,0l-0.4,0.4l0,0l-0.4,0.4l0,0l0,0.4l-0.4,0.4l0,0
		l0,0.4l0,0.4l-0.4,0.4l0,0l0,0.4l0,0.4l0,0l0.4,0.4l0,0.4l0,0.4l0,0l0.4,0.4l0,0.4l0,0l0.4,0.4l0,0l0.4,0.4l0,0l0.4,0.4l0,0l0.4,0
		l0.4,0.4l0,0l0.4,0l0.4,0.4l0,0l0.4,0l0.4,0l0.4,0.4l0,0l0.4,0l0.4,0l0.4,0.4l0,0l0.4,0l0.4,0l0.4,0.4l0,0l0.4,0l0.4,0l0.4,0.4l0,0
		l0.4,0l0.4,0.4l0,0l0.4,0l0.4,0.4l0,0l0.4,0l0.4,0.4l0,0l0.4,0.4l0,0l0.4,0.4l0,0l0.4,0.4l0,0l0.4,0l0.4,0.4l0,0l0.4,0.4l0,0.4l0,0
		l0.4,0.4l0,0l0.4,0.4l0,0l0.4,0.4l0,0l0.4,0.4l0,0l0.4,0.4l0,0l0.4,0.4l0,0l0.4,0.4l0,0l0.4,0l0.4,0.4l0,0l0.4,0.4l0,0l0.4,0
		l0.4,0.4l0,0l0.4,0l0.4,0l0.4,0.4l0,0l0.4,0l0.4,0l0.4,0l0.4,0l0.4,0l0.4,0l0.4,0l0.4,0l0.4,0l0.4,0l0.4,0l0.4,0l0.4,0l0,0l0.4-0.4
		l0.4,0l0.4,0l0.4,0l0.4,0l0.4,0l0,0l0.4-0.4l0.4,0l0.4,0l0.4,0l0.4,0l0.4,0l0.4,0.4l0,0l0.4,0l0.4,0.4l0,0.4l0,0.4l0,0.4l0,0.4
		l0,0.4l0,0.4l0,0.4l0,0.4v0.4l0,0.4l0,0l0.4,0.4l0,0.4l0,0.4l0,0.4l0,0.4l0,0.4l0,0.4l0,0l0.4,0.4l0,0.4l0,0l0.4,0.4l0,0.4l0,0
		l0.4,0.4l0,0l0.4,0.4l0,0.4l0,0l0.4,0l0.4,0.4l0,0l0.4,0.4l0,0l0.4,0l0.4,0.4l0,0l0.4,0l0.4,0l0.4,0.4l0,0l0.4,0l0.4,0l0.4,0l0.4,0
		l0,0L815-96l0.4,0l0.4,0l0,0l0.4-0.4l0.4,0l0,0l0.4-0.4l0,0l0.4-0.4l0,0l0.4-0.4l0,0l0.4-0.4l0,0l0.4-0.4l0,0l0-0.4l0.4-0.4l0,0
		l0-0.4l0-0.4l0-0.4l0.4-0.4l0,0l0-0.4l0-0.4l0-0.4l0-0.4l0-0.4l0,0l-0.4-0.4l0-0.4l0-0.4l0,0l-0.4-0.4l0-0.4l0-0.4l0,0l-0.4-0.4
		l0,0l-0.4-0.4l0-0.4l0,0l-0.4-0.4l0,0l-0.4-0.4l0,0l-0.4-0.4l0,0l-0.4-0.4l0,0l-0.4-0.4l0,0l-0.4,0l-0.4-0.4l0,0l-0.4-0.4l0,0
		l-0.4,0l-0.4,0l-0.4-0.4l0,0l-0.4,0l-0.4,0l-0.4,0l-0.4-0.4l0,0l-0.4,0l-0.4,0l-0.4-0.4l0,0l-0.4-0.4l0,0l-0.4-0.4l0,0l-0.4-0.4
		l0-0.4l0-0.4l0-0.4l0,0l-0.4-0.4l0-0.4l0-0.4l0-0.4l0-0.4l0,0l-0.4-0.4l0-0.4l0-0.4l0-0.4l0-0.4l0,0l-0.4-0.4l0-0.4l0-0.4l0-0.4
		l0,0l-0.4-0.4l0-0.4l0-0.4l0,0l-0.4-0.4l0-0.4l0,0l-0.4-0.4l0-0.4l0,0l-0.4-0.4l0,0l-0.4-0.4l0,0l-0.4-0.4l0,0l-0.4-0.4l0,0
		l-0.4-0.4l0,0l-0.4,0l-0.4-0.4l0,0l-0.4,0l-0.4-0.4l0,0l-0.4,0l-0.4-0.4l0,0l-0.4,0l-0.4,0l-0.4-0.4l0,0l-0.4,0l-0.4,0l-0.4,0
		l-0.4,0l-0.4-0.4l0,0l-0.4,0l-0.4,0l-0.4,0l-0.4,0l-0.4,0l-0.4,0l-0.4-0.4l0,0l-0.4,0l-0.4,0l-0.4,0l-0.4,0l-0.4,0l-0.4,0l-0.4,0
		L793.4-126z"/>
	<path class="st10" d="M865.1-124.4L865.1-124.4l-0.4,0l-0.4,0l-0.4,0l-0.4,0l-0.4,0l-0.4,0l-0.4,0l-0.4,0l-0.4,0l-0.4,0l-0.4,0
		l-0.4,0l-0.4,0l0,0l-0.4,0.4l-0.4,0l-0.4,0l-0.4,0l0,0l-0.4,0.4l-0.4,0l-0.4,0l-0.4,0l0,0l-0.4,0.4l-0.4,0l-0.4,0l0,0l-0.4,0.4
		l-0.4,0l0,0l-0.4,0.4l-0.4,0l0,0l-0.4,0.4l-0.4,0l0,0l-0.4,0.4l0,0l-0.4,0.4l0,0l0,0.4l-0.4,0.4l0,0l-0.4,0.4l0,0l0,0.4l-0.4,0.4
		l0,0l0,0.4l-0.4,0.4l0,0l0,0.4l0,0.4l0,0.4l-0.4,0.4l0,0l0,0.4l0,0.4l0,0.4l0,0.4l-0.4,0.4l0,0l0,0.4l0,0.4l0,0.4l0,0.4l0,0.4
		l0,0.4l0,0.4l0,0l0.4,0.4l0,0.4l0,0.4l0,0l0.4,0.4l0,0l0.4,0.4l0,0l0.4,0l0.4,0.4l0,0l0.4,0l0.4,0l0.4,0.4l0,0l0.4,0l0.4,0l0.4,0
		l0.4,0l0.4,0.4l0,0l0.4,0l0.4,0l0.4,0l0.4,0l0.4,0l0.4,0l0.4,0l0,0l0.4-0.4l0.4,0l0.4,0l0.4,0l0.4,0l0,0l0.4-0.4l0.4,0l0.4,0l0.4,0
		l0,0l0.4-0.4l0.4,0l0.4,0l0,0l0.4-0.4l0.4,0l0,0l0.4-0.4l0.4,0l0.4,0l0,0l0.4-0.4l0.4,0l0,0l0.4-0.4l0.4,0l0,0l0.4-0.4l0,0l0.4-0.4
		l0.4,0l0,0l0.4-0.4l0,0l0.4-0.4l0,0l0.4-0.4l0,0l0-0.4l0.4-0.4l0,0l0.4-0.4l0,0l0-0.4l0-0.4l0.4-0.4l0,0l0-0.4l0-0.4l0-0.4l0-0.4
		l0.4-0.4l0,0l0,0l-0.4-0.4l0-0.4l0-0.4l0-0.4l0-0.4l0-0.4l0,0l-0.4-0.4l0-0.4l0,0l-0.4-0.4l0,0l-0.4-0.4l0,0l-0.4-0.4l0,0l-0.4-0.4
		l0,0l-0.4-0.4l0,0l-0.4-0.4l0,0l-0.4,0l-0.4-0.4l0,0l-0.4,0l-0.4,0L865.1-124.4z"/>
	<path class="st10" d="M843.4-110L843.4-110l-0.4,0l-0.4,0l0,0l-0.4,0.4l-0.4,0l-0.4,0l-0.4,0l0,0l-0.4,0.4l-0.4,0l0,0l-0.4,0.4
		l-0.4,0l0,0l-0.4,0.4l0,0l-0.4,0.4l0,0l-0.4,0.4l0,0l0,0.4l-0.4,0.4l0,0l0,0.4l-0.4,0.4l0,0l0,0.4l0,0.4l-0.4,0.4l0,0l0,0.4l0,0.4
		l0,0.4l0,0.4l0,0.4l0,0.4l0,0l0.4,0.4l0,0.4l0,0.4l0,0l0.4,0.4l0,0.4l0,0.4l0,0l0.4,0.4l0,0.4l0,0l0.4,0.4l0,0.4l0,0L839-98l0,0
		l0.4,0.4l0,0.4l0,0l0.4,0.4l0,0l0.4,0.4l0,0l0.4,0.4l0,0l0.4,0l0.4,0.4l0,0l0.4,0l0.4,0l0.4,0l0,0L843-96l0.4,0l0,0l0.4-0.4l0,0
		l0.4-0.4l0,0l0-0.4l0.4-0.4l0,0L845-98l0,0l0-0.4l0.4-0.4l0,0l0-0.4l0.4-0.4l0,0l0-0.4l0.4-0.4l0,0l0-0.4l0.4-0.4l0,0l0-0.4
		l0.4-0.4l0,0l0-0.4l0-0.4l0-0.4l0.4-0.4l0,0l0-0.4l0-0.4l0-0.4l0-0.4l0-0.4l0-0.4l0-0.4l0-0.4l0-0.4l0-0.4l0,0l-0.4-0.4l0-0.4l0,0
		l-0.4-0.4l0,0l-0.4,0l-0.4-0.4l0,0l-0.4,0l-0.4-0.4l0,0l-0.4,0l-0.4,0l-0.4,0L843.4-110z"/>
	<path class="st10" d="M736.6-90L736.6-90l-0.4,0l-0.4,0l-0.4,0l-0.4,0l-0.4,0l-0.4,0l0,0l-0.4,0.4l0,0l-0.4,0.4l0,0l-0.4,0.4l0,0
		l0,0.4l-0.4,0.4l0,0l0,0.4l0,0.4l0,0.4l0,0.4l0,0.4l0,0.4l0,0l0.4,0.4l0,0.4l0,0.4l0,0l0.4,0.4l0,0.4l0,0l0.4,0.4l0,0.4l0,0
		l0.4,0.4l0,0.4l0,0l0.4,0.4l0,0l0.4,0.4l0,0l0.4,0.4l0,0l0.4,0.4l0,0l0.4,0.4l0,0l0.4,0l0.4,0.4l0,0l0.4,0l0.4,0l0.4,0.4l0,0l0.4,0
		l0.4,0l0,0l0.4-0.4l0.4,0l0,0l0.4-0.4l0,0l0.4-0.4l0,0l0-0.4l0-0.4l0-0.4L741-82l0,0l0,0l-0.4-0.4l0-0.4l0-0.4l0-0.4l0-0.4l0,0
		l-0.4-0.4l0-0.4l0-0.4l0,0l-0.4-0.4l0-0.4l0,0l-0.4-0.4l0-0.4l0,0l-0.4-0.4l0-0.4l0,0l-0.4-0.4l0,0l-0.4-0.4l0,0l-0.4-0.4l0-0.4
		l0,0l-0.4,0l-0.4-0.4l0,0L736.6-90z"/>
	<path class="st10" d="M764.2-82.4L764.2-82.4l-0.4,0l-0.4,0l0,0L763-82l-0.4,0l0,0l-0.4,0.4l0,0l0,0.4l-0.4,0.4l0,0l-0.4,0.4l0,0
		l0,0.4l-0.4,0.4l0,0l0,0.4l0,0.4l-0.4,0.4l0,0l0,0.4l-0.4,0.4l0,0l0,0.4l0,0.4l0,0.4l-0.4,0.4l0,0l0,0.4l0,0.4l0,0.4l0,0.4l0,0
		l0.4,0.4l0,0.4l0,0.4l0,0l0.4,0.4l0,0l0.4,0.4l0,0l0.4,0.4l0,0l0.4,0l0.4,0.4l0,0l0.4,0l0.4,0l0.4,0l0.4,0l0.4,0l0.4,0l0.4,0l0,0
		l0.4-0.4l0,0l0.4-0.4l0.4,0l0,0l0-0.4l0.4-0.4l0,0l0.4-0.4l0,0l0-0.4l0.4-0.4l0,0l0-0.4l0-0.4l0-0.4l0-0.4l0-0.4l0-0.4l0-0.4l0-0.4
		l0-0.4l0,0l-0.4-0.4l0-0.4l0-0.4l0,0l-0.4-0.4l0-0.4l0,0l-0.4-0.4l0,0l-0.4-0.4l0-0.4l0,0l-0.4-0.4l0,0L765-82l0,0l-0.4,0
		L764.2-82.4z"/>
	<path class="st10" d="M911.1-74.8L911.1-74.8l-0.4,0l0,0l-0.4,0.4l-0.4,0l-0.4,0l0,0l-0.4,0.4l-0.4,0l0,0l-0.4,0.4l0,0l-0.4,0.4
		l0,0l-0.4,0.4l0,0l0,0.4l-0.4,0.4l0,0l-0.4,0.4l0,0l0,0.4l-0.4,0.4l0,0l0,0.4l-0.4,0.4l0,0l0,0.4l0,0.4l0,0.4l0,0.4l0,0.4l0,0.4
		l0,0.4l0,0.4l0,0.4l0,0l0.4,0.4l0,0.4l0,0l0.4,0l0.4,0.4l0,0l0.4,0l0.4,0.4l0,0l0.4,0l0,0l0.4-0.4l0.4,0l0.4,0l0,0l0.4-0.4l0.4,0
		l0,0l0.4-0.4l0,0l0.4-0.4l0,0l0.4-0.4l0,0l0.4-0.4l0,0l0.4-0.4l0,0l0-0.4l0.4-0.4l0,0l0-0.4l0.4-0.4l0,0l0-0.4l0-0.4l0.4-0.4l0,0
		l0-0.4l0-0.4l0-0.4l0-0.4l0-0.4l0,0l-0.4-0.4l0-0.4l0-0.4l0,0l-0.4-0.4l0,0l-0.4-0.4l0,0l-0.4,0l-0.4,0L911.1-74.8z"/>
	<path class="st10" d="M878.7-70.8L878.7-70.8l-0.4,0l-0.4,0l-0.4,0l-0.4,0l0,0l-0.4,0.4l-0.4,0l0,0l-0.4,0.4l0,0l-0.4,0.4l0,0
		l0,0.4l0,0l0.4,0.4l0,0.4l0,0.4l0,0l0.4,0.4l0,0l0.4,0.4l0,0l0.4,0.4l0,0l0.4,0.4l0,0l0.4,0l0.4,0.4l0,0l0.4,0l0.4,0l0.4,0l0.4,0
		l0.4,0l0,0l0.4-0.4l0.4,0l0,0l0-0.4l0.4-0.4l0,0l0-0.4l0-0.4l0-0.4l0,0l-0.4-0.4l0-0.4l0,0l-0.4-0.4l0,0l-0.4-0.4l0,0l-0.4,0
		l-0.4-0.4l0,0l-0.4,0L878.7-70.8z"/>
	<path class="st10" d="M814.2-70.4L814.2-70.4l-0.4,0l-0.4,0l-0.4,0l-0.4,0l-0.4,0l0,0l-0.4,0.4l-0.4,0l-0.4,0l-0.4,0l0,0l-0.4,0.4
		l-0.4,0l-0.4,0l0,0l-0.4,0.4l-0.4,0l-0.4,0l0,0l-0.4,0.4l-0.4,0l0,0l-0.4,0.4l-0.4,0l0,0l-0.4,0.4l-0.4,0l0,0l-0.4,0.4l0,0
		l-0.4,0.4l0,0l0,0.4l-0.4,0.4l0,0l0,0.4l0,0.4l-0.4,0.4l0,0l0,0.4l0,0l0.4,0.4l0,0.4l0,0.4l0,0l0.4,0.4l0,0l0.4,0.4l0,0.4l0,0
		l0.4,0.4l0,0l0.4,0.4l0,0l0.4,0.4l0,0l0.4,0l0.4,0.4l0,0l0.4,0.4l0,0l0.4,0.4l0,0l0.4,0.4l0,0l0.4,0.4l0,0l0.4,0.4l0,0l0.4,0
		l0.4,0.4l0,0l0.4,0.4l0,0l0.4,0l0.4,0.4l0,0l0.4,0l0.4,0.4l0,0l0.4,0l0.4,0l0.4,0l0.4,0l0.4,0l0.4,0l0.4,0l0.4,0l0,0l0.4-0.4l0.4,0
		l0,0l0.4-0.4l0,0l0.4-0.4l0,0l0.4-0.4l0,0l0.4-0.4l0,0l0-0.4l0.4-0.4l0,0l0-0.4l0-0.4l0.4-0.4l0,0l0-0.4l0-0.4l0-0.4l0.4-0.4l0,0
		l0-0.4l0-0.4l0-0.4l0-0.4l0-0.4l0,0l-0.4-0.4l0-0.4l0-0.4l0-0.4l0,0l-0.4-0.4l0-0.4l0,0l-0.4-0.4l0-0.4l0,0l-0.4-0.4l0,0l-0.4-0.4
		l0,0l-0.4-0.4l0,0l-0.4-0.4l0,0l-0.4,0l-0.4-0.4l0,0l-0.4,0l-0.4,0L814.2-70.4z"/>
	<path class="st10" d="M837.4-70L837.4-70l-0.4,0l-0.4,0l-0.4,0l-0.4,0l-0.4,0l0,0l-0.4,0.4l-0.4,0l-0.4,0l-0.4,0l0,0l-0.4,0.4
		l-0.4,0l-0.4,0l0,0l-0.4,0.4l0,0l-0.4,0.4l-0.4,0l0,0L831-68l0,0l-0.4,0.4l0,0l0,0.4l-0.4,0.4l0,0l0,0.4l-0.4,0.4l0,0l0,0.4l0,0.4
		l-0.4,0.4l0,0l0,0.4l0,0.4l0,0.4l0,0.4l0,0.4l0,0.4l0,0.4l0,0l0.4,0.4l0,0.4l0,0.4l0,0.4l0,0l0.4,0.4l0,0.4l0,0l0.4,0.4l0,0.4l0,0
		l0.4,0.4l0,0.4l0,0l0.4,0.4l0,0l0.4,0.4l0,0.4l0,0l0.4,0.4l0,0l0.4,0.4l0,0l0.4,0l0.4,0.4l0,0l0.4,0.4l0,0l0.4,0l0.4,0.4l0,0l0.4,0
		l0.4,0l0.4,0.4l0,0l0.4,0l0.4,0l0.4,0l0.4,0l0.4,0l0.4,0l0.4,0l0,0l0.4-0.4l0.4,0l0.4,0l0,0l0.4-0.4l0.4,0l0,0l0.4-0.4l0.4,0l0,0
		l0.4-0.4l0,0l0.4-0.4l0,0l0.4-0.4l0,0l0.4-0.4l0,0l0.4-0.4l0,0l0-0.4l0.4-0.4l0,0l0-0.4l0.4-0.4l0,0l0-0.4l0-0.4l0.4-0.4l0,0l0-0.4
		l0-0.4l0-0.4l0-0.4l0-0.4l0,0l-0.4-0.4l0-0.4l0-0.4l0-0.4l0,0l-0.4-0.4l0-0.4l0,0l-0.4-0.4l0-0.4l0,0l-0.4-0.4l0,0l-0.4-0.4l0-0.4
		l0,0l-0.4-0.4l0,0l-0.4-0.4l0,0l-0.4-0.4l0,0l-0.4-0.4l0,0l-0.4-0.4l0,0l-0.4,0l-0.4-0.4l0,0l-0.4,0l-0.4-0.4l0,0l-0.4,0l-0.4,0
		l-0.4,0L837.4-70z"/>
	<path class="st10" d="M750.6-70L750.6-70l-0.4,0l-0.4,0l-0.4,0l-0.4,0l-0.4,0l-0.4,0l-0.4,0l-0.4,0l0,0l-0.4,0.4l-0.4,0l-0.4,0l0,0
		l-0.4,0.4l0,0l-0.4,0.4l-0.4,0l0,0l-0.4,0.4l0,0l-0.4,0.4l0,0l0,0.4l-0.4,0.4l0,0l0,0.4l-0.4,0.4l0,0l0,0.4l0,0.4l-0.4,0.4l0,0
		l0,0.4l0,0.4l0,0.4l0,0.4l0,0.4l0,0.4l0,0.4l0,0l0.4,0.4l0,0.4l0,0.4l0,0l0.4,0.4l0,0.4l0,0l0.4,0.4l0,0.4l0,0l0.4,0.4l0,0.4l0,0
		l0.4,0.4l0,0l0.4,0.4l0,0l0.4,0.4l0,0l0.4,0.4l0,0l0.4,0.4l0,0l0.4,0.4l0,0l0.4,0l0.4,0.4l0,0l0.4,0l0.4,0.4l0,0l0.4,0l0.4,0
		l0.4,0.4l0,0l0.4,0l0.4,0l0.4,0l0.4,0l0.4,0l0.4,0l0.4,0l0,0l0.4-0.4l0.4,0l0,0l0.4-0.4l0.4,0l0,0l0.4-0.4l0.4,0l0,0l0.4-0.4l0,0
		l0.4-0.4l0,0l0-0.4l0.4-0.4l0,0l0-0.4l0.4-0.4l0,0l0-0.4l0.4-0.4l0,0l0-0.4l0-0.4l0-0.4l0-0.4l0-0.4l0-0.4l0-0.4l0-0.4l0-0.4l0-0.4
		l0-0.4l0,0l-0.4-0.4l0-0.4l0-0.4l0,0l-0.4-0.4l0-0.4l0,0l-0.4-0.4l0-0.4l0,0l-0.4-0.4l0,0l-0.4-0.4l0,0l-0.4-0.4l0,0l-0.4-0.4l0,0
		l-0.4-0.4l0,0l-0.4,0l-0.4-0.4l0,0l-0.4,0l-0.4-0.4l0,0l-0.4,0l-0.4,0l-0.4,0L750.6-70z"/>
	<path class="st10" d="M897.5-63.6L897.5-63.6l-0.4,0l-0.4,0l-0.4,0l-0.4,0l-0.4,0l-0.4,0l0,0l-0.4,0.4l-0.4,0l-0.4,0l0,0l-0.4,0.4
		l-0.4,0l0,0l-0.4,0.4l-0.4,0l0,0l-0.4,0.4l0,0l-0.4,0.4l0,0l-0.4,0.4l0,0l0,0.4l-0.4,0.4l0,0l0,0.4l-0.4,0.4l0,0l0,0.4l-0.4,0.4
		l0,0l0,0.4l0,0.4l0,0.4l-0.4,0.4l0,0l0,0.4l0,0.4l0,0.4l0,0.4l0,0.4l0,0.4l0,0.4l0,0l0.4,0.4l0,0.4l0,0.4l0,0.4l0,0.4l0,0l0.4,0.4
		l0,0.4l0,0l0.4,0.4l0,0.4l0,0l0.4,0.4l0,0.4l0,0l0.4,0.4l0,0l0.4,0.4l0,0l0.4,0l0.4,0.4l0,0l0.4,0l0.4,0l0.4,0l0.4,0l0.4,0l0.4,0
		l0.4,0l0.4,0l0,0l0.4-0.4l0.4,0l0.4,0l0,0l0.4-0.4l0.4,0l0,0l0.4-0.4l0,0l0.4-0.4l0.4,0l0,0l0.4-0.4l0,0l0.4-0.4l0,0l0.4-0.4l0,0
		l0.4-0.4l0,0l0.4-0.4l0,0l0-0.4l0.4-0.4l0,0l0-0.4l0.4-0.4l0,0l0-0.4l0-0.4l0.4-0.4l0,0l0-0.4l0-0.4l0-0.4l0.4-0.4l0,0l0-0.4l0-0.4
		l0-0.4l0-0.4l0-0.4l0,0l-0.4-0.4l0-0.4l0-0.4l0-0.4l0,0l-0.4-0.4l0,0l-0.4-0.4l0-0.4l0,0l-0.4-0.4l0,0l-0.4,0l-0.4-0.4l0,0
		l-0.4-0.4l0,0l-0.4,0l-0.4-0.4l0,0l-0.4,0l-0.4,0l-0.4,0L897.5-63.6z"/>
</g>
<g>
	<path class="st11" d="M888.3-126L888.3-126l-0.4,0l-0.4,0l-0.4,0l-0.4,0l-0.4,0l-0.4,0l-0.4,0l-0.4,0l-0.4,0l-0.4,0l-0.4,0l-0.4,0
		l-0.4,0l0,0l-0.4,0.4l-0.4,0l-0.4,0l-0.4,0l-0.4,0l0,0l-0.4,0.4l-0.4,0l-0.4,0l0,0l-0.4,0.4l-0.4,0l0,0l-0.4,0.4l-0.4,0l0,0
		l-0.4,0.4l0,0l-0.4,0.4l0,0l-0.4,0.4l-0.4,0l0,0l-0.4,0.4l0,0l-0.4,0.4l0,0l-0.4,0.4l0,0l-0.4,0.4l-0.4,0l0,0l-0.4,0.4l0,0
		l-0.4,0.4l0,0l-0.4,0.4l-0.4,0l0,0l-0.4,0.4l0,0l-0.4,0.4l-0.4,0l0,0l-0.4,0.4l0,0l-0.4,0.4l-0.4,0l0,0l-0.4,0.4l-0.4,0l0,0
		l-0.4,0.4l0,0l-0.4,0.4l0,0l-0.4,0.4l0,0l-0.4,0.4l0,0l-0.4,0.4l0,0l0,0.4l0,0.4l0,0.4l0,0.4l0,0l0.4,0.4l0,0l0.4,0.4l0,0l0.4,0
		l0.4,0l0.4,0.4l0,0l0.4,0l0.4,0l0.4,0l0.4,0l0.4,0l0.4,0l0.4,0l0.4,0l0.4,0l0.4,0l0.4,0l0.4,0l0.4,0l0.4,0l0.4,0l0.4,0l0.4,0
		l0.4,0.4l0,0l0.4,0l0.4,0l0.4,0.4l0,0l0.4,0l0.4,0l0.4,0.4l0,0l0.4,0l0.4,0.4l0,0l0.4,0l0.4,0.4l0,0l0.4,0l0.4,0l0.4,0l0.4,0.4l0,0
		l0.4,0l0.4,0l0.4,0l0.4,0l0.4,0l0.4,0l0.4,0l0,0l0.4-0.4l0.4,0l0.4,0l0.4,0l0,0l0.4-0.4l0.4,0l0.4,0l0,0l0.4-0.4l0.4,0l0.4,0l0,0
		l0.4-0.4l0.4,0l0,0l0.4-0.4l0.4,0l0.4,0l0,0l0.4-0.4l0.4,0l0.4,0l0,0l0.4-0.4l0.4,0l0.4,0l0,0l0.4-0.4l0.4,0l0.4,0l0,0l0.4-0.4
		l0.4,0l0,0l0.4-0.4l0,0l0.4-0.4l0.4,0l0,0l0-0.4l0.4-0.4l0,0l0.4-0.4l0,0l0-0.4l0-0.4l0-0.4l0-0.4l0-0.4l0-0.4l0-0.4l0,0l-0.4-0.4
		l0-0.4l0,0l-0.4-0.4l0-0.4l0,0l-0.4-0.4l0,0l-0.4-0.4l0,0l-0.4-0.4l0,0l-0.4-0.4l0,0l-0.4-0.4l0,0l-0.4,0l-0.4-0.4l0,0l-0.4-0.4
		l0,0l-0.4,0l-0.4-0.4l0,0l-0.4,0l-0.4-0.4l0,0l-0.4,0l-0.4-0.4l0,0l-0.4,0l-0.4,0l-0.4-0.4l0,0l-0.4,0l-0.4,0l-0.4,0l-0.4,0
		L888.3-126z"/>
	<path class="st11" d="M771.4-126L771.4-126l-0.4,0l-0.4,0l-0.4,0l-0.4,0l-0.4,0l-0.4,0l-0.4,0l-0.4,0l-0.4,0l-0.4,0l-0.4,0l-0.4,0
		l0,0l-0.4,0.4l-0.4,0l-0.4,0l0,0l-0.4,0.4l-0.4,0l0,0l-0.4,0.4l-0.4,0l0,0l-0.4,0.4l0,0L763-124l0,0l-0.4,0.4l-0.4,0l0,0l-0.4,0.4
		l0,0l-0.4,0.4l0,0l0,0.4L761-122l0,0l0,0.4l-0.4,0.4l0,0l0,0.4l0,0.4l0,0.4l0,0.4l0,0.4l0,0.4l0,0.4l0,0l0.4,0.4l0,0.4l0,0l0.4,0.4
		l0,0.4l0,0l0.4,0.4l0,0l0.4,0.4l0,0l0.4,0.4l0,0l0.4,0.4l0,0l0.4,0.4l0,0l0.4,0.4l0,0l0.4,0.4l0,0l0.4,0.4l0,0l0.4,0l0.4,0.4l0,0
		l0.4,0.4l0,0l0.4,0l0.4,0l0.4,0.4l0,0l0.4,0l0.4,0.4l0,0l0.4,0l0.4,0l0.4,0l0.4,0.4l0,0l0.4,0l0.4,0l0.4,0l0.4,0l0.4,0l0.4,0l0.4,0
		l0.4,0l0.4,0.4l0,0l0.4,0l0.4,0l0.4,0l0.4,0l0.4,0l0.4,0l0.4,0l0.4,0l0.4,0l0.4,0l0.4,0l0.4,0l0.4,0l0,0l0.4-0.4l0.4,0l0.4,0l0.4,0
		l0,0l0.4-0.4l0.4,0l0,0l0.4-0.4l0.4,0l0,0l0.4-0.4l0,0l0.4-0.4l0,0l0.4-0.4l0,0l0.4-0.4l0,0l0.4-0.4l0,0l0.4-0.4l0,0l0.4-0.4l0,0
		l0-0.4l0.4-0.4l0,0l0-0.4l0.4-0.4l0,0l0-0.4l0.4-0.4l0,0l0-0.4l0-0.4l0-0.4l0-0.4l0-0.4l0-0.4l0-0.4l0-0.4l0,0l-0.4-0.4l0-0.4l0,0
		l-0.4-0.4l0,0l-0.4-0.4l0,0l-0.4-0.4l0,0l-0.4,0l-0.4,0l-0.4-0.4l0,0l-0.4,0l-0.4,0l-0.4,0l-0.4,0l-0.4,0l-0.4,0l-0.4,0l-0.4,0
		l-0.4,0l-0.4,0l-0.4-0.4l0,0l-0.4,0l-0.4,0l-0.4,0l-0.4,0l-0.4-0.4l0,0l-0.4,0l-0.4,0l-0.4-0.4l0,0l-0.4,0l-0.4-0.4l0,0l-0.4,0
		l-0.4-0.4l0,0l-0.4,0l-0.4,0l-0.4-0.4l0,0l-0.4,0L771.4-126z"/>
	<path class="st11" d="M860.3-113.2L860.3-113.2l-0.4,0l-0.4,0l0,0l-0.4,0.4l-0.4,0l-0.4,0l0,0l-0.4,0.4l0,0l-0.4,0.4l0,0l-0.4,0.4
		l0,0l-0.4,0.4l0,0l-0.4,0.4l-0.4,0l0,0l-0.4,0.4l0,0l-0.4,0.4l0,0l-0.4,0.4l0,0l-0.4,0.4l0,0l-0.4,0.4l0,0l-0.4,0.4l0,0L853-108
		l0,0l-0.4,0.4l0,0l-0.4,0.4l0,0l-0.4,0.4l0,0l-0.4,0.4l0,0L851-106l0,0l-0.4,0.4l0,0l-0.4,0.4l0,0l0,0.4l-0.4,0.4l0,0l-0.4,0.4l0,0
		l0,0.4l-0.4,0.4l0,0l0,0.4l0,0.4l-0.4,0.4l0,0l0,0.4l0,0.4l0,0.4l0,0.4l-0.4,0.4l0,0l0,0.4l0,0.4l0,0.4l0,0.4l0,0.4l0,0.4l0,0.4
		l0,0.4l0,0.4l0,0.4l0,0.4l0,0.4l0,0.4l0,0.4l0,0.4l0,0l0.4,0.4l0,0.4l0,0.4l0,0.4l0,0L849-92l0,0.4l0,0.4l0,0l0.4,0.4l0,0.4l0,0
		l0.4,0.4l0,0l0.4,0.4l0,0l0.4,0.4l0,0.4l0,0l0.4,0.4l0,0l0.4,0l0.4,0.4l0,0l0.4,0.4l0,0l0.4,0.4l0,0l0.4,0.4l0,0l0.4,0.4l0,0
		l0.4,0.4l0,0l0.4,0.4l0,0.4l0,0l0.4,0.4l0,0l0.4,0.4l0,0.4l0,0l0.4,0.4l0,0l0.4,0.4l0,0.4l0,0l0.4,0.4l0,0.4l0,0l0.4,0.4l0,0
		l0.4,0.4l0,0l0.4,0.4l0,0l0.4,0.4l0,0l0.4,0.4l0,0l0.4,0.4l0,0l0.4,0.4l0,0l0.4,0.4l0,0l0.4,0l0.4,0.4l0,0l0.4,0l0.4,0l0.4,0l0.4,0
		l0,0l0.4-0.4l0,0l0.4-0.4l0,0l0.4-0.4l0,0l0-0.4l0.4-0.4l0,0l0-0.4l0.4-0.4l0,0l0-0.4l0.4-0.4l0,0l0-0.4l0.4-0.4l0,0l0-0.4l0-0.4
		l0.4-0.4l0,0l0-0.4l0-0.4l0-0.4l0-0.4l0-0.4l0-0.4l0-0.4l0-0.4l0,0l-0.4-0.4l0,0l-0.4-0.4l0-0.4l0,0l-0.4-0.4l0,0l-0.4-0.4l0-0.4
		l0,0l-0.4-0.4l0-0.4l0,0l-0.4-0.4l0-0.4l0-0.4l0-0.4l0-0.4l0-0.4l0-0.4l0-0.4l0-0.4l0-0.4l0-0.4l0-0.4l0.4-0.4l0,0l0-0.4l0-0.4
		l0.4-0.4l0,0l0-0.4l0.4-0.4l0,0l0-0.4l0.4-0.4l0,0l0.4-0.4l0,0l0-0.4l0.4-0.4l0,0l0-0.4l0.4-0.4l0,0l0-0.4l0.4-0.4l0,0l0-0.4
		l0.4-0.4l0,0l0-0.4l0-0.4l0-0.4l0-0.4l0-0.4l0-0.4l0-0.4l0-0.4l0-0.4l0-0.4l0,0l-0.4-0.4l0-0.4l0,0l-0.4-0.4l0-0.4l0,0l-0.4-0.4
		l0-0.4l0,0l-0.4-0.4l0,0l-0.4-0.4l0-0.4l0,0l-0.4-0.4l0,0l-0.4-0.4l0,0l-0.4-0.4l0,0l-0.4-0.4l0,0l-0.4-0.4l0,0l-0.4-0.4l0,0
		l-0.4-0.4l0,0l-0.4-0.4l0,0l-0.4,0L860.3-113.2z"/>
	<path class="st11" d="M799.8-112.4L799.8-112.4l-0.4,0l-0.4,0l-0.4,0l-0.4,0l-0.4,0l-0.4,0l-0.4,0l-0.4,0l-0.4,0l0,0l-0.4,0.4
		l-0.4,0l0,0l-0.4,0.4l-0.4,0l0,0l-0.4,0.4l0,0l-0.4,0.4l0,0l-0.4,0.4l0,0l0,0.4l-0.4,0.4l0,0l0,0.4l-0.4,0.4l0,0l0,0.4l0,0.4l0,0.4
		l0,0.4l0,0.4l0,0.4l0,0.4l0,0.4l0,0l0.4,0.4l0,0.4l0,0.4l0,0.4l0,0.4l0,0l0.4,0.4l0,0.4l0,0.4l0,0.4l0,0.4l0,0.4l0,0l0.4,0.4l0,0.4
		l0,0.4l0,0.4l0,0.4l0,0.4l0,0.4l0,0.4l0,0.4l0,0.4l0,0.4l0,0l0.4,0.4l0,0.4l0,0.4l0,0.4l0,0.4l0,0.4l0,0l0.4,0.4l0,0.4l0,0.4l0,0.4
		l0,0l0.4,0.4l0,0.4l0,0.4l0,0.4l0,0.4l-0.4,0.4l0,0l-0.4,0.4l0,0l-0.4,0.4l-0.4,0l0,0l-0.4,0.4l-0.4,0l-0.4,0l-0.4,0l0,0l-0.4,0.4
		l-0.4,0l-0.4,0l0,0l-0.4,0.4l-0.4,0l-0.4,0l-0.4,0l0,0l-0.4,0.4l-0.4,0l-0.4,0l-0.4,0l0,0l-0.4,0.4l-0.4,0l-0.4,0l-0.4,0l0,0
		l-0.4,0.4l-0.4,0l0,0l-0.4,0.4l0,0l-0.4,0.4l0,0l0,0.4l0,0.4l0,0.4l0,0.4l0,0.4l0,0l0.4,0.4l0,0.4l0,0l0.4,0.4l0,0.4l0,0l0.4,0.4
		l0,0.4l0,0l0.4,0.4l0,0.4l0,0l0.4,0.4l0,0l0.4,0.4l0,0.4l0,0l0.4,0.4l0,0l0.4,0.4l0,0l0.4,0l0.4,0.4l0,0l0.4,0l0.4,0.4l0,0l0.4,0
		l0.4,0l0.4,0h0.4l0.4,0l0.4,0l0.4,0l0,0l0.4-0.4l0.4,0l0.4,0l0.4,0l0.4,0l0,0l0.4-0.4l0.4,0l0,0l0.4-0.4l0.4,0l0,0l0.4-0.4l0.4,0
		l0,0l0.4-0.4l0,0l0.4-0.4l0,0l0.4-0.4l0,0l0.4-0.4l0,0l0-0.4l0-0.4l0.4-0.4l0,0l0-0.4l0-0.4l0-0.4l0-0.4l0-0.4l0-0.4l0-0.4l0-0.4
		l0-0.4l0-0.4v-0.4l0-0.4l0-0.4l0.4-0.4l0,0l0.4-0.4l0.4,0l0,0l0.4-0.4l0.4,0l0.4,0l0,0l0.4-0.4l0.4,0l0.4,0l0,0l0.4-0.4l0.4,0
		l0.4,0l0,0l0.4-0.4l0.4,0l0,0l0.4-0.4l0.4,0l0,0l0.4-0.4l0.4,0l0,0l0.4-0.4l0,0l0.4-0.4l0,0l0.4-0.4l0,0l0.4-0.4l0,0l0.4-0.4l0,0
		l0.4-0.4l0,0l0-0.4l0.4-0.4l0,0l0.4-0.4l0,0l0-0.4l0-0.4L809-96l0,0l0-0.4l0.4-0.4l0,0l0-0.4l0-0.4l0-0.4l0-0.4l0.4-0.4l0,0l0-0.4
		l0-0.4l0-0.4l0-0.4l0,0l-0.4-0.4l0-0.4l0-0.4l0-0.4l0-0.4l0-0.4l0,0l-0.4-0.4l0-0.4l0,0l-0.4-0.4l0-0.4l0-0.4l0,0l-0.4-0.4l0-0.4
		l0,0l-0.4-0.4l0,0l-0.4-0.4l0-0.4l0,0l-0.4-0.4l0,0l-0.4-0.4l0,0l-0.4-0.4l0,0l-0.4-0.4l0,0l-0.4-0.4l0,0l-0.4-0.4l0,0l-0.4-0.4
		l0,0l-0.4-0.4l0,0l-0.4-0.4l0,0l-0.4,0l-0.4-0.4l0,0l-0.4-0.4l0,0l-0.4,0l-0.4-0.4l0,0l-0.4,0L801-112l0,0l-0.4,0l-0.4,0
		L799.8-112.4z"/>
	<path class="st11" d="M875.9-102.4L875.9-102.4l-0.4,0l-0.4,0l-0.4,0l-0.4,0l0,0l-0.4,0.4l-0.4,0l0,0l-0.4,0.4l-0.4,0l0,0l-0.4,0.4
		l0,0l0,0.4l-0.4,0.4l0,0l0,0.4l-0.4,0.4l0,0l0,0.4l0,0.4l0,0.4l0,0.4l0,0.4v0.4l0,0.4l0,0.4l0,0.4l0,0.4l0,0.4l0,0.4l0,0l0.4,0.4
		l0,0.4l0,0.4l0,0l0.4,0.4l0,0.4l0,0.4l0,0l0.4,0.4l0,0l0.4,0.4l0,0l0.4,0l0.4,0l0.4,0l0.4,0l0.4,0l0.4,0l0,0l0.4-0.4l0.4,0l0,0
		l0.4-0.4l0,0l0.4-0.4l0,0l0.4-0.4l0,0l0.4-0.4l0,0l0.4-0.4l0,0l0-0.4l0.4-0.4l0,0l0-0.4l0.4-0.4l0,0l0-0.4l0-0.4l0-0.4l0-0.4l0-0.4
		l0-0.4l0-0.4l0-0.4l0-0.4l0,0l-0.4-0.4l0-0.4l0,0l-0.4-0.4l0-0.4l0,0l-0.4-0.4l0,0l-0.4-0.4l0,0l-0.4-0.4l0,0l-0.4,0l-0.4,0
		L875.9-102.4z"/>
	<path class="st11" d="M777.4-100.4L777.4-100.4l-0.4,0l-0.4,0l-0.4,0l-0.4,0l-0.4,0l0,0L775-100l-0.4,0l0,0l-0.4,0.4l0,0l-0.4,0.4
		l-0.4,0l0,0l0,0.4l-0.4,0.4l0,0l-0.4,0.4l0,0l0,0.4l-0.4,0.4l0,0l0,0.4l0,0.4l0,0.4l0,0.4l0,0l0.4,0.4l0,0.4l0,0l0.4,0.4l0,0.4l0,0
		l0.4,0.4l0,0l0.4,0.4l0,0l0.4,0l0.4,0.4l0,0l0.4,0l0.4,0.4l0,0l0.4,0l0.4,0l0.4,0.4l0,0l0.4,0l0.4,0l0.4,0l0.4,0l0.4,0l0.4,0l0,0
		l0.4-0.4l0,0l0.4-0.4l0,0l0.4-0.4l0,0l0-0.4l0.4-0.4l0,0l0-0.4l0-0.4l0-0.4l0-0.4l0-0.4l0-0.4l0,0l-0.4-0.4l0-0.4l0-0.4l0,0
		l-0.4-0.4l0-0.4l0,0l-0.4-0.4l0,0l-0.4-0.4l0,0l-0.4-0.4l0,0l-0.4-0.4l0,0l-0.4,0L777.4-100.4z"/>
</g>
<g>
	<path class="st12" d="M877.9-123.6L877.9-123.6l-0.4,0l-0.4,0l-0.4,0l-0.4,0l-0.4,0l-0.4,0l0,0l-0.4,0.4l-0.4,0l-0.4,0l-0.4,0l0,0
		l-0.4,0.4l-0.4,0l-0.4,0l0,0l-0.4,0.4l-0.4,0l0,0l-0.4,0.4l-0.4,0l0,0l-0.4,0.4l0,0l-0.4,0.4l-0.4,0l0,0l-0.4,0.4l-0.4,0l0,0
		l-0.4,0.4l-0.4,0l0,0l-0.4,0.4l-0.4,0l0,0l-0.4,0.4l0,0l-0.4,0.4l-0.4,0l0,0l-0.4,0.4l-0.4,0l-0.4,0l0,0l-0.4,0.4l-0.4,0l0,0
		l-0.4,0.4l-0.4,0l0,0l-0.4,0.4l-0.4,0l0,0l-0.4,0.4l-0.4,0l-0.4,0l0,0l-0.4,0.4l-0.4,0l-0.4,0l0,0l-0.4,0.4l-0.4,0l-0.4,0l0,0
		l-0.4,0.4l-0.4,0l-0.4,0l0,0l-0.4,0.4l-0.4,0l-0.4,0l0,0l-0.4,0.4l-0.4,0l0,0l-0.4,0.4l-0.4,0l0,0l-0.4,0.4l0,0l-0.4,0.4l0,0
		l-0.4,0.4l0,0l-0.4,0.4l0,0l0,0.4l-0.4,0.4l0,0l0,0.4l0,0.4l-0.4,0.4l0,0l0,0.4l0,0.4l0,0l0.4,0.4l0,0.4l0,0.4l0,0.4l0,0l0.4,0.4
		l0,0.4l0,0l0.4,0.4l0,0.4l0,0l0.4,0.4l0,0l0.4,0.4l0,0.4l0,0l0.4,0.4l0,0l0.4,0.4l0,0l0.4,0.4l0,0l0.4,0.4l0,0l0.4,0l0.4,0.4l0,0
		l0.4,0l0.4,0l0.4,0l0.4,0l0.4,0l0,0l0.4-0.4l0.4,0l0.4,0l0,0l0.4-0.4l0.4,0l0.4,0l0,0l0.4-0.4l0.4,0l0.4,0l0,0l0.4-0.4l0.4,0l0.4,0
		l0.4,0l0,0l0.4-0.4l0.4,0l0.4,0l0.4,0l0,0l0.4-0.4l0.4,0l0.4,0l0.4,0l0,0l0.4-0.4l0.4,0l0.4,0l0.4,0l0,0l0.4-0.4l0.4,0l0,0l0.4-0.4
		l0.4,0l0.4,0l0,0l0.4-0.4l0.4,0l0,0l0.4-0.4l0.4,0l0,0l0.4-0.4l0.4,0l0.4,0l0,0l0.4-0.4l0.4,0l0.4,0l0,0l0.4-0.4l0.4,0l0.4,0l0.4,0
		l0.4,0l0.4,0l0,0l0.4-0.4l0.4,0l0.4,0l0.4,0l0.4,0l0.4,0l0.4,0l0.4,0l0.4,0l0.4,0l0.4,0l0.4,0l0.4,0l0.4,0l0.4,0l0.4,0l0,0l0.4-0.4
		l0.4,0l0.4,0l0.4,0l0.4,0l0,0l0.4-0.4l0.4,0l0.4,0l0,0l0.4-0.4l0.4,0l0,0l0.4-0.4l0.4,0l0,0l0.4-0.4l0,0l0.4-0.4l0,0l0-0.4l0.4-0.4
		l0,0l0-0.4l0-0.4l0.4-0.4l0,0l0-0.4l0-0.4l0-0.4l0-0.4l0-0.4l0-0.4l0-0.4l0-0.4l0-0.4l0-0.4l0-0.4l0,0l-0.4-0.4l0-0.4l0-0.4l0,0
		l-0.4-0.4l0-0.4l0,0l-0.4-0.4l0,0l-0.4-0.4l0,0l-0.4,0l-0.4-0.4l0,0l-0.4,0l-0.4-0.4l0,0l-0.4,0l-0.4,0l-0.4,0l-0.4,0l-0.4,0
		l-0.4,0l-0.4,0l-0.4-0.4l0,0l-0.4,0l-0.4,0l-0.4,0l-0.4,0l-0.4,0l-0.4,0l-0.4,0l-0.4,0l-0.4,0l-0.4-0.4l0,0l-0.4,0l-0.4,0l-0.4,0
		l-0.4,0L877.9-123.6z"/>
	<path class="st12" d="M784.2-120.8L784.2-120.8l-0.4,0l-0.4,0l-0.4,0l-0.4,0l-0.4,0l-0.4,0l-0.4,0l-0.4,0l-0.4,0l-0.4,0l-0.4,0
		l-0.4,0l-0.4,0l-0.4,0l-0.4,0l-0.4,0l-0.4,0l-0.4,0l-0.4,0l0,0l-0.4,0.4l-0.4,0l-0.4,0l-0.4,0l0,0l-0.4,0.4l-0.4,0l0,0l-0.4,0.4
		l-0.4,0l-0.4,0l0,0l-0.4,0.4l-0.4,0l0,0l-0.4,0.4l-0.4,0l0,0l-0.4,0.4l-0.4,0l0,0l-0.4,0.4l-0.4,0l0,0l-0.4,0.4l0,0l-0.4,0.4
		l-0.4,0l0,0l-0.4,0.4l0,0l-0.4,0.4l0,0l-0.4,0.4l0,0l0,0.4l-0.4,0.4l0,0l0,0.4l0,0.4l0,0.4l0,0.4l0,0l0.4,0.4l0,0.4l0,0l0.4,0.4
		l0,0l0.4,0.4l0,0.4l0,0l0.4,0.4l0,0l0.4,0.4l0,0l0.4,0l0.4,0.4l0,0l0.4,0.4l0,0l0.4,0l0.4,0.4l0,0l0.4,0l0.4,0l0.4,0.4l0,0l0.4,0
		l0.4,0l0.4,0l0.4,0l0.4,0l0.4,0l0.4,0l0.4,0l0.4,0l0.4,0l0.4,0l0.4,0l0.4,0l0,0l0.4-0.4l0.4,0l0.4,0l0.4,0l0,0l0.4-0.4l0.4,0l0.4,0
		l0,0l0.4-0.4l0.4,0l0.4,0l0.4,0l0.4,0l0.4,0l0.4,0l0.4,0l0.4,0l0.4,0l0.4,0l0.4,0l0.4,0l0.4,0.4l0,0l0.4,0l0.4,0l0.4,0.4l0,0l0.4,0
		l0.4,0.4l0,0l0.4,0l0.4,0l0.4,0.4l0,0l0.4,0l0.4,0l0.4,0.4l0,0l0.4,0l0.4,0l0.4,0.4l0,0l0.4,0l0.4,0l0.4,0.4l0,0l0.4,0l0.4,0.4l0,0
		l0.4,0l0.4,0.4l0,0l0.4,0.4l0,0.4l0,0l0.4,0.4l0,0.4l0,0l0.4,0.4l0,0.4l0,0l0.4,0.4l0,0.4l0,0l0.4,0.4l0,0.4l0,0l0.4,0.4l0,0
		l0.4,0.4l0,0l0.4,0.4l0,0l0.4,0.4l0,0l0.4,0l0.4,0.4l0,0l0.4,0l0.4,0l0.4,0l0.4,0l0,0l0.4-0.4l0.4,0l0,0l0.4-0.4l0,0l0.4-0.4l0,0
		l0.4-0.4l0,0l0.4-0.4l0,0l0-0.4l0.4-0.4l0,0l0-0.4l0-0.4l0.4-0.4l0,0l0-0.4l0-0.4l0-0.4l0.4-0.4l0,0l0-0.4l0-0.4l0.4-0.4l0,0l0-0.4
		l0-0.4l0.4-0.4l0,0l0.4-0.4l0,0l0-0.4l0.4-0.4l0,0l0-0.4l0.4-0.4l0,0l0-0.4l0-0.4l0.4-0.4l0,0l0-0.4l0-0.4l0-0.4l0-0.4l0-0.4l0,0
		l-0.4-0.4l0-0.4l0,0l-0.4-0.4l0,0l-0.4-0.4l0-0.4l0,0l-0.4,0l-0.4-0.4l0,0l-0.4-0.4l0,0l-0.4,0l-0.4-0.4l0,0l-0.4,0l-0.4-0.4l0,0
		l-0.4,0l-0.4,0l-0.4,0l-0.4,0l-0.4-0.4l0,0l-0.4,0l-0.4,0l-0.4,0l-0.4,0l-0.4,0l-0.4-0.4l0,0l-0.4,0l-0.4,0l-0.4-0.4l0,0l-0.4,0
		l-0.4,0l-0.4-0.4l0,0l-0.4,0l-0.4-0.4l0,0l-0.4,0l-0.4,0l-0.4-0.4l0,0l-0.4,0l-0.4,0l-0.4-0.4l0,0l-0.4,0l-0.4,0l-0.4,0l-0.4,0
		l-0.4,0l-0.4,0l-0.4,0l-0.4,0l-0.4,0l-0.4,0l-0.4,0l-0.4,0l-0.4,0l-0.4,0l-0.4,0l-0.4,0l-0.4,0l-0.4,0l-0.4,0L784.2-120.8z"/>
	<path class="st12" d="M899.1-111.6L899.1-111.6l-0.4,0l-0.4,0l-0.4,0l-0.4,0l-0.4,0l-0.4,0l-0.4,0l-0.4,0l-0.4,0l-0.4,0l0,0
		l-0.4,0.4l-0.4,0l-0.4,0l0,0l-0.4,0.4l0,0l-0.4,0.4l-0.4,0l0,0l-0.4,0.4l0,0l0,0.4l-0.4,0.4l0,0l0,0.4l-0.4,0.4l0,0l0,0.4l0,0.4
		l0,0.4l0,0.4l0,0.4v0.4l0,0.4l0,0.4l0,0.4l0,0.4l0,0.4l0,0l0.4,0.4l0,0.4l0,0l0.4,0.4l0,0l0.4,0l0.4,0l0.4,0l0.4,0l0,0l0.4-0.4
		l0.4,0l0.4,0l0.4,0l0,0l0.4-0.4l0.4,0l0.4,0l0,0l0.4-0.4l0.4,0l0.4,0l0.4,0l0,0l0.4-0.4l0.4,0l0,0l0.4-0.4l0.4,0l0,0l0.4-0.4l0.4,0
		l0,0l0.4-0.4l0,0l0-0.4l0.4-0.4l0,0l0-0.4l0-0.4l0-0.4l0-0.4l0-0.4l0-0.4l0-0.4l0,0l-0.4-0.4l0-0.4l0,0l-0.4-0.4l0,0l-0.4-0.4l0,0
		l-0.4,0l-0.4-0.4l0,0L899.1-111.6z"/>
	<path class="st12" d="M760.6-110L760.6-110l-0.4,0l-0.4,0l-0.4,0l-0.4,0l-0.4,0l0,0l-0.4,0.4l-0.4,0l0,0l0,0.4l-0.4,0.4l0,0l0,0.4
		l0,0.4l0,0.4l0,0.4l0,0l0.4,0.4l0,0.4l0,0l0.4,0.4l0,0.4l0,0l0.4,0.4l0,0l0.4,0.4l0,0l0.4,0.4l0,0l0.4,0.4l0,0l0.4,0l0.4,0.4l0,0
		l0.4,0l0.4,0l0.4,0l0,0l0.4-0.4l0,0l0.4-0.4l0,0l0-0.4l0-0.4l0-0.4l0-0.4l0-0.4l0-0.4l0-0.4l0-0.4l0-0.4l0,0l-0.4-0.4l0-0.4l0,0
		l-0.4-0.4l0,0l-0.4-0.4l0,0l-0.4,0L760.6-110z"/>
	<path class="st12" d="M763.8-98.8L763.8-98.8l-0.4,0l-0.4,0l-0.4,0l0,0l-0.4,0.4l0,0l-0.4,0.4l0,0l-0.4,0.4l0,0l-0.4,0.4l0,0
		l-0.4,0.4l0,0l-0.4,0.4l0,0l-0.4,0.4l0,0l0,0.4l-0.4,0.4l0,0l-0.4,0.4l0,0l-0.4,0.4l0,0l-0.4,0.4l0,0l-0.4,0.4l0,0l-0.4,0.4l0,0
		l-0.4,0.4l0,0l-0.4,0.4l0,0l-0.4,0.4l-0.4,0l0,0l-0.4,0.4l-0.4,0l0,0l-0.4,0.4l-0.4,0l-0.4,0l-0.4,0l-0.4,0l-0.4,0l-0.4,0l-0.4-0.4
		l0,0l-0.4,0L751-92l0,0l-0.4,0l-0.4-0.4l0,0l-0.4,0l-0.4-0.4l0,0l-0.4,0l-0.4-0.4l0,0l-0.4,0l-0.4,0l-0.4,0l-0.4,0l-0.4-0.4l0,0
		l-0.4,0l0,0l-0.4,0.4l-0.4,0l-0.4,0l-0.4,0l0,0l-0.4,0.4l0,0l-0.4,0.4l0,0l-0.4,0.4l0,0l0,0.4l0,0.4l-0.4,0.4l0,0l0,0.4l0,0.4
		l0,0.4l0,0.4l0,0l0.4,0.4l0,0.4l0,0.4l0,0.4l0,0l0.4,0.4l0,0.4l0,0l0.4,0.4l0,0.4l0,0l0.4,0.4l0,0l0.4,0.4l0,0.4l0,0l0.4,0.4l0,0
		l0.4,0.4l0,0l0.4,0.4l0,0l0.4,0.4l0,0.4l0,0l0.4,0.4l0,0l0.4,0.4l0,0l0.4,0.4l0,0l0.4,0.4l0,0l0.4,0.4l0,0l0.4,0l0.4,0.4l0,0
		l0.4,0.4l0,0l0.4,0l0.4,0.4l0,0l0.4,0.4l0,0l0.4,0l0.4,0l0.4,0.4l0,0l0.4,0l0.4,0l0.4,0.4l0,0l0.4,0l0.4,0l0.4,0.4l0,0l0.4,0l0.4,0
		l0.4,0l0.4,0l0.4,0l0.4,0.4l0,0l0.4,0l0.4,0l0.4,0l0.4,0l0.4,0l0.4,0l0,0l0.4-0.4l0.4,0l0.4,0l0.4,0l0,0l0.4-0.4l0.4,0l0,0l0.4-0.4
		l0,0l0.4-0.4l0,0l0.4-0.4l0,0l0.4-0.4l0,0l0.4-0.4l0,0l0-0.4l0.4-0.4l0,0l0-0.4l0.4-0.4l0,0l0-0.4l0-0.4l0.4-0.4l0,0l0-0.4l0-0.4
		l0.4-0.4l0,0l0-0.4l0-0.4l0-0.4l0-0.4l0.4-0.4l0,0l0-0.4l0-0.4l0-0.4l0-0.4l0-0.4l0-0.4l0-0.4l0-0.4l0-0.4l0-0.4l0-0.4l0-0.4l0-0.4
		l0-0.4l0-0.4l0-0.4l0-0.4l0-0.4l0-0.4l0-0.4l0-0.4l0-0.4l0-0.4l0,0l-0.4-0.4l0-0.4l0-0.4l0,0l-0.4-0.4l0-0.4l0,0l-0.4-0.4l0,0
		l-0.4-0.4l0,0L763.8-98.8z"/>
	<path class="st12" d="M887.1-95.2L887.1-95.2l-0.4,0l-0.4,0l-0.4,0l-0.4,0l0,0l-0.4,0.4l-0.4,0l0,0l-0.4,0.4l-0.4,0l0,0l-0.4,0.4
		l0,0l0,0.4l-0.4,0.4l0,0l0,0.4l0,0.4l0,0.4l0,0.4l0,0.4l0,0l0.4,0.4l0,0.4l0,0l0.4,0.4l0,0l0.4,0.4l0,0l0.4,0.4l0,0l0.4,0.4l0,0.4
		l0,0l0.4,0.4l0,0.4l0,0.4l0,0l0.4,0.4l0,0.4l0,0.4l0,0.4l0,0.4l0,0.4l0,0l0.4,0.4l0,0.4l0,0.4l0,0.4l0,0.4l0,0.4l0,0.4l0,0.4l0,0.4
		l0,0l0.4,0.4l0,0.4l0,0.4l0,0.4l0,0l0.4,0.4l0,0.4l0,0.4l0,0l0.4,0.4l0,0l0.4,0.4l0,0l0.4,0.4l0,0l0.4,0.4l0,0l0.4,0l0.4,0.4l0,0
		l0.4,0l0.4,0l0.4,0l0.4,0l0.4,0l0.4,0l0.4,0l0.4,0l0.4,0l0,0l0.4-0.4l0.4,0l0,0l0.4-0.4l0.4,0l0,0l0.4-0.4l0,0l0.4-0.4l0.4,0l0,0
		l0.4-0.4l0,0l0.4-0.4l0,0l0.4-0.4l0,0l0.4-0.4l0,0l0-0.4l0.4-0.4l0,0l0.4-0.4l0,0l0.4-0.4l0,0l0.4-0.4l0,0l0-0.4l0.4-0.4l0,0
		l0.4-0.4l0,0l0-0.4l0.4-0.4l0,0l0-0.4l0.4-0.4l0,0l0-0.4l0-0.4l0.4-0.4l0,0l0-0.4l0-0.4l0-0.4l0-0.4l0,0l-0.4-0.4l0-0.4l0-0.4l0,0
		l-0.4-0.4l0,0l-0.4-0.4l0,0l-0.4-0.4l0,0l-0.4-0.4l0,0l-0.4-0.4l0,0l-0.4,0l-0.4-0.4l0,0l-0.4,0l-0.4-0.4l0,0l-0.4,0l-0.4,0
		l-0.4-0.4l0,0l-0.4,0l-0.4,0l-0.4,0l-0.4-0.4l0,0l-0.4,0l-0.4,0l-0.4,0l-0.4,0l-0.4-0.4l0,0l-0.4,0l-0.4,0l-0.4,0l-0.4-0.4l0,0
		l-0.4,0l-0.4-0.4l0,0l-0.4,0l-0.4-0.4l0,0l-0.4-0.4l0,0l-0.4-0.4l0,0l-0.4-0.4l0,0l-0.4,0L887.1-95.2z"/>
	<path class="st12" d="M783-77.6L783-77.6l-0.4,0l-0.4,0l-0.4,0l-0.4,0l0,0l-0.4,0.4l0,0l-0.4,0.4l0,0l0,0.4l0,0.4l0,0.4l0,0.4
		l0,0.4l0,0.4l0,0L781-74l0,0.4l0,0.4l0,0l0.4,0.4l0,0.4l0,0l0.4,0.4l0,0.4l0,0l0.4,0.4l0,0l0.4,0l0.4,0.4l0,0l0.4,0l0.4,0.4l0,0
		l0.4,0l0.4,0l0.4,0l0.4,0l0.4,0l0.4,0h0.4l0.4,0l0.4,0l0.4,0l0.4,0l0.4,0L789-70l0,0l0.4,0l0.4,0l0.4,0l0.4,0.4l0,0l0.4,0l0.4,0.4
		l0,0l0.4,0.4l0,0l0.4,0.4l0,0.4l0,0l0.4,0.4l0,0.4l0,0l0.4,0.4l0,0.4l0,0l0.4,0.4l0,0.4l0,0l0.4,0.4l0,0l0.4,0.4l0,0.4l0,0l0.4,0.4
		l0,0l0.4,0.4l0,0.4l0,0l0.4,0.4l0,0l0.4,0l0.4,0.4l0,0l0.4,0.4l0,0l0.4,0l0.4,0.4l0,0l0.4,0l0.4,0l0.4,0l0.4,0l0.4,0l0,0l0.4-0.4
		l0.4,0l0,0l0.4-0.4l0,0l0.4-0.4l0,0l0.4-0.4l0,0l0-0.4l0-0.4l0.4-0.4l0,0l0-0.4l0-0.4l0-0.4l0-0.4l0-0.4l0-0.4l0-0.4l0,0l-0.4-0.4
		l0-0.4l0-0.4l0,0l-0.4-0.4l0-0.4l0,0l-0.4-0.4l0,0l-0.4-0.4l0-0.4l0,0l-0.4-0.4l0,0l-0.4-0.4l0,0l-0.4-0.4l0,0l-0.4-0.4l0,0
		l-0.4-0.4l0,0l-0.4-0.4l0,0l-0.4-0.4l0,0l-0.4-0.4l0,0l-0.4-0.4l0,0l-0.4,0l-0.4-0.4l0,0l-0.4-0.4l0,0l-0.4,0l-0.4-0.4l0,0l-0.4,0
		l-0.4-0.4l0,0l-0.4,0l-0.4,0l-0.4,0l-0.4,0l-0.4,0l-0.4-0.4l0,0l-0.4,0l-0.4,0l-0.4,0l-0.4,0l-0.4,0l-0.4,0l-0.4,0l-0.4,0l-0.4,0
		l-0.4-0.4l0,0l-0.4,0l-0.4,0l-0.4,0l-0.4-0.4l0,0l-0.4,0l-0.4,0l-0.4,0l-0.4-0.4l0,0l-0.4,0l-0.4,0L783-77.6z"/>
	<path class="st12" d="M859.1-74.4L859.1-74.4l-0.4,0l-0.4,0l-0.4,0l-0.4,0l-0.4,0l-0.4,0l-0.4,0l-0.4,0l0,0l-0.4,0.4l-0.4,0l0,0
		l-0.4,0.4l-0.4,0l0,0l-0.4,0.4l0,0l-0.4,0.4l0,0l-0.4,0.4l0,0l0,0.4l-0.4,0.4l0,0l0,0.4l-0.4,0.4l0,0l0,0.4l0,0.4l0,0.4l0,0.4
		l0,0.4l0,0l0.4,0.4l0,0.4l0,0l0.4,0.4l0,0l0.4,0.4l0,0l0.4,0.4l0,0l0.4,0.4l0,0l0.4,0.4l0,0l0.4,0l0.4,0l0.4,0.4l0,0l0.4,0l0.4,0
		l0.4,0l0.4,0.4l0,0l0.4,0l0.4,0l0.4,0l0.4,0l0.4,0l0,0l0.4-0.4l0.4,0l0.4,0l0.4,0l0.4,0l0.4,0l0.4,0l0.4,0l0.4,0l0.4,0l0.4,0l0.4,0
		l0.4,0.4l0,0l0.4,0l0.4,0l0.4,0.4l0,0l0.4,0l0.4,0.4l0,0l0.4,0l0.4,0.4l0,0l0.4,0l0.4,0l0.4,0l0.4,0l0.4,0l0.4,0l0,0l0.4-0.4l0,0
		l0.4-0.4l0,0l0-0.4l0-0.4l0.4-0.4l0,0l0-0.4l0-0.4l0-0.4l0-0.4l0,0l-0.4-0.4l0-0.4l0-0.4l0-0.4l0,0l-0.4-0.4l0,0l-0.4-0.4l0-0.4
		l0,0l-0.4-0.4l0,0l-0.4-0.4l0,0l-0.4,0l-0.4-0.4l0,0l-0.4,0l-0.4-0.4l0,0l-0.4,0l-0.4,0l-0.4-0.4l0,0l-0.4,0l-0.4,0l-0.4,0l-0.4,0
		l-0.4-0.4l0,0l-0.4,0l-0.4,0l-0.4,0l-0.4-0.4l0,0l-0.4,0l-0.4,0l-0.4-0.4l0,0l-0.4,0l-0.4,0l-0.4-0.4l0,0l-0.4,0l-0.4,0L859.1-74.4
		z"/>
	<path class="st12" d="M793-44.8L793-44.8l-0.4,0l0,0l-0.4,0.4l-0.4,0l-0.4,0l-0.4,0l0,0l-0.4,0.4l-0.4,0l0,0l-0.4,0.4l-0.4,0l0,0
		l-0.4,0.4l0,0l-0.4,0.4l0,0l-0.4,0.4l0,0l-0.4,0.4l0,0l-0.4,0.4l0,0l-0.4,0.4l0,0l0,0.4l0,0.4l-0.4,0.4l0,0l0,0.4l0,0.4l0,0
		l0.4,0.4l0,0.4l0,0.4l0,0l0.4,0.4l0,0l0.4,0.4l0,0l0.4,0.4l0,0l0.4,0l0.4,0.4l0,0l0.4,0l0.4,0.4l0,0l0.4,0l0.4,0l0.4,0.4l0,0l0.4,0
		l0.4,0l0,0l0.4-0.4l0.4,0l0.4,0l0.4,0l0,0l0.4-0.4l0,0l0.4-0.4l0,0l0.4-0.4l0,0l0.4-0.4l0,0l0.4-0.4l0,0l0-0.4l0.4-0.4l0,0l0-0.4
		l0-0.4l0-0.4l0-0.4l0.4-0.4l0,0l0,0l-0.4-0.4l0-0.4l0-0.4l0-0.4l0-0.4l0,0l-0.4-0.4l0,0l-0.4-0.4l0,0l-0.4-0.4l0,0l-0.4-0.4l0,0
		l-0.4,0l-0.4,0L793-44.8z"/>
	<path class="st12" d="M873.5-42.4L873.5-42.4l-0.4,0l-0.4,0l0,0l-0.4,0.4l0,0l0,0.4l-0.4,0.4l0,0l0,0.4l0,0l0.4,0.4l0,0.4l0,0
		l0.4,0l0.4,0l0,0l0.4-0.4l0,0l0.4-0.4l0,0l0-0.4l0-0.4l0-0.4l0,0L873.5-42.4z"/>
</g>
<path class="st13" d="M798.2-64.4L798.2-64.4L798.2-64.4l-0.4,0.4l-0.4,0l-0.4,0l-0.4,0l-0.4,0l-0.4,0l0,0l-0.4,0.4l-0.4,0l-0.4,0
	l0,0l-0.4,0.4l-0.4,0l-0.4,0l0,0l-0.4,0.4l-0.4,0l0,0l-0.4,0.4l-0.4,0l0,0l-0.4,0.4l-0.4,0l0,0l-0.4,0.4l-0.4,0l0,0l-0.4,0.4l0,0
	l-0.4,0.4l0,0l-0.4,0.4l0,0l-0.4,0.4l0,0l-0.4,0.4l0,0l-0.4,0.4l0,0l0,0.4l-0.4,0.4l0,0L787-58l0,0l0,0.4l-0.4,0.4l0,0l0,0.4l0,0.4
	l-0.4,0.4l0,0l0,0.4l0,0.4l-0.4,0.4l0,0l0,0.4l0,0.4l0,0.4l0,0.4l0,0.4l0,0l0.4,0.4l0,0.4l0,0l0.4,0.4l0,0.4l0,0l0.4,0.4l0,0
	l0.4,0.4l0,0l0.4,0.4l0,0l0.4,0.4l0,0l0.4,0.4l0,0l0.4,0.4l0,0l0.4,0.4l0,0l0.4,0l0.4,0.4l0,0l0.4,0l0.4,0.4l0,0l0.4,0l0.4,0.4l0,0
	l0.4,0l0.4,0l0.4,0.4l0,0l0.4,0l0.4,0l0.4,0l0.4,0l0.4,0.4l0,0l0.4,0l0.4,0l0.4,0l0.4,0l0.4,0l0.4,0l0.4,0l0.4,0l0.4,0l0.4,0l0.4,0
	l0.4,0l0.4,0l0.4,0l0.4,0l0,0l0.4-0.4l0.4,0l0,0l0.4-0.4l0,0l0.4-0.4l0,0L803-48l0,0l0-0.4l0.4-0.4l0,0l0-0.4l0.4-0.4l0,0l0-0.4
	l0-0.4l0-0.4l0.4-0.4l0,0l0-0.4l0-0.4l0-0.4l0-0.4l0-0.4l0-0.4l0-0.4l0-0.4l0-0.4l0-0.4l0-0.4l0-0.4l0,0l-0.4-0.4l0-0.4l0-0.4l0-0.4
	l0-0.4l0,0l-0.4-0.4l0-0.4l0-0.4l0-0.4l0,0l-0.4-0.4l0-0.4l0-0.4l0,0l-0.4-0.4l0-0.4l0,0l-0.4-0.4l0,0l-0.4-0.4l0,0l-0.4-0.4l0-0.4
	l0,0l-0.4,0l-0.4-0.4l0,0l-0.4-0.4l0,0l-0.4,0l-0.4,0l-0.4,0l-0.4,0L798.2-64.4z"/>
<path class="st13" d="M849.5-63.6L849.5-63.6l-0.4,0l-0.4,0l-0.4,0l-0.4,0l-0.4,0l-0.4,0l0,0l-0.4,0.4l-0.4,0l0,0l-0.4,0.4l0,0
	l-0.4,0.4l0,0l0,0.4l-0.4,0.4l0,0l0,0.4l-0.4,0.4l0,0l0,0.4l0,0.4l-0.4,0.4l0,0l0,0.4l0,0.4l0,0.4l-0.4,0.4l0,0l0,0.4l0,0.4l0,0.4
	l0,0.4l0,0.4l-0.4,0.4l0,0l0,0.4l0,0.4l0,0.4L843-54l0,0l0,0.4l0,0.4l-0.4,0.4l0,0l0,0.4l0,0.4l-0.4,0.4l0,0l0,0.4l-0.4,0.4l0,0
	l0,0.4l-0.4,0.4l0,0l0,0.4l0,0.4l-0.4,0.4l0,0l0,0.4l0,0.4l0,0.4l0,0.4l0,0.4l0,0.4l0,0.4l0,0l0.4,0.4l0,0.4l0,0l0.4,0.4l0,0
	l0.4,0.4l0,0l0.4,0L843-44l0,0l0.4,0l0.4,0.4l0,0l0.4,0l0.4,0l0.4,0l0.4,0l0.4,0.4l0,0l0.4,0l0.4,0l0,0l0.4-0.4l0.4,0l0.4,0l0.4,0
	l0.4,0l0.4,0l0.4,0l0.4,0l0.4,0l0.4,0l0.4,0l0.4,0l0,0l0.4-0.4l0.4,0l0.4,0l0.4,0l0.4,0l0.4,0l0.4,0l0.4,0l0.4,0l0.4,0l0.4,0l0,0
	l0.4-0.4l0.4,0l0.4,0l0.4,0l0,0l0.4-0.4l0.4,0l0.4,0l0,0l0.4-0.4l0.4,0l0,0l0.4-0.4l0,0l0.4-0.4l0.4,0l0,0l0.4-0.4l0,0l0.4-0.4
	l0.4,0l0,0l0.4-0.4l0,0l0.4-0.4l0.4,0l0,0l0.4-0.4l0.4,0l0.4,0l0,0l0.4-0.4l0.4,0l0.4,0l0.4,0l0.4,0l0,0l0.4-0.4l0.4,0l0.4,0l0.4,0
	l0.4,0l0,0l0.4-0.4l0.4,0l0,0l0.4-0.4l0,0l0.4-0.4l0,0l0.4-0.4l0,0l0-0.4l0-0.4l0-0.4l0-0.4l0-0.4l0.4-0.4l0,0l0-0.4v-0.4l0-0.4l0,0
	l-0.4-0.4l0-0.4l0-0.4l0-0.4l0-0.4l0-0.4l0-0.4l0-0.4l0,0l-0.4-0.4l0-0.4l0,0l-0.4-0.4l0,0l-0.4-0.4l0,0l-0.4,0l-0.4,0l-0.4,0
	l-0.4,0l0,0l-0.4,0.4l-0.4,0l0,0l-0.4,0.4l-0.4,0l-0.4,0l0,0l-0.4,0.4l-0.4,0l0,0l-0.4,0.4l-0.4,0l0,0l-0.4,0.4l-0.4,0l-0.4,0
	l-0.4,0l0,0l-0.4,0.4l-0.4,0l-0.4,0l-0.4-0.4l0,0l-0.4,0l-0.4,0l-0.4,0l-0.4-0.4l0,0l-0.4,0l-0.4,0l-0.4-0.4l0,0l-0.4,0l-0.4-0.4
	l0,0l-0.4,0l-0.4-0.4l0,0l-0.4-0.4l0,0l-0.4,0l-0.4-0.4l0,0l-0.4-0.4l0,0l-0.4,0l-0.4-0.4l0,0l-0.4-0.4l0,0l-0.4-0.4l0,0l-0.4-0.4
	l0,0l-0.4-0.4l0,0l-0.4-0.4l0,0l-0.4-0.4l0,0l-0.4,0l-0.4-0.4l0,0l-0.4-0.4l0,0l-0.4,0L849.5-63.6z"/>
<path class="st13" d="M777-59.6L777-59.6l-0.4,0l-0.4,0l-0.4,0l-0.4,0l-0.4,0l-0.4,0l-0.4,0l-0.4,0l0,0l-0.4,0.4l-0.4,0l0,0
	l-0.4,0.4l0,0l-0.4,0.4l0,0l-0.4,0.4l0,0l-0.4,0.4v0l0,0.4l0,0.4l0,0.4L771-56l0,0l0,0.4l0,0.4l0,0.4l0,0.4l0,0.4l0,0.4l0,0.4l0,0.4
	l0,0.4l0,0l0.4,0.4l0,0.4l0,0.4l0,0.4l0,0l0.4,0.4l0,0.4l0,0l0.4,0.4l0,0.4l0,0l0.4,0.4l0,0.4l0,0L773-48l0,0l0.4,0.4l0,0l0.4,0.4
	l0,0l0.4,0.4l0,0l0.4,0.4l0,0l0.4,0l0.4,0l0.4,0.4l0,0l0.4,0l0.4,0l0.4,0l0,0l0.4-0.4l0.4,0l0,0l0.4-0.4l0.4,0l0,0l0.4-0.4l0.4,0
	l0,0l0.4-0.4l0,0l0.4-0.4l0,0l0.4-0.4l0,0l0.4-0.4l0,0l0-0.4l0.4-0.4l0,0l0-0.4l0.4-0.4l0,0l0-0.4l0.4-0.4l0,0l0-0.4l0-0.4l0-0.4
	l0-0.4l0-0.4l0-0.4l0-0.4l0,0l-0.4-0.4l0-0.4l0,0l-0.4-0.4l0-0.4l0,0L781-56l0-0.4l0,0l-0.4-0.4l0,0l-0.4-0.4l0,0l-0.4-0.4l0,0
	l-0.4-0.4l0,0l-0.4-0.4l0,0l-0.4-0.4l0,0l-0.4,0l-0.4-0.4l0,0l-0.4,0L777-59.6z"/>
<path class="st14" d="M827-114.5c-1.6,0.3-11,0.7-13.7,0c-5.9-1.5-8-6.3-13-11.3c-0.9-0.9-8-7.9-15.6-9.9c-9.4-2.5-18.4,3-25.1,7.2
	c-7.8,4.7-28,17.1-32,41.7c-1,6-2.6,22.5,7.8,37.3c7.8,11.1,18.3,15.6,28.1,19.8c3.9,1.7,20.3,8.3,37.5,6.5
	c11.1-1.1,20.9-5.6,22.6-6.8c0.1,0,0.4-0.3,0.8-0.5c2.7-1.2,5.8,0.2,6.4,0.5c2.2,1,3.6,2.5,3.9,2.9c3.7,4.1,10,6.3,13.7,7.6
	c7.4,2.5,14.5,0.9,21.4-0.9c11.3-3,27.8-7.3,39-23c1.6-2.2,11.5-16.6,9.5-35.9c-1.1-10.5-6-18.2-15.9-33.6
	c-9.4-14.7-14.6-17.6-18.3-19c-8-3.1-15.7-1.5-19.1-0.8c-11.6,2.5-15.2,6.8-27.8,13.9C830.7-115.2,831-115,827-114.5z"/>
<rect x="716.8" y="-156.9" class="st15" width="249" height="140.6"/>
<text transform="matrix(1 0 0 1 635.6801 46.8362)" class="st16 st17">Presynapse density plot (A1L) </text>
<text transform="matrix(0.9664 0 0 1 1484.4102 548.1367)" class="st18 st19 st20">NB7-4</text>
<text transform="matrix(0.9664 0 0 1 1484.4102 755.1367)" class="st21 st19 st20">NB3-3</text>
<text transform="matrix(0.9664 0 0 1 1484.4082 134.1309)" class="st1 st19 st20">NB1-2</text>
<text transform="matrix(0.9664 0 0 1 1484.4102 444.6348)" class="st6 st19 st20">NB7-1</text>
<text transform="matrix(0.9664 0 0 1 1484.4121 651.6367)" class="st4 st19 st20">NB4-1</text>
<text transform="matrix(0.9664 0 0 1 1484.4102 341.1348)" class="st5 st19 st20">NB5-2</text>
<text transform="matrix(0.9664 0 0 1 1484.4102 237.6328)" class="st22 st19 st20">NB2-1</text>
<path class="st23" d="M817.4,245.7c-2-0.3-18.4-3-34.2-10.1c-43-19.2-62.9-62.3-76.3-82.5c-42.2-63.6-138.5-79.6-179-79.4
	C407.1,74.4,288,222.5,272.7,370.2C254,549.9,393,691.5,510.8,743.7c68.6,30.4,184.1,54.4,221.8,10.9c60.5-69.8,69.3-85.6,69.3-85.6
	c3.1-5.5,7.6-14.2,16.3-16.3c19.1-4.6,39.7,27.5,62.3,53.7c0,0,38.6,44.9,98.8,80.1c99.1,58,263.2-45.9,284.8-59.9
	c39.8-25.8,154.3-100.2,183.6-241.2c29.1-139.8-26.7-339.6-182.9-388.3c-94.4-29.5-239,24.5-296.5,86.4c-7.9,8.5-37.6,42.4-84,56.8
	C874.2,243.3,849.2,250.8,817.4,245.7z"/>
</svg>
