<?xml version="1.0" encoding="utf-8"?>
<!-- Generator: Adobe Illustrator 23.0.3, SVG Export Plug-In . SVG Version: 6.00 Build 0)  -->
<svg version="1.1" id="Layer_1" xmlns="http://www.w3.org/2000/svg" xmlns:xlink="http://www.w3.org/1999/xlink" x="0px" y="0px"
	 viewBox="0 0 560 420" style="enable-background:new 0 0 560 420;" xml:space="preserve">
<style type="text/css">
	.st0{fill:none;stroke:#000000;stroke-width:7.050000e-02;stroke-linejoin:round;stroke-miterlimit:10;}
	.st1{fill:none;stroke:#000000;stroke-width:0.7142;stroke-linejoin:round;stroke-miterlimit:10;}
	.st2{fill:none;stroke:#000000;stroke-width:1.7226;stroke-linejoin:round;stroke-miterlimit:10;}
	.st3{fill:none;stroke:#000000;stroke-width:3.5336;stroke-linejoin:round;stroke-miterlimit:10;}
	.st4{fill:none;stroke:#000000;stroke-width:4.041;stroke-linejoin:round;stroke-miterlimit:10;}
	.st5{fill:none;stroke:#000000;stroke-width:4.899;stroke-linejoin:round;stroke-miterlimit:10;}
	.st6{fill:none;stroke:#000000;stroke-width:6.9617;stroke-linejoin:round;stroke-miterlimit:10;}
	.st7{fill:none;stroke:#000000;stroke-width:8.5248;stroke-linejoin:round;stroke-miterlimit:10;}
	.st8{fill:none;stroke:#000000;stroke-width:10.1305;stroke-linejoin:round;stroke-miterlimit:10;}
	.st9{fill:none;stroke:#000000;stroke-width:17.4776;stroke-linejoin:round;stroke-miterlimit:10;}
	.st10{fill:#0072BD;}
	.st11{fill:none;stroke:#0072BD;stroke-width:5;stroke-miterlimit:10;}
	.st12{font-family:'HelveticaNeue';}
	.st13{font-size:8px;}
	.st14{font-family:'HelveticaNeue-Italic';}
	.st15{fill:none;stroke:#000000;stroke-width:5;stroke-linejoin:round;stroke-miterlimit:10;}
	.st16{fill:none;stroke:#000000;stroke-width:10;stroke-linejoin:round;stroke-miterlimit:10;}
	.st17{fill:none;stroke:#000000;stroke-width:15;stroke-linejoin:round;stroke-miterlimit:10;}
</style>
<g>
	<path d="M326.2,119.9l19-5.7l-9.4-1.6l1-9.5L326.2,119.9z M326.2,285.6l3.3-13.6l-4.3,5.1l-5.4-4L326.2,285.6z M454.4,202.8
		l-2.9-3.9l0.4,2.3l-2.3,0.6L454.4,202.8z M326.2,119.9l-0.5,2l0.6-0.7l0.8,0.6L326.2,119.9z M326.2,285.6l-23.3,6.9l11.5,2
		l-1.2,11.6L326.2,285.6z M454.4,202.8l-48.6,10.6l23.2,5.8l-4.2,23.5L454.4,202.8z M326.2,119.9l-28.2,6.2l13.4,3.4l-2.4,13.6
		L326.2,119.9z M326.2,285.6l-6.9-9.2l1,5.4l-5.4,1.3L326.2,285.6z M454.4,202.8l-0.2-0.1l0.1,0.1l-0.1,0.1L454.4,202.8z
		 M198.1,202.8l-6.5-7.6l1.2,4.7l-4.6,1.5L198.1,202.8z"/>
</g>
<g>
	<line class="st0" x1="198.1" y1="202.8" x2="454.4" y2="202.8"/>
	<path class="st1" d="M326.2,285.6l0.5-4.2l0.5-4.2l0.5-4.2l0.4-4.2l0.4-4.2l0.4-4.2l0.4-4.2l0.3-4.2l0.3-4.2l0.3-4.3l0.2-4.3
		l0.2-4.3l0.2-4.3l0.2-4.3l0.1-4.3l0.1-4.3l0.1-4.3l0.1-4.3l0-4.3v-4.3l0-4.3l-0.1-4.3l-0.1-4.3l-0.1-4.3l-0.1-4.3l-0.2-4.3
		l-0.2-4.3l-0.2-4.3l-0.2-4.3l-0.3-4.3l-0.3-4.2l-0.3-4.2l-0.4-4.2l-0.4-4.2l-0.4-4.2l-0.4-4.2l-0.5-4.2l-0.5-4.2l-0.5-4.2"/>
	<line class="st2" x1="326.2" y1="119.9" x2="454.4" y2="202.8"/>
	<path class="st3" d="M198.1,202.8l-25.4,14l-3.1,1.5l-3.3,1.2l-3.6,0.9l-3.7,0.6l-3.8,0.3l-3.8-0.1l-3.8-0.4L144,220l-3.5-1
		l-3.2-1.3l-2.9-1.6l-2.6-1.8l-2.2-2l-1.7-2.2l-1.3-2.3l-0.8-2.4l-0.3-2.5l0.3-2.5l0.8-2.4l1.3-2.3l1.7-2.2l2.2-2l2.6-1.8l2.9-1.6
		l3.2-1.3l3.5-1l3.7-0.7l3.8-0.4l3.8-0.1l3.8,0.3l3.7,0.6l3.6,0.9l3.3,1.2l3.1,1.5l20.1,11.1"/>
	<line class="st4" x1="198.1" y1="202.8" x2="320.4" y2="281.8"/>
	<path class="st5" d="M326.2,119.9l-0.5,4.2l-0.5,4.2l-0.5,4.2l-0.4,4.2l-0.4,4.2l-0.4,4.2l-0.4,4.2l-0.3,4.2l-0.3,4.2l-0.3,4.3
		l-0.2,4.3l-0.2,4.3l-0.2,4.3l-0.2,4.3l-0.1,4.3l-0.1,4.3l-0.1,4.3l-0.1,4.3l0,4.3v4.3l0,4.3l0.1,4.3l0.1,4.3l0.1,4.3l0.1,4.3
		l0.2,4.3l0.2,4.3l0.2,4.3l0.2,4.3l0.3,4.3l0.3,4.2l0.3,4.2l0.4,4.2l0.4,4.2l0.4,4.2l0.4,4.2l0.5,4.2l0.5,4.2l-0.5-4.2"/>
	<path class="st6" d="M326.2,119.9l-21.7-16.4l-2.3-2l-1.9-2.2L299,97l-0.9-2.4l-0.4-2.5l0.1-2.5l0.6-2.4l1.1-2.4l1.6-2.2l2-2.1
		l2.5-1.9l2.8-1.7l3.1-1.4l3.4-1.1l3.6-0.8l3.7-0.5l3.8-0.2l3.8,0.2l3.7,0.5l3.6,0.8l3.4,1.1L344,77l2.8,1.7l2.5,1.9l2,2.1l1.6,2.2
		l1.1,2.4l0.6,2.4l0.1,2.5l-0.4,2.5l-0.9,2.4l-1.4,2.3l-1.9,2.2l-2.3,2l-12.1,9.1"/>
	<path class="st7" d="M330.4,288.8l17.5,13.3l2.3,2l1.9,2.2l1.4,2.3l0.9,2.4l0.4,2.5l-0.1,2.5l-0.6,2.4l-1.1,2.4l-1.6,2.2l-2,2.1
		l-2.5,1.9l-2.8,1.7l-3.1,1.4l-3.4,1.1l-3.6,0.8l-3.7,0.5l-3.8,0.2l-3.8-0.2l-3.7-0.5l-3.6-0.8l-3.4-1.1l-3.1-1.4l-2.8-1.7l-2.5-1.9
		l-2-2.1l-1.6-2.2l-1.1-2.4l-0.6-2.4l-0.1-2.5l0.4-2.5l0.9-2.4l1.4-2.3l1.9-2.2l2.3-2l9.9-7.5"/>
	<line class="st8" x1="198.1" y1="202.8" x2="311.5" y2="129.4"/>
	<line class="st9" x1="326.2" y1="285.6" x2="429" y2="219.2"/>
</g>
<g transform="translate(326.2458,119.8886)">
	<circle class="st10" cx="0" cy="0" r="2"/>
</g>
<g transform="translate(326.2458,119.8886)">
	<circle class="st11" cx="0" cy="0" r="2"/>
</g>
<g transform="translate(326.2458,285.6114)">
	<circle class="st10" cx="0" cy="0" r="2"/>
</g>
<g transform="translate(326.2458,285.6114)">
	<circle class="st11" cx="0" cy="0" r="2"/>
</g>
<g transform="translate(454.394,202.75)">
	<circle class="st10" cx="0" cy="0" r="2"/>
</g>
<g transform="translate(454.394,202.75)">
	<circle class="st11" cx="0" cy="0" r="2"/>
</g>
<g transform="translate(198.0976,202.75)">
	<circle class="st10" cx="0" cy="0" r="2"/>
</g>
<g transform="translate(198.0976,202.75)">
	<circle class="st11" cx="0" cy="0" r="2"/>
</g>
<g transform="translate(332.2458,119.8886)">
	<text transform="matrix(1 0 0 1 13.003 3.0001)" class="st12 st13">Ventral</text>
</g>
<g transform="translate(332.2458,285.6114)">
	<text transform="matrix(1 0 0 1 13.0029 7.0046)" class="st12 st13">Dorsal</text>
</g>
<g transform="translate(460.394,202.75)">
	<text transform="matrix(1 0 0 1 -14.3022 -18.4431)" class="st12 st13">MN</text>
</g>
<g transform="translate(204.0976,202.75)">
	<text transform="matrix(1 0 0 1 -10.9785 -18.4431)" class="st12 st13">SN</text>
</g>
<g transform="translate(390.3199,244.1807) rotate(-32.887)">
	<text transform="matrix(1 0 0 1 -14.5002 -2.0001)" class="st14 st13">0.17478</text>
</g>
<g>
	<line class="st15" x1="102" y1="347.8" x2="166.1" y2="347.8"/>
	<line class="st16" x1="102" y1="327" x2="166.1" y2="327"/>
	<line class="st17" x1="102" y1="306.3" x2="166.1" y2="306.3"/>
</g>
</svg>
