<?xml version="1.0" encoding="utf-8"?>
<!-- Generator: Adobe Illustrator 23.0.3, SVG Export Plug-In . SVG Version: 6.00 Build 0)  -->
<svg version="1.1" id="Layer_1" xmlns="http://www.w3.org/2000/svg" xmlns:xlink="http://www.w3.org/1999/xlink" x="0px" y="0px"
	 viewBox="0 0 1630 952" style="enable-background:new 0 0 1630 952;" xml:space="preserve">
<style type="text/css">
	.st0{fill:none;stroke:#262626;stroke-width:0.5;stroke-linecap:square;stroke-linejoin:round;stroke-miterlimit:10;}
	.st1{fill:#262626;}
	.st2{font-family:'HelveticaNeue';}
	.st3{font-size:24px;}
	.st4{font-family:'HelveticaNeue-Bold';}
	.st5{fill:none;stroke:#CCFF00;stroke-width:3;stroke-linejoin:round;stroke-miterlimit:10;}
	.st6{fill:none;stroke:#00FF66;stroke-width:3;stroke-linejoin:round;stroke-miterlimit:10;}
	.st7{fill:none;stroke:#FF0000;stroke-width:3;stroke-linejoin:round;stroke-miterlimit:10;}
	.st8{fill:none;stroke:#CC00FF;stroke-width:3;stroke-linejoin:round;stroke-miterlimit:10;}
	.st9{fill:none;stroke:#0066FF;stroke-width:3;stroke-linejoin:round;stroke-miterlimit:10;}
	.st10{fill:none;stroke:#000000;stroke-width:3;stroke-linejoin:round;stroke-miterlimit:10;}
	.st11{fill:#FF0000;}
	.st12{fill:#00FF40;}
	.st13{fill:#0099FF;}
	.st14{fill:#4D00FF;}
	.st15{fill:#FFBF00;}
	.st16{fill:none;stroke:#333333;stroke-width:0.5;stroke-linecap:square;stroke-linejoin:round;stroke-miterlimit:10;}
</style>
<g>
	<line class="st0" x1="467" y1="847.5" x2="212" y2="847.5"/>
	<line class="st0" x1="462.9" y1="847.5" x2="462.9" y2="839.7"/>
	<line class="st0" x1="394.5" y1="847.5" x2="394.5" y2="839.7"/>
	<line class="st0" x1="326.2" y1="847.5" x2="326.2" y2="839.7"/>
	<line class="st0" x1="257.9" y1="847.5" x2="257.9" y2="839.7"/>
</g>
<g transform="translate(462.8771,853.1)">
	<text transform="matrix(1 0 0 1 -13 18.0001)" class="st1 st2 st3">0.2</text>
</g>
<g transform="translate(394.5482,853.1)">
	<text transform="matrix(1 0 0 1 -13 18.0001)" class="st1 st2 st3">0.4</text>
</g>
<g transform="translate(326.2193,853.1)">
	<text transform="matrix(1 0 0 1 -13.0001 18.0001)" class="st1 st2 st3">0.6</text>
</g>
<g transform="translate(257.8904,853.1)">
	<text transform="matrix(1 0 0 1 -13 18.0001)" class="st1 st2 st3">0.8</text>
</g>
<g>
	<line class="st0" x1="467" y1="847.5" x2="467" y2="71.5"/>
	<line class="st0" x1="467" y1="826.5" x2="459.2" y2="826.5"/>
	<line class="st0" x1="467" y1="805.6" x2="459.2" y2="805.6"/>
	<line class="st0" x1="467" y1="784.6" x2="459.2" y2="784.6"/>
	<line class="st0" x1="467" y1="763.6" x2="459.2" y2="763.6"/>
	<line class="st0" x1="467" y1="742.6" x2="459.2" y2="742.6"/>
	<line class="st0" x1="467" y1="721.7" x2="459.2" y2="721.7"/>
	<line class="st0" x1="467" y1="700.7" x2="459.2" y2="700.7"/>
	<line class="st0" x1="467" y1="679.7" x2="459.2" y2="679.7"/>
	<line class="st0" x1="467" y1="658.7" x2="459.2" y2="658.7"/>
	<line class="st0" x1="467" y1="637.8" x2="459.2" y2="637.8"/>
	<line class="st0" x1="467" y1="616.8" x2="459.2" y2="616.8"/>
	<line class="st0" x1="467" y1="595.8" x2="459.2" y2="595.8"/>
	<line class="st0" x1="467" y1="574.9" x2="459.2" y2="574.9"/>
	<line class="st0" x1="467" y1="553.9" x2="459.2" y2="553.9"/>
	<line class="st0" x1="467" y1="532.9" x2="459.2" y2="532.9"/>
	<line class="st0" x1="467" y1="511.9" x2="459.2" y2="511.9"/>
	<line class="st0" x1="467" y1="491" x2="459.2" y2="491"/>
	<line class="st0" x1="467" y1="470" x2="459.2" y2="470"/>
	<line class="st0" x1="467" y1="449" x2="459.2" y2="449"/>
	<line class="st0" x1="467" y1="428" x2="459.2" y2="428"/>
	<line class="st0" x1="467" y1="407.1" x2="459.2" y2="407.1"/>
	<line class="st0" x1="467" y1="386.1" x2="459.2" y2="386.1"/>
	<line class="st0" x1="467" y1="365.1" x2="459.2" y2="365.1"/>
	<line class="st0" x1="467" y1="344.1" x2="459.2" y2="344.1"/>
	<line class="st0" x1="467" y1="323.2" x2="459.2" y2="323.2"/>
	<line class="st0" x1="467" y1="302.2" x2="459.2" y2="302.2"/>
	<line class="st0" x1="467" y1="281.2" x2="459.2" y2="281.2"/>
	<line class="st0" x1="467" y1="260.3" x2="459.2" y2="260.3"/>
	<line class="st0" x1="467" y1="239.3" x2="459.2" y2="239.3"/>
	<line class="st0" x1="467" y1="218.3" x2="459.2" y2="218.3"/>
	<line class="st0" x1="467" y1="197.3" x2="459.2" y2="197.3"/>
	<line class="st0" x1="467" y1="176.4" x2="459.2" y2="176.4"/>
	<line class="st0" x1="467" y1="155.4" x2="459.2" y2="155.4"/>
	<line class="st0" x1="467" y1="134.4" x2="459.2" y2="134.4"/>
	<line class="st0" x1="467" y1="113.4" x2="459.2" y2="113.4"/>
	<line class="st0" x1="467" y1="92.5" x2="459.2" y2="92.5"/>
</g>
<g transform="translate(472.6,826.527)">
	<text transform="matrix(1 0 0 1 -3.041406e-05 6.9999)" class="st1 st4 st3">          </text>
</g>
<g transform="translate(472.6,805.5541)">
	<text transform="matrix(1 0 0 1 -3.041406e-05 7.0001)" class="st1 st4 st3">          </text>
</g>
<g transform="translate(472.6,784.5811)">
	<text transform="matrix(1 0 0 1 -3.041406e-05 6.9999)" class="st1 st4 st3">          </text>
</g>
<g transform="translate(472.6,763.6081)">
	<text transform="matrix(1 0 0 1 -3.041406e-05 6.9998)" class="st1 st4 st3">          </text>
</g>
<g transform="translate(472.6,742.6351)">
	<text transform="matrix(1 0 0 1 -3.041406e-05 7.0002)" class="st1 st4 st3">          </text>
</g>
<g transform="translate(472.6,721.6622)">
	<text transform="matrix(1 0 0 1 -3.041406e-05 6.9999)" class="st1 st4 st3">          </text>
</g>
<g transform="translate(472.6,700.6892)">
	<text transform="matrix(1 0 0 1 -3.041406e-05 7.0002)" class="st1 st4 st3">          </text>
</g>
<g transform="translate(472.6,679.7162)">
	<text transform="matrix(1 0 0 1 -3.041406e-05 7.0001)" class="st1 st4 st3">          </text>
</g>
<g transform="translate(472.6,658.7432)">
	<text transform="matrix(1 0 0 1 -3.041406e-05 6.9999)" class="st1 st4 st3">          </text>
</g>
<g transform="translate(472.6,637.7703)">
	<text transform="matrix(1 0 0 1 -3.041406e-05 7.0002)" class="st1 st4 st3">          </text>
</g>
<g transform="translate(472.6,616.7973)">
	<text transform="matrix(1 0 0 1 -3.041406e-05 7.0001)" class="st1 st4 st3">          </text>
</g>
<g transform="translate(472.6,595.8243)">
	<text transform="matrix(1 0 0 1 -3.041406e-05 6.9999)" class="st1 st4 st3">          </text>
</g>
<g transform="translate(472.6,574.8514)">
	<text transform="matrix(1 0 0 1 -3.041406e-05 7.0002)" class="st1 st4 st3">          </text>
</g>
<g transform="translate(472.6,553.8784)">
	<text transform="matrix(1 0 0 1 -3.041406e-05 7)" class="st1 st4 st3">          </text>
</g>
<g transform="translate(472.6,532.9054)">
	<text transform="matrix(1 0 0 1 -3.041406e-05 6.9999)" class="st1 st4 st3">          </text>
</g>
<g transform="translate(472.6,511.9324)">
	<text transform="matrix(1 0 0 1 -3.041406e-05 7.0002)" class="st1 st4 st3">          </text>
</g>
<g transform="translate(472.6,490.9595)">
	<text transform="matrix(1 0 0 1 -3.041406e-05 7)" class="st1 st4 st3">          </text>
</g>
<g transform="translate(472.6,469.9865)">
	<text transform="matrix(1 0 0 1 -3.041406e-05 6.9998)" class="st1 st4 st3">          </text>
</g>
<g transform="translate(472.6,449.0135)">
	<text transform="matrix(1 0 0 1 -3.041406e-05 7.0002)" class="st1 st4 st3">          </text>
</g>
<g transform="translate(472.6,428.0405)">
	<text transform="matrix(1 0 0 1 -3.041406e-05 7)" class="st1 st4 st3">          </text>
</g>
<g transform="translate(472.6,407.0676)">
	<text transform="matrix(1 0 0 1 -3.041406e-05 6.9998)" class="st1 st4 st3">          </text>
</g>
<g transform="translate(472.6,386.0946)">
	<text transform="matrix(1 0 0 1 -3.041406e-05 7.0001)" class="st1 st4 st3">          </text>
</g>
<g transform="translate(472.6,365.1216)">
	<text transform="matrix(1 0 0 1 -3.041406e-05 7)" class="st1 st4 st3">          </text>
</g>
<g transform="translate(472.6,344.1487)">
	<text transform="matrix(1 0 0 1 -3.041406e-05 7.0002)" class="st1 st4 st3">          </text>
</g>
<g transform="translate(472.6,323.1757)">
	<text transform="matrix(1 0 0 1 -3.041406e-05 7.0001)" class="st1 st4 st3">          </text>
</g>
<g transform="translate(472.6,302.2027)">
	<text transform="matrix(1 0 0 1 -3.041406e-05 6.9999)" class="st1 st4 st3">          </text>
</g>
<g transform="translate(472.6,281.2297)">
	<text transform="matrix(1 0 0 1 -3.041406e-05 6.9998)" class="st1 st4 st3">          </text>
</g>
<g transform="translate(472.6,260.2567)">
	<text transform="matrix(1 0 0 1 -3.041406e-05 7.0001)" class="st1 st4 st3">          </text>
</g>
<g transform="translate(472.6,239.2838)">
	<text transform="matrix(1 0 0 1 -3.041406e-05 6.9999)" class="st1 st4 st3">          </text>
</g>
<g transform="translate(472.6,218.3108)">
	<text transform="matrix(1 0 0 1 -3.041406e-05 7.0002)" class="st1 st4 st3">          </text>
</g>
<g transform="translate(472.6,197.3378)">
	<text transform="matrix(1 0 0 1 -3.041406e-05 7.0001)" class="st1 st4 st3">          </text>
</g>
<g transform="translate(472.6,176.3649)">
	<text transform="matrix(1 0 0 1 -3.041406e-05 6.9998)" class="st1 st4 st3">          </text>
</g>
<g transform="translate(472.6,155.3919)">
	<text transform="matrix(1 0 0 1 -3.041406e-05 7.0002)" class="st1 st4 st3">          </text>
</g>
<g transform="translate(472.6,134.4189)">
	<text transform="matrix(1 0 0 1 -3.041406e-05 7)" class="st1 st4 st3">          </text>
</g>
<g transform="translate(472.6,113.4459)">
	<text transform="matrix(1 0 0 1 -3.041406e-05 6.9999)" class="st1 st4 st3">          </text>
</g>
<g transform="translate(472.6,92.473)">
	<text transform="matrix(1 0 0 1 -3.041406e-05 7.0001)" class="st1 st4 st3">          </text>
</g>
<g>
	<path class="st5" d="M467,134.4h-11.6v21H467"/>
	<path class="st6" d="M467,679.7h-39.6v21H467"/>
	<path class="st7" d="M467,407.1h-44.3v-21H467"/>
	<path class="st5" d="M467,239.3h-56.2v21H467"/>
	<path class="st7" d="M467,574.9h-60.5v-21H467"/>
	<path class="st5" d="M455.4,144.9h-51.3v31.5h63"/>
	<path class="st7" d="M422.7,396.6h-18.9v-31.5H467"/>
	<path class="st5" d="M467,302.2h-67.9v-21H467"/>
	<path class="st7" d="M467,449h-68.4v21H467"/>
	<path class="st7" d="M467,511.9h-77.7v-21H467"/>
	<path class="st7" d="M406.5,564.4h-32.8v-31.5H467"/>
	<path class="st7" d="M403.9,380.9h-32.4V428H467"/>
	<path class="st5" d="M410.8,249.8h-40.7v41.9h29"/>
	<path class="st5" d="M370.1,270.7h-8.6v-52.4H467"/>
	<path class="st6" d="M467,742.6H357.9v21H467"/>
	<path class="st8" d="M467,113.4h-117v-21h117"/>
	<path class="st7" d="M467,637.8H348.7v21H467"/>
	<path class="st7" d="M371.5,404.4h-32.1v55.1h59.2"/>
	<path class="st6" d="M357.9,753.1h-22.1v31.5H467"/>
	<path class="st6" d="M467,721.7H327.4v47.2h8.4"/>
	<path class="st7" d="M339.4,432h-16.6v69.5h66.6"/>
	<path class="st7" d="M348.7,648.3h-30.6v-31.5H467"/>
	<path class="st5" d="M361.5,244.5h-47.4v78.6H467"/>
	<path class="st7" d="M322.8,466.7h-14v81.9h64.9"/>
	<path class="st7" d="M308.8,507.7h-13.1V344.1H467"/>
	<path class="st5" d="M314.2,283.9h-19.4v-86.5H467"/>
	<path class="st9" d="M467,805.6H288.3v21H467"/>
	<path class="st6" d="M427.4,690.2h-142v55.1h41.9"/>
	<path class="st7" d="M467,595.8H283.8v36.7h34.3"/>
	<path class="st5" d="M294.8,240.6H280v-80h124.1"/>
	<path class="st7" d="M283.8,614.2H259V425.9h36.6"/>
	<path class="st10" d="M259,520h-10.1V200.6h31"/>
	<path class="st10" d="M248.9,360.3h-1.3V103h102.4"/>
	<path class="st10" d="M288.3,816h-47.9v-98.3h45"/>
	<path class="st10" d="M240.4,766.9h-16.8V231.6h24"/>
</g>
<g transform="translate(470.4164,826.527)">
	<text transform="matrix(1 0 0 1 -3.016406e-05 3.4999)" class="st11 st4 st3">A01j</text>
</g>
<g transform="translate(470.4164,805.5541)">
	<text transform="matrix(1 0 0 1 -3.016406e-05 3.5001)" class="st11 st4 st3">A01a</text>
</g>
<g transform="translate(470.4164,784.5811)">
	<text transform="matrix(1 0 0 1 -3.016406e-05 3.4999)" class="st11 st4 st3">A01d4</text>
</g>
<g transform="translate(470.4164,763.6081)">
	<text transform="matrix(1 0 0 1 -3.016406e-05 3.4998)" class="st11 st4 st3">A01d3</text>
</g>
<g transform="translate(470.4164,742.6351)">
	<text transform="matrix(1 0 0 1 -3.016406e-05 3.5002)" class="st11 st4 st3">A01d2</text>
</g>
<g transform="translate(470.4164,721.6622)">
	<text transform="matrix(1 0 0 1 -3.016406e-05 3.4999)" class="st11 st4 st3">A01d1</text>
</g>
<g transform="translate(470.4164,700.6892)">
	<text transform="matrix(1 0 0 1 -3.016406e-05 3.5002)" class="st11 st4 st3">A01c2</text>
</g>
<g transform="translate(470.4164,679.7162)">
	<text transform="matrix(1 0 0 1 -3.016406e-05 3.5001)" class="st11 st4 st3">A01c1</text>
</g>
<g transform="translate(470.4164,658.7432)">
	<text transform="matrix(1 0 0 1 -3.016406e-05 3.4999)" class="st12 st4 st3">A14b</text>
</g>
<g transform="translate(470.4164,637.7703)">
	<text transform="matrix(1 0 0 1 -3.016406e-05 3.5002)" class="st11 st4 st3">A01b2</text>
</g>
<g transform="translate(470.4164,616.7973)">
	<text transform="matrix(1 0 0 1 -3.016406e-05 3.5001)" class="st13 st4 st3">A06b</text>
</g>
<g transform="translate(470.4164,595.8243)">
	<text transform="matrix(1 0 0 1 -3.016406e-05 3.4999)" class="st11 st4 st3">A01a2</text>
</g>
<g transform="translate(470.4164,574.8514)">
	<text transform="matrix(1 0 0 1 -3.016406e-05 3.5002)" class="st13 st4 st3">A06b2</text>
</g>
<g transform="translate(470.4164,553.8784)">
	<text transform="matrix(1 0 0 1 -3.016406e-05 3.5)" class="st13 st4 st3">A06g</text>
</g>
<g transform="translate(470.4164,532.9054)">
	<text transform="matrix(1 0 0 1 -3.016406e-05 3.4999)" class="st13 st4 st3">A06g2</text>
</g>
<g transform="translate(470.4164,511.9324)">
	<text transform="matrix(1 0 0 1 -3.016406e-05 3.5002)" class="st13 st4 st3">A06e</text>
</g>
<g transform="translate(470.4164,490.9595)">
	<text transform="matrix(1 0 0 1 -3.016406e-05 3.5)" class="st13 st4 st3">A06f</text>
</g>
<g transform="translate(470.4164,469.9865)">
	<text transform="matrix(1 0 0 1 -3.016406e-05 3.4998)" class="st12 st4 st3">A14a2</text>
</g>
<g transform="translate(470.4164,449.0135)">
	<text transform="matrix(1 0 0 1 -3.016406e-05 3.5002)" class="st12 st4 st3">A14a1</text>
</g>
<g transform="translate(470.4164,428.0405)">
	<text transform="matrix(1 0 0 1 -3.016406e-05 3.5)" class="st12 st4 st3">A14a3</text>
</g>
<g transform="translate(470.4164,407.0676)">
	<text transform="matrix(1 0 0 1 -3.016406e-05 3.4998)" class="st13 st4 st3">A06a</text>
</g>
<g transform="translate(470.4164,386.0946)">
	<text transform="matrix(1 0 0 1 -3.016406e-05 3.5001)" class="st13 st4 st3">A06h</text>
</g>
<g transform="translate(470.4164,365.1216)">
	<text transform="matrix(1 0 0 1 -3.016406e-05 3.5)" class="st13 st4 st3">A06l</text>
</g>
<g transform="translate(470.4164,344.1487)">
	<text transform="matrix(1 0 0 1 -3.016406e-05 3.5002)" class="st13 st4 st3">A06c</text>
</g>
<g transform="translate(470.4164,323.1757)">
	<text transform="matrix(1 0 0 1 -3.016406e-05 3.5001)" class="st14 st4 st3">A03x5</text>
</g>
<g transform="translate(470.4164,302.2027)">
	<text transform="matrix(1 0 0 1 -3.016406e-05 3.4999)" class="st14 st4 st3">A03a4</text>
</g>
<g transform="translate(470.4164,281.2297)">
	<text transform="matrix(1 0 0 1 -3.016406e-05 3.4998)" class="st14 st4 st3">A03x3</text>
</g>
<g transform="translate(470.4164,260.2567)">
	<text transform="matrix(1 0 0 1 -3.016406e-05 3.5001)" class="st14 st4 st3">A03x4</text>
</g>
<g transform="translate(470.4164,239.2838)">
	<text transform="matrix(1 0 0 1 -3.016406e-05 3.4999)" class="st15 st4 st3">A02e</text>
</g>
<g transform="translate(470.4164,218.3108)">
	<text transform="matrix(1 0 0 1 -3.016406e-05 3.5002)" class="st15 st4 st3">A02i</text>
</g>
<g transform="translate(470.4164,197.3378)">
	<text transform="matrix(1 0 0 1 -3.016406e-05 3.5001)" class="st15 st4 st3">A02j</text>
</g>
<g transform="translate(470.4164,176.3649)">
	<text transform="matrix(1 0 0 1 -3.016406e-05 3.4998)" class="st15 st4 st3">A02g</text>
</g>
<g transform="translate(470.4164,155.3919)">
	<text transform="matrix(1 0 0 1 -3.016406e-05 3.5002)" class="st15 st4 st3">A02h</text>
</g>
<g transform="translate(470.4164,134.4189)">
	<text transform="matrix(1 0 0 1 -3.016406e-05 3.5)" class="st15 st4 st3">A02f</text>
</g>
<g transform="translate(470.4164,113.4459)">
	<text transform="matrix(1 0 0 1 -3.016406e-05 3.4999)" class="st14 st4 st3">A03x1</text>
</g>
<g transform="translate(470.4164,92.473)">
	<text transform="matrix(1 0 0 1 -3.016406e-05 3.5001)" class="st14 st4 st3">A03x2</text>
</g>
<g transform="matrix(0.5,0,0,0.5,548,71.5)">
	<g>
		<defs>
			<rect id="SVGID_1_" x="441.5" y="388" width="883" height="776"/>
		</defs>
		<clipPath id="SVGID_2_">
			<use xlink:href="#SVGID_1_"  style="overflow:visible;"/>
		</clipPath>
		
			<image style="overflow:visible;clip-path:url(#SVGID_2_);enable-background:new    ;" width="1766" height="1552" xlink:href="8B167F9C7ACACDB6.png" >
		</image>
	</g>
</g>
<g>
	<line class="st0" x1="1439" y1="847.5" x2="1455" y2="847.5"/>
	<line class="st0" x1="1439" y1="71.5" x2="1455" y2="71.5"/>
	<line class="st0" x1="1439" y1="847.5" x2="1439" y2="71.5"/>
	<line class="st0" x1="1455" y1="847.5" x2="1455" y2="71.5"/>
</g>
<g transform="matrix(0.5,0,0,0.5,1439,71.5)">
	<g>
		<defs>
			<rect id="SVGID_3_" x="8" y="388" width="16" height="776"/>
		</defs>
		<clipPath id="SVGID_4_">
			<use xlink:href="#SVGID_3_"  style="overflow:visible;"/>
		</clipPath>
		
			<image style="overflow:visible;clip-path:url(#SVGID_4_);enable-background:new    ;" width="32" height="1552" xlink:href="8B167F9C7ACACDBA.png" >
		</image>
	</g>
</g>
<g>
	<line class="st0" x1="1455" y1="847.5" x2="1455" y2="71.5"/>
	<line class="st0" x1="1455" y1="769.9" x2="1447.2" y2="769.9"/>
	<line class="st0" x1="1455" y1="692.3" x2="1447.2" y2="692.3"/>
	<line class="st0" x1="1455" y1="614.7" x2="1447.2" y2="614.7"/>
	<line class="st0" x1="1455" y1="537.1" x2="1447.2" y2="537.1"/>
	<line class="st0" x1="1455" y1="459.5" x2="1447.2" y2="459.5"/>
	<line class="st0" x1="1455" y1="381.9" x2="1447.2" y2="381.9"/>
	<line class="st0" x1="1455" y1="304.3" x2="1447.2" y2="304.3"/>
	<line class="st0" x1="1455" y1="226.7" x2="1447.2" y2="226.7"/>
	<line class="st0" x1="1455" y1="149.1" x2="1447.2" y2="149.1"/>
	<line class="st0" x1="1455" y1="71.5" x2="1447.2" y2="71.5"/>
</g>
<g transform="translate(1460.6,769.9)">
	<text transform="matrix(1 0 0 1 1.216563e-04 6.9999)" class="st1 st2 st3">0.1</text>
</g>
<g transform="translate(1460.6,692.3)">
	<text transform="matrix(1 0 0 1 1.216563e-04 6.9998)" class="st1 st2 st3">0.2</text>
</g>
<g transform="translate(1460.6,614.7)">
	<text transform="matrix(1 0 0 1 1.216563e-04 7.0002)" class="st1 st2 st3">0.3</text>
</g>
<g transform="translate(1460.6,537.1)">
	<text transform="matrix(1 0 0 1 1.216563e-04 7.0001)" class="st1 st2 st3">0.4</text>
</g>
<g transform="translate(1460.6,459.5)">
	<text transform="matrix(1 0 0 1 1.216563e-04 7)" class="st1 st2 st3">0.5</text>
</g>
<g transform="translate(1460.6,381.9)">
	<text transform="matrix(1 0 0 1 1.216563e-04 6.9999)" class="st1 st2 st3">0.6</text>
</g>
<g transform="translate(1460.6,304.3)">
	<text transform="matrix(1 0 0 1 1.216563e-04 6.9998)" class="st1 st2 st3">0.7</text>
</g>
<g transform="translate(1460.6,226.7)">
	<text transform="matrix(1 0 0 1 1.216563e-04 7.0002)" class="st1 st2 st3">0.8</text>
</g>
<g transform="translate(1460.6,149.1)">
	<text transform="matrix(1 0 0 1 1.216563e-04 7.0001)" class="st1 st2 st3">0.9</text>
</g>
<g transform="translate(1460.6,71.5)">
	<text transform="matrix(1 0 0 1 1.216563e-04 7)" class="st1 st2 st3">1</text>
</g>
<g transform="translate(1489.1,459.4996) rotate(-90)">
	<text transform="matrix(1 0 0 1 -122.352 33.4675)" class="st1 st2 st3">Synapse Similarity Score</text>
</g>
<g>
	<line class="st0" x1="1439" y1="71.5" x2="1455" y2="71.5"/>
	<line class="st0" x1="1439" y1="847.5" x2="1455" y2="847.5"/>
	<line class="st0" x1="1439" y1="847.5" x2="1439" y2="71.5"/>
	<line class="st0" x1="1455" y1="847.5" x2="1455" y2="71.5"/>
	<line class="st16" x1="1439" y1="847.5" x2="1439" y2="847.5"/>
	<line class="st16" x1="1439" y1="71.5" x2="1439" y2="71.5"/>
	<line class="st16" x1="1455" y1="847.5" x2="1455" y2="847.5"/>
	<line class="st16" x1="1455" y1="71.5" x2="1455" y2="71.5"/>
</g>
</svg>
