<?xml version="1.0" encoding="utf-8"?>
<!-- Generator: Adobe Illustrator 22.1.0, SVG Export Plug-In . SVG Version: 6.00 Build 0)  -->
<svg version="1.1" id="Layer_1" xmlns="http://www.w3.org/2000/svg" xmlns:xlink="http://www.w3.org/1999/xlink" x="0px" y="0px"
	 viewBox="0 0 787 618" style="enable-background:new 0 0 787 618;" xml:space="preserve">
<style type="text/css">
	.st0{fill:#262626;}
	.st1{font-family:'HelveticaNeue-Roman';}
	.st2{font-size:18px;}
	.st3{fill:none;stroke:#262626;stroke-width:0.5;stroke-linecap:square;stroke-linejoin:round;stroke-miterlimit:10;}
	.st4{font-size:19.8px;}
	.st5{fill:none;stroke:#262626;stroke-width:0.4075;stroke-linejoin:round;stroke-miterlimit:10;}
	.st6{fill:none;stroke:#000000;stroke-width:0.5;stroke-miterlimit:10;}
	.st7{fill:none;stroke:#000000;stroke-width:0.5;stroke-linejoin:round;stroke-miterlimit:10;}
	.st8{fill:none;stroke:#000000;stroke-miterlimit:10;}
	.st9{fill:#FF00FF;}
	.st10{fill:#FF0000;}
	.st11{fill:#00FFFF;}
</style>
<g transform="translate(189.5714,555.6)">
	<text transform="matrix(0.7071 -0.7071 0.7071 0.7071 62.6522 24.562)" class="st0 st1 st2">Random</text>
</g>
<g transform="translate(334.6905,555.6)">
	<text transform="matrix(0.7071 -0.7071 0.7071 0.7071 -11.9053 28.5576)" class="st0 st1 st2">Temporal</text>
</g>
<g transform="translate(479.8095,555.6)">
	<text transform="matrix(0.7071 -0.7071 0.7071 0.7071 -93.4184 46.4653)" class="st0 st1 st2">Hemilineage</text>
</g>
<g transform="translate(624.9286,555.6)">
	<text transform="matrix(0.7071 -0.7071 0.7071 0.7071 -178.3558 71.2207)" class="st0 st1 st2">Temporal Cohort</text>
</g>
<g>
	<line class="st3" x1="607.1" y1="518.9" x2="607.1" y2="15.4"/>
	<line class="st3" x1="607.1" y1="518.9" x2="601" y2="518.9"/>
	<line class="st3" x1="607.1" y1="456" x2="601" y2="456"/>
	<line class="st3" x1="607.1" y1="393" x2="601" y2="393"/>
	<line class="st3" x1="607.1" y1="330.1" x2="601" y2="330.1"/>
	<line class="st3" x1="607.1" y1="267.2" x2="601" y2="267.2"/>
	<line class="st3" x1="607.1" y1="204.2" x2="601" y2="204.2"/>
	<line class="st3" x1="607.1" y1="141.3" x2="601" y2="141.3"/>
	<line class="st3" x1="607.1" y1="78.3" x2="601" y2="78.3"/>
	<line class="st3" x1="607.1" y1="15.4" x2="601" y2="15.4"/>
</g>
<g transform="translate(717.6,550)">
	<text transform="matrix(1 0 0 1 -104.865 -24.0961)" class="st0 st1 st2">0</text>
</g>
<g transform="translate(717.6,487.0625)">
	<text transform="matrix(1 0 0 1 -104.865 -24.0961)" class="st0 st1 st2">0.05</text>
</g>
<g transform="translate(717.6,424.125)">
	<text transform="matrix(1 0 0 1 -104.865 -24.0961)" class="st0 st1 st2">0.1</text>
</g>
<g transform="translate(717.6,361.1875)">
	<text transform="matrix(1 0 0 1 -104.865 -24.0961)" class="st0 st1 st2">0.15</text>
</g>
<g transform="translate(717.6,298.25)">
	<text transform="matrix(1 0 0 1 -104.865 -24.0961)" class="st0 st1 st2">0.2</text>
</g>
<g transform="translate(717.6,235.3125)">
	<text transform="matrix(1 0 0 1 -104.865 -24.0961)" class="st0 st1 st2">0.25</text>
</g>
<g transform="translate(717.6,172.375)">
	<text transform="matrix(1 0 0 1 -104.865 -24.0961)" class="st0 st1 st2">0.3</text>
</g>
<g transform="translate(717.6,109.4375)">
	<text transform="matrix(1 0 0 1 -104.865 -24.0961)" class="st0 st1 st2">0.35</text>
</g>
<g transform="translate(717.6,46.5)">
	<text transform="matrix(1 0 0 1 -104.865 -24.0961)" class="st0 st1 st2">0.4</text>
</g>
<g transform="translate(756.1,298.2498) rotate(-90)">
	<text transform="matrix(1 0 0 1 -77.9045 -85.865)" class="st0 st1 st4">Mean Synapse Similarity</text>
</g>
<g>
	<line class="st5" x1="202.3" y1="518.9" x2="607.1" y2="518.9"/>
</g>
<g>
	<g>
		<path d="M331.4,518.9V309h-58v209.9H331.4z"/>
	</g>
	<g>
		<path class="st6" d="M273.4,518.9V309h58v209.9H273.4z"/>
		<line class="st7" x1="302.4" y1="309" x2="302.4" y2="346.9"/>
		<line class="st7" x1="302.4" y1="309" x2="302.4" y2="271"/>
	</g>
	<g transform="translate(189.5714,378.0452)">
		<path d="M109.8-31.1h6"/>
	</g>
	<g transform="translate(189.5714,378.0452)">
		<path class="st8" d="M109.8-31.1h6"/>
	</g>
	<g transform="translate(189.5714,302.1341)">
		<path d="M109.8-31.1h6"/>
	</g>
	<g transform="translate(189.5714,302.1341)">
		<path class="st8" d="M109.8-31.1h6"/>
	</g>
</g>
<g>
	<g>
		<path class="st9" d="M404,518.9v-224h-58v224H404z"/>
	</g>
	<g>
		<path class="st6" d="M345.9,518.9v-224h58v224H345.9z"/>
		<line class="st7" x1="374.9" y1="294.9" x2="374.9" y2="338.8"/>
		<line class="st7" x1="374.9" y1="294.9" x2="374.9" y2="251"/>
	</g>
	<g transform="translate(262.131,369.8748)">
		<path d="M109.8-31.1h6"/>
	</g>
	<g transform="translate(262.131,369.8748)">
		<path class="st8" d="M109.8-31.1h6"/>
	</g>
	<g transform="translate(262.131,282.0965)">
		<path d="M109.8-31.1h6"/>
	</g>
	<g transform="translate(262.131,282.0965)">
		<path class="st8" d="M109.8-31.1h6"/>
	</g>
</g>
<g>
	<g>
		<path class="st10" d="M476.5,518.9V167h-58v351.9H476.5z"/>
	</g>
	<g>
		<path class="st6" d="M418.5,518.9V167h58v351.9H418.5z"/>
		<line class="st7" x1="447.5" y1="167" x2="447.5" y2="214.7"/>
		<line class="st7" x1="447.5" y1="167" x2="447.5" y2="119.4"/>
	</g>
	<g transform="translate(407.25,245.8256)">
		<path d="M37.3-31.1h6"/>
	</g>
	<g transform="translate(407.25,245.8256)">
		<path class="st8" d="M37.3-31.1h6"/>
	</g>
	<g transform="translate(407.25,150.46)">
		<path d="M37.3-31.1h6"/>
	</g>
	<g transform="translate(407.25,150.46)">
		<path class="st8" d="M37.3-31.1h6"/>
	</g>
</g>
<g>
	<g>
		<path class="st11" d="M549.1,518.9V98.7h-58v420.2H549.1z"/>
	</g>
	<g>
		<path class="st6" d="M491,518.9V98.7h58v420.2H491z"/>
		<line class="st7" x1="520.1" y1="98.7" x2="520.1" y2="153.2"/>
		<line class="st7" x1="520.1" y1="98.7" x2="520.1" y2="44.2"/>
	</g>
	<g transform="translate(552.369,184.2516)">
		<path d="M-35.3-31.1h6"/>
	</g>
	<g transform="translate(552.369,184.2516)">
		<path class="st8" d="M-35.3-31.1h6"/>
	</g>
	<g transform="translate(552.369,75.3319)">
		<path d="M-35.3-31.1h6"/>
	</g>
	<g transform="translate(552.369,75.3319)">
		<path class="st8" d="M-35.3-31.1h6"/>
	</g>
</g>
</svg>
