<?xml version="1.0" encoding="utf-8"?>
<!-- Generator: Adobe Illustrator 22.1.0, SVG Export Plug-In . SVG Version: 6.00 Build 0)  -->
<svg version="1.1" id="Layer_1" xmlns="http://www.w3.org/2000/svg" xmlns:xlink="http://www.w3.org/1999/xlink" x="0px" y="0px"
	 viewBox="0 0 1425 1050" style="enable-background:new 0 0 1425 1050;" xml:space="preserve">
<style type="text/css">
	.st0{font-family:'HelveticaNeue-Bold';}
	.st1{font-size:17.1535px;}
	.st2{fill:#FF0000;}
	.st3{font-family:'HelveticaNeue-Roman';}
	.st4{font-size:8.6634px;}
	.st5{fill:#FFBF00;}
	.st6{fill:#00FF40;}
	.st7{fill:#0099FF;}
	.st8{fill:#4D00FF;}
	.st9{fill:none;stroke:#262626;stroke-width:0.4332;stroke-linecap:square;stroke-linejoin:round;stroke-miterlimit:10;}
	.st10{fill:#FFFFFF;}
	.st11{fill:#80FF00;}
	.st12{fill:#FF00FF;}
	.st13{fill:none;stroke:#262626;stroke-width:0.4524;stroke-linecap:square;stroke-linejoin:round;stroke-miterlimit:10;}
	.st14{fill:#262626;}
	.st15{font-size:14.0347px;}
	.st16{fill:none;stroke:#333333;stroke-width:0.4332;stroke-linecap:square;stroke-linejoin:round;stroke-miterlimit:10;}
</style>
<g transform="translate(423.7504,76.3558)">
	<text transform="matrix(1 0 0 1 -118 -4)" class="st0 st1">Dorsal Presynaptic Similarity</text>
</g>
<g transform="matrix(0.5,0,0,0.5,185.5,78.5)">
	<g>
		<defs>
			<rect id="SVGID_1_" x="238.2" y="179.2" width="476.5" height="358.5"/>
		</defs>
		<clipPath id="SVGID_2_">
			<use xlink:href="#SVGID_1_"  style="overflow:visible;"/>
		</clipPath>
		
			<image style="overflow:visible;clip-path:url(#SVGID_2_);enable-background:new    ;" width="953" height="717" xlink:href="37298732A1532E11.png" >
		</image>
	</g>
</g>
<g transform="translate(152.4097,432.0208)">
	<text transform="matrix(1 0 0 1 0 3.5)" class="st2 st3 st4">A01a</text>
</g>
<g transform="translate(152.4097,422.0625)">
	<text transform="matrix(1 0 0 1 0 3.5)" class="st2 st3 st4">A01a2</text>
</g>
<g transform="translate(152.4097,412.1042)">
	<text transform="matrix(1 0 0 1 0 3.5)" class="st2 st3 st4">A01b2</text>
</g>
<g transform="translate(152.4097,402.1458)">
	<text transform="matrix(1 0 0 1 0 3.5)" class="st2 st3 st4">A01c1</text>
</g>
<g transform="translate(152.4097,392.1875)">
	<text transform="matrix(1 0 0 1 0 3.5)" class="st2 st3 st4">A01c2</text>
</g>
<g transform="translate(152.4097,382.2292)">
	<text transform="matrix(1 0 0 1 0 3.5)" class="st2 st3 st4">A01d1</text>
</g>
<g transform="translate(152.4097,372.2708)">
	<text transform="matrix(1 0 0 1 0 3.5)" class="st2 st3 st4">A01d2</text>
</g>
<g transform="translate(152.4097,362.3125)">
	<text transform="matrix(1 0 0 1 0 3.5)" class="st2 st3 st4">A01d3</text>
</g>
<g transform="translate(152.4097,352.3542)">
	<text transform="matrix(1 0 0 1 0 3.5)" class="st2 st3 st4">A01d4</text>
</g>
<g transform="translate(152.4097,342.3958)">
	<text transform="matrix(1 0 0 1 0 3.5)" class="st2 st3 st4">A01j</text>
</g>
<g transform="translate(152.4097,332.4375)">
	<text transform="matrix(1 0 0 1 0 3.5)" class="st5 st3 st4">A02e</text>
</g>
<g transform="translate(152.4097,322.4792)">
	<text transform="matrix(1 0 0 1 0 3.5)" class="st5 st3 st4">A02f</text>
</g>
<g transform="translate(152.4097,312.5208)">
	<text transform="matrix(1 0 0 1 0 3.5)" class="st5 st3 st4">A02g</text>
</g>
<g transform="translate(152.4097,302.5625)">
	<text transform="matrix(1 0 0 1 0 3.5)" class="st5 st3 st4">A02h</text>
</g>
<g transform="translate(152.4097,292.6042)">
	<text transform="matrix(1 0 0 1 0 3.5)" class="st5 st3 st4">A02i</text>
</g>
<g transform="translate(152.4097,282.6458)">
	<text transform="matrix(1 0 0 1 0 3.5)" class="st5 st3 st4">A02j</text>
</g>
<g transform="translate(152.4097,272.6875)">
	<text transform="matrix(1 0 0 1 0 3.5)" class="st6 st3 st4">A14a1</text>
</g>
<g transform="translate(152.4097,262.7292)">
	<text transform="matrix(1 0 0 1 0 3.5)" class="st6 st3 st4">A14a2</text>
</g>
<g transform="translate(152.4097,252.7708)">
	<text transform="matrix(1 0 0 1 0 3.5)" class="st6 st3 st4">A14a3</text>
</g>
<g transform="translate(152.4097,242.8125)">
	<text transform="matrix(1 0 0 1 0 3.5)" class="st6 st3 st4">A14b</text>
</g>
<g transform="translate(152.4097,232.8542)">
	<text transform="matrix(1 0 0 1 0 3.5)" class="st7 st3 st4">A06a</text>
</g>
<g transform="translate(152.4097,222.8958)">
	<text transform="matrix(1 0 0 1 0 3.5)" class="st7 st3 st4">A06b</text>
</g>
<g transform="translate(152.4097,212.9375)">
	<text transform="matrix(1 0 0 1 0 3.5)" class="st7 st3 st4">A06b2</text>
</g>
<g transform="translate(152.4097,202.9792)">
	<text transform="matrix(1 0 0 1 0 3.5)" class="st7 st3 st4">A06c</text>
</g>
<g transform="translate(152.4097,193.0208)">
	<text transform="matrix(1 0 0 1 0 3.5)" class="st7 st3 st4">A06e</text>
</g>
<g transform="translate(152.4097,183.0625)">
	<text transform="matrix(1 0 0 1 0 3.5)" class="st7 st3 st4">A06f</text>
</g>
<g transform="translate(152.4097,173.1042)">
	<text transform="matrix(1 0 0 1 0 3.5)" class="st7 st3 st4">A06g</text>
</g>
<g transform="translate(152.4097,163.1458)">
	<text transform="matrix(1 0 0 1 0 3.5)" class="st7 st3 st4">A06g2</text>
</g>
<g transform="translate(152.4097,153.1875)">
	<text transform="matrix(1 0 0 1 0 3.5)" class="st7 st3 st4">A06h</text>
</g>
<g transform="translate(152.4097,143.2292)">
	<text transform="matrix(1 0 0 1 0 3.5)" class="st7 st3 st4">A06l</text>
</g>
<g transform="translate(152.4097,133.2708)">
	<text transform="matrix(1 0 0 1 0 3.5)" class="st8 st3 st4">A03a4</text>
</g>
<g transform="translate(152.4097,123.3125)">
	<text transform="matrix(1 0 0 1 0 3.5)" class="st8 st3 st4">A03x1</text>
</g>
<g transform="translate(152.4097,113.3542)">
	<text transform="matrix(1 0 0 1 0 3.5)" class="st8 st3 st4">A03x2</text>
</g>
<g transform="translate(152.4097,103.3958)">
	<text transform="matrix(1 0 0 1 0 3.5)" class="st8 st3 st4">A03x3</text>
</g>
<g transform="translate(152.4097,93.4375)">
	<text transform="matrix(1 0 0 1 0 3.5)" class="st8 st3 st4">A03x4</text>
</g>
<g transform="translate(152.4097,83.4792)">
	<text transform="matrix(1 0 0 1 0 3.5)" class="st8 st3 st4">A03x5</text>
</g>
<g>
	<line class="st9" x1="185.5" y1="437" x2="662" y2="437"/>
	<line class="st9" x1="185.5" y1="78.5" x2="662" y2="78.5"/>
	<line class="st9" x1="185.5" y1="437" x2="185.5" y2="78.5"/>
	<line class="st9" x1="662" y1="437" x2="662" y2="78.5"/>
	<line class="st9" x1="185.5" y1="432" x2="190.3" y2="432"/>
	<line class="st9" x1="185.5" y1="422.1" x2="190.3" y2="422.1"/>
	<line class="st9" x1="185.5" y1="412.1" x2="190.3" y2="412.1"/>
	<line class="st9" x1="185.5" y1="402.1" x2="190.3" y2="402.1"/>
	<line class="st9" x1="185.5" y1="392.2" x2="190.3" y2="392.2"/>
	<line class="st9" x1="185.5" y1="382.2" x2="190.3" y2="382.2"/>
	<line class="st9" x1="185.5" y1="372.3" x2="190.3" y2="372.3"/>
	<line class="st9" x1="185.5" y1="362.3" x2="190.3" y2="362.3"/>
	<line class="st9" x1="185.5" y1="352.4" x2="190.3" y2="352.4"/>
	<line class="st9" x1="185.5" y1="342.4" x2="190.3" y2="342.4"/>
	<line class="st9" x1="185.5" y1="332.4" x2="190.3" y2="332.4"/>
	<line class="st9" x1="185.5" y1="322.5" x2="190.3" y2="322.5"/>
	<line class="st9" x1="185.5" y1="312.5" x2="190.3" y2="312.5"/>
	<line class="st9" x1="185.5" y1="302.6" x2="190.3" y2="302.6"/>
	<line class="st9" x1="185.5" y1="292.6" x2="190.3" y2="292.6"/>
	<line class="st9" x1="185.5" y1="282.6" x2="190.3" y2="282.6"/>
	<line class="st9" x1="185.5" y1="272.7" x2="190.3" y2="272.7"/>
	<line class="st9" x1="185.5" y1="262.7" x2="190.3" y2="262.7"/>
	<line class="st9" x1="185.5" y1="252.8" x2="190.3" y2="252.8"/>
	<line class="st9" x1="185.5" y1="242.8" x2="190.3" y2="242.8"/>
	<line class="st9" x1="185.5" y1="232.9" x2="190.3" y2="232.9"/>
	<line class="st9" x1="185.5" y1="222.9" x2="190.3" y2="222.9"/>
	<line class="st9" x1="185.5" y1="212.9" x2="190.3" y2="212.9"/>
	<line class="st9" x1="185.5" y1="203" x2="190.3" y2="203"/>
	<line class="st9" x1="185.5" y1="193" x2="190.3" y2="193"/>
	<line class="st9" x1="185.5" y1="183.1" x2="190.3" y2="183.1"/>
	<line class="st9" x1="185.5" y1="173.1" x2="190.3" y2="173.1"/>
	<line class="st9" x1="185.5" y1="163.1" x2="190.3" y2="163.1"/>
	<line class="st9" x1="185.5" y1="153.2" x2="190.3" y2="153.2"/>
	<line class="st9" x1="185.5" y1="143.2" x2="190.3" y2="143.2"/>
	<line class="st9" x1="185.5" y1="133.3" x2="190.3" y2="133.3"/>
	<line class="st9" x1="185.5" y1="123.3" x2="190.3" y2="123.3"/>
	<line class="st9" x1="185.5" y1="113.4" x2="190.3" y2="113.4"/>
	<line class="st9" x1="185.5" y1="103.4" x2="190.3" y2="103.4"/>
	<line class="st9" x1="185.5" y1="93.4" x2="190.3" y2="93.4"/>
	<line class="st9" x1="185.5" y1="83.5" x2="190.3" y2="83.5"/>
	<line class="st9" x1="662" y1="432" x2="657.2" y2="432"/>
	<line class="st9" x1="662" y1="422.1" x2="657.2" y2="422.1"/>
	<line class="st9" x1="662" y1="412.1" x2="657.2" y2="412.1"/>
	<line class="st9" x1="662" y1="402.1" x2="657.2" y2="402.1"/>
	<line class="st9" x1="662" y1="392.2" x2="657.2" y2="392.2"/>
	<line class="st9" x1="662" y1="382.2" x2="657.2" y2="382.2"/>
	<line class="st9" x1="662" y1="372.3" x2="657.2" y2="372.3"/>
	<line class="st9" x1="662" y1="362.3" x2="657.2" y2="362.3"/>
	<line class="st9" x1="662" y1="352.4" x2="657.2" y2="352.4"/>
	<line class="st9" x1="662" y1="342.4" x2="657.2" y2="342.4"/>
	<line class="st9" x1="662" y1="332.4" x2="657.2" y2="332.4"/>
	<line class="st9" x1="662" y1="322.5" x2="657.2" y2="322.5"/>
	<line class="st9" x1="662" y1="312.5" x2="657.2" y2="312.5"/>
	<line class="st9" x1="662" y1="302.6" x2="657.2" y2="302.6"/>
	<line class="st9" x1="662" y1="292.6" x2="657.2" y2="292.6"/>
	<line class="st9" x1="662" y1="282.6" x2="657.2" y2="282.6"/>
	<line class="st9" x1="662" y1="272.7" x2="657.2" y2="272.7"/>
	<line class="st9" x1="662" y1="262.7" x2="657.2" y2="262.7"/>
	<line class="st9" x1="662" y1="252.8" x2="657.2" y2="252.8"/>
	<line class="st9" x1="662" y1="242.8" x2="657.2" y2="242.8"/>
	<line class="st9" x1="662" y1="232.9" x2="657.2" y2="232.9"/>
	<line class="st9" x1="662" y1="222.9" x2="657.2" y2="222.9"/>
	<line class="st9" x1="662" y1="212.9" x2="657.2" y2="212.9"/>
	<line class="st9" x1="662" y1="203" x2="657.2" y2="203"/>
	<line class="st9" x1="662" y1="193" x2="657.2" y2="193"/>
	<line class="st9" x1="662" y1="183.1" x2="657.2" y2="183.1"/>
	<line class="st9" x1="662" y1="173.1" x2="657.2" y2="173.1"/>
	<line class="st9" x1="662" y1="163.1" x2="657.2" y2="163.1"/>
	<line class="st9" x1="662" y1="153.2" x2="657.2" y2="153.2"/>
	<line class="st9" x1="662" y1="143.2" x2="657.2" y2="143.2"/>
	<line class="st9" x1="662" y1="133.3" x2="657.2" y2="133.3"/>
	<line class="st9" x1="662" y1="123.3" x2="657.2" y2="123.3"/>
	<line class="st9" x1="662" y1="113.4" x2="657.2" y2="113.4"/>
	<line class="st9" x1="662" y1="103.4" x2="657.2" y2="103.4"/>
	<line class="st9" x1="662" y1="93.4" x2="657.2" y2="93.4"/>
	<line class="st9" x1="662" y1="83.5" x2="657.2" y2="83.5"/>
</g>
<g>
	<path class="st10" d="M734.5,437h477V78.5h-477V437z"/>
</g>
<g transform="translate(1051.001,76.3558)">
	<text transform="matrix(1 0 0 1 -200.5 -4)" class="st0 st1">Dorsal Postsynaptic Similarity</text>
</g>
<g transform="matrix(0.5,0,0,0.5,812.5,78.5)">
	<g>
		<defs>
			<rect id="SVGID_3_" x="82.5" y="179.2" width="477" height="358.5"/>
		</defs>
		<clipPath id="SVGID_4_">
			<use xlink:href="#SVGID_3_"  style="overflow:visible;"/>
		</clipPath>
		<g style="clip-path:url(#SVGID_4_);enable-background:new    ;">
			
				<image style="overflow:visible;" width="954" height="717" xlink:href="37298732A1532E13.jpg"  transform="matrix(1 0 0 1 -156 0)">
			</image>
		</g>
	</g>
</g>
<g transform="translate(779.375,432.0208)">
	<text transform="matrix(1 0 0 1 -78 3.5)" class="st2 st3 st4">A01a</text>
</g>
<g transform="translate(779.375,422.0625)">
	<text transform="matrix(1 0 0 1 -78 3.5)" class="st2 st3 st4">A01a2</text>
</g>
<g transform="translate(779.375,412.1042)">
	<text transform="matrix(1 0 0 1 -78 3.5)" class="st2 st3 st4">A01b2</text>
</g>
<g transform="translate(779.375,402.1458)">
	<text transform="matrix(1 0 0 1 -78 3.5)" class="st2 st3 st4">A01c1</text>
</g>
<g transform="translate(779.375,392.1875)">
	<text transform="matrix(1 0 0 1 -78 3.5)" class="st2 st3 st4">A01c2</text>
</g>
<g transform="translate(779.375,382.2292)">
	<text transform="matrix(1 0 0 1 -78 3.5)" class="st2 st3 st4">A01d1</text>
</g>
<g transform="translate(779.375,372.2708)">
	<text transform="matrix(1 0 0 1 -78 3.5)" class="st2 st3 st4">A01d2</text>
</g>
<g transform="translate(779.375,362.3125)">
	<text transform="matrix(1 0 0 1 -78 3.5)" class="st2 st3 st4">A01d3</text>
</g>
<g transform="translate(779.375,352.3542)">
	<text transform="matrix(1 0 0 1 -78 3.5)" class="st2 st3 st4">A01d4</text>
</g>
<g transform="translate(779.375,342.3958)">
	<text transform="matrix(1 0 0 1 -78 3.5)" class="st2 st3 st4">A01j</text>
</g>
<g transform="translate(779.375,332.4375)">
	<text transform="matrix(1 0 0 1 -78 3.5)" class="st5 st3 st4">A02e</text>
</g>
<g transform="translate(779.375,322.4792)">
	<text transform="matrix(1 0 0 1 -78 3.5)" class="st5 st3 st4">A02f</text>
</g>
<g transform="translate(779.375,312.5208)">
	<text transform="matrix(1 0 0 1 -78 3.5)" class="st5 st3 st4">A02g</text>
</g>
<g transform="translate(779.375,302.5625)">
	<text transform="matrix(1 0 0 1 -78 3.5)" class="st5 st3 st4">A02h</text>
</g>
<g transform="translate(779.375,292.6042)">
	<text transform="matrix(1 0 0 1 -78 3.5)" class="st5 st3 st4">A02i</text>
</g>
<g transform="translate(779.375,282.6458)">
	<text transform="matrix(1 0 0 1 -78 3.5)" class="st5 st3 st4">A02j</text>
</g>
<g transform="translate(779.375,272.6875)">
	<text transform="matrix(1 0 0 1 -78 3.5)" class="st6 st3 st4">A14a1</text>
</g>
<g transform="translate(779.375,262.7292)">
	<text transform="matrix(1 0 0 1 -78 3.5)" class="st6 st3 st4">A14a2</text>
</g>
<g transform="translate(779.375,252.7708)">
	<text transform="matrix(1 0 0 1 -78 3.5)" class="st6 st3 st4">A14a3</text>
</g>
<g transform="translate(779.375,242.8125)">
	<text transform="matrix(1 0 0 1 -78 3.5)" class="st6 st3 st4">A14b</text>
</g>
<g transform="translate(779.375,232.8542)">
	<text transform="matrix(1 0 0 1 -78 3.5)" class="st7 st3 st4">A06a</text>
</g>
<g transform="translate(779.375,222.8958)">
	<text transform="matrix(1 0 0 1 -78 3.5)" class="st7 st3 st4">A06b</text>
</g>
<g transform="translate(779.375,212.9375)">
	<text transform="matrix(1 0 0 1 -78 3.5)" class="st7 st3 st4">A06b2</text>
</g>
<g transform="translate(779.375,202.9792)">
	<text transform="matrix(1 0 0 1 -78 3.5)" class="st7 st3 st4">A06c</text>
</g>
<g transform="translate(779.375,193.0208)">
	<text transform="matrix(1 0 0 1 -78 3.5)" class="st7 st3 st4">A06e</text>
</g>
<g transform="translate(779.375,183.0625)">
	<text transform="matrix(1 0 0 1 -78 3.5)" class="st7 st3 st4">A06f</text>
</g>
<g transform="translate(779.375,173.1042)">
	<text transform="matrix(1 0 0 1 -78 3.5)" class="st7 st3 st4">A06g</text>
</g>
<g transform="translate(779.375,163.1458)">
	<text transform="matrix(1 0 0 1 -78 3.5)" class="st7 st3 st4">A06g2</text>
</g>
<g transform="translate(779.375,153.1875)">
	<text transform="matrix(1 0 0 1 -78 3.5)" class="st7 st3 st4">A06h</text>
</g>
<g transform="translate(779.375,143.2292)">
	<text transform="matrix(1 0 0 1 -78 3.5)" class="st7 st3 st4">A06l</text>
</g>
<g transform="translate(779.375,133.2708)">
	<text transform="matrix(1 0 0 1 -78 3.5)" class="st8 st3 st4">A03a4</text>
</g>
<g transform="translate(779.375,123.3125)">
	<text transform="matrix(1 0 0 1 -78 3.5)" class="st8 st3 st4">A03x1</text>
</g>
<g transform="translate(779.375,113.3542)">
	<text transform="matrix(1 0 0 1 -78 3.5)" class="st8 st3 st4">A03x2</text>
</g>
<g transform="translate(779.375,103.3958)">
	<text transform="matrix(1 0 0 1 -78 3.5)" class="st8 st3 st4">A03x3</text>
</g>
<g transform="translate(779.375,93.4375)">
	<text transform="matrix(1 0 0 1 -78 3.5)" class="st8 st3 st4">A03x4</text>
</g>
<g transform="translate(779.375,83.4792)">
	<text transform="matrix(1 0 0 1 -78 3.5)" class="st8 st3 st4">A03x5</text>
</g>
<g>
	<line class="st9" x1="734.5" y1="437" x2="1211.5" y2="437"/>
	<line class="st9" x1="734.5" y1="78.5" x2="1211.5" y2="78.5"/>
	<line class="st9" x1="734.5" y1="437" x2="734.5" y2="78.5"/>
	<line class="st9" x1="1211.5" y1="437" x2="1211.5" y2="78.5"/>
	<line class="st9" x1="734.5" y1="432" x2="739.3" y2="432"/>
	<line class="st9" x1="734.5" y1="422.1" x2="739.3" y2="422.1"/>
	<line class="st9" x1="734.5" y1="412.1" x2="739.3" y2="412.1"/>
	<line class="st9" x1="734.5" y1="402.1" x2="739.3" y2="402.1"/>
	<line class="st9" x1="734.5" y1="392.2" x2="739.3" y2="392.2"/>
	<line class="st9" x1="734.5" y1="382.2" x2="739.3" y2="382.2"/>
	<line class="st9" x1="734.5" y1="372.3" x2="739.3" y2="372.3"/>
	<line class="st9" x1="734.5" y1="362.3" x2="739.3" y2="362.3"/>
	<line class="st9" x1="734.5" y1="352.4" x2="739.3" y2="352.4"/>
	<line class="st9" x1="734.5" y1="342.4" x2="739.3" y2="342.4"/>
	<line class="st9" x1="734.5" y1="332.4" x2="739.3" y2="332.4"/>
	<line class="st9" x1="734.5" y1="322.5" x2="739.3" y2="322.5"/>
	<line class="st9" x1="734.5" y1="312.5" x2="739.3" y2="312.5"/>
	<line class="st9" x1="734.5" y1="302.6" x2="739.3" y2="302.6"/>
	<line class="st9" x1="734.5" y1="292.6" x2="739.3" y2="292.6"/>
	<line class="st9" x1="734.5" y1="282.6" x2="739.3" y2="282.6"/>
	<line class="st9" x1="734.5" y1="272.7" x2="739.3" y2="272.7"/>
	<line class="st9" x1="734.5" y1="262.7" x2="739.3" y2="262.7"/>
	<line class="st9" x1="734.5" y1="252.8" x2="739.3" y2="252.8"/>
	<line class="st9" x1="734.5" y1="242.8" x2="739.3" y2="242.8"/>
	<line class="st9" x1="734.5" y1="232.9" x2="739.3" y2="232.9"/>
	<line class="st9" x1="734.5" y1="222.9" x2="739.3" y2="222.9"/>
	<line class="st9" x1="734.5" y1="212.9" x2="739.3" y2="212.9"/>
	<line class="st9" x1="734.5" y1="203" x2="739.3" y2="203"/>
	<line class="st9" x1="734.5" y1="193" x2="739.3" y2="193"/>
	<line class="st9" x1="734.5" y1="183.1" x2="739.3" y2="183.1"/>
	<line class="st9" x1="734.5" y1="173.1" x2="739.3" y2="173.1"/>
	<line class="st9" x1="734.5" y1="163.1" x2="739.3" y2="163.1"/>
	<line class="st9" x1="734.5" y1="153.2" x2="739.3" y2="153.2"/>
	<line class="st9" x1="734.5" y1="143.2" x2="739.3" y2="143.2"/>
	<line class="st9" x1="734.5" y1="133.3" x2="739.3" y2="133.3"/>
	<line class="st9" x1="734.5" y1="123.3" x2="739.3" y2="123.3"/>
	<line class="st9" x1="734.5" y1="113.4" x2="739.3" y2="113.4"/>
	<line class="st9" x1="734.5" y1="103.4" x2="739.3" y2="103.4"/>
	<line class="st9" x1="734.5" y1="93.4" x2="739.3" y2="93.4"/>
	<line class="st9" x1="734.5" y1="83.5" x2="739.3" y2="83.5"/>
	<line class="st9" x1="1211.5" y1="432" x2="1206.7" y2="432"/>
	<line class="st9" x1="1211.5" y1="422.1" x2="1206.7" y2="422.1"/>
	<line class="st9" x1="1211.5" y1="412.1" x2="1206.7" y2="412.1"/>
	<line class="st9" x1="1211.5" y1="402.1" x2="1206.7" y2="402.1"/>
	<line class="st9" x1="1211.5" y1="392.2" x2="1206.7" y2="392.2"/>
	<line class="st9" x1="1211.5" y1="382.2" x2="1206.7" y2="382.2"/>
	<line class="st9" x1="1211.5" y1="372.3" x2="1206.7" y2="372.3"/>
	<line class="st9" x1="1211.5" y1="362.3" x2="1206.7" y2="362.3"/>
	<line class="st9" x1="1211.5" y1="352.4" x2="1206.7" y2="352.4"/>
	<line class="st9" x1="1211.5" y1="342.4" x2="1206.7" y2="342.4"/>
	<line class="st9" x1="1211.5" y1="332.4" x2="1206.7" y2="332.4"/>
	<line class="st9" x1="1211.5" y1="322.5" x2="1206.7" y2="322.5"/>
	<line class="st9" x1="1211.5" y1="312.5" x2="1206.7" y2="312.5"/>
	<line class="st9" x1="1211.5" y1="302.6" x2="1206.7" y2="302.6"/>
	<line class="st9" x1="1211.5" y1="292.6" x2="1206.7" y2="292.6"/>
	<line class="st9" x1="1211.5" y1="282.6" x2="1206.7" y2="282.6"/>
	<line class="st9" x1="1211.5" y1="272.7" x2="1206.7" y2="272.7"/>
	<line class="st9" x1="1211.5" y1="262.7" x2="1206.7" y2="262.7"/>
	<line class="st9" x1="1211.5" y1="252.8" x2="1206.7" y2="252.8"/>
	<line class="st9" x1="1211.5" y1="242.8" x2="1206.7" y2="242.8"/>
	<line class="st9" x1="1211.5" y1="232.9" x2="1206.7" y2="232.9"/>
	<line class="st9" x1="1211.5" y1="222.9" x2="1206.7" y2="222.9"/>
	<line class="st9" x1="1211.5" y1="212.9" x2="1206.7" y2="212.9"/>
	<line class="st9" x1="1211.5" y1="203" x2="1206.7" y2="203"/>
	<line class="st9" x1="1211.5" y1="193" x2="1206.7" y2="193"/>
	<line class="st9" x1="1211.5" y1="183.1" x2="1206.7" y2="183.1"/>
	<line class="st9" x1="1211.5" y1="173.1" x2="1206.7" y2="173.1"/>
	<line class="st9" x1="1211.5" y1="163.1" x2="1206.7" y2="163.1"/>
	<line class="st9" x1="1211.5" y1="153.2" x2="1206.7" y2="153.2"/>
	<line class="st9" x1="1211.5" y1="143.2" x2="1206.7" y2="143.2"/>
	<line class="st9" x1="1211.5" y1="133.3" x2="1206.7" y2="133.3"/>
	<line class="st9" x1="1211.5" y1="123.3" x2="1206.7" y2="123.3"/>
	<line class="st9" x1="1211.5" y1="113.4" x2="1206.7" y2="113.4"/>
	<line class="st9" x1="1211.5" y1="103.4" x2="1206.7" y2="103.4"/>
	<line class="st9" x1="1211.5" y1="93.4" x2="1206.7" y2="93.4"/>
	<line class="st9" x1="1211.5" y1="83.5" x2="1206.7" y2="83.5"/>
</g>
<g>
	<path class="st10" d="M185.5,934.5H662v-358H185.5V934.5z"/>
</g>
<g transform="translate(423.7504,574.3558)">
	<text transform="matrix(1 0 0 1 -120.5 -4)" class="st0 st1">Ventral Presynaptic Similarity</text>
</g>
<g transform="matrix(0.5,0,0,0.5,185.5,576.5)">
	<g>
		<defs>
			<rect id="SVGID_5_" x="238.2" y="179" width="476.5" height="358"/>
		</defs>
		<clipPath id="SVGID_6_">
			<use xlink:href="#SVGID_5_"  style="overflow:visible;"/>
		</clipPath>
		
			<image style="overflow:visible;clip-path:url(#SVGID_6_);enable-background:new    ;" width="953" height="716" xlink:href="37298732A1532E11.png" >
		</image>
	</g>
</g>
<g transform="translate(158.4261,930.4318)">
	<text transform="matrix(1 0 0 1 -1.557422e-05 3.5)" class="st2 st3 st4">A01r</text>
</g>
<g transform="translate(158.4261,922.2955)">
	<text transform="matrix(1 0 0 1 -1.557422e-05 3.5)" class="st2 st3 st4">A17i?</text>
</g>
<g transform="translate(158.4261,914.1591)">
	<text transform="matrix(1 0 0 1 -1.557422e-05 3.5)" class="st5 st3 st4">A02a</text>
</g>
<g transform="translate(158.4261,906.0227)">
	<text transform="matrix(1 0 0 1 -1.557422e-05 3.5)" class="st5 st3 st4">A02b</text>
</g>
<g transform="translate(158.4261,897.8864)">
	<text transform="matrix(1 0 0 1 -1.557422e-05 3.5)" class="st5 st3 st4">A02c</text>
</g>
<g transform="translate(158.4261,889.75)">
	<text transform="matrix(1 0 0 1 -1.557422e-05 3.5)" class="st5 st3 st4">A02d</text>
</g>
<g transform="translate(158.4261,881.6136)">
	<text transform="matrix(1 0 0 1 -1.557422e-05 3.5)" class="st5 st3 st4">A02k</text>
</g>
<g transform="translate(158.4261,873.4773)">
	<text transform="matrix(1 0 0 1 -1.557422e-05 3.5)" class="st5 st3 st4">A02m</text>
</g>
<g transform="translate(158.4261,865.3409)">
	<text transform="matrix(1 0 0 1 -1.557422e-05 3.5)" class="st5 st3 st4">A02n</text>
</g>
<g transform="translate(158.4261,857.2045)">
	<text transform="matrix(1 0 0 1 -1.557422e-05 3.5)" class="st11 st3 st4">A08c</text>
</g>
<g transform="translate(158.4261,849.0682)">
	<text transform="matrix(1 0 0 1 -1.557422e-05 3.5)" class="st11 st3 st4">A08c2</text>
</g>
<g transform="translate(158.4261,840.9318)">
	<text transform="matrix(1 0 0 1 -1.557422e-05 3.5)" class="st11 st3 st4">A08e1</text>
</g>
<g transform="translate(158.4261,832.7955)">
	<text transform="matrix(1 0 0 1 -1.557422e-05 3.5)" class="st11 st3 st4">A08e2</text>
</g>
<g transform="translate(158.4261,824.6591)">
	<text transform="matrix(1 0 0 1 -1.557422e-05 3.5)" class="st11 st3 st4">A08e3</text>
</g>
<g transform="translate(158.4261,816.5227)">
	<text transform="matrix(1 0 0 1 -1.557422e-05 3.5)" class="st11 st3 st4">A08h</text>
</g>
<g transform="translate(158.4261,808.3864)">
	<text transform="matrix(1 0 0 1 -1.557422e-05 3.5)" class="st11 st3 st4">A08j1</text>
</g>
<g transform="translate(158.4261,800.25)">
	<text transform="matrix(1 0 0 1 -1.557422e-05 3.5)" class="st11 st3 st4">A08j2</text>
</g>
<g transform="translate(158.4261,792.1136)">
	<text transform="matrix(1 0 0 1 -1.557422e-05 3.5)" class="st11 st3 st4">A08j3</text>
</g>
<g transform="translate(158.4261,783.9773)">
	<text transform="matrix(1 0 0 1 -1.557422e-05 3.5)" class="st11 st3 st4">A08m</text>
</g>
<g transform="translate(158.4261,775.8409)">
	<text transform="matrix(1 0 0 1 -1.557422e-05 3.5)" class="st11 st3 st4">A08s</text>
</g>
<g transform="translate(158.4261,767.7045)">
	<text transform="matrix(1 0 0 1 -1.557422e-05 3.5)" class="st6 st3 st4">A01h</text>
</g>
<g transform="translate(158.4261,759.5682)">
	<text transform="matrix(1 0 0 1 -1.557422e-05 3.5)" class="st6 st3 st4">A01h2</text>
</g>
<g transform="translate(158.4261,751.4318)">
	<text transform="matrix(1 0 0 1 -1.557422e-05 3.5)" class="st6 st3 st4">A05q</text>
</g>
<g transform="translate(158.4261,743.2955)">
	<text transform="matrix(1 0 0 1 -1.557422e-05 3.5)" class="st6 st3 st4">A27i</text>
</g>
<g transform="translate(158.4261,735.1591)">
	<text transform="matrix(1 0 0 1 -1.557422e-05 3.5)" class="st7 st3 st4">A06i</text>
</g>
<g transform="translate(158.4261,727.0227)">
	<text transform="matrix(1 0 0 1 -1.557422e-05 3.5)" class="st7 st3 st4">A06k</text>
</g>
<g transform="translate(158.4261,718.8864)">
	<text transform="matrix(1 0 0 1 -1.557422e-05 3.5)" class="st7 st3 st4">A12c3</text>
</g>
<g transform="translate(158.4261,710.75)">
	<text transform="matrix(1 0 0 1 -1.557422e-05 3.5)" class="st7 st3 st4">A12c6</text>
</g>
<g transform="translate(158.4261,702.6136)">
	<text transform="matrix(1 0 0 1 -1.557422e-05 3.5)" class="st7 st3 st4">A12c8</text>
</g>
<g transform="translate(158.4261,694.4773)">
	<text transform="matrix(1 0 0 1 -1.557422e-05 3.5)" class="st7 st3 st4">A12c9</text>
</g>
<g transform="translate(158.4261,686.3409)">
	<text transform="matrix(1 0 0 1 -1.557422e-05 3.5)" class="st7 st3 st4">A12g</text>
</g>
<g transform="translate(158.4261,678.2045)">
	<text transform="matrix(1 0 0 1 -1.557422e-05 3.5)" class="st7 st3 st4">A12h</text>
</g>
<g transform="translate(158.4261,670.0682)">
	<text transform="matrix(1 0 0 1 -1.557422e-05 3.5)" class="st7 st3 st4">A12p</text>
</g>
<g transform="translate(158.4261,661.9318)">
	<text transform="matrix(1 0 0 1 -1.557422e-05 3.5)" class="st8 st3 st4">A03b?</text>
</g>
<g transform="translate(158.4261,653.7955)">
	<text transform="matrix(1 0 0 1 -1.557422e-05 3.5)" class="st8 st3 st4">A03d</text>
</g>
<g transform="translate(158.4261,645.6591)">
	<text transform="matrix(1 0 0 1 -1.557422e-05 3.5)" class="st8 st3 st4">A03o</text>
</g>
<g transform="translate(158.4261,637.5227)">
	<text transform="matrix(1 0 0 1 -1.557422e-05 3.5)" class="st8 st3 st4">A03q</text>
</g>
<g transform="translate(158.4261,629.3864)">
	<text transform="matrix(1 0 0 1 -1.557422e-05 3.5)" class="st8 st3 st4">A03y1</text>
</g>
<g transform="translate(158.4261,621.25)">
	<text transform="matrix(1 0 0 1 -1.557422e-05 3.5)" class="st8 st3 st4">A03y2</text>
</g>
<g transform="translate(158.4261,613.1136)">
	<text transform="matrix(1 0 0 1 -1.557422e-05 3.5)" class="st8 st3 st4">A03y5</text>
</g>
<g transform="translate(158.4261,604.9773)">
	<text transform="matrix(1 0 0 1 -1.557422e-05 3.5)" class="st12 st3 st4">A19b1</text>
</g>
<g transform="translate(158.4261,596.8409)">
	<text transform="matrix(1 0 0 1 -1.557422e-05 3.5)" class="st12 st3 st4">A19b2</text>
</g>
<g transform="translate(158.4261,588.7045)">
	<text transform="matrix(1 0 0 1 -1.557422e-05 3.5)" class="st12 st3 st4">A19i</text>
</g>
<g transform="translate(158.4261,580.5682)">
	<text transform="matrix(1 0 0 1 -1.557422e-05 3.5)" class="st12 st3 st4">A23m</text>
</g>
<g>
	<line class="st9" x1="185.5" y1="934.5" x2="662" y2="934.5"/>
	<line class="st9" x1="185.5" y1="576.5" x2="662" y2="576.5"/>
	<line class="st9" x1="185.5" y1="934.5" x2="185.5" y2="576.5"/>
	<line class="st9" x1="662" y1="934.5" x2="662" y2="576.5"/>
	<line class="st9" x1="185.5" y1="930.4" x2="190.3" y2="930.4"/>
	<line class="st9" x1="185.5" y1="922.3" x2="190.3" y2="922.3"/>
	<line class="st9" x1="185.5" y1="914.2" x2="190.3" y2="914.2"/>
	<line class="st9" x1="185.5" y1="906" x2="190.3" y2="906"/>
	<line class="st9" x1="185.5" y1="897.9" x2="190.3" y2="897.9"/>
	<line class="st9" x1="185.5" y1="889.8" x2="190.3" y2="889.8"/>
	<line class="st9" x1="185.5" y1="881.6" x2="190.3" y2="881.6"/>
	<line class="st9" x1="185.5" y1="873.5" x2="190.3" y2="873.5"/>
	<line class="st9" x1="185.5" y1="865.3" x2="190.3" y2="865.3"/>
	<line class="st9" x1="185.5" y1="857.2" x2="190.3" y2="857.2"/>
	<line class="st9" x1="185.5" y1="849.1" x2="190.3" y2="849.1"/>
	<line class="st9" x1="185.5" y1="840.9" x2="190.3" y2="840.9"/>
	<line class="st9" x1="185.5" y1="832.8" x2="190.3" y2="832.8"/>
	<line class="st9" x1="185.5" y1="824.7" x2="190.3" y2="824.7"/>
	<line class="st9" x1="185.5" y1="816.5" x2="190.3" y2="816.5"/>
	<line class="st9" x1="185.5" y1="808.4" x2="190.3" y2="808.4"/>
	<line class="st9" x1="185.5" y1="800.2" x2="190.3" y2="800.2"/>
	<line class="st9" x1="185.5" y1="792.1" x2="190.3" y2="792.1"/>
	<line class="st9" x1="185.5" y1="784" x2="190.3" y2="784"/>
	<line class="st9" x1="185.5" y1="775.8" x2="190.3" y2="775.8"/>
	<line class="st9" x1="185.5" y1="767.7" x2="190.3" y2="767.7"/>
	<line class="st9" x1="185.5" y1="759.6" x2="190.3" y2="759.6"/>
	<line class="st9" x1="185.5" y1="751.4" x2="190.3" y2="751.4"/>
	<line class="st9" x1="185.5" y1="743.3" x2="190.3" y2="743.3"/>
	<line class="st9" x1="185.5" y1="735.2" x2="190.3" y2="735.2"/>
	<line class="st9" x1="185.5" y1="727" x2="190.3" y2="727"/>
	<line class="st9" x1="185.5" y1="718.9" x2="190.3" y2="718.9"/>
	<line class="st9" x1="185.5" y1="710.8" x2="190.3" y2="710.8"/>
	<line class="st9" x1="185.5" y1="702.6" x2="190.3" y2="702.6"/>
	<line class="st9" x1="185.5" y1="694.5" x2="190.3" y2="694.5"/>
	<line class="st9" x1="185.5" y1="686.3" x2="190.3" y2="686.3"/>
	<line class="st9" x1="185.5" y1="678.2" x2="190.3" y2="678.2"/>
	<line class="st9" x1="185.5" y1="670.1" x2="190.3" y2="670.1"/>
	<line class="st9" x1="185.5" y1="661.9" x2="190.3" y2="661.9"/>
	<line class="st9" x1="185.5" y1="653.8" x2="190.3" y2="653.8"/>
	<line class="st9" x1="185.5" y1="645.7" x2="190.3" y2="645.7"/>
	<line class="st9" x1="185.5" y1="637.5" x2="190.3" y2="637.5"/>
	<line class="st9" x1="185.5" y1="629.4" x2="190.3" y2="629.4"/>
	<line class="st9" x1="185.5" y1="621.2" x2="190.3" y2="621.2"/>
	<line class="st9" x1="185.5" y1="613.1" x2="190.3" y2="613.1"/>
	<line class="st9" x1="185.5" y1="605" x2="190.3" y2="605"/>
	<line class="st9" x1="185.5" y1="596.8" x2="190.3" y2="596.8"/>
	<line class="st9" x1="185.5" y1="588.7" x2="190.3" y2="588.7"/>
	<line class="st9" x1="185.5" y1="580.6" x2="190.3" y2="580.6"/>
	<line class="st9" x1="662" y1="930.4" x2="657.2" y2="930.4"/>
	<line class="st9" x1="662" y1="922.3" x2="657.2" y2="922.3"/>
	<line class="st9" x1="662" y1="914.2" x2="657.2" y2="914.2"/>
	<line class="st9" x1="662" y1="906" x2="657.2" y2="906"/>
	<line class="st9" x1="662" y1="897.9" x2="657.2" y2="897.9"/>
	<line class="st9" x1="662" y1="889.8" x2="657.2" y2="889.8"/>
	<line class="st9" x1="662" y1="881.6" x2="657.2" y2="881.6"/>
	<line class="st9" x1="662" y1="873.5" x2="657.2" y2="873.5"/>
	<line class="st9" x1="662" y1="865.3" x2="657.2" y2="865.3"/>
	<line class="st9" x1="662" y1="857.2" x2="657.2" y2="857.2"/>
	<line class="st9" x1="662" y1="849.1" x2="657.2" y2="849.1"/>
	<line class="st9" x1="662" y1="840.9" x2="657.2" y2="840.9"/>
	<line class="st9" x1="662" y1="832.8" x2="657.2" y2="832.8"/>
	<line class="st9" x1="662" y1="824.7" x2="657.2" y2="824.7"/>
	<line class="st9" x1="662" y1="816.5" x2="657.2" y2="816.5"/>
	<line class="st9" x1="662" y1="808.4" x2="657.2" y2="808.4"/>
	<line class="st9" x1="662" y1="800.2" x2="657.2" y2="800.2"/>
	<line class="st9" x1="662" y1="792.1" x2="657.2" y2="792.1"/>
	<line class="st9" x1="662" y1="784" x2="657.2" y2="784"/>
	<line class="st9" x1="662" y1="775.8" x2="657.2" y2="775.8"/>
	<line class="st9" x1="662" y1="767.7" x2="657.2" y2="767.7"/>
	<line class="st9" x1="662" y1="759.6" x2="657.2" y2="759.6"/>
	<line class="st9" x1="662" y1="751.4" x2="657.2" y2="751.4"/>
	<line class="st9" x1="662" y1="743.3" x2="657.2" y2="743.3"/>
	<line class="st9" x1="662" y1="735.2" x2="657.2" y2="735.2"/>
	<line class="st9" x1="662" y1="727" x2="657.2" y2="727"/>
	<line class="st9" x1="662" y1="718.9" x2="657.2" y2="718.9"/>
	<line class="st9" x1="662" y1="710.8" x2="657.2" y2="710.8"/>
	<line class="st9" x1="662" y1="702.6" x2="657.2" y2="702.6"/>
	<line class="st9" x1="662" y1="694.5" x2="657.2" y2="694.5"/>
	<line class="st9" x1="662" y1="686.3" x2="657.2" y2="686.3"/>
	<line class="st9" x1="662" y1="678.2" x2="657.2" y2="678.2"/>
	<line class="st9" x1="662" y1="670.1" x2="657.2" y2="670.1"/>
	<line class="st9" x1="662" y1="661.9" x2="657.2" y2="661.9"/>
	<line class="st9" x1="662" y1="653.8" x2="657.2" y2="653.8"/>
	<line class="st9" x1="662" y1="645.7" x2="657.2" y2="645.7"/>
	<line class="st9" x1="662" y1="637.5" x2="657.2" y2="637.5"/>
	<line class="st9" x1="662" y1="629.4" x2="657.2" y2="629.4"/>
	<line class="st9" x1="662" y1="621.2" x2="657.2" y2="621.2"/>
	<line class="st9" x1="662" y1="613.1" x2="657.2" y2="613.1"/>
	<line class="st9" x1="662" y1="605" x2="657.2" y2="605"/>
	<line class="st9" x1="662" y1="596.8" x2="657.2" y2="596.8"/>
	<line class="st9" x1="662" y1="588.7" x2="657.2" y2="588.7"/>
	<line class="st9" x1="662" y1="580.6" x2="657.2" y2="580.6"/>
</g>
<g>
	<path class="st10" d="M734.5,934.5h472.2v-358H734.5V934.5z"/>
</g>
<g transform="translate(1029.001,574.3558)">
	<text transform="matrix(1 0 0 1 -203 -4)" class="st0 st1">Ventral Postsynaptic Similarity</text>
</g>
<g transform="matrix(0.5,0,0,0.5,812.5,576.5)">
	<g>
		<defs>
			<rect id="SVGID_7_" x="80.1" y="179" width="472.2" height="358"/>
		</defs>
		<clipPath id="SVGID_8_">
			<use xlink:href="#SVGID_7_"  style="overflow:visible;"/>
		</clipPath>
		<g style="clip-path:url(#SVGID_8_);enable-background:new    ;">
			
				<image style="overflow:visible;" width="866" height="716" xlink:href="37298732A1532E17.jpg"  transform="matrix(1.0906 0 0 1 -156 0)">
			</image>
		</g>
	</g>
</g>
<g transform="translate(787.8977,930.4318)">
	<text transform="matrix(1 0 0 1 -78 3.5)" class="st2 st3 st4">A01r</text>
</g>
<g transform="translate(787.8977,922.2955)">
	<text transform="matrix(1 0 0 1 -78 3.5)" class="st2 st3 st4">A17i?</text>
</g>
<g transform="translate(787.8977,914.1591)">
	<text transform="matrix(1 0 0 1 -78 3.5)" class="st5 st3 st4">A02a</text>
</g>
<g transform="translate(787.8977,906.0227)">
	<text transform="matrix(1 0 0 1 -78 3.5)" class="st5 st3 st4">A02b</text>
</g>
<g transform="translate(787.8977,897.8864)">
	<text transform="matrix(1 0 0 1 -78 3.5)" class="st5 st3 st4">A02c</text>
</g>
<g transform="translate(787.8977,889.75)">
	<text transform="matrix(1 0 0 1 -78 3.5)" class="st5 st3 st4">A02d</text>
</g>
<g transform="translate(787.8977,881.6136)">
	<text transform="matrix(1 0 0 1 -78 3.5)" class="st5 st3 st4">A02k</text>
</g>
<g transform="translate(787.8977,873.4773)">
	<text transform="matrix(1 0 0 1 -78 3.5)" class="st5 st3 st4">A02m</text>
</g>
<g transform="translate(787.8977,865.3409)">
	<text transform="matrix(1 0 0 1 -78 3.5)" class="st5 st3 st4">A02n</text>
</g>
<g transform="translate(787.8977,857.2045)">
	<text transform="matrix(1 0 0 1 -78 3.5)" class="st11 st3 st4">A08c</text>
</g>
<g transform="translate(787.8977,849.0682)">
	<text transform="matrix(1 0 0 1 -78 3.5)" class="st11 st3 st4">A08c2</text>
</g>
<g transform="translate(787.8977,840.9318)">
	<text transform="matrix(1 0 0 1 -78 3.5)" class="st11 st3 st4">A08e1</text>
</g>
<g transform="translate(787.8977,832.7955)">
	<text transform="matrix(1 0 0 1 -78 3.5)" class="st11 st3 st4">A08e2</text>
</g>
<g transform="translate(787.8977,824.6591)">
	<text transform="matrix(1 0 0 1 -78 3.5)" class="st11 st3 st4">A08e3</text>
</g>
<g transform="translate(787.8977,816.5227)">
	<text transform="matrix(1 0 0 1 -78 3.5)" class="st11 st3 st4">A08h</text>
</g>
<g transform="translate(787.8977,808.3864)">
	<text transform="matrix(1 0 0 1 -78 3.5)" class="st11 st3 st4">A08j1</text>
</g>
<g transform="translate(787.8977,800.25)">
	<text transform="matrix(1 0 0 1 -78 3.5)" class="st11 st3 st4">A08j2</text>
</g>
<g transform="translate(787.8977,792.1136)">
	<text transform="matrix(1 0 0 1 -78 3.5)" class="st11 st3 st4">A08j3</text>
</g>
<g transform="translate(787.8977,783.9773)">
	<text transform="matrix(1 0 0 1 -78 3.5)" class="st11 st3 st4">A08m</text>
</g>
<g transform="translate(787.8977,775.8409)">
	<text transform="matrix(1 0 0 1 -78 3.5)" class="st11 st3 st4">A08s</text>
</g>
<g transform="translate(787.8977,767.7045)">
	<text transform="matrix(1 0 0 1 -78 3.5)" class="st6 st3 st4">A01h</text>
</g>
<g transform="translate(787.8977,759.5682)">
	<text transform="matrix(1 0 0 1 -78 3.5)" class="st6 st3 st4">A01h2</text>
</g>
<g transform="translate(787.8977,751.4318)">
	<text transform="matrix(1 0 0 1 -78 3.5)" class="st6 st3 st4">A05q</text>
</g>
<g transform="translate(787.8977,743.2955)">
	<text transform="matrix(1 0 0 1 -78 3.5)" class="st6 st3 st4">A27i</text>
</g>
<g transform="translate(787.8977,735.1591)">
	<text transform="matrix(1 0 0 1 -78 3.5)" class="st7 st3 st4">A06i</text>
</g>
<g transform="translate(787.8977,727.0227)">
	<text transform="matrix(1 0 0 1 -78 3.5)" class="st7 st3 st4">A06k</text>
</g>
<g transform="translate(787.8977,718.8864)">
	<text transform="matrix(1 0 0 1 -78 3.5)" class="st7 st3 st4">A12c3</text>
</g>
<g transform="translate(787.8977,710.75)">
	<text transform="matrix(1 0 0 1 -78 3.5)" class="st7 st3 st4">A12c6</text>
</g>
<g transform="translate(787.8977,702.6136)">
	<text transform="matrix(1 0 0 1 -78 3.5)" class="st7 st3 st4">A12c8</text>
</g>
<g transform="translate(787.8977,694.4773)">
	<text transform="matrix(1 0 0 1 -78 3.5)" class="st7 st3 st4">A12c9</text>
</g>
<g transform="translate(787.8977,686.3409)">
	<text transform="matrix(1 0 0 1 -78 3.5)" class="st7 st3 st4">A12g</text>
</g>
<g transform="translate(787.8977,678.2045)">
	<text transform="matrix(1 0 0 1 -78 3.5)" class="st7 st3 st4">A12h</text>
</g>
<g transform="translate(787.8977,670.0682)">
	<text transform="matrix(1 0 0 1 -78 3.5)" class="st7 st3 st4">A12p</text>
</g>
<g transform="translate(787.8977,661.9318)">
	<text transform="matrix(1 0 0 1 -78 3.5)" class="st8 st3 st4">A03b?</text>
</g>
<g transform="translate(787.8977,653.7955)">
	<text transform="matrix(1 0 0 1 -78 3.5)" class="st8 st3 st4">A03d</text>
</g>
<g transform="translate(787.8977,645.6591)">
	<text transform="matrix(1 0 0 1 -78 3.5)" class="st8 st3 st4">A03o</text>
</g>
<g transform="translate(787.8977,637.5227)">
	<text transform="matrix(1 0 0 1 -78 3.5)" class="st8 st3 st4">A03q</text>
</g>
<g transform="translate(787.8977,629.3864)">
	<text transform="matrix(1 0 0 1 -78 3.5)" class="st8 st3 st4">A03y1</text>
</g>
<g transform="translate(787.8977,621.25)">
	<text transform="matrix(1 0 0 1 -78 3.5)" class="st8 st3 st4">A03y2</text>
</g>
<g transform="translate(787.8977,613.1136)">
	<text transform="matrix(1 0 0 1 -78 3.5)" class="st8 st3 st4">A03y5</text>
</g>
<g transform="translate(787.8977,604.9773)">
	<text transform="matrix(1 0 0 1 -78 3.5)" class="st12 st3 st4">A19b1</text>
</g>
<g transform="translate(787.8977,596.8409)">
	<text transform="matrix(1 0 0 1 -78 3.5)" class="st12 st3 st4">A19b2</text>
</g>
<g transform="translate(787.8977,588.7045)">
	<text transform="matrix(1 0 0 1 -78 3.5)" class="st12 st3 st4">A19i</text>
</g>
<g transform="translate(787.8977,580.5682)">
	<text transform="matrix(1 0 0 1 -78 3.5)" class="st12 st3 st4">A23m</text>
</g>
<g>
	<line class="st13" x1="734.5" y1="934.5" x2="1206.7" y2="934.5"/>
	<line class="st13" x1="734.5" y1="576.5" x2="1206.7" y2="576.5"/>
	<line class="st13" x1="734.5" y1="934.5" x2="734.5" y2="576.5"/>
	<line class="st13" x1="1206.7" y1="934.5" x2="1206.7" y2="576.5"/>
	<line class="st13" x1="734.5" y1="930.4" x2="739.2" y2="930.4"/>
	<line class="st13" x1="734.5" y1="922.3" x2="739.2" y2="922.3"/>
	<line class="st13" x1="734.5" y1="914.2" x2="739.2" y2="914.2"/>
	<line class="st13" x1="734.5" y1="906" x2="739.2" y2="906"/>
	<line class="st13" x1="734.5" y1="897.9" x2="739.2" y2="897.9"/>
	<line class="st13" x1="734.5" y1="889.8" x2="739.2" y2="889.8"/>
	<line class="st13" x1="734.5" y1="881.6" x2="739.2" y2="881.6"/>
	<line class="st13" x1="734.5" y1="873.5" x2="739.2" y2="873.5"/>
	<line class="st13" x1="734.5" y1="865.3" x2="739.2" y2="865.3"/>
	<line class="st13" x1="734.5" y1="857.2" x2="739.2" y2="857.2"/>
	<line class="st13" x1="734.5" y1="849.1" x2="739.2" y2="849.1"/>
	<line class="st13" x1="734.5" y1="840.9" x2="739.2" y2="840.9"/>
	<line class="st13" x1="734.5" y1="832.8" x2="739.2" y2="832.8"/>
	<line class="st13" x1="734.5" y1="824.7" x2="739.2" y2="824.7"/>
	<line class="st13" x1="734.5" y1="816.5" x2="739.2" y2="816.5"/>
	<line class="st13" x1="734.5" y1="808.4" x2="739.2" y2="808.4"/>
	<line class="st13" x1="734.5" y1="800.2" x2="739.2" y2="800.2"/>
	<line class="st13" x1="734.5" y1="792.1" x2="739.2" y2="792.1"/>
	<line class="st13" x1="734.5" y1="784" x2="739.2" y2="784"/>
	<line class="st13" x1="734.5" y1="775.8" x2="739.2" y2="775.8"/>
	<line class="st13" x1="734.5" y1="767.7" x2="739.2" y2="767.7"/>
	<line class="st13" x1="734.5" y1="759.6" x2="739.2" y2="759.6"/>
	<line class="st13" x1="734.5" y1="751.4" x2="739.2" y2="751.4"/>
	<line class="st13" x1="734.5" y1="743.3" x2="739.2" y2="743.3"/>
	<line class="st13" x1="734.5" y1="735.2" x2="739.2" y2="735.2"/>
	<line class="st13" x1="734.5" y1="727" x2="739.2" y2="727"/>
	<line class="st13" x1="734.5" y1="718.9" x2="739.2" y2="718.9"/>
	<line class="st13" x1="734.5" y1="710.8" x2="739.2" y2="710.8"/>
	<line class="st13" x1="734.5" y1="702.6" x2="739.2" y2="702.6"/>
	<line class="st13" x1="734.5" y1="694.5" x2="739.2" y2="694.5"/>
	<line class="st13" x1="734.5" y1="686.3" x2="739.2" y2="686.3"/>
	<line class="st13" x1="734.5" y1="678.2" x2="739.2" y2="678.2"/>
	<line class="st13" x1="734.5" y1="670.1" x2="739.2" y2="670.1"/>
	<line class="st13" x1="734.5" y1="661.9" x2="739.2" y2="661.9"/>
	<line class="st13" x1="734.5" y1="653.8" x2="739.2" y2="653.8"/>
	<line class="st13" x1="734.5" y1="645.7" x2="739.2" y2="645.7"/>
	<line class="st13" x1="734.5" y1="637.5" x2="739.2" y2="637.5"/>
	<line class="st13" x1="734.5" y1="629.4" x2="739.2" y2="629.4"/>
	<line class="st13" x1="734.5" y1="621.2" x2="739.2" y2="621.2"/>
	<line class="st13" x1="734.5" y1="613.1" x2="739.2" y2="613.1"/>
	<line class="st13" x1="734.5" y1="605" x2="739.2" y2="605"/>
	<line class="st13" x1="734.5" y1="596.8" x2="739.2" y2="596.8"/>
	<line class="st13" x1="734.5" y1="588.7" x2="739.2" y2="588.7"/>
	<line class="st13" x1="734.5" y1="580.6" x2="739.2" y2="580.6"/>
	<line class="st13" x1="1206.7" y1="930.4" x2="1202" y2="930.4"/>
	<line class="st13" x1="1206.7" y1="922.3" x2="1202" y2="922.3"/>
	<line class="st13" x1="1206.7" y1="914.2" x2="1202" y2="914.2"/>
	<line class="st13" x1="1206.7" y1="906" x2="1202" y2="906"/>
	<line class="st13" x1="1206.7" y1="897.9" x2="1202" y2="897.9"/>
	<line class="st13" x1="1206.7" y1="889.8" x2="1202" y2="889.8"/>
	<line class="st13" x1="1206.7" y1="881.6" x2="1202" y2="881.6"/>
	<line class="st13" x1="1206.7" y1="873.5" x2="1202" y2="873.5"/>
	<line class="st13" x1="1206.7" y1="865.3" x2="1202" y2="865.3"/>
	<line class="st13" x1="1206.7" y1="857.2" x2="1202" y2="857.2"/>
	<line class="st13" x1="1206.7" y1="849.1" x2="1202" y2="849.1"/>
	<line class="st13" x1="1206.7" y1="840.9" x2="1202" y2="840.9"/>
	<line class="st13" x1="1206.7" y1="832.8" x2="1202" y2="832.8"/>
	<line class="st13" x1="1206.7" y1="824.7" x2="1202" y2="824.7"/>
	<line class="st13" x1="1206.7" y1="816.5" x2="1202" y2="816.5"/>
	<line class="st13" x1="1206.7" y1="808.4" x2="1202" y2="808.4"/>
	<line class="st13" x1="1206.7" y1="800.2" x2="1202" y2="800.2"/>
	<line class="st13" x1="1206.7" y1="792.1" x2="1202" y2="792.1"/>
	<line class="st13" x1="1206.7" y1="784" x2="1202" y2="784"/>
	<line class="st13" x1="1206.7" y1="775.8" x2="1202" y2="775.8"/>
	<line class="st13" x1="1206.7" y1="767.7" x2="1202" y2="767.7"/>
	<line class="st13" x1="1206.7" y1="759.6" x2="1202" y2="759.6"/>
	<line class="st13" x1="1206.7" y1="751.4" x2="1202" y2="751.4"/>
	<line class="st13" x1="1206.7" y1="743.3" x2="1202" y2="743.3"/>
	<line class="st13" x1="1206.7" y1="735.2" x2="1202" y2="735.2"/>
	<line class="st13" x1="1206.7" y1="727" x2="1202" y2="727"/>
	<line class="st13" x1="1206.7" y1="718.9" x2="1202" y2="718.9"/>
	<line class="st13" x1="1206.7" y1="710.8" x2="1202" y2="710.8"/>
	<line class="st13" x1="1206.7" y1="702.6" x2="1202" y2="702.6"/>
	<line class="st13" x1="1206.7" y1="694.5" x2="1202" y2="694.5"/>
	<line class="st13" x1="1206.7" y1="686.3" x2="1202" y2="686.3"/>
	<line class="st13" x1="1206.7" y1="678.2" x2="1202" y2="678.2"/>
	<line class="st13" x1="1206.7" y1="670.1" x2="1202" y2="670.1"/>
	<line class="st13" x1="1206.7" y1="661.9" x2="1202" y2="661.9"/>
	<line class="st13" x1="1206.7" y1="653.8" x2="1202" y2="653.8"/>
	<line class="st13" x1="1206.7" y1="645.7" x2="1202" y2="645.7"/>
	<line class="st13" x1="1206.7" y1="637.5" x2="1202" y2="637.5"/>
	<line class="st13" x1="1206.7" y1="629.4" x2="1202" y2="629.4"/>
	<line class="st13" x1="1206.7" y1="621.2" x2="1202" y2="621.2"/>
	<line class="st13" x1="1206.7" y1="613.1" x2="1202" y2="613.1"/>
	<line class="st13" x1="1206.7" y1="605" x2="1202" y2="605"/>
	<line class="st13" x1="1206.7" y1="596.8" x2="1202" y2="596.8"/>
	<line class="st13" x1="1206.7" y1="588.7" x2="1202" y2="588.7"/>
	<line class="st13" x1="1206.7" y1="580.6" x2="1202" y2="580.6"/>
</g>
<g>
	<line class="st9" x1="1236.9" y1="936.1" x2="1251.4" y2="936.1"/>
	<line class="st9" x1="1236.9" y1="577.6" x2="1251.4" y2="577.6"/>
	<line class="st9" x1="1236.9" y1="936.1" x2="1236.9" y2="577.6"/>
	<line class="st9" x1="1251.4" y1="936.1" x2="1251.4" y2="577.6"/>
</g>
<g transform="matrix(0.5,0,0,0.5,1257,576)">
	<g>
		<defs>
			<rect id="SVGID_9_" x="-32.9" y="182.4" width="14.5" height="358.5"/>
		</defs>
		<clipPath id="SVGID_10_">
			<use xlink:href="#SVGID_9_"  style="overflow:visible;"/>
		</clipPath>
		<g style="clip-path:url(#SVGID_10_);enable-background:new    ;">
			
				<image style="overflow:visible;" width="29" height="717" xlink:href="37298732A1532E11.jpg"  transform="matrix(1 0 0 1 -40.166 3.1364)">
			</image>
		</g>
	</g>
</g>
<g>
	<line class="st9" x1="1251.4" y1="936.1" x2="1251.4" y2="577.6"/>
	<line class="st9" x1="1251.4" y1="936.1" x2="1247.8" y2="936.1"/>
	<line class="st9" x1="1251.4" y1="900.2" x2="1247.8" y2="900.2"/>
	<line class="st9" x1="1251.4" y1="864.4" x2="1247.8" y2="864.4"/>
	<line class="st9" x1="1251.4" y1="828.5" x2="1247.8" y2="828.5"/>
	<line class="st9" x1="1251.4" y1="792.7" x2="1247.8" y2="792.7"/>
	<line class="st9" x1="1251.4" y1="756.8" x2="1247.8" y2="756.8"/>
	<line class="st9" x1="1251.4" y1="721" x2="1247.8" y2="721"/>
	<line class="st9" x1="1251.4" y1="685.1" x2="1247.8" y2="685.1"/>
	<line class="st9" x1="1251.4" y1="649.3" x2="1247.8" y2="649.3"/>
	<line class="st9" x1="1251.4" y1="613.4" x2="1247.8" y2="613.4"/>
	<line class="st9" x1="1251.4" y1="577.6" x2="1247.8" y2="577.6"/>
</g>
<g transform="translate(1276.3069,934.5)">
	<text transform="matrix(1 0 0 1 -20.083 7.0682)" class="st14 st3 st15">0</text>
</g>
<g transform="translate(1276.3069,898.65)">
	<text transform="matrix(1 0 0 1 -20.083 7.0682)" class="st14 st3 st15">0.1</text>
</g>
<g transform="translate(1276.3069,862.8)">
	<text transform="matrix(1 0 0 1 -20.083 7.0682)" class="st14 st3 st15">0.2</text>
</g>
<g transform="translate(1276.3069,826.95)">
	<text transform="matrix(1 0 0 1 -20.083 7.0682)" class="st14 st3 st15">0.3</text>
</g>
<g transform="translate(1276.3069,791.1)">
	<text transform="matrix(1 0 0 1 -20.083 7.0682)" class="st14 st3 st15">0.4</text>
</g>
<g transform="translate(1276.3069,755.25)">
	<text transform="matrix(1 0 0 1 -20.083 7.0682)" class="st14 st3 st15">0.5</text>
</g>
<g transform="translate(1276.3069,719.4)">
	<text transform="matrix(1 0 0 1 -20.083 7.0682)" class="st14 st3 st15">0.6</text>
</g>
<g transform="translate(1276.3069,683.55)">
	<text transform="matrix(1 0 0 1 -20.083 7.0682)" class="st14 st3 st15">0.7</text>
</g>
<g transform="translate(1276.3069,647.7)">
	<text transform="matrix(1 0 0 1 -20.083 7.0682)" class="st14 st3 st15">0.8</text>
</g>
<g transform="translate(1276.3069,611.85)">
	<text transform="matrix(1 0 0 1 -20.083 7.0682)" class="st14 st3 st15">0.9</text>
</g>
<g transform="translate(1276.3069,576)">
	<text transform="matrix(1 0 0 1 -20.083 7.0682)" class="st14 st3 st15">1</text>
</g>
<g transform="translate(1299.3069,755.2498) rotate(-90)">
	<text transform="matrix(1 0 0 1 -59.5685 -6.083)" class="st14 st3 st15">Synapse Similarity</text>
</g>
<g>
	<line class="st9" x1="1236.9" y1="577.6" x2="1251.4" y2="577.6"/>
	<line class="st9" x1="1236.9" y1="936.1" x2="1251.4" y2="936.1"/>
	<line class="st9" x1="1236.9" y1="936.1" x2="1236.9" y2="577.6"/>
	<line class="st9" x1="1251.4" y1="936.1" x2="1251.4" y2="577.6"/>
	<line class="st16" x1="1236.9" y1="936.1" x2="1236.9" y2="936.1"/>
	<line class="st16" x1="1236.9" y1="577.6" x2="1236.9" y2="577.6"/>
	<line class="st16" x1="1251.4" y1="936.1" x2="1251.4" y2="936.1"/>
	<line class="st16" x1="1251.4" y1="577.6" x2="1251.4" y2="577.6"/>
</g>
</svg>
