<?xml version="1.0" encoding="utf-8"?>
<!-- Generator: Adobe Illustrator 23.0.3, SVG Export Plug-In . SVG Version: 6.00 Build 0)  -->
<svg version="1.1" id="Layer_1" xmlns="http://www.w3.org/2000/svg" xmlns:xlink="http://www.w3.org/1999/xlink" x="0px" y="0px"
	 viewBox="0 0 1630 952" style="enable-background:new 0 0 1630 952;" xml:space="preserve">
<style type="text/css">
	.st0{fill:none;stroke:#262626;stroke-width:0.5;stroke-linecap:square;stroke-linejoin:round;stroke-miterlimit:10;}
	.st1{fill:#262626;}
	.st2{font-family:'HelveticaNeue';}
	.st3{font-size:24px;}
	.st4{font-family:'HelveticaNeue-Bold';}
	.st5{font-size:18px;}
	.st6{fill:none;stroke:#000000;stroke-width:3;stroke-linejoin:round;stroke-miterlimit:10;}
	.st7{fill:#00FF40;}
	.st8{fill:#0099FF;}
	.st9{fill:#80FF00;}
	.st10{fill:#4D00FF;}
	.st11{fill:#FFBF00;}
	.st12{fill:#FF00FF;}
	.st13{fill:#FF0000;}
	.st14{fill:none;stroke:#333333;stroke-width:0.5;stroke-linecap:square;stroke-linejoin:round;stroke-miterlimit:10;}
</style>
<g>
	<line class="st0" x1="467" y1="847.5" x2="212" y2="847.5"/>
	<line class="st0" x1="446.8" y1="847.5" x2="446.8" y2="839.7"/>
	<line class="st0" x1="384.8" y1="847.5" x2="384.8" y2="839.7"/>
	<line class="st0" x1="322.8" y1="847.5" x2="322.8" y2="839.7"/>
	<line class="st0" x1="260.8" y1="847.5" x2="260.8" y2="839.7"/>
</g>
<g transform="translate(446.7661,853.1)">
	<text transform="matrix(1 0 0 1 -13 18.0001)" class="st1 st2 st3">0.8</text>
</g>
<g transform="translate(384.7831,853.1)">
	<text transform="matrix(1 0 0 1 -13 18.0001)" class="st1 st2 st3">0.6</text>
</g>
<g transform="translate(322.8,853.1)">
	<text transform="matrix(1 0 0 1 -12.9999 18.0001)" class="st1 st2 st3">0.4</text>
</g>
<text transform="matrix(1 0 0 1 247.817 871.1001)" class="st1 st2 st3">0.2</text>
<g>
	<line class="st0" x1="467" y1="847.5" x2="467" y2="71.5"/>
	<line class="st0" x1="467" y1="830.3" x2="459.2" y2="830.3"/>
	<line class="st0" x1="467" y1="813" x2="459.2" y2="813"/>
	<line class="st0" x1="467" y1="795.8" x2="459.2" y2="795.8"/>
	<line class="st0" x1="467" y1="778.5" x2="459.2" y2="778.5"/>
	<line class="st0" x1="467" y1="761.3" x2="459.2" y2="761.3"/>
	<line class="st0" x1="467" y1="744" x2="459.2" y2="744"/>
	<line class="st0" x1="467" y1="726.8" x2="459.2" y2="726.8"/>
	<line class="st0" x1="467" y1="709.5" x2="459.2" y2="709.5"/>
	<line class="st0" x1="467" y1="692.3" x2="459.2" y2="692.3"/>
	<line class="st0" x1="467" y1="675.1" x2="459.2" y2="675.1"/>
	<line class="st0" x1="467" y1="657.8" x2="459.2" y2="657.8"/>
	<line class="st0" x1="467" y1="640.6" x2="459.2" y2="640.6"/>
	<line class="st0" x1="467" y1="623.3" x2="459.2" y2="623.3"/>
	<line class="st0" x1="467" y1="606.1" x2="459.2" y2="606.1"/>
	<line class="st0" x1="467" y1="588.8" x2="459.2" y2="588.8"/>
	<line class="st0" x1="467" y1="571.6" x2="459.2" y2="571.6"/>
	<line class="st0" x1="467" y1="554.3" x2="459.2" y2="554.3"/>
	<line class="st0" x1="467" y1="537.1" x2="459.2" y2="537.1"/>
	<line class="st0" x1="467" y1="519.9" x2="459.2" y2="519.9"/>
	<line class="st0" x1="467" y1="502.6" x2="459.2" y2="502.6"/>
	<line class="st0" x1="467" y1="485.4" x2="459.2" y2="485.4"/>
	<line class="st0" x1="467" y1="468.1" x2="459.2" y2="468.1"/>
	<line class="st0" x1="467" y1="450.9" x2="459.2" y2="450.9"/>
	<line class="st0" x1="467" y1="433.6" x2="459.2" y2="433.6"/>
	<line class="st0" x1="467" y1="416.4" x2="459.2" y2="416.4"/>
	<line class="st0" x1="467" y1="399.1" x2="459.2" y2="399.1"/>
	<line class="st0" x1="467" y1="381.9" x2="459.2" y2="381.9"/>
	<line class="st0" x1="467" y1="364.7" x2="459.2" y2="364.7"/>
	<line class="st0" x1="467" y1="347.4" x2="459.2" y2="347.4"/>
	<line class="st0" x1="467" y1="330.2" x2="459.2" y2="330.2"/>
	<line class="st0" x1="467" y1="312.9" x2="459.2" y2="312.9"/>
	<line class="st0" x1="467" y1="295.7" x2="459.2" y2="295.7"/>
	<line class="st0" x1="467" y1="278.4" x2="459.2" y2="278.4"/>
	<line class="st0" x1="467" y1="261.2" x2="459.2" y2="261.2"/>
	<line class="st0" x1="467" y1="243.9" x2="459.2" y2="243.9"/>
	<line class="st0" x1="467" y1="226.7" x2="459.2" y2="226.7"/>
	<line class="st0" x1="467" y1="209.5" x2="459.2" y2="209.5"/>
	<line class="st0" x1="467" y1="192.2" x2="459.2" y2="192.2"/>
	<line class="st0" x1="467" y1="175" x2="459.2" y2="175"/>
	<line class="st0" x1="467" y1="157.7" x2="459.2" y2="157.7"/>
	<line class="st0" x1="467" y1="140.5" x2="459.2" y2="140.5"/>
	<line class="st0" x1="467" y1="123.2" x2="459.2" y2="123.2"/>
	<line class="st0" x1="467" y1="106" x2="459.2" y2="106"/>
	<line class="st0" x1="467" y1="88.7" x2="459.2" y2="88.7"/>
</g>
<g transform="translate(472.6,830.2556)">
	<text transform="matrix(1 0 0 1 -3.041406e-05 7.0002)" class="st1 st4 st5">          </text>
</g>
<g transform="translate(472.6,813.0111)">
	<text transform="matrix(1 0 0 1 -3.041406e-05 7.0001)" class="st1 st4 st5">          </text>
</g>
<g transform="translate(472.6,795.7667)">
	<text transform="matrix(1 0 0 1 -3.041406e-05 6.9999)" class="st1 st4 st5">          </text>
</g>
<g transform="translate(472.6,778.5222)">
	<text transform="matrix(1 0 0 1 -3.041406e-05 7.0002)" class="st1 st4 st5">          </text>
</g>
<g transform="translate(472.6,761.2778)">
	<text transform="matrix(1 0 0 1 -3.041406e-05 7.0001)" class="st1 st4 st5">          </text>
</g>
<g transform="translate(472.6,744.0333)">
	<text transform="matrix(1 0 0 1 -3.041406e-05 6.9999)" class="st1 st4 st5">          </text>
</g>
<g transform="translate(472.6,726.7889)">
	<text transform="matrix(1 0 0 1 -3.041406e-05 7.0002)" class="st1 st4 st5">          </text>
</g>
<g transform="translate(472.6,709.5444)">
	<text transform="matrix(1 0 0 1 -3.041406e-05 7.0001)" class="st1 st4 st5">          </text>
</g>
<g transform="translate(472.6,692.3)">
	<text transform="matrix(1 0 0 1 -3.041406e-05 6.9998)" class="st1 st4 st5">          </text>
</g>
<g transform="translate(472.6,675.0555)">
	<text transform="matrix(1 0 0 1 -3.041406e-05 7.0002)" class="st1 st4 st5">          </text>
</g>
<g transform="translate(472.6,657.8111)">
	<text transform="matrix(1 0 0 1 -3.041406e-05 6.9999)" class="st1 st4 st5">          </text>
</g>
<g transform="translate(472.6,640.5667)">
	<text transform="matrix(1 0 0 1 -3.041406e-05 7.0002)" class="st1 st4 st5">          </text>
</g>
<g transform="translate(472.6,623.3222)">
	<text transform="matrix(1 0 0 1 -3.041406e-05 7.0001)" class="st1 st4 st5">          </text>
</g>
<g transform="translate(472.6,606.0778)">
	<text transform="matrix(1 0 0 1 -3.041406e-05 6.9998)" class="st1 st4 st5">          </text>
</g>
<g transform="translate(472.6,588.8333)">
	<text transform="matrix(1 0 0 1 -3.041406e-05 7.0002)" class="st1 st4 st5">          </text>
</g>
<g transform="translate(472.6,571.5889)">
	<text transform="matrix(1 0 0 1 -3.041406e-05 6.9999)" class="st1 st4 st5">          </text>
</g>
<g transform="translate(472.6,554.3444)">
	<text transform="matrix(1 0 0 1 -3.041406e-05 6.9998)" class="st1 st4 st5">          </text>
</g>
<g transform="translate(472.6,537.1)">
	<text transform="matrix(1 0 0 1 -3.041406e-05 7.0001)" class="st1 st4 st5">          </text>
</g>
<g transform="translate(472.6,519.8555)">
	<text transform="matrix(1 0 0 1 -3.041406e-05 6.9999)" class="st1 st4 st5">          </text>
</g>
<g transform="translate(472.6,502.6111)">
	<text transform="matrix(1 0 0 1 -3.041406e-05 7.0002)" class="st1 st4 st5">          </text>
</g>
<g transform="translate(472.6,485.3667)">
	<text transform="matrix(1 0 0 1 -3.041406e-05 7)" class="st1 st4 st5">          </text>
</g>
<g transform="translate(472.6,468.1222)">
	<text transform="matrix(1 0 0 1 -3.041406e-05 6.9999)" class="st1 st4 st5">          </text>
</g>
<g transform="translate(472.6,450.8778)">
	<text transform="matrix(1 0 0 1 -3.041406e-05 7.0001)" class="st1 st4 st5">          </text>
</g>
<g transform="translate(472.6,433.6333)">
	<text transform="matrix(1 0 0 1 -3.041406e-05 7)" class="st1 st4 st5">          </text>
</g>
<g transform="translate(472.6,416.3889)">
	<text transform="matrix(1 0 0 1 -3.041406e-05 6.9998)" class="st1 st4 st5">          </text>
</g>
<g transform="translate(472.6,399.1444)">
	<text transform="matrix(1 0 0 1 -3.041406e-05 7.0001)" class="st1 st4 st5">          </text>
</g>
<g transform="translate(472.6,381.9)">
	<text transform="matrix(1 0 0 1 -3.041406e-05 6.9999)" class="st1 st4 st5">          </text>
</g>
<g transform="translate(472.6,364.6555)">
	<text transform="matrix(1 0 0 1 -3.041406e-05 6.9998)" class="st1 st4 st5">          </text>
</g>
<g transform="translate(472.6,347.4111)">
	<text transform="matrix(1 0 0 1 -3.041406e-05 7)" class="st1 st4 st5">          </text>
</g>
<g transform="translate(472.6,330.1667)">
	<text transform="matrix(1 0 0 1 -3.041406e-05 6.9998)" class="st1 st4 st5">          </text>
</g>
<g transform="translate(472.6,312.9222)">
	<text transform="matrix(1 0 0 1 -3.041406e-05 7.0002)" class="st1 st4 st5">          </text>
</g>
<g transform="translate(472.6,295.6778)">
	<text transform="matrix(1 0 0 1 -3.041406e-05 6.9999)" class="st1 st4 st5">          </text>
</g>
<g transform="translate(472.6,278.4333)">
	<text transform="matrix(1 0 0 1 -3.041406e-05 6.9998)" class="st1 st4 st5">          </text>
</g>
<g transform="translate(472.6,261.1889)">
	<text transform="matrix(1 0 0 1 -3.041406e-05 7.0001)" class="st1 st4 st5">          </text>
</g>
<g transform="translate(472.6,243.9444)">
	<text transform="matrix(1 0 0 1 -3.041406e-05 6.9999)" class="st1 st4 st5">          </text>
</g>
<g transform="translate(472.6,226.7)">
	<text transform="matrix(1 0 0 1 -3.041406e-05 7.0002)" class="st1 st4 st5">          </text>
</g>
<g transform="translate(472.6,209.4556)">
	<text transform="matrix(1 0 0 1 -3.041406e-05 7)" class="st1 st4 st5">          </text>
</g>
<g transform="translate(472.6,192.2111)">
	<text transform="matrix(1 0 0 1 -3.041406e-05 6.9998)" class="st1 st4 st5">          </text>
</g>
<g transform="translate(472.6,174.9667)">
	<text transform="matrix(1 0 0 1 -3.041406e-05 7.0001)" class="st1 st4 st5">          </text>
</g>
<g transform="translate(472.6,157.7222)">
	<text transform="matrix(1 0 0 1 -3.041406e-05 7)" class="st1 st4 st5">          </text>
</g>
<g transform="translate(472.6,140.4778)">
	<text transform="matrix(1 0 0 1 -3.041406e-05 7.0002)" class="st1 st4 st5">          </text>
</g>
<g transform="translate(472.6,123.2333)">
	<text transform="matrix(1 0 0 1 -3.041406e-05 7.0001)" class="st1 st4 st5">          </text>
</g>
<g transform="translate(472.6,105.9889)">
	<text transform="matrix(1 0 0 1 -3.041406e-05 6.9999)" class="st1 st4 st5">          </text>
</g>
<g transform="translate(472.6,88.7444)">
	<text transform="matrix(1 0 0 1 -3.041406e-05 7.0002)" class="st1 st4 st5">          </text>
</g>
<g>
	<path class="st6" d="M467,416.4h-11.6v17.2H467"/>
	<path class="st6" d="M467,813h-53.4v-17.2H467"/>
	<path class="st6" d="M467,347.4h-57.4v17.2H467"/>
	<path class="st6" d="M467,692.3h-71.6v17.2H467"/>
	<path class="st6" d="M467,381.9h-85.6v17.2H467"/>
	<path class="st6" d="M467,157.7h-94.9V175H467"/>
	<path class="st6" d="M467,726.8h-95.1v-25.9h23.5"/>
	<path class="st6" d="M467,519.9h-95.6v-17.2H467"/>
	<path class="st6" d="M467,330.2H366.3V356h43.4"/>
	<path class="st6" d="M467,140.5H363.4v-17.2H467"/>
	<path class="st6" d="M467,243.9H363.2v-17.2H467"/>
	<path class="st6" d="M371.5,511.2h-10.2v25.9H467"/>
	<path class="st6" d="M467,623.3H359.7v-17.2H467"/>
	<path class="st6" d="M363.2,235.3h-18.5v25.9H467"/>
	<path class="st6" d="M467,209.5H343.2v-17.2H467"/>
	<path class="st6" d="M372.1,166.3h-34.4v-34.5h25.7"/>
	<path class="st6" d="M467,744H335.8v-30.2h36.2"/>
	<path class="st6" d="M467,657.8H335.1v17.2H467"/>
	<path class="st6" d="M467,640.6H332.3v-25.9h27.4"/>
	<path class="st6" d="M467,295.7H331.1v17.2H467"/>
	<path class="st6" d="M413.6,804.4H330v-25.9H467"/>
	<path class="st6" d="M455.4,425H329.7v-34.5h51.8"/>
	<path class="st6" d="M335.8,728.9h-11.5v32.3H467"/>
	<path class="st6" d="M467,468.1H323.2v-17.2H467"/>
	<path class="st6" d="M332.3,627.6h-12.2v38.8h15"/>
	<path class="st6" d="M467,554.3H319.4v17.2H467"/>
	<path class="st6" d="M323.2,459.5h-10.4v-51.7h16.8"/>
	<path class="st6" d="M467,830.3H299.5v-38.8H330"/>
	<path class="st6" d="M324.2,745.1h-28.1V647h24"/>
	<path class="st6" d="M361.2,524.2h-70.1v-38.8h176"/>
	<path class="st6" d="M343.2,200.8H286v47.4h58.7"/>
	<path class="st6" d="M296.2,696.1h-10.7V588.8H467"/>
	<path class="st6" d="M286,224.5h-10.7v53.9H467"/>
	<path class="st6" d="M291.1,504.8h-22.3v-71.1h44.1"/>
	<path class="st6" d="M331.1,304.3h-63.8v38.8h98.9"/>
	<path class="st6" d="M319.4,563h-54.2v79.5h20.3"/>
	<path class="st6" d="M267.3,323.7h-14.2v-72.2h22.1"/>
	<path class="st6" d="M299.5,810.9h-50.5V602.7h16.2"/>
	<path class="st6" d="M337.7,149.1h-93.3v138.5h8.7"/>
	<path class="st6" d="M249.1,706.8h-5.7V469.2h25.3"/>
	<path class="st6" d="M244.4,218.3H239V106h228"/>
	<path class="st6" d="M243.4,588h-15.5V162.2H239"/>
	<path class="st6" d="M227.9,375.1h-4.3V88.7H467"/>
</g>
<g transform="translate(470.0992,830.2556)">
	<text transform="matrix(1 0 0 1 3.016406e-05 3.5002)" class="st7 st4 st5">A01h</text>
</g>
<g transform="translate(470.0992,813.0111)">
	<text transform="matrix(1 0 0 1 3.016406e-05 3.5001)" class="st7 st4 st5">A01h2</text>
</g>
<g transform="translate(470.0992,795.7667)">
	<text transform="matrix(1 0 0 1 3.016406e-05 3.4999)" class="st8 st4 st5">A12g</text>
</g>
<g transform="translate(470.0992,778.5222)">
	<text transform="matrix(1 0 0 1 3.016406e-05 3.5002)" class="st8 st4 st5">A12p</text>
</g>
<g transform="translate(470.0992,761.2778)">
	<text transform="matrix(1 0 0 1 3.016406e-05 3.5001)" class="st8 st4 st5">A12c3</text>
</g>
<g transform="translate(470.0992,744.0333)">
	<text transform="matrix(1 0 0 1 3.016406e-05 3.4999)" class="st8 st4 st5">A06i</text>
</g>
<g transform="translate(470.0992,726.7889)">
	<text transform="matrix(1 0 0 1 3.016406e-05 3.5002)" class="st9 st4 st5">A08e1</text>
</g>
<g transform="translate(470.0992,709.5444)">
	<text transform="matrix(1 0 0 1 3.016406e-05 3.5001)" class="st9 st4 st5">A08e3</text>
</g>
<g transform="translate(470.0992,692.3)">
	<text transform="matrix(1 0 0 1 3.016406e-05 3.4998)" class="st9 st4 st5">A08e2</text>
</g>
<g transform="translate(470.0992,675.0555)">
	<text transform="matrix(1 0 0 1 3.016406e-05 3.5002)" class="st8 st4 st5">A12h</text>
</g>
<g transform="translate(470.0992,657.8111)">
	<text transform="matrix(1 0 0 1 3.016406e-05 3.4999)" class="st8 st4 st5">A12c6</text>
</g>
<g transform="translate(470.0992,640.5667)">
	<text transform="matrix(1 0 0 1 3.016406e-05 3.5002)" class="st9 st4 st5">A08c</text>
</g>
<g transform="translate(470.0992,623.3222)">
	<text transform="matrix(1 0 0 1 3.016406e-05 3.5001)" class="st9 st4 st5">A08c2</text>
</g>
<g transform="translate(470.0992,606.0778)">
	<text transform="matrix(1 0 0 1 3.016406e-05 3.4998)" class="st8 st4 st5">A12c8</text>
</g>
<g transform="translate(470.0992,588.8333)">
	<text transform="matrix(1 0 0 1 3.016406e-05 3.5002)" class="st8 st4 st5">A06k</text>
</g>
<g transform="translate(470.0992,571.5889)">
	<text transform="matrix(1 0 0 1 3.016406e-05 3.4999)" class="st9 st4 st5">A08s</text>
</g>
<g transform="translate(470.0992,554.3444)">
	<text transform="matrix(1 0 0 1 3.016406e-05 3.4998)" class="st10 st4 st5">A03q</text>
</g>
<g transform="translate(470.0992,537.1)">
	<text transform="matrix(1 0 0 1 3.016406e-05 3.5001)" class="st11 st4 st5">A02c</text>
</g>
<g transform="translate(470.0992,519.8555)">
	<text transform="matrix(1 0 0 1 3.016406e-05 3.4999)" class="st11 st4 st5">A02a</text>
</g>
<g transform="translate(470.0992,502.6111)">
	<text transform="matrix(1 0 0 1 3.016406e-05 3.5002)" class="st11 st4 st5">A02d</text>
</g>
<g transform="translate(470.0992,485.3667)">
	<text transform="matrix(1 0 0 1 3.016406e-05 3.5)" class="st11 st4 st5">A02b</text>
</g>
<g transform="translate(470.0992,468.1222)">
	<text transform="matrix(1 0 0 1 3.016406e-05 3.4999)" class="st11 st4 st5">A02k</text>
</g>
<g transform="translate(470.0992,450.8778)">
	<text transform="matrix(1 0 0 1 3.016406e-05 3.5001)" class="st10 st4 st5">A03d</text>
</g>
<g transform="translate(470.0992,433.6333)">
	<text transform="matrix(1 0 0 1 3.016406e-05 3.5)" class="st11 st4 st5">A02n</text>
</g>
<g transform="translate(470.0992,416.3889)">
	<text transform="matrix(1 0 0 1 3.016406e-05 3.4998)" class="st11 st4 st5">A02m</text>
</g>
<g transform="translate(470.0992,399.1444)">
	<text transform="matrix(1 0 0 1 3.016406e-05 3.5001)" class="st10 st4 st5">A03y1</text>
</g>
<g transform="translate(470.0992,381.9)">
	<text transform="matrix(1 0 0 1 3.016406e-05 3.4999)" class="st10 st4 st5">A03o</text>
</g>
<g transform="translate(470.0992,364.6555)">
	<text transform="matrix(1 0 0 1 3.016406e-05 3.4998)" class="st12 st4 st5">A23m</text>
</g>
<g transform="translate(470.0992,347.4111)">
	<text transform="matrix(1 0 0 1 3.016406e-05 3.5)" class="st12 st4 st5">A19b2</text>
</g>
<g transform="translate(470.0992,330.1667)">
	<text transform="matrix(1 0 0 1 3.016406e-05 3.4998)" class="st12 st4 st5">A19b1</text>
</g>
<g transform="translate(470.0992,312.9222)">
	<text transform="matrix(1 0 0 1 3.016406e-05 3.5002)" class="st7 st4 st5">A27i</text>
</g>
<g transform="translate(470.0992,295.6778)">
	<text transform="matrix(1 0 0 1 3.016406e-05 3.4999)" class="st7 st4 st5">A05q</text>
</g>
<g transform="translate(470.0992,278.4333)">
	<text transform="matrix(1 0 0 1 3.016406e-05 3.4998)" class="st9 st4 st5">A08m</text>
</g>
<g transform="translate(470.0992,261.1889)">
	<text transform="matrix(1 0 0 1 3.016406e-05 3.5001)" class="st9 st4 st5">A08j3</text>
</g>
<g transform="translate(470.0992,243.9444)">
	<text transform="matrix(1 0 0 1 3.016406e-05 3.4999)" class="st9 st4 st5">A08j1</text>
</g>
<g transform="translate(470.0992,226.7)">
	<text transform="matrix(1 0 0 1 3.016406e-05 3.5002)" class="st9 st4 st5">A08j2</text>
</g>
<g transform="translate(470.0992,209.4556)">
	<text transform="matrix(1 0 0 1 3.016406e-05 3.5)" class="st9 st4 st5">A08h</text>
</g>
<g transform="translate(470.0992,192.2111)">
	<text transform="matrix(1 0 0 1 3.016406e-05 3.4998)" class="st12 st4 st5">A19i</text>
</g>
<g transform="translate(470.0992,174.9667)">
	<text transform="matrix(1 0 0 1 3.016406e-05 3.5001)" class="st10 st4 st5">A03y2</text>
</g>
<g transform="translate(470.0992,157.7222)">
	<text transform="matrix(1 0 0 1 3.016406e-05 3.5)" class="st13 st4 st5">A01r</text>
</g>
<g transform="translate(470.0992,140.4778)">
	<text transform="matrix(1 0 0 1 3.016406e-05 3.5002)" class="st10 st4 st5">A03b?</text>
</g>
<g transform="translate(470.0992,123.2333)">
	<text transform="matrix(1 0 0 1 3.016406e-05 3.5001)" class="st10 st4 st5">A03y5</text>
</g>
<g transform="translate(470.0992,105.9889)">
	<text transform="matrix(1 0 0 1 3.016406e-05 3.4999)" class="st13 st4 st5">A17i?</text>
</g>
<g transform="translate(470.0992,88.7444)">
	<text transform="matrix(1 0 0 1 3.016406e-05 3.5002)" class="st8 st4 st5">A12c9</text>
</g>
<g transform="matrix(0.5,0,0,0.5,548,71.5)">
	<g>
		<defs>
			<rect id="SVGID_1_" x="441.5" y="388" width="883" height="776"/>
		</defs>
		<clipPath id="SVGID_2_">
			<use xlink:href="#SVGID_1_"  style="overflow:visible;"/>
		</clipPath>
		
			<image style="overflow:visible;clip-path:url(#SVGID_2_);enable-background:new    ;" width="1766" height="1552" xlink:href="2B031BFAB65A22C7.png" >
		</image>
	</g>
</g>
<g>
	<line class="st0" x1="1439" y1="847.5" x2="1455" y2="847.5"/>
	<line class="st0" x1="1439" y1="71.5" x2="1455" y2="71.5"/>
	<line class="st0" x1="1439" y1="847.5" x2="1439" y2="71.5"/>
	<line class="st0" x1="1455" y1="847.5" x2="1455" y2="71.5"/>
</g>
<g transform="matrix(0.5,0,0,0.5,1439,71.5)">
	<g>
		<defs>
			<rect id="SVGID_3_" x="8" y="388" width="16" height="776"/>
		</defs>
		<clipPath id="SVGID_4_">
			<use xlink:href="#SVGID_3_"  style="overflow:visible;"/>
		</clipPath>
		
			<image style="overflow:visible;clip-path:url(#SVGID_4_);enable-background:new    ;" width="32" height="1552" xlink:href="2B031BFAB65A22C5.png" >
		</image>
	</g>
</g>
<g>
	<line class="st0" x1="1455" y1="847.5" x2="1455" y2="71.5"/>
	<line class="st0" x1="1455" y1="769.9" x2="1447.2" y2="769.9"/>
	<line class="st0" x1="1455" y1="692.3" x2="1447.2" y2="692.3"/>
	<line class="st0" x1="1455" y1="614.7" x2="1447.2" y2="614.7"/>
	<line class="st0" x1="1455" y1="537.1" x2="1447.2" y2="537.1"/>
	<line class="st0" x1="1455" y1="459.5" x2="1447.2" y2="459.5"/>
	<line class="st0" x1="1455" y1="381.9" x2="1447.2" y2="381.9"/>
	<line class="st0" x1="1455" y1="304.3" x2="1447.2" y2="304.3"/>
	<line class="st0" x1="1455" y1="226.7" x2="1447.2" y2="226.7"/>
	<line class="st0" x1="1455" y1="149.1" x2="1447.2" y2="149.1"/>
	<line class="st0" x1="1455" y1="71.5" x2="1447.2" y2="71.5"/>
</g>
<g transform="translate(1460.6,769.9)">
	<text transform="matrix(1 0 0 1 1.216563e-04 6.9999)" class="st1 st2 st3">0.1</text>
</g>
<g transform="translate(1460.6,692.3)">
	<text transform="matrix(1 0 0 1 1.216563e-04 6.9998)" class="st1 st2 st3">0.2</text>
</g>
<g transform="translate(1460.6,614.7)">
	<text transform="matrix(1 0 0 1 1.216563e-04 7.0002)" class="st1 st2 st3">0.3</text>
</g>
<g transform="translate(1460.6,537.1)">
	<text transform="matrix(1 0 0 1 1.216563e-04 7.0001)" class="st1 st2 st3">0.4</text>
</g>
<g transform="translate(1460.6,459.5)">
	<text transform="matrix(1 0 0 1 1.216563e-04 7)" class="st1 st2 st3">0.5</text>
</g>
<g transform="translate(1460.6,381.9)">
	<text transform="matrix(1 0 0 1 1.216563e-04 6.9999)" class="st1 st2 st3">0.6</text>
</g>
<g transform="translate(1460.6,304.3)">
	<text transform="matrix(1 0 0 1 1.216563e-04 6.9998)" class="st1 st2 st3">0.7</text>
</g>
<g transform="translate(1460.6,226.7)">
	<text transform="matrix(1 0 0 1 1.216563e-04 7.0002)" class="st1 st2 st3">0.8</text>
</g>
<g transform="translate(1460.6,149.1)">
	<text transform="matrix(1 0 0 1 1.216563e-04 7.0001)" class="st1 st2 st3">0.9</text>
</g>
<g transform="translate(1460.6,71.5)">
	<text transform="matrix(1 0 0 1 1.216563e-04 7)" class="st1 st2 st3">1</text>
</g>
<g transform="translate(1489.1,459.4996) rotate(-90)">
	<text transform="matrix(1 0 0 1 -112.0893 31.2687)" class="st1 st2 st3">Synapse Similarity Score</text>
</g>
<g>
	<line class="st0" x1="1439" y1="71.5" x2="1455" y2="71.5"/>
	<line class="st0" x1="1439" y1="847.5" x2="1455" y2="847.5"/>
	<line class="st0" x1="1439" y1="847.5" x2="1439" y2="71.5"/>
	<line class="st0" x1="1455" y1="847.5" x2="1455" y2="71.5"/>
	<line class="st14" x1="1439" y1="847.5" x2="1439" y2="847.5"/>
	<line class="st14" x1="1439" y1="71.5" x2="1439" y2="71.5"/>
	<line class="st14" x1="1455" y1="847.5" x2="1455" y2="847.5"/>
	<line class="st14" x1="1455" y1="71.5" x2="1455" y2="71.5"/>
</g>
</svg>
