<?xml version="1.0" encoding="utf-8"?>
<!-- Generator: Adobe Illustrator 22.1.0, SVG Export Plug-In . SVG Version: 6.00 Build 0)  -->
<svg version="1.1" id="Layer_1" xmlns="http://www.w3.org/2000/svg" xmlns:xlink="http://www.w3.org/1999/xlink" x="0px" y="0px"
	 viewBox="0 0 560 420" style="enable-background:new 0 0 560 420;" xml:space="preserve">
<style type="text/css">
	.st0{fill:none;stroke:#262626;stroke-width:0.5;stroke-linecap:square;stroke-linejoin:round;stroke-miterlimit:10;}
	.st1{fill:#262626;}
	.st2{font-family:'HelveticaNeue';}
	.st3{font-size:10px;}
	.st4{fill:#555555;fill-opacity:0.6;}
	.st5{fill:none;stroke:#000000;stroke-width:0.5;stroke-linecap:square;stroke-miterlimit:10;}
</style>
<g>
	<line class="st0" x1="73" y1="374" x2="507" y2="374"/>
	<line class="st0" x1="73" y1="374" x2="73" y2="369.7"/>
	<line class="st0" x1="135" y1="374" x2="135" y2="369.7"/>
	<line class="st0" x1="197" y1="374" x2="197" y2="369.7"/>
	<line class="st0" x1="259" y1="374" x2="259" y2="369.7"/>
	<line class="st0" x1="321" y1="374" x2="321" y2="369.7"/>
	<line class="st0" x1="383" y1="374" x2="383" y2="369.7"/>
	<line class="st0" x1="445" y1="374" x2="445" y2="369.7"/>
	<line class="st0" x1="507" y1="374" x2="507" y2="369.7"/>
</g>
<g transform="translate(73,378)">
	<text transform="matrix(1 0 0 1 -3 10)" class="st1 st2 st3">0</text>
</g>
<g transform="translate(135,378)">
	<text transform="matrix(1 0 0 1 -7 10)" class="st1 st2 st3">0.1</text>
</g>
<g transform="translate(197,378)">
	<text transform="matrix(1 0 0 1 -7 10)" class="st1 st2 st3">0.2</text>
</g>
<g transform="translate(259,378)">
	<text transform="matrix(1 0 0 1 -7 10)" class="st1 st2 st3">0.3</text>
</g>
<g transform="translate(321,378)">
	<text transform="matrix(1 0 0 1 -7 10)" class="st1 st2 st3">0.4</text>
</g>
<g transform="translate(383,378)">
	<text transform="matrix(1 0 0 1 -7 10)" class="st1 st2 st3">0.5</text>
</g>
<g transform="translate(445,378)">
	<text transform="matrix(1 0 0 1 -7 10)" class="st1 st2 st3">0.6</text>
</g>
<g transform="translate(507,378)">
	<text transform="matrix(1 0 0 1 -7 10)" class="st1 st2 st3">0.7</text>
</g>
<g>
	<line class="st0" x1="73" y1="374" x2="73" y2="283"/>
	<line class="st0" x1="73" y1="374" x2="77.3" y2="374"/>
	<line class="st0" x1="73" y1="351.2" x2="77.3" y2="351.2"/>
	<line class="st0" x1="73" y1="328.5" x2="77.3" y2="328.5"/>
	<line class="st0" x1="73" y1="305.8" x2="77.3" y2="305.8"/>
	<line class="st0" x1="73" y1="283" x2="77.3" y2="283"/>
</g>
<g transform="translate(69,374)">
	<text transform="matrix(1 0 0 1 -6 3.5)" class="st1 st2 st3">0</text>
</g>
<g transform="translate(69,351.25)">
	<text transform="matrix(1 0 0 1 -14 3.5)" class="st1 st2 st3">0.2</text>
</g>
<g transform="translate(69,328.5)">
	<text transform="matrix(1 0 0 1 -14 3.5)" class="st1 st2 st3">0.4</text>
</g>
<g transform="translate(69,305.75)">
	<text transform="matrix(1 0 0 1 -14 3.5)" class="st1 st2 st3">0.6</text>
</g>
<g transform="translate(69,283)">
	<text transform="matrix(1 0 0 1 -14 3.5)" class="st1 st2 st3">0.8</text>
</g>
<g>
	<path class="st4" d="M104,374v-89.5H73V374H104z M135,374v-8.6h-31v8.6H135z M166,374v-5.3h-31v5.3H166z M197,374v-3.4h-31v3.4H197
		z M228,374v-2.3h-31v2.3H228z M259,374v-1.7h-31v1.7H259z M290,374v-1.2h-31v1.2H290z M321,374v-0.7h-31v0.7H321z M352,374v-0.5
		h-31v0.5H352z M383,374v-0.3h-31v0.3H383z M414,374v-0.1h-31v0.1H414z M445,374L445,374l-31-0.1v0.1H445z M476,374L476,374l-31,0v0
		H476z M507,374L507,374l-31,0v0H507z"/>
</g>
<g>
	<path class="st5" d="M73,374v-89.5h31V374l0,0"/>
	<path class="st5" d="M104,365.4h31v8.6l0,0"/>
	<path class="st5" d="M135,368.7h31v5.3l0,0"/>
	<path class="st5" d="M166,370.6h31v3.4l0,0"/>
	<path class="st5" d="M197,371.7h31v2.3l0,0"/>
	<path class="st5" d="M228,372.3h31v1.7l0,0"/>
	<path class="st5" d="M259,372.8h31v1.2l0,0"/>
	<path class="st5" d="M290,373.3h31v0.7l0,0"/>
	<path class="st5" d="M321,373.5h31v0.5l0,0"/>
	<path class="st5" d="M352,373.7h31v0.3l0,0"/>
	<path class="st5" d="M383,373.9h31v0.1l0,0"/>
	<path class="st5" d="M414,373.9h31v0.1l0,0"/>
	<path class="st5" d="M445,374h31v0l0,0"/>
	<path class="st5" d="M476,374h31v0"/>
</g>
</svg>
