<?xml version="1.0" encoding="utf-8"?>
<!-- Generator: Adobe Illustrator 22.1.0, SVG Export Plug-In . SVG Version: 6.00 Build 0)  -->
<svg version="1.1" id="Layer_1" xmlns="http://www.w3.org/2000/svg" xmlns:xlink="http://www.w3.org/1999/xlink" x="0px" y="0px"
	 viewBox="0 0 851 673" style="enable-background:new 0 0 851 673;" xml:space="preserve">
<style type="text/css">
	.st0{fill:#262626;}
	.st1{font-family:'HelveticaNeue';}
	.st2{font-size:14px;}
	.st3{fill:none;stroke:#262626;stroke-width:0.5;stroke-linecap:square;stroke-linejoin:round;stroke-miterlimit:10;}
	.st4{fill:#555555;fill-opacity:0.502;stroke:#262626;stroke-width:0.5;stroke-miterlimit:10;}
	.st5{font-family:'MyriadPro-Regular';}
	.st6{font-size:15.2431px;}
	.st7{fill:none;stroke:#262626;stroke-width:0.7591;stroke-linecap:square;stroke-linejoin:round;stroke-miterlimit:10;}
	.st8{font-size:15.1817px;}
	.st9{fill:#555555;fill-opacity:0.6;}
	.st10{fill:none;stroke:#000000;stroke-width:0.7591;stroke-linecap:square;stroke-miterlimit:10;}
</style>
<g transform="translate(106.5,328.1)">
	<text transform="matrix(1 0 0 1 -10 3.5)" class="st0 st1 st2">5</text>
</g>
<g transform="translate(106.5,258.7)">
	<text transform="matrix(1 0 0 1 -16 3.5)" class="st0 st1 st2">10</text>
</g>
<g transform="translate(106.5,189.3)">
	<text transform="matrix(1 0 0 1 -16 3.5)" class="st0 st1 st2">15</text>
</g>
<g transform="translate(106.5,119.9)">
	<text transform="matrix(1 0 0 1 -16 3.5)" class="st0 st1 st2">20</text>
</g>
<g transform="translate(106.5,50.5)">
	<text transform="matrix(1 0 0 1 -16 3.5)" class="st0 st1 st2">25</text>
</g>
<g>
	<g>
		<line class="st3" x1="110.5" y1="397.5" x2="770" y2="397.5"/>
		<line class="st3" x1="110.5" y1="397.5" x2="110.5" y2="390.9"/>
		<line class="st3" x1="204.7" y1="397.5" x2="204.7" y2="390.9"/>
		<line class="st3" x1="298.9" y1="397.5" x2="298.9" y2="390.9"/>
		<line class="st3" x1="393.1" y1="397.5" x2="393.1" y2="390.9"/>
		<line class="st3" x1="487.4" y1="397.5" x2="487.4" y2="390.9"/>
		<line class="st3" x1="581.6" y1="397.5" x2="581.6" y2="390.9"/>
		<line class="st3" x1="675.8" y1="397.5" x2="675.8" y2="390.9"/>
		<line class="st3" x1="770" y1="397.5" x2="770" y2="390.9"/>
	</g>
	<g>
		<line class="st3" x1="110.5" y1="397.5" x2="110.5" y2="50.5"/>
		<line class="st3" x1="110.5" y1="397.5" x2="117.1" y2="397.5"/>
		<line class="st3" x1="110.5" y1="328.1" x2="117.1" y2="328.1"/>
		<line class="st3" x1="110.5" y1="258.7" x2="117.1" y2="258.7"/>
		<line class="st3" x1="110.5" y1="189.3" x2="117.1" y2="189.3"/>
		<line class="st3" x1="110.5" y1="119.9" x2="117.1" y2="119.9"/>
		<line class="st3" x1="110.5" y1="50.5" x2="117.1" y2="50.5"/>
	</g>
	<g transform="translate(265.5577,300.34)">
		<circle class="st4" cx="0" cy="0" r="5.2"/>
	</g>
	<g transform="translate(668.1519,230.94)">
		<circle class="st4" cx="0" cy="0" r="5.2"/>
	</g>
	<g transform="translate(454.9159,369.74)">
		<circle class="st4" cx="0" cy="0" r="5.2"/>
	</g>
	<g transform="translate(364.8164,328.1)">
		<circle class="st4" cx="0" cy="0" r="5.2"/>
	</g>
	<g transform="translate(261.555,286.46)">
		<circle class="st4" cx="0" cy="0" r="5.2"/>
	</g>
	<g transform="translate(539.1897,355.86)">
		<circle class="st4" cx="0" cy="0" r="5.2"/>
	</g>
	<g transform="translate(643.546,203.18)">
		<circle class="st4" cx="0" cy="0" r="5.2"/>
	</g>
	<g transform="translate(319.4932,355.86)">
		<circle class="st4" cx="0" cy="0" r="5.2"/>
	</g>
	<g transform="translate(728.6095,314.22)">
		<circle class="st4" cx="0" cy="0" r="5.2"/>
	</g>
	<g transform="translate(433.8241,369.74)">
		<circle class="st4" cx="0" cy="0" r="5.2"/>
	</g>
	<g transform="translate(272.6893,355.86)">
		<circle class="st4" cx="0" cy="0" r="5.2"/>
	</g>
	<g transform="translate(379.0579,328.1)">
		<circle class="st4" cx="0" cy="0" r="5.2"/>
	</g>
	<g transform="translate(361.6731,369.74)">
		<circle class="st4" cx="0" cy="0" r="5.2"/>
	</g>
	<g transform="translate(110.5,341.98)">
		<circle class="st4" cx="0" cy="0" r="5.2"/>
	</g>
	<g transform="translate(635.6164,230.94)">
		<circle class="st4" cx="0" cy="0" r="5.2"/>
	</g>
	<g transform="translate(373.2707,369.74)">
		<circle class="st4" cx="0" cy="0" r="5.2"/>
	</g>
	<g transform="translate(593.4075,341.98)">
		<circle class="st4" cx="0" cy="0" r="5.2"/>
	</g>
	<g transform="translate(512.7073,328.1)">
		<circle class="st4" cx="0" cy="0" r="5.2"/>
	</g>
	<g transform="translate(626.9949,258.7)">
		<circle class="st4" cx="0" cy="0" r="5.2"/>
	</g>
	<g transform="translate(459.6104,369.74)">
		<circle class="st4" cx="0" cy="0" r="5.2"/>
	</g>
	<g transform="translate(501.4918,341.98)">
		<circle class="st4" cx="0" cy="0" r="5.2"/>
	</g>
	<g transform="translate(430.7946,369.74)">
		<circle class="st4" cx="0" cy="0" r="5.2"/>
	</g>
	<g transform="translate(342.4634,355.86)">
		<circle class="st4" cx="0" cy="0" r="5.2"/>
	</g>
	<g transform="translate(490.2054,369.74)">
		<circle class="st4" cx="0" cy="0" r="5.2"/>
	</g>
	<g transform="translate(254.466,341.98)">
		<circle class="st4" cx="0" cy="0" r="5.2"/>
	</g>
	<g transform="translate(486.3946,300.34)">
		<circle class="st4" cx="0" cy="0" r="5.2"/>
	</g>
	<g transform="translate(427.8482,369.74)">
		<circle class="st4" cx="0" cy="0" r="5.2"/>
	</g>
	<g transform="translate(470.5696,341.98)">
		<circle class="st4" cx="0" cy="0" r="5.2"/>
	</g>
	<g transform="translate(166.9154,369.74)">
		<circle class="st4" cx="0" cy="0" r="5.2"/>
	</g>
	<g transform="translate(566.1942,328.1)">
		<circle class="st4" cx="0" cy="0" r="5.2"/>
	</g>
	<g transform="translate(511.88,341.98)">
		<circle class="st4" cx="0" cy="0" r="5.2"/>
	</g>
	<g transform="translate(348.4432,369.74)">
		<circle class="st4" cx="0" cy="0" r="5.2"/>
	</g>
	<g transform="translate(696.6991,175.42)">
		<circle class="st4" cx="0" cy="0" r="5.2"/>
	</g>
	<g transform="translate(516.6783,369.74)">
		<circle class="st4" cx="0" cy="0" r="5.2"/>
	</g>
	<g transform="translate(207.7552,369.74)">
		<circle class="st4" cx="0" cy="0" r="5.2"/>
	</g>
	<g transform="translate(248.9965,369.74)">
		<circle class="st4" cx="0" cy="0" r="5.2"/>
	</g>
	<g transform="translate(695.2205,203.18)">
		<circle class="st4" cx="0" cy="0" r="5.2"/>
	</g>
	<g transform="translate(408.9154,355.86)">
		<circle class="st4" cx="0" cy="0" r="5.2"/>
	</g>
	<g transform="translate(372.4548,314.22)">
		<circle class="st4" cx="0" cy="0" r="5.2"/>
	</g>
	<g transform="translate(330.0262,369.74)">
		<circle class="st4" cx="0" cy="0" r="5.2"/>
	</g>
	<g transform="translate(599.1162,328.1)">
		<circle class="st4" cx="0" cy="0" r="5.2"/>
	</g>
	<g transform="translate(530.5547,300.34)">
		<circle class="st4" cx="0" cy="0" r="5.2"/>
	</g>
	<g transform="translate(442.0041,369.74)">
		<circle class="st4" cx="0" cy="0" r="5.2"/>
	</g>
	<g transform="translate(532.945,328.1)">
		<circle class="st4" cx="0" cy="0" r="5.2"/>
	</g>
	<g transform="translate(428.1075,355.86)">
		<circle class="st4" cx="0" cy="0" r="5.2"/>
	</g>
	<g transform="translate(324.0386,369.74)">
		<circle class="st4" cx="0" cy="0" r="5.2"/>
	</g>
	<g transform="translate(355.3243,369.74)">
		<circle class="st4" cx="0" cy="0" r="5.2"/>
	</g>
	<g transform="translate(110.5,369.74)">
		<circle class="st4" cx="0" cy="0" r="5.2"/>
	</g>
	<g transform="translate(266.3304,369.74)">
		<circle class="st4" cx="0" cy="0" r="5.2"/>
	</g>
	<g transform="translate(518.7054,272.58)">
		<circle class="st4" cx="0" cy="0" r="5.2"/>
	</g>
	<g transform="translate(518.8688,328.1)">
		<circle class="st4" cx="0" cy="0" r="5.2"/>
	</g>
	<g transform="translate(564.2116,258.7)">
		<circle class="st4" cx="0" cy="0" r="5.2"/>
	</g>
	<g transform="translate(438.9641,355.86)">
		<circle class="st4" cx="0" cy="0" r="5.2"/>
	</g>
	<g transform="translate(578.9023,369.74)">
		<circle class="st4" cx="0" cy="0" r="5.2"/>
	</g>
	<g transform="translate(519.0878,328.1)">
		<circle class="st4" cx="0" cy="0" r="5.2"/>
	</g>
	<g transform="translate(617.0748,300.34)">
		<circle class="st4" cx="0" cy="0" r="5.2"/>
	</g>
	<g transform="translate(470.133,328.1)">
		<circle class="st4" cx="0" cy="0" r="5.2"/>
	</g>
	<g transform="translate(523.5652,314.22)">
		<circle class="st4" cx="0" cy="0" r="5.2"/>
	</g>
	<g transform="translate(565.0176,230.94)">
		<circle class="st4" cx="0" cy="0" r="5.2"/>
	</g>
	<g transform="translate(599.3966,286.46)">
		<circle class="st4" cx="0" cy="0" r="5.2"/>
	</g>
	<g transform="translate(324.0002,369.74)">
		<circle class="st4" cx="0" cy="0" r="5.2"/>
	</g>
	<g transform="translate(429.5508,369.74)">
		<circle class="st4" cx="0" cy="0" r="5.2"/>
	</g>
	<g transform="translate(110.5,355.86)">
		<circle class="st4" cx="0" cy="0" r="5.2"/>
	</g>
	<g transform="translate(393.8145,369.74)">
		<circle class="st4" cx="0" cy="0" r="5.2"/>
	</g>
	<g transform="translate(592.957,161.54)">
		<circle class="st4" cx="0" cy="0" r="5.2"/>
	</g>
	<g transform="translate(492.6383,300.34)">
		<circle class="st4" cx="0" cy="0" r="5.2"/>
	</g>
	<g transform="translate(193.3771,369.74)">
		<circle class="st4" cx="0" cy="0" r="5.2"/>
	</g>
	<g transform="translate(478.3156,369.74)">
		<circle class="st4" cx="0" cy="0" r="5.2"/>
	</g>
	<g transform="translate(343.988,369.74)">
		<circle class="st4" cx="0" cy="0" r="5.2"/>
	</g>
	<g transform="translate(508.6726,369.74)">
		<circle class="st4" cx="0" cy="0" r="5.2"/>
	</g>
	<g transform="translate(350.3619,369.74)">
		<circle class="st4" cx="0" cy="0" r="5.2"/>
	</g>
	<g transform="translate(416.7326,369.74)">
		<circle class="st4" cx="0" cy="0" r="5.2"/>
	</g>
	<g transform="translate(283.4156,369.74)">
		<circle class="st4" cx="0" cy="0" r="5.2"/>
	</g>
	<g transform="translate(521.8181,341.98)">
		<circle class="st4" cx="0" cy="0" r="5.2"/>
	</g>
	<g transform="translate(246.4532,369.74)">
		<circle class="st4" cx="0" cy="0" r="5.2"/>
	</g>
	<g transform="translate(614.127,217.06)">
		<circle class="st4" cx="0" cy="0" r="5.2"/>
	</g>
	<g transform="translate(506.3974,244.82)">
		<circle class="st4" cx="0" cy="0" r="5.2"/>
	</g>
	<g transform="translate(420.6512,328.1)">
		<circle class="st4" cx="0" cy="0" r="5.2"/>
	</g>
	<g transform="translate(574.7674,314.22)">
		<circle class="st4" cx="0" cy="0" r="5.2"/>
	</g>
	<g transform="translate(339.1624,369.74)">
		<circle class="st4" cx="0" cy="0" r="5.2"/>
	</g>
	<g transform="translate(604.3655,217.06)">
		<circle class="st4" cx="0" cy="0" r="5.2"/>
	</g>
	<g transform="translate(484.8403,369.74)">
		<circle class="st4" cx="0" cy="0" r="5.2"/>
	</g>
	<g transform="translate(539.6973,369.74)">
		<circle class="st4" cx="0" cy="0" r="5.2"/>
	</g>
	<g transform="translate(440.0735,328.1)">
		<circle class="st4" cx="0" cy="0" r="5.2"/>
	</g>
	<g transform="translate(674.0232,175.42)">
		<circle class="st4" cx="0" cy="0" r="5.2"/>
	</g>
	<g transform="translate(651.1171,230.94)">
		<circle class="st4" cx="0" cy="0" r="5.2"/>
	</g>
	<g transform="translate(573.5029,258.7)">
		<circle class="st4" cx="0" cy="0" r="5.2"/>
	</g>
	<g transform="translate(591.4788,272.58)">
		<circle class="st4" cx="0" cy="0" r="5.2"/>
	</g>
	<g transform="translate(563.0259,369.74)">
		<circle class="st4" cx="0" cy="0" r="5.2"/>
	</g>
	<g transform="translate(352.6658,355.86)">
		<circle class="st4" cx="0" cy="0" r="5.2"/>
	</g>
	<g transform="translate(233.5195,369.74)">
		<circle class="st4" cx="0" cy="0" r="5.2"/>
	</g>
	<g transform="translate(448.8818,355.86)">
		<circle class="st4" cx="0" cy="0" r="5.2"/>
	</g>
	<g transform="translate(449.7302,369.74)">
		<circle class="st4" cx="0" cy="0" r="5.2"/>
	</g>
	<g transform="translate(439.5491,355.86)">
		<circle class="st4" cx="0" cy="0" r="5.2"/>
	</g>
	<g transform="translate(437.0938,355.86)">
		<circle class="st4" cx="0" cy="0" r="5.2"/>
	</g>
	<g transform="translate(592.1451,369.74)">
		<circle class="st4" cx="0" cy="0" r="5.2"/>
	</g>
	<g transform="translate(296.2199,369.74)">
		<circle class="st4" cx="0" cy="0" r="5.2"/>
	</g>
	<g transform="translate(461.6829,341.98)">
		<circle class="st4" cx="0" cy="0" r="5.2"/>
	</g>
	<g transform="translate(528.0864,341.98)">
		<circle class="st4" cx="0" cy="0" r="5.2"/>
	</g>
	<g transform="translate(454.6038,369.74)">
		<circle class="st4" cx="0" cy="0" r="5.2"/>
	</g>
	<g transform="translate(565.8304,300.34)">
		<circle class="st4" cx="0" cy="0" r="5.2"/>
	</g>
	<g transform="translate(301.3352,369.74)">
		<circle class="st4" cx="0" cy="0" r="5.2"/>
	</g>
	<g transform="translate(301.9691,369.74)">
		<circle class="st4" cx="0" cy="0" r="5.2"/>
	</g>
	<g transform="translate(237.6849,369.74)">
		<circle class="st4" cx="0" cy="0" r="5.2"/>
	</g>
	<g transform="translate(533.4415,286.46)">
		<circle class="st4" cx="0" cy="0" r="5.2"/>
	</g>
	<g transform="translate(454.0837,300.34)">
		<circle class="st4" cx="0" cy="0" r="5.2"/>
	</g>
	<g transform="translate(558.9028,328.1)">
		<circle class="st4" cx="0" cy="0" r="5.2"/>
	</g>
	<g transform="translate(500.8748,341.98)">
		<circle class="st4" cx="0" cy="0" r="5.2"/>
	</g>
	<g transform="translate(345.3356,369.74)">
		<circle class="st4" cx="0" cy="0" r="5.2"/>
	</g>
	<g transform="translate(249.8382,369.74)">
		<circle class="st4" cx="0" cy="0" r="5.2"/>
	</g>
	<g transform="translate(541.5035,300.34)">
		<circle class="st4" cx="0" cy="0" r="5.2"/>
	</g>
	<g transform="translate(380.4123,314.22)">
		<circle class="st4" cx="0" cy="0" r="5.2"/>
	</g>
	<g transform="translate(292.0186,355.86)">
		<circle class="st4" cx="0" cy="0" r="5.2"/>
	</g>
	<g transform="translate(511.3665,272.58)">
		<circle class="st4" cx="0" cy="0" r="5.2"/>
	</g>
	<g transform="translate(425.2738,286.46)">
		<circle class="st4" cx="0" cy="0" r="5.2"/>
	</g>
	<g transform="translate(493.6828,286.46)">
		<circle class="st4" cx="0" cy="0" r="5.2"/>
	</g>
	<g transform="translate(409.8808,341.98)">
		<circle class="st4" cx="0" cy="0" r="5.2"/>
	</g>
	<g transform="translate(545.6373,203.18)">
		<circle class="st4" cx="0" cy="0" r="5.2"/>
	</g>
	<g transform="translate(583.2992,161.54)">
		<circle class="st4" cx="0" cy="0" r="5.2"/>
	</g>
	<g transform="translate(278.3525,369.74)">
		<circle class="st4" cx="0" cy="0" r="5.2"/>
	</g>
	<g transform="translate(475.7023,203.18)">
		<circle class="st4" cx="0" cy="0" r="5.2"/>
	</g>
	<g transform="translate(259.4474,355.86)">
		<circle class="st4" cx="0" cy="0" r="5.2"/>
	</g>
	<g transform="translate(569.8674,147.66)">
		<circle class="st4" cx="0" cy="0" r="5.2"/>
	</g>
	<g transform="translate(330.0839,369.74)">
		<circle class="st4" cx="0" cy="0" r="5.2"/>
	</g>
	<g transform="translate(393.8391,341.98)">
		<circle class="st4" cx="0" cy="0" r="5.2"/>
	</g>
	<g transform="translate(578.5222,272.58)">
		<circle class="st4" cx="0" cy="0" r="5.2"/>
	</g>
	<g transform="translate(504.9258,355.86)">
		<circle class="st4" cx="0" cy="0" r="5.2"/>
	</g>
	<g transform="translate(446.9438,355.86)">
		<circle class="st4" cx="0" cy="0" r="5.2"/>
	</g>
	<g transform="translate(432.6254,328.1)">
		<circle class="st4" cx="0" cy="0" r="5.2"/>
	</g>
	<g transform="translate(589.5579,230.94)">
		<circle class="st4" cx="0" cy="0" r="5.2"/>
	</g>
	<g transform="translate(233.157,369.74)">
		<circle class="st4" cx="0" cy="0" r="5.2"/>
	</g>
	<g transform="translate(538.1121,355.86)">
		<circle class="st4" cx="0" cy="0" r="5.2"/>
	</g>
	<g transform="translate(500.2821,258.7)">
		<circle class="st4" cx="0" cy="0" r="5.2"/>
	</g>
	<g transform="translate(433.9845,355.86)">
		<circle class="st4" cx="0" cy="0" r="5.2"/>
	</g>
	<g transform="translate(425.9133,355.86)">
		<circle class="st4" cx="0" cy="0" r="5.2"/>
	</g>
	<g transform="translate(541.8394,300.34)">
		<circle class="st4" cx="0" cy="0" r="5.2"/>
	</g>
	<g transform="translate(364.1354,369.74)">
		<circle class="st4" cx="0" cy="0" r="5.2"/>
	</g>
	<g transform="translate(220.5073,369.74)">
		<circle class="st4" cx="0" cy="0" r="5.2"/>
	</g>
	<g transform="translate(289.0774,369.74)">
		<circle class="st4" cx="0" cy="0" r="5.2"/>
	</g>
	<g transform="translate(325.1703,300.34)">
		<circle class="st4" cx="0" cy="0" r="5.2"/>
	</g>
	<g transform="translate(248.0039,341.98)">
		<circle class="st4" cx="0" cy="0" r="5.2"/>
	</g>
	<g transform="translate(239.3113,369.74)">
		<circle class="st4" cx="0" cy="0" r="5.2"/>
	</g>
	<g transform="translate(110.5,369.74)">
		<circle class="st4" cx="0" cy="0" r="5.2"/>
	</g>
	<g transform="translate(362.7445,369.74)">
		<circle class="st4" cx="0" cy="0" r="5.2"/>
	</g>
	<g transform="translate(260.9483,355.86)">
		<circle class="st4" cx="0" cy="0" r="5.2"/>
	</g>
	<g transform="translate(292.0402,369.74)">
		<circle class="st4" cx="0" cy="0" r="5.2"/>
	</g>
	<g transform="translate(254.6773,341.98)">
		<circle class="st4" cx="0" cy="0" r="5.2"/>
	</g>
	<g transform="translate(234.9483,369.74)">
		<circle class="st4" cx="0" cy="0" r="5.2"/>
	</g>
	<g transform="translate(413.2957,272.58)">
		<circle class="st4" cx="0" cy="0" r="5.2"/>
	</g>
	<g transform="translate(269.362,355.86)">
		<circle class="st4" cx="0" cy="0" r="5.2"/>
	</g>
	<g transform="translate(313.1736,328.1)">
		<circle class="st4" cx="0" cy="0" r="5.2"/>
	</g>
	<g transform="translate(269.1123,300.34)">
		<circle class="st4" cx="0" cy="0" r="5.2"/>
	</g>
	<g transform="translate(302.15,369.74)">
		<circle class="st4" cx="0" cy="0" r="5.2"/>
	</g>
	<g transform="translate(245.8946,355.86)">
		<circle class="st4" cx="0" cy="0" r="5.2"/>
	</g>
	<g transform="translate(203.7681,369.74)">
		<circle class="st4" cx="0" cy="0" r="5.2"/>
	</g>
	<g transform="translate(339.866,203.18)">
		<circle class="st4" cx="0" cy="0" r="5.2"/>
	</g>
	<g transform="translate(376.0056,217.06)">
		<circle class="st4" cx="0" cy="0" r="5.2"/>
	</g>
	<g transform="translate(246.0082,355.86)">
		<circle class="st4" cx="0" cy="0" r="5.2"/>
	</g>
	<g transform="translate(314.9752,369.74)">
		<circle class="st4" cx="0" cy="0" r="5.2"/>
	</g>
	<g transform="translate(242.0264,369.74)">
		<circle class="st4" cx="0" cy="0" r="5.2"/>
	</g>
	<g transform="translate(231.3682,369.74)">
		<circle class="st4" cx="0" cy="0" r="5.2"/>
	</g>
	<g transform="translate(292.2967,355.86)">
		<circle class="st4" cx="0" cy="0" r="5.2"/>
	</g>
	<g transform="translate(197.9561,300.34)">
		<circle class="st4" cx="0" cy="0" r="5.2"/>
	</g>
	<g transform="translate(293.7033,300.34)">
		<circle class="st4" cx="0" cy="0" r="5.2"/>
	</g>
	<g transform="translate(441.4734,286.46)">
		<circle class="st4" cx="0" cy="0" r="5.2"/>
	</g>
	<g transform="translate(233.8129,355.86)">
		<circle class="st4" cx="0" cy="0" r="5.2"/>
	</g>
	<g transform="translate(308.2242,341.98)">
		<circle class="st4" cx="0" cy="0" r="5.2"/>
	</g>
	<g transform="translate(369.6046,314.22)">
		<circle class="st4" cx="0" cy="0" r="5.2"/>
	</g>
	<g transform="translate(244.0027,355.86)">
		<circle class="st4" cx="0" cy="0" r="5.2"/>
	</g>
	<g transform="translate(192.8448,369.74)">
		<circle class="st4" cx="0" cy="0" r="5.2"/>
	</g>
	<g transform="translate(291.4854,341.98)">
		<circle class="st4" cx="0" cy="0" r="5.2"/>
	</g>
	<g transform="translate(499.4545,355.86)">
		<circle class="st4" cx="0" cy="0" r="5.2"/>
	</g>
	<g transform="translate(406.912,355.86)">
		<circle class="st4" cx="0" cy="0" r="5.2"/>
	</g>
	<g transform="translate(302.0792,355.86)">
		<circle class="st4" cx="0" cy="0" r="5.2"/>
	</g>
	<g transform="translate(426.6931,341.98)">
		<circle class="st4" cx="0" cy="0" r="5.2"/>
	</g>
	<g transform="translate(377.3541,355.86)">
		<circle class="st4" cx="0" cy="0" r="5.2"/>
	</g>
	<g transform="translate(253.806,355.86)">
		<circle class="st4" cx="0" cy="0" r="5.2"/>
	</g>
	<g transform="translate(629.1356,341.98)">
		<circle class="st4" cx="0" cy="0" r="5.2"/>
	</g>
	<g transform="translate(433.8398,314.22)">
		<circle class="st4" cx="0" cy="0" r="5.2"/>
	</g>
	<g transform="translate(211.2726,369.74)">
		<circle class="st4" cx="0" cy="0" r="5.2"/>
	</g>
	<g transform="translate(415.2125,369.74)">
		<circle class="st4" cx="0" cy="0" r="5.2"/>
	</g>
	<g transform="translate(481.9737,369.74)">
		<circle class="st4" cx="0" cy="0" r="5.2"/>
	</g>
	<g transform="translate(449.119,328.1)">
		<circle class="st4" cx="0" cy="0" r="5.2"/>
	</g>
	<g transform="translate(121.1789,369.74)">
		<circle class="st4" cx="0" cy="0" r="5.2"/>
	</g>
	<g transform="translate(428.15,355.86)">
		<circle class="st4" cx="0" cy="0" r="5.2"/>
	</g>
	<g transform="translate(442.2919,369.74)">
		<circle class="st4" cx="0" cy="0" r="5.2"/>
	</g>
	<g transform="translate(188.162,369.74)">
		<circle class="st4" cx="0" cy="0" r="5.2"/>
	</g>
	<g transform="translate(325.839,369.74)">
		<circle class="st4" cx="0" cy="0" r="5.2"/>
	</g>
	<g transform="translate(295.3917,369.74)">
		<circle class="st4" cx="0" cy="0" r="5.2"/>
	</g>
	<g transform="translate(437.1623,355.86)">
		<circle class="st4" cx="0" cy="0" r="5.2"/>
	</g>
	<g transform="translate(602.5986,258.7)">
		<circle class="st4" cx="0" cy="0" r="5.2"/>
	</g>
	<g transform="translate(508.4661,355.86)">
		<circle class="st4" cx="0" cy="0" r="5.2"/>
	</g>
	<g transform="translate(452.157,328.1)">
		<circle class="st4" cx="0" cy="0" r="5.2"/>
	</g>
	<g transform="translate(548.2728,314.22)">
		<circle class="st4" cx="0" cy="0" r="5.2"/>
	</g>
	<g transform="translate(508.4441,300.34)">
		<circle class="st4" cx="0" cy="0" r="5.2"/>
	</g>
	<g transform="translate(505.9615,355.86)">
		<circle class="st4" cx="0" cy="0" r="5.2"/>
	</g>
	<g transform="translate(339.7586,369.74)">
		<circle class="st4" cx="0" cy="0" r="5.2"/>
	</g>
	<g transform="translate(404.5855,355.86)">
		<circle class="st4" cx="0" cy="0" r="5.2"/>
	</g>
	<g transform="translate(565.1998,355.86)">
		<circle class="st4" cx="0" cy="0" r="5.2"/>
	</g>
	<g transform="translate(518.035,355.86)">
		<circle class="st4" cx="0" cy="0" r="5.2"/>
	</g>
	<g transform="translate(376.4724,369.74)">
		<circle class="st4" cx="0" cy="0" r="5.2"/>
	</g>
	<g transform="translate(559.1545,355.86)">
		<circle class="st4" cx="0" cy="0" r="5.2"/>
	</g>
	<g transform="translate(593.0977,328.1)">
		<circle class="st4" cx="0" cy="0" r="5.2"/>
	</g>
	<g transform="translate(277.6412,341.98)">
		<circle class="st4" cx="0" cy="0" r="5.2"/>
	</g>
	<g transform="translate(499.1432,355.86)">
		<circle class="st4" cx="0" cy="0" r="5.2"/>
	</g>
	<g transform="translate(389.5494,341.98)">
		<circle class="st4" cx="0" cy="0" r="5.2"/>
	</g>
	<g transform="translate(138.2728,369.74)">
		<circle class="st4" cx="0" cy="0" r="5.2"/>
	</g>
	<g transform="translate(257.6361,355.86)">
		<circle class="st4" cx="0" cy="0" r="5.2"/>
	</g>
	<g transform="translate(501.5318,328.1)">
		<circle class="st4" cx="0" cy="0" r="5.2"/>
	</g>
	<g transform="translate(502.1399,341.98)">
		<circle class="st4" cx="0" cy="0" r="5.2"/>
	</g>
	<g transform="translate(165.7025,355.86)">
		<circle class="st4" cx="0" cy="0" r="5.2"/>
	</g>
	<g transform="translate(449.5442,341.98)">
		<circle class="st4" cx="0" cy="0" r="5.2"/>
	</g>
	<g transform="translate(714.6208,189.3)">
		<circle class="st4" cx="0" cy="0" r="5.2"/>
	</g>
	<g transform="translate(363.9365,369.74)">
		<circle class="st4" cx="0" cy="0" r="5.2"/>
	</g>
	<g transform="translate(627.116,355.86)">
		<circle class="st4" cx="0" cy="0" r="5.2"/>
	</g>
	<g transform="translate(711.1681,50.5)">
		<circle class="st4" cx="0" cy="0" r="5.2"/>
	</g>
	<g transform="translate(198.6691,369.74)">
		<circle class="st4" cx="0" cy="0" r="5.2"/>
	</g>
	<g transform="translate(444.0838,369.74)">
		<circle class="st4" cx="0" cy="0" r="5.2"/>
	</g>
	<g transform="translate(449.0077,355.86)">
		<circle class="st4" cx="0" cy="0" r="5.2"/>
	</g>
	<g transform="translate(289.6992,355.86)">
		<circle class="st4" cx="0" cy="0" r="5.2"/>
	</g>
	<g transform="translate(373.6831,369.74)">
		<circle class="st4" cx="0" cy="0" r="5.2"/>
	</g>
	<g transform="translate(453.1774,203.18)">
		<circle class="st4" cx="0" cy="0" r="5.2"/>
	</g>
	<g transform="translate(539.4117,369.74)">
		<circle class="st4" cx="0" cy="0" r="5.2"/>
	</g>
	<g transform="translate(508.7389,286.46)">
		<circle class="st4" cx="0" cy="0" r="5.2"/>
	</g>
	<g transform="translate(523.9896,355.86)">
		<circle class="st4" cx="0" cy="0" r="5.2"/>
	</g>
	<g transform="translate(545.3,314.22)">
		<circle class="st4" cx="0" cy="0" r="5.2"/>
	</g>
	<g transform="translate(224.0708,355.86)">
		<circle class="st4" cx="0" cy="0" r="5.2"/>
	</g>
	<g transform="translate(415.3469,328.1)">
		<circle class="st4" cx="0" cy="0" r="5.2"/>
	</g>
	<g transform="translate(262.4336,300.34)">
		<circle class="st4" cx="0" cy="0" r="5.2"/>
	</g>
	<g transform="translate(399.0094,369.74)">
		<circle class="st4" cx="0" cy="0" r="5.2"/>
	</g>
	<g transform="translate(474.7586,369.74)">
		<circle class="st4" cx="0" cy="0" r="5.2"/>
	</g>
	<g transform="translate(360.5241,369.74)">
		<circle class="st4" cx="0" cy="0" r="5.2"/>
	</g>
	<g transform="translate(269.2245,355.86)">
		<circle class="st4" cx="0" cy="0" r="5.2"/>
	</g>
	<g transform="translate(387.2091,314.22)">
		<circle class="st4" cx="0" cy="0" r="5.2"/>
	</g>
	<g transform="translate(375.8736,369.74)">
		<circle class="st4" cx="0" cy="0" r="5.2"/>
	</g>
	<g transform="translate(446.4222,369.74)">
		<circle class="st4" cx="0" cy="0" r="5.2"/>
	</g>
	<g transform="translate(709.0176,328.1)">
		<circle class="st4" cx="0" cy="0" r="5.2"/>
	</g>
	<g transform="translate(541.1797,369.74)">
		<circle class="st4" cx="0" cy="0" r="5.2"/>
	</g>
	<g transform="translate(260.0464,369.74)">
		<circle class="st4" cx="0" cy="0" r="5.2"/>
	</g>
	<g transform="translate(544.5941,355.86)">
		<circle class="st4" cx="0" cy="0" r="5.2"/>
	</g>
	<g transform="translate(220.9766,369.74)">
		<circle class="st4" cx="0" cy="0" r="5.2"/>
	</g>
	<g transform="translate(424.2455,355.86)">
		<circle class="st4" cx="0" cy="0" r="5.2"/>
	</g>
	<g transform="translate(497.872,355.86)">
		<circle class="st4" cx="0" cy="0" r="5.2"/>
	</g>
	<g transform="translate(339.2219,328.1)">
		<circle class="st4" cx="0" cy="0" r="5.2"/>
	</g>
	<g transform="translate(330.0152,341.98)">
		<circle class="st4" cx="0" cy="0" r="5.2"/>
	</g>
	<g transform="translate(230.6998,355.86)">
		<circle class="st4" cx="0" cy="0" r="5.2"/>
	</g>
	<g transform="translate(488.745,369.74)">
		<circle class="st4" cx="0" cy="0" r="5.2"/>
	</g>
	<g transform="translate(461.3099,147.66)">
		<circle class="st4" cx="0" cy="0" r="5.2"/>
	</g>
	<g transform="translate(522.2516,203.18)">
		<circle class="st4" cx="0" cy="0" r="5.2"/>
	</g>
	<g transform="translate(495.5062,300.34)">
		<circle class="st4" cx="0" cy="0" r="5.2"/>
	</g>
	<g transform="translate(300.9828,341.98)">
		<circle class="st4" cx="0" cy="0" r="5.2"/>
	</g>
	<g transform="translate(260.409,341.98)">
		<circle class="st4" cx="0" cy="0" r="5.2"/>
	</g>
	<g transform="translate(376.0361,341.98)">
		<circle class="st4" cx="0" cy="0" r="5.2"/>
	</g>
	<g transform="translate(564.2125,355.86)">
		<circle class="st4" cx="0" cy="0" r="5.2"/>
	</g>
	<g transform="translate(553.8145,133.78)">
		<circle class="st4" cx="0" cy="0" r="5.2"/>
	</g>
	<g transform="translate(628.7359,78.26)">
		<circle class="st4" cx="0" cy="0" r="5.2"/>
	</g>
	<g transform="translate(402.9043,341.98)">
		<circle class="st4" cx="0" cy="0" r="5.2"/>
	</g>
	<g transform="translate(490.8513,341.98)">
		<circle class="st4" cx="0" cy="0" r="5.2"/>
	</g>
	<g transform="translate(245.2475,355.86)">
		<circle class="st4" cx="0" cy="0" r="5.2"/>
	</g>
	<g transform="translate(525.8303,328.1)">
		<circle class="st4" cx="0" cy="0" r="5.2"/>
	</g>
	<g transform="translate(391.2405,355.86)">
		<circle class="st4" cx="0" cy="0" r="5.2"/>
	</g>
	<g transform="translate(472.408,341.98)">
		<circle class="st4" cx="0" cy="0" r="5.2"/>
	</g>
	<g transform="translate(439.11,300.34)">
		<circle class="st4" cx="0" cy="0" r="5.2"/>
	</g>
	<g transform="translate(507.4891,355.86)">
		<circle class="st4" cx="0" cy="0" r="5.2"/>
	</g>
	<g transform="translate(430.8796,369.74)">
		<circle class="st4" cx="0" cy="0" r="5.2"/>
	</g>
	<g transform="translate(418.1127,355.86)">
		<circle class="st4" cx="0" cy="0" r="5.2"/>
	</g>
	<g transform="translate(318.5809,355.86)">
		<circle class="st4" cx="0" cy="0" r="5.2"/>
	</g>
	<g transform="translate(261.7287,369.74)">
		<circle class="st4" cx="0" cy="0" r="5.2"/>
	</g>
	<g transform="translate(447.79,286.46)">
		<circle class="st4" cx="0" cy="0" r="5.2"/>
	</g>
	<g transform="translate(542.0648,314.22)">
		<circle class="st4" cx="0" cy="0" r="5.2"/>
	</g>
	<g transform="translate(555.7112,369.74)">
		<circle class="st4" cx="0" cy="0" r="5.2"/>
	</g>
	<g transform="translate(288.9243,355.86)">
		<circle class="st4" cx="0" cy="0" r="5.2"/>
	</g>
	<g transform="translate(280.3336,355.86)">
		<circle class="st4" cx="0" cy="0" r="5.2"/>
	</g>
	<g transform="translate(620.1107,203.18)">
		<circle class="st4" cx="0" cy="0" r="5.2"/>
	</g>
	<g transform="translate(272.5032,328.1)">
		<circle class="st4" cx="0" cy="0" r="5.2"/>
	</g>
	<g transform="translate(305.0048,341.98)">
		<circle class="st4" cx="0" cy="0" r="5.2"/>
	</g>
	<g transform="translate(520.5253,341.98)">
		<circle class="st4" cx="0" cy="0" r="5.2"/>
	</g>
	<g transform="translate(465.44,369.74)">
		<circle class="st4" cx="0" cy="0" r="5.2"/>
	</g>
	<g transform="translate(482.3625,369.74)">
		<circle class="st4" cx="0" cy="0" r="5.2"/>
	</g>
	<g transform="translate(293.2454,355.86)">
		<circle class="st4" cx="0" cy="0" r="5.2"/>
	</g>
	<g transform="translate(267.2791,355.86)">
		<circle class="st4" cx="0" cy="0" r="5.2"/>
	</g>
	<g transform="translate(574.3488,355.86)">
		<circle class="st4" cx="0" cy="0" r="5.2"/>
	</g>
	<g transform="translate(331.7016,369.74)">
		<circle class="st4" cx="0" cy="0" r="5.2"/>
	</g>
	<g transform="translate(501.2025,355.86)">
		<circle class="st4" cx="0" cy="0" r="5.2"/>
	</g>
	<g transform="translate(541.5101,369.74)">
		<circle class="st4" cx="0" cy="0" r="5.2"/>
	</g>
	<g transform="translate(680.9498,300.34)">
		<circle class="st4" cx="0" cy="0" r="5.2"/>
	</g>
	<g transform="translate(440.0347,328.1)">
		<circle class="st4" cx="0" cy="0" r="5.2"/>
	</g>
	<g transform="translate(594.165,341.98)">
		<circle class="st4" cx="0" cy="0" r="5.2"/>
	</g>
	<g transform="translate(355.1575,355.86)">
		<circle class="st4" cx="0" cy="0" r="5.2"/>
	</g>
	<g transform="translate(749.6403,286.46)">
		<circle class="st4" cx="0" cy="0" r="5.2"/>
	</g>
	<g transform="translate(743.0755,355.86)">
		<circle class="st4" cx="0" cy="0" r="5.2"/>
	</g>
	<g transform="translate(423.6661,369.74)">
		<circle class="st4" cx="0" cy="0" r="5.2"/>
	</g>
	<g transform="translate(552.853,286.46)">
		<circle class="st4" cx="0" cy="0" r="5.2"/>
	</g>
	<g transform="translate(297.9406,369.74)">
		<circle class="st4" cx="0" cy="0" r="5.2"/>
	</g>
	<g transform="translate(427.4542,341.98)">
		<circle class="st4" cx="0" cy="0" r="5.2"/>
	</g>
	<g transform="translate(518.1245,369.74)">
		<circle class="st4" cx="0" cy="0" r="5.2"/>
	</g>
	<g transform="translate(459.8584,369.74)">
		<circle class="st4" cx="0" cy="0" r="5.2"/>
	</g>
	<g transform="translate(453.0086,355.86)">
		<circle class="st4" cx="0" cy="0" r="5.2"/>
	</g>
	<g transform="translate(414.7386,369.74)">
		<circle class="st4" cx="0" cy="0" r="5.2"/>
	</g>
	<g transform="translate(450.2202,341.98)">
		<circle class="st4" cx="0" cy="0" r="5.2"/>
	</g>
	<g transform="translate(452.8266,328.1)">
		<circle class="st4" cx="0" cy="0" r="5.2"/>
	</g>
	<g transform="translate(310.8339,355.86)">
		<circle class="st4" cx="0" cy="0" r="5.2"/>
	</g>
	<g transform="translate(355.7939,369.74)">
		<circle class="st4" cx="0" cy="0" r="5.2"/>
	</g>
	<g transform="translate(512.8505,355.86)">
		<circle class="st4" cx="0" cy="0" r="5.2"/>
	</g>
	<g transform="translate(146.0826,355.86)">
		<circle class="st4" cx="0" cy="0" r="5.2"/>
	</g>
	<g transform="translate(363.3101,314.22)">
		<circle class="st4" cx="0" cy="0" r="5.2"/>
	</g>
	<g transform="translate(365.6562,355.86)">
		<circle class="st4" cx="0" cy="0" r="5.2"/>
	</g>
	<g transform="translate(254.2663,355.86)">
		<circle class="st4" cx="0" cy="0" r="5.2"/>
	</g>
	<g transform="translate(589.2144,355.86)">
		<circle class="st4" cx="0" cy="0" r="5.2"/>
	</g>
	<g transform="translate(150.584,369.74)">
		<circle class="st4" cx="0" cy="0" r="5.2"/>
	</g>
	<g transform="translate(516.165,314.22)">
		<circle class="st4" cx="0" cy="0" r="5.2"/>
	</g>
	<g transform="translate(373.3024,369.74)">
		<circle class="st4" cx="0" cy="0" r="5.2"/>
	</g>
	<g transform="translate(339.6594,369.74)">
		<circle class="st4" cx="0" cy="0" r="5.2"/>
	</g>
	<g transform="translate(326.4024,369.74)">
		<circle class="st4" cx="0" cy="0" r="5.2"/>
	</g>
	<g transform="translate(262.4618,355.86)">
		<circle class="st4" cx="0" cy="0" r="5.2"/>
	</g>
	<g transform="translate(717.6383,300.34)">
		<circle class="st4" cx="0" cy="0" r="5.2"/>
	</g>
	<g transform="translate(152.1109,369.74)">
		<circle class="st4" cx="0" cy="0" r="5.2"/>
	</g>
	<g transform="translate(564.0559,355.86)">
		<circle class="st4" cx="0" cy="0" r="5.2"/>
	</g>
	<g transform="translate(504.5121,369.74)">
		<circle class="st4" cx="0" cy="0" r="5.2"/>
	</g>
	<g transform="translate(281.2956,369.74)">
		<circle class="st4" cx="0" cy="0" r="5.2"/>
	</g>
	<g transform="translate(392.398,369.74)">
		<circle class="st4" cx="0" cy="0" r="5.2"/>
	</g>
	<g transform="translate(511.1111,355.86)">
		<circle class="st4" cx="0" cy="0" r="5.2"/>
	</g>
	<g transform="translate(465.3817,355.86)">
		<circle class="st4" cx="0" cy="0" r="5.2"/>
	</g>
	<g transform="translate(452.0308,272.58)">
		<circle class="st4" cx="0" cy="0" r="5.2"/>
	</g>
	<g transform="translate(454.5793,369.74)">
		<circle class="st4" cx="0" cy="0" r="5.2"/>
	</g>
	<g transform="translate(352.8718,369.74)">
		<circle class="st4" cx="0" cy="0" r="5.2"/>
	</g>
	<g transform="translate(510.5547,328.1)">
		<circle class="st4" cx="0" cy="0" r="5.2"/>
	</g>
	<g transform="translate(478.4255,286.46)">
		<circle class="st4" cx="0" cy="0" r="5.2"/>
	</g>
	<g transform="translate(354.2429,369.74)">
		<circle class="st4" cx="0" cy="0" r="5.2"/>
	</g>
	<g transform="translate(513.6892,189.3)">
		<circle class="st4" cx="0" cy="0" r="5.2"/>
	</g>
	<g transform="translate(461.8749,328.1)">
		<circle class="st4" cx="0" cy="0" r="5.2"/>
	</g>
	<g transform="translate(484.5883,328.1)">
		<circle class="st4" cx="0" cy="0" r="5.2"/>
	</g>
	<g transform="translate(445.4059,272.58)">
		<circle class="st4" cx="0" cy="0" r="5.2"/>
	</g>
	<g transform="translate(426.5083,369.74)">
		<circle class="st4" cx="0" cy="0" r="5.2"/>
	</g>
	<g transform="translate(473.0487,355.86)">
		<circle class="st4" cx="0" cy="0" r="5.2"/>
	</g>
	<g transform="translate(452.2213,300.34)">
		<circle class="st4" cx="0" cy="0" r="5.2"/>
	</g>
	<g transform="translate(503.516,328.1)">
		<circle class="st4" cx="0" cy="0" r="5.2"/>
	</g>
	<g transform="translate(514.8732,244.82)">
		<circle class="st4" cx="0" cy="0" r="5.2"/>
	</g>
	<g transform="translate(530.8792,175.42)">
		<circle class="st4" cx="0" cy="0" r="5.2"/>
	</g>
	<g transform="translate(371.2224,355.86)">
		<circle class="st4" cx="0" cy="0" r="5.2"/>
	</g>
	<g transform="translate(432.5815,300.34)">
		<circle class="st4" cx="0" cy="0" r="5.2"/>
	</g>
	<g transform="translate(371.3931,355.86)">
		<circle class="st4" cx="0" cy="0" r="5.2"/>
	</g>
	<g transform="translate(243.2294,369.74)">
		<circle class="st4" cx="0" cy="0" r="5.2"/>
	</g>
	<g transform="translate(362.433,369.74)">
		<circle class="st4" cx="0" cy="0" r="5.2"/>
	</g>
	<g transform="translate(377.6012,369.74)">
		<circle class="st4" cx="0" cy="0" r="5.2"/>
	</g>
	<g transform="translate(412.4877,355.86)">
		<circle class="st4" cx="0" cy="0" r="5.2"/>
	</g>
	<g transform="translate(469.1247,258.7)">
		<circle class="st4" cx="0" cy="0" r="5.2"/>
	</g>
	<g transform="translate(249.0905,369.74)">
		<circle class="st4" cx="0" cy="0" r="5.2"/>
	</g>
	<g transform="translate(298.8758,355.86)">
		<circle class="st4" cx="0" cy="0" r="5.2"/>
	</g>
	<g transform="translate(323.7931,355.86)">
		<circle class="st4" cx="0" cy="0" r="5.2"/>
	</g>
	<g transform="translate(275.6273,369.74)">
		<circle class="st4" cx="0" cy="0" r="5.2"/>
	</g>
	<g transform="translate(364.5644,369.74)">
		<circle class="st4" cx="0" cy="0" r="5.2"/>
	</g>
	<g transform="translate(424.5329,369.74)">
		<circle class="st4" cx="0" cy="0" r="5.2"/>
	</g>
	<g transform="translate(422.2915,328.1)">
		<circle class="st4" cx="0" cy="0" r="5.2"/>
	</g>
	<g transform="translate(204.1247,369.74)">
		<circle class="st4" cx="0" cy="0" r="5.2"/>
	</g>
	<g transform="translate(471.013,230.94)">
		<circle class="st4" cx="0" cy="0" r="5.2"/>
	</g>
	<g transform="translate(352.1206,341.98)">
		<circle class="st4" cx="0" cy="0" r="5.2"/>
	</g>
	<g transform="translate(194.8745,369.74)">
		<circle class="st4" cx="0" cy="0" r="5.2"/>
	</g>
	<g transform="translate(516.7668,355.86)">
		<circle class="st4" cx="0" cy="0" r="5.2"/>
	</g>
	<g transform="translate(441.3604,369.74)">
		<circle class="st4" cx="0" cy="0" r="5.2"/>
	</g>
	<g transform="translate(278.9533,369.74)">
		<circle class="st4" cx="0" cy="0" r="5.2"/>
	</g>
	<g transform="translate(344.4053,369.74)">
		<circle class="st4" cx="0" cy="0" r="5.2"/>
	</g>
	<g transform="translate(480.088,369.74)">
		<circle class="st4" cx="0" cy="0" r="5.2"/>
	</g>
	<g transform="translate(580.3684,272.58)">
		<circle class="st4" cx="0" cy="0" r="5.2"/>
	</g>
	<g transform="translate(271.5479,369.74)">
		<circle class="st4" cx="0" cy="0" r="5.2"/>
	</g>
	<g transform="translate(274.6943,369.74)">
		<circle class="st4" cx="0" cy="0" r="5.2"/>
	</g>
	<g transform="translate(566.0222,341.98)">
		<circle class="st4" cx="0" cy="0" r="5.2"/>
	</g>
	<g transform="translate(731.9058,314.22)">
		<circle class="st4" cx="0" cy="0" r="5.2"/>
	</g>
	<g transform="translate(493.8463,314.22)">
		<circle class="st4" cx="0" cy="0" r="5.2"/>
	</g>
	<g transform="translate(409.6547,341.98)">
		<circle class="st4" cx="0" cy="0" r="5.2"/>
	</g>
	<g transform="translate(353.2548,355.86)">
		<circle class="st4" cx="0" cy="0" r="5.2"/>
	</g>
	<g transform="translate(244.3131,369.74)">
		<circle class="st4" cx="0" cy="0" r="5.2"/>
	</g>
	<g transform="translate(349.3063,300.34)">
		<circle class="st4" cx="0" cy="0" r="5.2"/>
	</g>
	<g transform="translate(467.3028,355.86)">
		<circle class="st4" cx="0" cy="0" r="5.2"/>
	</g>
	<g transform="translate(671.5996,300.34)">
		<circle class="st4" cx="0" cy="0" r="5.2"/>
	</g>
	<g transform="translate(512.4093,286.46)">
		<circle class="st4" cx="0" cy="0" r="5.2"/>
	</g>
	<g transform="translate(356.6749,369.74)">
		<circle class="st4" cx="0" cy="0" r="5.2"/>
	</g>
	<g transform="translate(451.8375,369.74)">
		<circle class="st4" cx="0" cy="0" r="5.2"/>
	</g>
	<g transform="translate(435.48,341.98)">
		<circle class="st4" cx="0" cy="0" r="5.2"/>
	</g>
	<g transform="translate(514.2972,355.86)">
		<circle class="st4" cx="0" cy="0" r="5.2"/>
	</g>
	<g transform="translate(414.4889,369.74)">
		<circle class="st4" cx="0" cy="0" r="5.2"/>
	</g>
	<g transform="translate(417.1067,341.98)">
		<circle class="st4" cx="0" cy="0" r="5.2"/>
	</g>
	<g transform="translate(311.1125,369.74)">
		<circle class="st4" cx="0" cy="0" r="5.2"/>
	</g>
	<g transform="translate(559.4725,300.34)">
		<circle class="st4" cx="0" cy="0" r="5.2"/>
	</g>
	<g transform="translate(564.789,314.22)">
		<circle class="st4" cx="0" cy="0" r="5.2"/>
	</g>
	<g transform="translate(368.4358,369.74)">
		<circle class="st4" cx="0" cy="0" r="5.2"/>
	</g>
	<g transform="translate(475.3027,355.86)">
		<circle class="st4" cx="0" cy="0" r="5.2"/>
	</g>
	<g transform="translate(466.5544,369.74)">
		<circle class="st4" cx="0" cy="0" r="5.2"/>
	</g>
	<g transform="translate(318.678,369.74)">
		<circle class="st4" cx="0" cy="0" r="5.2"/>
	</g>
	<g transform="translate(518.4097,355.86)">
		<circle class="st4" cx="0" cy="0" r="5.2"/>
	</g>
	<g transform="translate(542.2097,355.86)">
		<circle class="st4" cx="0" cy="0" r="5.2"/>
	</g>
	<g transform="translate(567.0367,300.34)">
		<circle class="st4" cx="0" cy="0" r="5.2"/>
	</g>
	<g transform="translate(545.864,369.74)">
		<circle class="st4" cx="0" cy="0" r="5.2"/>
	</g>
	<g transform="translate(505.0972,286.46)">
		<circle class="st4" cx="0" cy="0" r="5.2"/>
	</g>
	<g transform="translate(273.1522,341.98)">
		<circle class="st4" cx="0" cy="0" r="5.2"/>
	</g>
	<g transform="translate(584.1204,355.86)">
		<circle class="st4" cx="0" cy="0" r="5.2"/>
	</g>
	<g transform="translate(536.5274,355.86)">
		<circle class="st4" cx="0" cy="0" r="5.2"/>
	</g>
	<g transform="translate(574.6025,300.34)">
		<circle class="st4" cx="0" cy="0" r="5.2"/>
	</g>
	<g transform="translate(378.83,355.86)">
		<circle class="st4" cx="0" cy="0" r="5.2"/>
	</g>
	<g transform="translate(550.4918,369.74)">
		<circle class="st4" cx="0" cy="0" r="5.2"/>
	</g>
	<g transform="translate(288.9865,369.74)">
		<circle class="st4" cx="0" cy="0" r="5.2"/>
	</g>
	<g transform="translate(561.7502,341.98)">
		<circle class="st4" cx="0" cy="0" r="5.2"/>
	</g>
	<g transform="translate(650.6981,244.82)">
		<circle class="st4" cx="0" cy="0" r="5.2"/>
	</g>
	<g transform="translate(529.1662,355.86)">
		<circle class="st4" cx="0" cy="0" r="5.2"/>
	</g>
	<g transform="translate(231.7132,369.74)">
		<circle class="st4" cx="0" cy="0" r="5.2"/>
	</g>
	<g transform="translate(248.7408,369.74)">
		<circle class="st4" cx="0" cy="0" r="5.2"/>
	</g>
	<g transform="translate(341.7965,355.86)">
		<circle class="st4" cx="0" cy="0" r="5.2"/>
	</g>
	<g transform="translate(563.4358,272.58)">
		<circle class="st4" cx="0" cy="0" r="5.2"/>
	</g>
	<g transform="translate(574.3699,272.58)">
		<circle class="st4" cx="0" cy="0" r="5.2"/>
	</g>
	<g transform="translate(398.7552,369.74)">
		<circle class="st4" cx="0" cy="0" r="5.2"/>
	</g>
	<g transform="translate(365.4601,369.74)">
		<circle class="st4" cx="0" cy="0" r="5.2"/>
	</g>
	<g transform="translate(227.1956,369.74)">
		<circle class="st4" cx="0" cy="0" r="5.2"/>
	</g>
</g>
<text transform="matrix(-1.836970e-16 -1 1 -1.836970e-16 76.3647 297.3398)" class="st5 st6">Number of Synapses</text>
<g>
	<line class="st7" x1="110.2" y1="544.3" x2="769.1" y2="544.3"/>
	<line class="st7" x1="110.2" y1="544.3" x2="110.2" y2="537.7"/>
	<line class="st7" x1="204.3" y1="544.3" x2="204.3" y2="537.7"/>
	<line class="st7" x1="298.5" y1="544.3" x2="298.5" y2="537.7"/>
	<line class="st7" x1="392.6" y1="544.3" x2="392.6" y2="537.7"/>
	<line class="st7" x1="486.7" y1="544.3" x2="486.7" y2="537.7"/>
	<line class="st7" x1="580.8" y1="544.3" x2="580.8" y2="537.7"/>
	<line class="st7" x1="675" y1="544.3" x2="675" y2="537.7"/>
	<line class="st7" x1="769.1" y1="544.3" x2="769.1" y2="537.7"/>
</g>
<g transform="translate(73,378)">
	<text transform="matrix(1 0 0 1 32.6614 187.5341)" class="st0 st1 st8">0</text>
</g>
<g transform="translate(135,378)">
	<text transform="matrix(1 0 0 1 58.7151 187.5341)" class="st0 st1 st8">0.1</text>
</g>
<g transform="translate(197,378)">
	<text transform="matrix(1 0 0 1 90.8421 187.5341)" class="st0 st1 st8">0.2</text>
</g>
<g transform="translate(259,378)">
	<text transform="matrix(1 0 0 1 122.9685 187.5341)" class="st0 st1 st8">0.3</text>
</g>
<g transform="translate(321,378)">
	<text transform="matrix(1 0 0 1 155.095 187.5341)" class="st0 st1 st8">0.4</text>
</g>
<g transform="translate(383,378)">
	<text transform="matrix(1 0 0 1 187.222 187.5341)" class="st0 st1 st8">0.5</text>
</g>
<g transform="translate(445,378)">
	<text transform="matrix(1 0 0 1 219.3489 187.5341)" class="st0 st1 st8">0.6</text>
</g>
<g transform="translate(507,378)">
	<text transform="matrix(1 0 0 1 251.4749 187.5341)" class="st0 st1 st8">0.7</text>
</g>
<g>
	<line class="st7" x1="110.2" y1="544.3" x2="110.2" y2="406.1"/>
	<line class="st7" x1="110.2" y1="544.3" x2="116.8" y2="544.3"/>
	<line class="st7" x1="110.2" y1="509.7" x2="116.8" y2="509.7"/>
	<line class="st7" x1="110.2" y1="475.2" x2="116.8" y2="475.2"/>
	<line class="st7" x1="110.2" y1="440.7" x2="116.8" y2="440.7"/>
	<line class="st7" x1="110.2" y1="406.1" x2="116.8" y2="406.1"/>
</g>
<g transform="translate(69,374)">
	<text transform="matrix(1 0 0 1 26.034 175.5937)" class="st0 st1 st8">0</text>
</g>
<g transform="translate(69,351.25)">
	<text transform="matrix(1 0 0 1 13.8885 163.8056)" class="st0 st1 st8">0.2</text>
</g>
<g transform="translate(69,328.5)">
	<text transform="matrix(1 0 0 1 13.8885 152.0156)" class="st0 st1 st8">0.4</text>
</g>
<g transform="translate(69,305.75)">
	<text transform="matrix(1 0 0 1 13.8885 140.2275)" class="st0 st1 st8">0.6</text>
</g>
<g transform="translate(69,283)">
	<text transform="matrix(1 0 0 1 13.8885 128.4394)" class="st0 st1 st8">0.8</text>
</g>
<g>
	<path class="st9" d="M157.3,544.3V408.4h-47.1v135.9H157.3z M204.3,544.3v-13h-47.1v13H204.3z M251.4,544.3v-8h-47.1v8H251.4z
		 M298.5,544.3v-5.2h-47.1v5.2H298.5z M345.5,544.3v-3.5h-47.1v3.5H345.5z M392.6,544.3v-2.6h-47.1v2.6H392.6z M439.7,544.3v-1.9
		h-47.1v1.9H439.7z M486.7,544.3v-1h-47.1v1H486.7z M533.8,544.3v-0.8h-47.1v0.8H533.8z M580.8,544.3v-0.4h-47.1v0.4H580.8z
		 M627.9,544.3v-0.2h-47.1v0.2H627.9z M675,544.3L675,544.3l-47.1-0.1v0.1H675z M722,544.3L722,544.3l-47.1-0.1v0.1H722z
		 M769.1,544.3L769.1,544.3l-47.1,0v0H769.1z"/>
</g>
<g>
	<path class="st10" d="M110.2,544.3V408.4h47.1v135.9l0,0"/>
	<path class="st10" d="M157.3,531.3h47.1v13l0,0"/>
	<path class="st10" d="M204.3,536.3h47.1v8l0,0"/>
	<path class="st10" d="M251.4,539.1h47.1v5.2l0,0"/>
	<path class="st10" d="M298.5,540.8h47.1v3.5l0,0"/>
	<path class="st10" d="M345.5,541.7h47.1v2.6l0,0"/>
	<path class="st10" d="M392.6,542.4h47.1v1.9l0,0"/>
	<path class="st10" d="M439.7,543.3h47.1v1l0,0"/>
	<path class="st10" d="M486.7,543.5h47.1v0.8l0,0"/>
	<path class="st10" d="M533.8,543.9h47.1v0.4l0,0"/>
	<path class="st10" d="M580.8,544.1h47.1v0.2l0,0"/>
	<path class="st10" d="M627.9,544.2H675v0.1l0,0"/>
	<path class="st10" d="M675,544.2H722v0.1l0,0"/>
	<path class="st10" d="M722,544.3h47.1v0"/>
</g>
<text transform="matrix(1 0 0 1 370.9062 586.8186)" class="st5 st6">Synapse Similarity</text>
<text transform="matrix(6.123234e-17 -1 1 6.123234e-17 76.3645 555.3881)" class="st5 st6">Fraction of unconnected</text>
</svg>
